<?xml version="1.0" encoding="utf-8"?>
<!-- Generator: Adobe Illustrator 18.1.1, SVG Export Plug-In . SVG Version: 6.00 Build 0)  -->
<svg version="1.1" id="Layer_1" xmlns="http://www.w3.org/2000/svg" xmlns:xlink="http://www.w3.org/1999/xlink" x="0px" y="0px"
	 viewBox="0 0 190 93.9" enable-background="new 0 0 190 93.9" xml:space="preserve">
<rect x="0" y="28.3" fill="#333333" width="190" height="65.7"/>
<g>
	<g>
		<path fill="#B3B3B3" d="M134.7,71.1l-4.3-11h-3.6l6,14.5c0.1-0.1,0.1-0.3,0.2-0.4C133.3,73.8,133.9,73.1,134.7,71.1z"/>
		<path fill="#B3B3B3" d="M132.9,74.5c-0.5,1.2-1.1,1.9-2.5,1.9h-1.8v3.3h1.8c2.6,0,4-1.4,4.8-2.6l-1.1,0.4L132.9,74.5z"/>
		<path fill="#B3B3B3" d="M142,60.1h-3.5c-1.1,2.8-2.6,7.9-3.8,11l1.8,3.5C137.7,71.4,141.3,62,142,60.1z"/>
		<path fill="#B3B3B3" d="M136.5,74.5l-1.8-3.5c-0.8,2.1-1.5,2.7-1.6,3.1c-0.1,0.1-0.1,0.3-0.2,0.4l1.3,3l1.1-0.4
			c0.4-0.6,0.7-1.2,0.9-1.7C136.2,75.3,136.3,75,136.5,74.5z"/>
	</g>
	<path fill="#B3B3B3" d="M83.9,69c0.6,2,1.6,3.4,3.7,3.4c1.5,0,3-0.7,4.1-2l2.3,2.3c-1.6,1.8-4,2.9-6.4,2.9c-4.6,0-7.5-3.7-7.5-8.1
		s2.9-8.1,7.5-8.1c4.6,0,7.5,3.7,7.5,8.1V69H83.9z M83.9,66.5h7.3c-0.3-2-1.2-4-3.7-4C85.1,62.6,84.2,64.5,83.9,66.5z"/>
	<path fill="#B3B3B3" d="M107,75v-7.5c0-2.4-0.7-4.9-3-4.9c-1.3,0-2.5,0.7-3.5,2.8V75h-3.2V60.1h3.2v1c1.1-1.1,2.5-1.7,3.5-1.7
		c4.6,0,6.3,3.1,6.3,7.5V75H107z"/>
	<path fill="#B3B3B3" d="M120,75.6c-4.4,0-7.6-3.6-7.6-8s3.2-8.1,7.6-8.1c2.8,0,4.5,1.1,5.9,2.7l-2.1,2.4c-1-1.1-2.1-1.9-3.8-1.9
		c-2.5,0-4.2,2.2-4.2,5c0,2.8,1.8,5,4.4,5c1.6,0,2.8-0.8,3.8-1.9l2,2.1C124.6,74.4,122.9,75.6,120,75.6z"/>
	<path fill="#B3B3B3" d="M57.6,75v-0.7c-0.8,0.9-2.2,1.4-3.8,1.4c-3.3,0-5.8-2.1-5.8-5c0-3.8,3.3-5,6.6-5c1.3,0,2.4,0.2,3,0.3v-0.9
		c0-1.6-2-2.6-3.1-2.6c-1.7,0-2.7,0.3-3.7,1.2l-2.2-2.5c1.8-1.4,3.8-1.9,5.9-1.9c4.5,0,6.4,2.9,6.4,6V75H57.6z M57.6,69.1
		c-0.6-0.2-1.7-0.4-3.1-0.4c-2.2,0-3.2,0.8-3.2,2c0,0.6,1,1.9,2.6,1.9c1.5,0,3-0.6,3.8-2.4V69.1z"/>
	<g>
		<path fill="#B3B3B3" d="M78.7,59.5H70v0c0,0,0,0,0,0h0c-2.1,0-3.9,0.8-5.3,2.4c-1.3,1.4-2,3.3-2,5.3c0,4.2,3.3,7.6,7.3,7.6
			c0,0,0.1,0,0.1,0c1.1,0,2,0.4,2.7,1.1c0.7,0.7,1,1.6,1,2.7c0,1-0.4,1.9-1.1,2.6c-0.5,0.5-1.4,1.1-2.7,1.1h-2.4v3.5h2.3v0h0
			c0,0,0,0,0,0h0.2v0c1.9-0.1,3.7-0.8,5-2.2c1.3-1.4,2-3.2,2-5.1c0-2-0.7-3.8-2.1-5.2c-0.1-0.1-0.3-0.3-0.5-0.4
			c0.2-0.2,0.4-0.4,0.6-0.6c1.3-1.4,2-3.3,2-5.2c0-1.5-0.4-2.9-1.1-4.1h2.6V59.5z M70,71.5c-1.4,0-3.9-1.2-3.9-4.4
			c0-3.8,2.7-4.7,3.9-4.7c2.4,0,3.7,2.5,3.7,4.7C73.8,69,72.5,71.5,70,71.5z"/>
	</g>
</g>
<g>
	<path fill="#B3B3B3" d="M94.9,0C82.3,0,72,10.3,72,23s10.3,23,23,23s23-10.3,23-23S107.6,0,94.9,0z"/>
	<path fill="#231F20" d="M95,4.7c-10.2,0-18.5,8.3-18.5,18.5c0,10.2,8.3,18.5,18.5,18.5s18.5-8.3,18.5-18.5
		C113.5,13,105.2,4.7,95,4.7z M95,8.7c8,0,14.5,6.6,14.5,14.6c0,1.9-0.4,3.6-1.1,5.6h-5.8v-8.7c0-3.9-2.1-7.6-7.8-7.6
		c-2.7,0-5,0.6-7.3,2.4l2.9,3.1c1.3-1.1,2.3-1.5,4.4-1.5c1.4,0,3.7,1.2,3.7,3.2v1.1c0-0.2-2.1-0.4-3.8-0.4c-4.1,0-8.2,1.6-8.2,6.3
		c0,0.6,0,1.1,0,2.1h-5c-0.7-2-1.1-3.7-1.1-5.6C80.5,15.3,87,8.7,95,8.7z M91,26.9c0-1.5,1-2.6,3.8-2.6c1.8,0,3.8,0.2,3.8,0.4v4.2
		H91C91,27.9,91,27.2,91,26.9z M95,37.9c-4.4,0-8.3-2.1-11-5.1H106C103.3,35.9,99.4,37.9,95,37.9z"/>
</g>
</svg>
