<?xml version="1.0" encoding="utf-8"?>
<!-- Generator: Adobe Illustrator 18.1.1, SVG Export Plug-In . SVG Version: 6.00 Build 0)  -->
<svg version="1.1" id="Layer_1" xmlns="http://www.w3.org/2000/svg" xmlns:xlink="http://www.w3.org/1999/xlink" x="0px" y="0px"
	 viewBox="370 130 300 300" enable-background="new 370 130 300 300" xml:space="preserve">
<path fill="#0E3CA5" d="M607.2,162l-2.1,1l-3.3,0.8l-3.4,1.9l-1.7,0.5l-1.6,2.9l-0.8,0.6l-0.1,1.5l0.9-0.1l1.7,0.1l0.3,1.1l0.6,0.9
	l-0.1,2.3l-1.7,2l-1.2,4.4l-0.5,2.3l-0.8,2.5l0.9,1.5l-0.8,1.6l-1.8,0.4l-1.9,2.3l-1.5,1.1l-2.5-0.1l-2.6-1l-2.1,6.5l0.3,1l-0.6,0.9
	l-0.3,2.7l-1.1,1l0.9,1.9l1.3,1l1-1.1l3.6-0.8l1.9,0.9l1.2-2.2l3.1-0.6l1.8,1.1l1.3,0.2l0.8,1.3l2.7,1.6l1.5,2.9l-1,1.1l-1.7,0.4
	l-2.2-0.5l-0.9,0.5l-1.4-0.2l-2.6,2.1l-1.2-0.3l-0.4,1.3l-2.1,0.3l-1.6,1.6l-0.8,2l0,1.3l-2.4,2.5l-4.5,0.6l-0.8,1.6l-3.4,3.3
	l-4.7-0.2l-1.1-0.9l-2.8-0.1L563,232l3.1,3.8l-1,0.8l-0.9,1l-2.2,1.2l-3.2,4.3l-4.3,2.3l-5.9,0.5l-1.9,0.5l-2.4-0.3l-0.9,0.8
	l-2.6,0.7l-4.1,2.1l-4.2,2.7L531,252l-1-1.3l-1.9,0.5l-5.3-1.4l-4-1l-1.7-2l-8.3-1.4l-4.5,0.8l-5-0.9l-4.2-0.3l-4.2-1l-2.3-3.1
	l-1.6-5.4l-1-0.6l0-1.3l-2.2-0.6l-3.9-2.8l-2.3-2.2l-8.2-1.2l-2.2-1.2l-1.6-0.3l-0.8-0.9l0.2-2.1l1.8-2.5l-0.4-2l0.8-1l0.1-1.6
	l-1.7-3.2l-0.5-2.7l-1.5-2.3l-0.8,0.2l-1.6-1.7l-0.9,0.3l-1.2,0l-0.6-0.8l-1-2.2l-2.1-1.4l0-0.8l-1-1.7l0.5-0.8l-0.1-1.2l-1.4,0.3
	l-1.4-0.6l-1.7,0.3l-0.2,1.4l-0.7,1.6l-2.2,1l-2.1-0.4l-1.7,3.9l0.2,3.1l-0.5,1.6l-1.9,0.4l-1.8,0.9l-0.7-0.8l-1.3-0.7l-1.7-0.1
	l-4-2.3l-0.6,1.5l-3.2,5.5l-1.6,3.3l1.3,1.3l-0.9,1.7l-1.1-0.7l-1.7,0l-1.2-1.5l-3.3,0.6h-4.4l-1.1,0.9l2.4,1.4l-0.6,1l-0.8,3l0.8,4
	l-0.3,1.2l0.2,1.3l-1.7,0.5l-0.1,1.2l-1.7,0.7l-0.1,1.5l-0.7,3l-1.3-0.4l-1.1,0.7l-2.7,0.4l-4.2,1.2l-2.4,2l-3.2-0.3l-2.8-1.1
	l-2.2,2.5l-1.6,1.2l-1.3-0.5l-1.6,0.1l-0.7-2.3l-1.7,0.6l-2-0.7l-0.1,0.7l-2.7,0.9l-1.7-0.3l-1.2,1l-0.3,2.3l-1.4,0.3l-0.6,1.2
	l0.6,1.9l-0.9,0.4l0.4,2.7l1.5-0.8l3,1.9l-0.7,1.9l0.2,1.4l-0.2,3.1l0,1.5l-3.4,0l-0.1,1l1.8,1.2l2.1,0.5l0.5,1.6l1.5,0.6l0.4,2.6
	l-0.6,1.7l0.9,2l1.4,0.3l1.9,2.2l4.3,2l0.3,0l0,0l0.2,0l0.5,0l0.2,0.4l-0.4,0.6l-0.2,0.5l0.3,1.3l0,0.5l-0.1,0.7l0.2,0.5l0.1,0.8
	l-0.1,0.4l0.3,0.7l0.6,0.3l1,0.4l0.4,0.5l0.2,0.4l0.6,0.3l0.2,0.4l-0.1,0.7l-0.4,0.3l-1.2,0.2l-0.1,0.6l0,0.6l0.1,0.7l-0.1,0.5
	l-0.3,1.1l0.2,0.8l0,0.1l0.1,0.1l0,0.1l0.1,0.1v0l1.5,1.8l0,0.1l-0.5-0.2l-0.2,0.4l-0.2,0.3l-0.1,0.3l0.1,0.3l0.2,0.1l0.2,0.6
	l-0.2,0.4l-0.2,0.1l0.1,0.3l0,0.3l-0.2,0.4l0.1,0.3l-0.3,0.3l-0.1,0.4l0.4-0.1l0.3-0.2l0,0.2l-2.7,0.5l-0.5-1.6l-1.5-0.3l-0.3,1.8
	l0.9,2.3l-0.1,0.2l-0.1-0.3l-0.6-0.8l-0.3-0.8l-0.4,0.1l0,0.5l0.2-0.1l0.4,0.6l0.4,0.7l0.1,0.6l0-0.1l-0.1,0.3l0.1,1.2l-0.4,1.1
	l0,0.8l0.6,0.6l-0.1,0l0.3,0.6l0,0.5l0.2,0.3l0.9,0.4h0.4l0.3,0l1.1,1.1l1.9,0.5l1,1.5l-0.3-0.3l-0.1,0.4l0,0.3l0.3,0.1l0.3,0.3
	l0.2-0.2l0.1,0.2l2.1,2l1.5,1.7l0.6,1.3l3.1-2.1l0.4,1.1l1.4,1l2.8,1.9l1.2,1.7l2.2,1.8l0.6,2.4l1.4,1.4l1.2-1.6l1.1,0.6l-0.3,2.7
	l3.7,2.4l1.6-0.2l-0.2,1l0.3,1.4l1.7,0.4l2,1.3l0.5,1.5l0.9-0.9l0.9,1l0.8,0.4l1.4-0.9l3,2.5l1.7-0.3l0.9,0.7l5.6-1.3l1.3,0.7l0,1.1
	l-0.8,1.9l0.3,1.1l0.5-0.1l1.8-1.9l2.1-1.8l3-1.4l1.7,0.6l1.8,1.8l3.4,0.4l2.2,1.5l-0.5,1.1l0.3,0.8l0.6,0.6l1.4,0.1l0.5,0.5
	l-0.1,0.6l-0.6,0.7l0,0.6l0.3,0.3l0.2,0.7l-0.1,0.3l1.1,0l1.2-0.2l0.9-0.3l0.8,0.6l1,0l1,0.2l1-0.1l0.5,0.1l0.3-0.1l1.3-0.2l0.7-0.2
	l0.2-1l0.9-0.9l0.8-0.5l0.9-0.9l1.2-0.2l2-0.4l0.9-0.6l0.7-0.2l0.6-0.4l0.6-0.2l0.4-1l3.4-1.1l0.2,0.4l0.5,0.3l0.8,0l0.5-0.2
	l0.4,0.6l0.4,0.1l0.1-0.1l1.1,0.8l1.2,1l0.8,0.3l0.4,0.5l0,0.4l2-1.3l0.2-0.6l-0.2-0.7l0.2-0.6l-0.2,0l1-1.2l1.1-0.4l0.8,1l1.2,0.5
	l0.6,2.2l1.3,2.8l0.6-0.7l1.4,0.8l-0.2,2.3l0.3,1l-0.1,4.6l-0.9,1.9l0.3,1.5l-1,0.4l-1,1.4l-0.9,0l-0.5,1.4l-1.9,0.7l-0.5,1.7
	l0.2,0.7l-1,0.3l-0.5,0.8l0.2,1.5l0.5,0.6l0.2,1.3l-0.8,1.3l0.2,0.7l1.6-0.5l0.9-0.9l2.8-0.2l0.7,0.4l1.5-0.2l-1.1,1.5l0.8,1.2
	l0.5,3.3l1.1,0.9l2.4,0l0.3,0.8l-1.1,1.7l0.2,1.3l-0.9,1.2l-0.3,1.2l1.1,0.5l0.6-0.1l3.1,0.7l-0.2,1.5l0.9,0.9l0.9,1.8l0.8-0.8
	l1.4,0.6l1.5-1.2l1.6-0.6l1.4,3.6l1.4-0.3l1.4,0.3l0.3-3.1l-1.4-3.8l0.9-1.7l0.8,0.4l2.1-0.1l1.1-0.9l0.9-1.3l2,1l0.7,0.9l0.6,0
	l2.1-2.2l1,1.4l0.8-1.4l1.9,1.9l0.5-1.2l1-0.9l0.8,0.7l1-0.5l2.1-0.8l0.1-1.3l2.9-1.9l1.5,1.5l2.2,1.2l1.4-0.5l1,0.9l1.2-0.5
	l1.7,0.6l0,0.9L546,378l-0.1,1l0.5,0.5l0.5,2.1l1.8,0.5l1,1.1l2.2,0.9l2-0.6l1.1,0.7l1-0.4l0.2,0.1h0.6l0.3-0.7l0.8-0.2v-1.4
	l0.8-0.2l0.2,0.9l0.8,1l0.4-0.5l0.8,0.5l0.8,0.2l0.3,1.2l0.5-0.4l1.8-0.4l-0.3-1.3l0.4-0.1l0.9,1.1l1.7,0.1l-0.4,0.7l-0.8,1.3
	l-0.3,2.4l0.8,0.2l0.1,1.7l1.3,0.7l-0.4,0.3l0.2,0.8l2.3-0.1l1.1-1.1l0.1-0.5l-1.1-1.1l-0.2-1.1l-0.8-0.3l-0.3-1l0.7-0.7l1.1-0.8
	l0.7-0.1l1.1-1.4l1.2-0.1l0.5-0.7l1.7-0.1l0.5-0.4h1l1-0.7v-0.7l0.9-0.3l0.7-0.4h1h1.2l0.2-0.7l1.1,0.3l1.3-0.9h1.2l-0.1-1.8
	l0.3-0.6l1,1.3l1.1-1.4l-0.4-1l0.8,0.8l0.4-0.1l0.3-0.6l-0.1-0.5l-0.4-1.1l-0.1-1l-0.3-0.4l0.2-0.6l0.6,0.6l0.7-0.1l0.3,0.7l0.7,0.7
	l0.8,0l-0.3,1.1l0.8-0.1l0.5,0.1l0.8,0.2l-0.2-0.5l0.6-0.4l-1-0.8l1-0.4l0.9,0.4l0.1-1.1l1.1-0.5l0.1,1.1l1-0.1l0.5-0.8l1.1-1
	l0.9-0.1l0.4,0.2l0.1,0.7h0.8l0.2-1.3l0.3-0.4l1.2,0.7l1.1-0.8l0.7-0.1l0.9-0.7l1.4-0.2l0.1-1.6l1.2-0.5l-0.4-0.8l-0.6-0.2l1.7-0.1
	l1.1-0.5l-0.6-0.5l0.5-0.8l1.1,0.1l0.2-1.1l0.8,0.1l-0.3-1.4l1.1,0.3v-1.3h0.8l0.6-1l0.6-0.6l-0.4-0.8l-0.7-0.6l1.2-0.2l0.5-0.8
	l0.9-0.5h1.3l0.4-0.5l0.3-0.7l-0.6-0.4l-0.2-0.6l1.6-0.1l0.3-0.5l-0.4-0.8l0.6-0.5l0.6-0.5l0.7-0.2l-0.7-0.8l0.1-0.8l0.5-0.6
	l0.8,0.5l0.7,0.1l0.2-0.5l-0.7-1l0.7-1.1l-0.4-0.7l0.1-0.7l-0.4-0.8l0.4-1.2l0.5-0.7l-0.3-0.5l-1.1-1l0.2-0.8l1,0.1l0.3,0.4l0.2-1.2
	l1-0.7l0.5-0.4l0.1-1.1l0.6-0.6l-0.5-0.4h0.8l0.8-1.1l-0.1-1.1l0.1-0.7l0.5-1.5l0.5-1.1l0.5-0.4l0.1-1.8l0.9-0.4l0.2,1.5l0.8-1.1
	l1-0.7l-0.6-1.3l-0.5-0.9l0.8-0.8v-1.1l0.8-1.1l-0.3-0.9l0.5-0.4l-0.3-1.1L631,320l-0.5,1.3l-0.8,0.1l1.1-1.4l1.3-1l1.1-0.5
	l-0.1-0.8l-1.7-0.7l-0.7,0.2l-0.4,1.1l-0.8,0.3l-1-0.7l-1.4-1.1l-1.1,0.1l-1.4,1.3l-0.8,0.3l-1.4-0.2l-1.2-0.3l-0.2-0.4l1-0.5
	l1.6-0.1l0.9-0.3l0.1-0.9l1.9-1.5l1.4-1l1-1.2l0.2-1.2l-1.1-0.9l-1.6-0.6l-1.2-0.7l-0.6-0.7l-1.2-0.2l-1.4-0.2l-0.1-0.8l-1.1-0.2
	l-1.2,0.6l-0.4,0.1l0.5-0.8l1-0.5l1.4,0.1l0.5,0.8l0.8,0.3h1.4l1.1,0.1l1.1,0.6l1.4,0.2l0.7-0.1l0.2-0.5l-0.8-1.1l-1.6-1.4l-1.4-0.4
	l-0.5-1.5l-1.4-0.5l-1.5-0.4l-0.5-0.4l0.2-1l-0.4-1l-1.8-2.6l-1.1-1.9l-1.4-2.7l-0.7-0.8l-2-0.6l-1.7-0.5l-0.7-0.8l-1.7-0.3
	l-0.1-1.4l0.8-0.7l0.1-1.3l0.4-0.7l0.6-1.5l1-0.3l0.2-0.7l0.5-1.2l0.8-0.7l-0.8-0.9l0.4-0.5l0.8,0.4l1,0.1l0.8-0.8l-0.1-1.8l0.4-0.8
	l0.7-0.1l1.4-1.1l1-0.7l1.3-1l0.8-1l0.8,0.1l0.4-0.4l0.8,0.7l1-0.7l-0.4-1l0.3-0.7l-0.1-1.4l-1-0.4l-0.8,0.4l-1-0.4l-1.5,0.6
	l-1.2,0.6l-0.7-0.3l-0.5-0.6l-0.7,0.1l-1.3-0.8l-1-0.4l-1.2,0.4l-1.3,1l-0.2,1.2l-1.4,1.2l-0.2,1.3l-1,1.1l-2.1-0.2l-1.6-0.6
	l-0.2-2.9l-1-1.1l-1.4-0.4l-0.9-0.7l-0.8,0.3l-1,0.6l-0.9-0.8l-1.2-1l-0.8-1.6l-0.1-2l0.5-1.3l1.2-0.8l0.7-0.1l1.1,0.5l0.7-0.4
	l0.5-0.5h1.1l0.4-0.3l0.4,0.2l0.2-1.5l0.4-1.4l0.8-1.4l0.8-0.4v-0.7l1.6-1l1.8-1.4l0.9-0.6l0.1-1.5l1.1-1.6l0.5-0.4l0.1-1l1-0.6
	l1.5-0.1l1.1-0.6l0.9,0.2l1.5,1.5l0.8,0.6l-0.5,1.2l-0.5,1.2l-0.4,1.1l-1.2,0.9l-0.5,0.6l-0.1,1.5l-0.7,0.4l1.1,0.6l0.6,0.5l1.1-0.3
	l-0.5,1.3l-0.1,0.7l-0.8,0.5l-0.3,0.6l-0.7,0.1l-0.3,1.1l0.4,0.5l1.2-1l1.1-1.2l1.2-0.8l0.7-0.8l0.5-1.2l2.3-2l1.6-1.3l0.8-0.1
	l0.3-0.7l1.4-0.3l0.6-0.6l1.6-0.1l1-0.6l0.4-1.9l2.8-3.5l3.2-2.7l2.1-3.6l0.2-2.3l1.7-1.2l2,1.4l4.3-0.6l0.1-1.2l-1.6-1.8l0.3-1
	l2.3-0.6l2.1-1.4l0.3-1.9l1.6-0.4l0.1-3.9l1.4-0.2l1,1.5l1.4,0.3l-0.6-0.7l0.5-0.9l1.4-1l0.7-3.6l-0.8-0.8l-0.5-3.4l-2.8-4.9
	l1.5-0.7l1.5-3.2l1.2,0.4l4.6-0.4l-0.2-2.8l0.8-1l0.2-3.7l0.6-1.3l-0.5-1.8l0.1-1.2l-0.2-3.1l-0.3-1.1l0.4-1l0.8-0.7l0.4-1.8
	l-1.4-1.5l0-2l-1.4-0.6l-2.3,1.7l-1.2,1.6l-1.2,0.2l-1.3,1l-1,2.4l-3,1.3l-2.1,0.2l-1.4,0.7l-2.5-2l0.4-1.5l-1.7-1.7l-0.4-1.9
	l-1.6,0.5l-4.3-2.6l-1.4,0.7l-2.5-1.1l-1.6,1l-2,0.1l-1.8-1.8l-0.3-2l-1.1-0.4l-0.4-2.1l-2.7-2.8l-0.1-1.3l-2.8-3.4l-0.5-1.8
	l-1.2-1.7l-1.4-1.1l-0.7-1.2l-3.9-2l-1.7,0.7L607.2,162z M633.7,349.3l-0.4,0.6l0.2,0.6l-1.3,0.5l-0.9,0.7l-0.4,1l-0.2,1.2l-0.7,0.7
	l-0.5,1.8l-0.5,1.5l-0.8,1.9l-0.4,1.5l-0.2,1.7l0.1,1.5l0.4,0.7l0.6,1l0.6,1.7l0.7,1l0.9,0.4l0.9,0.2l0.7,0.9l0.4,1.1v0.6l0.3,0.2
	l0.7-0.2l0.2-1.4l-0.3-1.3l0.4-1.8l1.1-1.7l0.6-2l0.3-1.9l0.2-5.5l0.2-1.7l0.3-0.4v-1.1l-0.4-0.4l-0.3-0.9l0.5-0.8l0.2-0.5l-0.4-0.4
	l-1.1-0.3H635l-0.5-0.6H633.7z M573.6,392.3l-1.4,0.6l-1.3,0.4l-2,0.3l-0.3,0.5l-1,0.2l-1.5-0.3l-0.4,0l-0.5,0.3v0.5l-0.4,0.2
	l-1.2-0.1l-0.6,0.4v0.6l0.7,0.1l-0.4,0.7l-0.8,0.2l-2.3,1.6l-0.4,0.8l0.2,0.7l-0.3,0.7l0.3,1.4l0.4,0.9l0.2,1.3l1.6,0.7l1.3,0.6
	l1.8-0.1l0.6,0.6l1.3-0.2V405l1.1-0.3l1-0.1l0.1-0.6l1.1-1.3h0.6l0.7-0.3l0.2-1.4l0.3-1.9l0.8-1.7l0.8-1.1l0.7-0.6l-0.2-1l-0.4-1.2
	v-1.1L573.6,392.3z"/>
</svg>
