<?xml version="1.0" encoding="utf-8"?>
<!-- Generator: Adobe Illustrator 18.1.1, SVG Export Plug-In . SVG Version: 6.00 Build 0)  -->
<svg version="1.1" id="Layer_1" xmlns="http://www.w3.org/2000/svg" xmlns:xlink="http://www.w3.org/1999/xlink" x="0px" y="0px"
	 width="80px" height="35px" viewBox="0 0 80 35" enable-background="new 0 0 80 35" xml:space="preserve">
<path fill="none" stroke="#B2B2B2" stroke-linejoin="round" stroke-miterlimit="10" d="M51,18.7c0,6.2-5,11.1-11.1,11.1
	s-11.1-5-11.1-11.1s5-11.1,11.1-11.1S51,12.5,51,18.7z"/>
<line fill="none" stroke="#B2B2B2" stroke-linejoin="round" stroke-miterlimit="10" x1="39.5" y1="8" x2="39.5" y2="11"/>
<line fill="none" stroke="#B2B2B2" stroke-linejoin="round" stroke-miterlimit="10" x1="31.8" y1="11.3" x2="34" y2="13.4"/>
<line fill="none" stroke="#B2B2B2" stroke-linejoin="round" stroke-miterlimit="10" x1="29" y1="19.5" x2="32" y2="19.5"/>
<line fill="none" stroke="#B2B2B2" stroke-linejoin="round" stroke-miterlimit="10" x1="32.6" y1="26.8" x2="34.7" y2="24.7"/>
<line fill="none" stroke="#B2B2B2" stroke-linejoin="round" stroke-miterlimit="10" x1="40.5" y1="30" x2="40.5" y2="27"/>
<line fill="none" stroke="#B2B2B2" stroke-linejoin="round" stroke-miterlimit="10" x1="48.1" y1="26.1" x2="46" y2="24"/>
<line fill="none" stroke="#B2B2B2" stroke-linejoin="round" stroke-miterlimit="10" x1="51" y1="18.5" x2="48" y2="18.5"/>
<line fill="none" stroke="#B2B2B2" stroke-linejoin="round" stroke-miterlimit="10" x1="47.4" y1="10.6" x2="45.3" y2="12.7"/>
<polyline fill="none" stroke="#B2B2B2" stroke-linejoin="round" stroke-miterlimit="10" points="43.2,14.9 39.8,19.6 32.9,15.5 "/>
</svg>
