<?xml version="1.0" encoding="utf-8"?>
<!-- Generator: Adobe Illustrator 18.1.1, SVG Export Plug-In . SVG Version: 6.00 Build 0)  -->
<svg version="1.1" id="Layer_1" xmlns="http://www.w3.org/2000/svg" xmlns:xlink="http://www.w3.org/1999/xlink" x="0px" y="0px"
	 width="80px" height="35px" viewBox="0 0 80 35" enable-background="new 0 0 80 35" xml:space="preserve">
<g>
	<g>
		<path fill="#B2B2B2" d="M51.6,10.1v15.1H29.1V10.1H51.6 M51.6,9.1H29.1c-0.6,0-1,0.4-1,1v15.1c0,0.6,0.4,1,1,1h22.5
			c0.6,0,1-0.4,1-1V10.1C52.6,9.5,52.2,9.1,51.6,9.1L51.6,9.1z"/>
	</g>
	<g>
		<path fill="#B2B2B2" d="M51.6,10.1l-11.2,9.7l-11.2-9.7H51.6 M51.6,9.1H29.1c-0.4,0-0.8,0.3-0.9,0.7s0,0.8,0.3,1.1l11.2,9.7
			c0.2,0.2,0.4,0.2,0.7,0.2s0.5-0.1,0.7-0.2l11.2-9.7c0.3-0.3,0.4-0.7,0.3-1.1S52,9.1,51.6,9.1L51.6,9.1z"/>
	</g>
</g>
</svg>
