<?xml version="1.0" encoding="utf-8"?>
<!-- Generator: Adobe Illustrator 18.1.1, SVG Export Plug-In . SVG Version: 6.00 Build 0)  -->
<svg version="1.1" id="Layer_1" xmlns="http://www.w3.org/2000/svg" xmlns:xlink="http://www.w3.org/1999/xlink" x="0px" y="0px"
	 viewBox="0 0 200 200" enable-background="new 0 0 200 200" xml:space="preserve">
<path fill="#B3B3B3" d="M100,1.9c-53.6,0-97.1,44-97.1,98.1s43.6,98.1,97.1,98.1c53.6,0,97.1-44,97.1-98.1S153.6,1.9,100,1.9z"/>
<path fill="#F2F2F2" d="M100,21.2c-43.1,0-78.1,35.4-78.1,78.9c0,43.5,35,78.9,78.1,78.9c43.1,0,78.1-35.4,78.1-78.9
	C178.1,56.6,143.1,21.2,100,21.2z M100,38.3c33.7,0,61.2,28.3,61.2,62.4c0,8.2-1.2,15.2-4.1,23.7l-7.8,0V99.1v-2.9
	c0-2-0.6-3.9-0.8-5.6c-0.5-5.6-1.7-10.2-4.1-13.7c-6.6-9.7-20.7-10.4-30.4-5.5c-2.8,1.4-5.4,3.3-7.6,5.5c-3.6-5.4-7.3-8.4-15.7-8.4
	c-7.6,0-12.4,2.5-16.4,6.6v-8.5h-20v55h-11c-2.9-6-4.5-14.2-4.5-22.4C38.8,65.2,66.3,38.3,100,38.3z M92.3,121.7h-18v-20v-8.2
	c0-4.5,4-9.9,9.5-9.9c9.2,0,8.5,6.2,8.5,17.7V121.7z M129.3,121.7h-21V99.3c0-2.1,0-6.8,0-9.5c4-2.7,9.7-6.2,10.3-6.2
	c9.2,0,10.7,6.2,10.7,17.7C129.3,101.3,129.3,115.7,129.3,121.7z M100,163.3c-18.5,0-35.1-9.6-46.4-21.6h92.7
	C135.1,153.7,118.5,163.3,100,163.3z"/>
</svg>
