<?xml version="1.0" encoding="utf-8"?>
<!-- Generator: Adobe Illustrator 18.1.1, SVG Export Plug-In . SVG Version: 6.00 Build 0)  -->
<svg version="1.1" id="Layer_1" xmlns="http://www.w3.org/2000/svg" xmlns:xlink="http://www.w3.org/1999/xlink" x="0px" y="0px"
	 viewBox="0 0 300 300" enable-background="new 0 0 300 300" xml:space="preserve">
<path fill="none" d="M81,34.7c-0.2,0.1-0.3,0.2-0.4,0.3C80.8,35,80.9,34.9,81,34.7z"/>
<path fill="none" d="M91.4,137.9c1.5-0.2,2.6-0.4,3.7-0.5c0,0,0,0,0,0C93.9,137.5,92.8,137.7,91.4,137.9z"/>
<path fill="none" d="M95.1,137.3C95.1,137.3,95.1,137.3,95.1,137.3c-0.4-1.1-0.8-2.3-1.1-3.4C94.3,135,94.7,136.2,95.1,137.3z"/>
<path fill="none" d="M116.2,129.6c0.6-1.5,1.1-2.8,1.6-4.1c0,0,0,0,0,0C117.3,126.9,116.8,128.1,116.2,129.6z"/>
<path fill="none" d="M83.3,38.7C83.3,38.7,83.3,38.7,83.3,38.7c-0.4,0.1-0.9,0.3-1.6,0.5C82.5,39,82.9,38.9,83.3,38.7z"/>
<path fill="none" d="M84.6,39.9c-0.1-0.1-0.3-0.2-0.4-0.3C84.3,39.7,84.5,39.8,84.6,39.9z"/>
<path fill="none" d="M113.4,245.2C113.4,245.2,113.4,245.2,113.4,245.2c0.9,0,1.6-0.6,2-1.3C115,244.6,114.3,245.2,113.4,245.2z"/>
<path fill="none" d="M77.8,208.7c1.3,1,3.3,0.1,4.7-2C81.1,208.7,79,209.6,77.8,208.7c-0.3,0.2-0.7,0.4-0.9,0.6
	C77,209,77.5,208.9,77.8,208.7z"/>
<path fill="none" d="M115.6,243c0,0.1,0,0.2,0,0.3C115.6,243.2,115.6,243.1,115.6,243z"/>
<path fill="none" d="M115.5,243.6c0,0.1-0.1,0.2-0.1,0.3C115.4,243.8,115.5,243.7,115.5,243.6z"/>
<path fill="none" d="M113,246.2c-0.1,0.2-0.2,0.4-0.3,0.6C112.8,246.6,112.9,246.4,113,246.2z"/>
<path fill="none" d="M188,134.2C188,134.2,188,134.2,188,134.2c0.3-0.5,0.5-0.8,0.7-1C188.4,133.4,188.3,133.7,188,134.2z"/>
<path fill="none" d="M119.1,54.1c0.9-0.4,1.9-0.8,2.6-1.2C120.9,53.3,120,53.7,119.1,54.1C119.1,54.1,119.1,54.1,119.1,54.1z"/>
<path fill="none" d="M117,124.9c-0.1,0.4,0,1,0.8,0.7c0,0,0,0,0,0C117,125.9,116.9,125.3,117,124.9z"/>
<path fill="none" d="M132.3,72.2c-0.1,1.2,0.6,2.3,1.6,2.7C132.9,74.5,132.2,73.3,132.3,72.2c-1.3-0.3-2.2-2.1-3.9-1.5
	C130.1,70.1,131,71.9,132.3,72.2z"/>
<path fill="none" d="M116.9,52.9c1.2-0.5,1.6-0.7,1.9-0.3C118.6,52.2,118.1,52.4,116.9,52.9z"/>
<path fill="none" d="M100.3,17.6C100.3,17.6,100.3,17.6,100.3,17.6c-0.3-0.2-0.7-0.4-0.9-0.6C99.5,17.3,100,17.4,100.3,17.6z"/>
<path fill="none" d="M189.3,132.9c-0.1,0-0.2,0.1-0.2,0.1C189.1,132.9,189.2,132.9,189.3,132.9z"/>
<path fill="none" d="M128.1,37.5c0-0.5-0.2-1.1-0.3-1.6c1-0.1,1.3-0.2,1.8-0.6c-0.5,0.5-0.8,0.5-1.8,0.6
	C127.9,36.4,128.1,36.9,128.1,37.5z"/>
<path fill="none" d="M83,45.4c-0.1,0.1-0.2,0.2-0.3,0.3C82.8,45.6,82.9,45.5,83,45.4z"/>
<path fill="none" d="M103,288.6c0.1,0.3,0.1,0.6,0.1,0.8C103.1,289.1,103.1,288.9,103,288.6z"/>
<path fill="none" d="M98,265.1c0.1-0.2,0.2-0.4,0.3-0.6C98.2,264.7,98.1,264.9,98,265.1z"/>
<path fill="none" d="M99.5,258.2c-0.6,0.7-1.4,0.9-2.2,0.8C98.1,259.2,98.8,258.9,99.5,258.2z"/>
<path fill="none" d="M101.8,292.3C101.8,292.3,101.8,292.3,101.8,292.3c1.4,1.1,3,1.5,4.5,0.9C104.8,293.8,103.2,293.4,101.8,292.3z
	"/>
<path fill="none" d="M95.8,258.3c-0.7,0.4-1.4,0.9-2.2,1.3C94.4,259.2,95.1,258.8,95.8,258.3C95.8,258.3,95.8,258.3,95.8,258.3z"/>
<path fill="none" d="M106.9,292.9c-0.2,0.1-0.4,0.3-0.7,0.3C106.5,293.1,106.7,293,106.9,292.9z"/>
<path d="M43.2,109c2.2,0.5,3.2,2.1,2.1,4.1c-1.5,2.6-0.4,4.7,2.6,5c0.6,0.1,1.5,0.8,1.5,1.1c-0.1,2.5,1.3,4.4,2.4,6.4
	c0.6,1.1,1,2.7,2.9,2.7c1.4,0,2.8,0.5,4.2,0.6c1.2,0.1,2.4,0.1,3.8,0.2c0.7,0.5,1.8,1.3,2.9,2.1c0.6,0.4,1.4,0.5,2,1
	c0.8,0.6,1.4,1.1,2.3,0c0.4-0.6,1.4-0.9,1.7,0.4c0.1,0.4,0.4,0.7,0.5,0.8c-0.4,0.6-0.7,1.1-1,1.6c0.6,0.3,1.2,0.6,1.8,0.8
	c1.1,0.3,1.2,1,0.9,1.8c-0.2,0.5-0.6,0.9-0.8,1.1c0.9,1.2,1.7,2.3,2.8,3.7c0.8,0.4,2.3,0.7,3.2,1.6c1.8,1.8,2.2,2.1,4.4,0.7
	c-0.4-0.2-0.9-0.4-1.4-0.7c0.3-0.6,0.5-1.5,1-1.6c2.1-0.5,3.2-1.5,2.8-3.8c0-0.1,0-0.3,0.1-0.5c0.7-2,0.5-2.5-0.9-2.9
	c-0.3-1.1-0.5-1.8-0.7-2.6c-0.1-0.2-0.1-0.4-0.1-0.6c0.5-1.5,1-3,1.5-4.6c0.3,0.3,0.5,0.5,0.8,0.8c0.5,0.6,1,0.6,1.3-0.2
	c0.4-1.4,1.4-1.2,2.7-0.8c-0.3,1.1-0.6,2-0.9,3.1c1.7,0,3.3,0,4.8,0c0.4,0.7,0.9,1.4,1,2.1c0,0.5-0.5,1.1-0.8,1.7
	c-0.2,0-0.4-0.1-0.5-0.1c0.4,1.1,0.8,2.3,1.1,3.4c0.6-0.7,1.3-1.4,2-2.2c1.3,0,3,0,4.6,0c0.4,0.3,1,0.8,1.8,1.4
	c-0.1-1.6-0.2-2.8-0.3-4.2c0.8,0.2,1.3,0.3,1.8,0.5c1.1-2.2-2.3-1.3-1.8-3.1c0.2-0.1,0.5-0.2,0.7-0.3c-0.1-0.7-0.1-1.3-0.2-1.8
	c1.7-0.4,3.2-0.8,4.8-1.2c-0.4-0.8-0.6-1.2-0.8-1.7c-1.1,1-5.4,0.9-6.3-0.1c-0.9-1-1.2-3.8-0.4-4.6c0.5-0.5,1.5-0.6,1.8-1.1
	c1.3-2,3.4-2.7,5.3-3.8c1.3-0.8,2.7-1.6,4-2.4c0.6-0.3,1.2-0.8,1.8-0.8c1.4,0,1.5-0.9,1.7-1.6c-0.7,0-1.2,0.2-1.7,0.1
	c-1.5-0.2-2.8,0.3-4.2,0.8c-0.2,0.1-0.5,0.2-0.7,0.3c-0.1-0.3-0.4-0.8-0.2-1c0.5-0.6,1.1-1,1.5-1.4c0-0.5,0-1,0-1.6
	c0-0.5,0.1-1.4-0.1-1.5c-2-0.8-1.7-2.7-2.3-4.5c-0.7,0.3-1.3,0.6-1.9,0.9c-0.4,0.2-0.9,0.3-1.4,0.4c-0.1-0.5-0.3-1-0.3-1.5
	c0-1.1,0.2-2.1,0.4-3.6c-1,0.7-1.6,1.6-2.3,1.6c-0.7,0-1.5-0.8-1.9-1c-0.6,0.5-1.1,1-1.6,1.5c0,0.2,0,0.7-0.1,1.2
	c-2.6-0.2-2.9-0.5-2.2-2.4c0.6-1.4,0-2.2-1-2.9c-1.5-1-2.8-2.2-3.1-4.1c-0.2-1.2-0.5-2.4-0.5-3.5c-0.1-1.2-0.5-1.2-1.5-1.1
	c-0.7,0.1-1.4-0.4-2.1-0.7c-0.4-0.2-0.9-0.4-1.3-0.5c-1.1-0.1-2.4,0.3-2.8-1.4c0.1-0.1,0.2-0.1,0.2-0.2c1-0.9,0.4-4.8-0.8-5.1
	c-0.8-0.2-1.7-0.2-2.5-0.4c-0.6-0.2-1.2-0.6-1.8-0.9c-0.3,0.2-0.8,0.8-1.2,0.8c-2.4-0.5-2.8,1.1-3.3,2.8c-1,3.4-2.8,6.3-6.2,7.8
	c-1,0.4-2.2,0.9-2.8,1.6c-1.2,1.3-1.2,3.6-3.2,4.4c-0.1,0-0.2,0.3-0.2,0.4c-0.6,2.2-2.1,2.6-4.2,2.6c-1.4,0-2.9,0.2-4.2,0.7
	c-2.1,0.9-3.3,0.5-3.9-1.9c-0.3-1.2-1-1.4-1.9-1c-0.7,0.3-1.3,0.9-1.8,1.5c-1.3,1.9-2.6,3.8-4.8,4.8c-0.8,0.4-2.2,3.6-1.7,4.2
	C40.8,107.8,42,108.7,43.2,109z"/>
<path d="M95.1,137.3C95.1,137.4,95.1,137.4,95.1,137.3C95.1,137.4,95.1,137.4,95.1,137.3C95.1,137.4,95.1,137.4,95.1,137.3
	L95.1,137.3C95.1,137.4,95.1,137.3,95.1,137.3C95.1,137.3,95.1,137.3,95.1,137.3C95.1,137.3,95.1,137.3,95.1,137.3z"/>
<path d="M102.4,160.9c1-0.3,2.2-0.2,3.1-0.7c0.9-0.5,1.8-1.1,2.6-0.3c0.7,0.7,1,1.9,1.6,3.2c1.2,0.2,2.6-0.1,4.1-1.2
	c0.7-0.5,2.1-0.8,2.8-0.4c2.2,1.2,2.3,1.4,4.4,0c0.1-0.1,0.2-0.1,0.3-0.1c0.7-0.3,1.5-0.6,2.2-0.8c0.3-0.1,0.7-0.1,0.9,0
	c1.7,1.6,4,1,6,1.7c0.3,0.1,0.8,0,1.1-0.1c1.5-1.1,2.5-0.4,3.3,1c0.5,0.8,1.1,1,1.8,0.6c0.5-0.3,0.9-0.9,1-1.5
	c0.5-1.7,0.9-3.5,1.4-5.3c0-0.2,0.2-0.4,0.3-0.5c0.7-1,1.5-2.1,2.2-3.1c-0.1-0.1-0.1-0.3-0.2-0.4c0.3,0,0.5,0,0.8-0.1
	c2.2-0.2,4.1-0.9,5.1-3.2c0.4-0.9,1-1.9,1.8-2.4c1.2-0.7,1.6-1.2,0.7-2.3c-0.9-0.9-1.8-1.8-3.3-1.5c-0.8,0.2-1.5-0.9-1-1.6
	c0.2-0.4,0.6-0.6,0.7-0.8c-0.2-0.6-0.5-1-0.6-1.5c0-0.1,0.6-0.5,0.9-0.4c1.4,0.2,2.9,0.2,4.3,0.7c2.1,0.7,3.8,0.6,5.1-1.4
	c-0.2-0.6-0.7-1.4-0.5-1.7c0.7-1,0.6-1.9,0.1-2.9c-0.2-0.3,0.2-0.8,0.2-1.2c0-0.3-0.2-0.8-0.3-0.8c-0.7,0-1.9-0.1-2.1,0.4
	c-1.1,1.7-1.4-0.1-2-0.4c-0.7-0.3-1.2-0.9-1.9-1.3c-0.3-0.2-0.9-0.3-0.9-0.5c-0.1-1.3-1.4-1.1-2-1.7c-0.4-0.4-0.8-0.8-1.1-1.1
	c-0.3,0.1-0.9,0.7-1.1,0.5c-1-0.6-1.2,0.4-1.6,0.8c-0.5,0.6-3.3,1.3-4,0.9c0-0.4-0.1-0.8-0.1-1.4c-1.6,0.3-3.1,0.5-5.1,0.8
	c0.7-1.2,1.1-1.8,1.5-2.5c-0.5-0.5-0.9-0.9-1.4-1.4c-0.6,0.3-1.2,0.6-1.7,1c-1.3,0.9-2.5,2.1-4.4,1.7c-0.3-0.1-0.8,0.4-1.2,0.6
	c-0.7-0.6-1.5-0.9-2.3-1c-2.1-0.2-3.1-1.1-2.8-2.4c-0.7,0-1.5,0-2.2,0c0.8,2.2,1.6,4.4,2.4,6.7c1.9-0.4,0.9,1.8,1.6,2.5
	c0.1,0.1-0.5,1.2-1,1.7c-1.6,1.4-2.6,0.1-3.3-1c-0.6,0.3-1.1,0.6-1.5,0.8c-0.1-0.4-0.2-0.9-0.4-1.2c-0.1-0.3-0.4-0.5-0.7-0.8
	c-0.2-0.2-0.5-0.5-0.5-0.7c-0.1-1.2-0.2-2.3-0.3-3.6c1.3-0.9,1.6-1.7,1.2-3.8c-0.3-1.5,0.8-2.8,2.4-3c0.6-0.1,1.5-0.4,1.7-0.8
	c0.9-1.7,1.4-3.6,2.3-5.3c0.7-1.4,0.3-3.3-1-4.3c-1.5-1.2-3.5-1.1-4.9-0.8c-1.3,0.3-2.7,1.3-4.1,1.8c-1,0.4-1.8,1.4-2.8,1.9
	c-2.5,1.2-5.1,2.2-6.8,4.6c-0.1,0.2-0.4,0.4-0.7,0.4c-1.1,0.2-1.6,1-1.4,1.9c0.3,1.2,0.3,2.9,2.2,2.8c1.6,0,3.2-0.3,5.1-0.5
	c0.1,0.9,0.3,2.1,0.5,3.4c-1.8,0.2-3.2,0.3-4.6,0.5c0,0.8,0,1.6,0,2.4c0.8,0.1,1.8,0.6,1.4,1.9c-0.2,0.6-1,0.9-1.5,1.4
	c-0.8,0.9,1.1,2.7-0.4,3.2c-2.6-0.6-4.5-1-6.5-1.4c-0.7,2.4-2.5,3.6-4.6,4.4c-0.2-0.1-0.4-0.5-0.7-0.6c-1.2-0.3-1-1.2-0.8-1.9
	c0.1-0.3,1-0.2,1.5-0.3c0.4-0.1,0.8-0.2,0.9-0.2c0.8-1.5-1.6-3.5,1-4.3c-0.3-0.6-0.6-1.2-0.7-1.4c-1.7-0.2-3.1-0.2-4.5-0.5
	c-0.3,0-0.6-0.8-0.5-1.2c0.1-0.6,0.5-1.2,0.8-1.8c-0.1-0.1-0.2-0.2-0.4-0.3c-0.8,0.7-1.7,1.4-2.6,2.2c0.1,0.2,0.2,0.7,0.5,1.7
	c-1.7-1.3-1.7,0.2-2.2,0.5c0.3,1,0.5,1.8,0.8,2.6c0.3,0.4,0.5,0.7,0.8,1.1c0.7,1.2-0.2,2.2-0.2,3.3c0.1,2.1-0.6,3.4-2.7,3.8
	c-0.7,0.2-1.1,0.7-0.4,1.2c1.6,1.1,0.7,1.5-0.5,1.9c-0.6,0.2-1.2,0.4-1.7,0.7c-0.2,0.1-0.5,0.4-0.5,0.6c0,0.2,0.2,0.5,0.3,0.6
	c1.3,1,1.1,2.4-0.5,3.1c-0.6,0.3-1.1,0.7-1.7,1c0.5,0.6,0.8,1,1.3,1.7c-1,0.2-1.7,0.3-2.2,0.4c0.1,1-0.1,1.9,0.2,2.7
	c0.1,0.4,0.9,0.7,1.4,0.9c0.2,0.1,0.5-0.4,1.1-0.9c0.5,0.9,1,1.6,1.2,2.4c0.3,1.1,0.8,1.7,2,1.3c1.3-0.3,2.5-0.1,3.2,1.4
	c0.2,0.4,0.6,0.8,1,0.9c1.3,0.2,2.5,0.3,3.8,0.2c3.4-0.3,3.7-0.1,4.9,3.3c1.1-0.4,2.1-0.8,3.1-1.2
	C99.7,163.7,101.4,161.2,102.4,160.9z"/>
<path d="M172.1,188c-0.8,1.4-4.7,1.9-5.8,0.6c-0.6-0.7-1.2-1.4-1.8-2.1c-2.1,1.6-3.8,2.9-5.5,4.2c0.9,1.4,0.3,3.3-0.9,2.9
	c-1.3-0.4-1.9,0.2-2.7,0.8c-0.1,0.1-0.8-0.3-1-0.6c-0.2-0.5-0.3-1-0.4-1.8c-1.9,1.6,0.2,4.5-2.6,5.3c-0.6-0.7-1.2-1-2.2-0.2
	c-0.9,0.7-2.1,1.2-3.2,1.4c-1.4,0.3-2.9-0.1-4.2,0.3c-1.7,0.6-1.8,0-1.9-1.3c-0.1-1.3-0.7-2.3-2-2.1c-0.4-1.1-0.7-2.1-1.1-3.1
	c-0.7-1.8-2.7-1.5-4.1-2.1c-2.2-0.9-3.4-2.9-2.7-5.2c0.3-0.8,0.4-2,0-2.7c-0.4-0.6-1.8-1.2-2.2-1c-1.3,0.7-2.3,0.5-3.5-0.6
	c-0.1,0.5-0.1,0.8-0.2,1.2c-1.1-0.2-2.2-0.3-3.4-0.5c0-3.3-2.9-2.4-4.6-3.1c-0.6,1.7-1.3,3.5-2,5.6c-0.6-0.1-1.3-0.2-2-0.3
	c0.3-0.2,0.7-0.4,1.1-0.6c-0.1-0.3-0.2-0.6-0.3-1.1c1.8,0.1,2.2-0.8,2-2.3c-0.1-0.6-0.1-1.3,0.1-1.9c0.1-0.3,0.6-0.7,0.9-0.7
	c1.5,0.4,3,0.9,4.5,1.4c0.4,0.4,0.9,0.9,1.5,1.5c0,0-0.1,0.4-0.3,1.1c1.1-0.5,1.8-0.8,2.6-1.1c0.8,0.1,1.9,0.5,2.9,0.4
	c2.7-0.3,5.1,1.4,3.7,4.6c-0.6,1.5,0.2,2.8,0.9,3.8c0.9,1.3,1.3-0.7,2.2-0.8c0.1,0,0.1-0.2,0.2-0.2c-1.1-1.7-0.8-2.8,1.2-4.4
	c0.3-0.2,0.6-0.5,1-0.7c1.9,1.3,2.2,1.2,2.7-0.9c-0.6-0.3-1.3-0.6-1.7-1c-0.4-0.5-0.6-1.2-0.9-1.8c-0.5,0.2-0.9,0.3-1.4,0.4
	c0.1-0.8-0.1-1.8,0.3-2c1.8-1.3,0.2-1.3-0.9-1.8c0.5-0.6,0.8-1.1,1.3-1.6c0.2-0.2,0.6-0.3,0.7-0.6c0.4-1-0.3-1.6-0.6-2.4
	c-0.3-0.7,0.5-2.3,0.1-2.6c-1.1-0.9-0.9-1.9-0.8-2.8c0.8-0.3,1.4-0.5,2-0.7c-0.4-0.5-1-0.4-1.1-0.6c-1.6-2.3-3.9-2-6.2-1.8
	c-0.8,0.1-1.7-0.1-2.5-0.2c-0.4-0.1-0.8-0.2-1.1-0.4c-0.6-0.3-1.3-0.9-1.9-0.9c-0.8,0.1-1.9,0.4-2.4,1c-0.8,1.2-1.9,1-2.9,0.8
	c-1.2-0.2-2.3-0.6-3.5-0.9c-0.3-0.1-0.7-0.2-0.9,0c-1.5,1.5-3.3,1.4-5.2,1.4c-1.6,0-1.8-0.7-1.9-1.9c0.5-0.1,0.9-0.2,1.3-0.3
	c-0.7-1.6-1-1.7-2.3-0.8c-0.4,0.3-1.1,0.7-1.4,0.6c-1.6-1-2.1,0.2-3,1.2c-1.1,1.1-1.2,2.9-3,3.6c-1.2,0.5-3,0.3-3.2-0.7
	c-0.3-1.9-0.7-2.2-2.6-2.2c-1.5,0-3,0-4.4,0c-1,0-1.8-0.4-2.1-1.3c-0.4-1.1-1.2-1.3-2.2-1.2c-2.4,0.2-2.3,0.2-3.1-2.1
	c-0.1-0.4-0.7-0.8-1.1-0.8c-0.6-0.1-1.2,0.2-1.7,0.2c-2-0.2-3.1,1.4-2.3,3.2c2-0.8,3-0.6,4.1,1c-2.4,0.1-4.4,1.1-6,3.1
	c1.2,0.9,2,2.1,1.4,3.5c-0.8,1.7-1.6,1.8-4.2,0.9c-0.3,1.1-0.7,2.1-0.8,3.2c-0.2,1.6-1.7,1.8-2.6,2.2c-0.6,0.3-1.7-0.7-2.8-1.2
	c-0.2,0.1-0.7,0.3-1.1,0.5c0.1,0.6,0.5,1.5,0.2,1.8c-1.5,1.5-0.6,2.4,0.6,3.4c-1.3,1.3-1.3,1.3,0.6,2.2c-0.6,0.3-1.1,0.5-1.6,0.7
	c0.2,0.6,0.3,1.1,0.5,1.8c0.4-0.5,0.7-0.9,1-1.2c0.2,0.1,0.3,0.1,0.5,0.2c-0.3,0.8-0.5,1.6-0.8,2.6c0.1,0,0.5,0.3,1.3,0.8
	c-1.1,0.2-1.7,0.4-2.2,0.5c-0.2,1.1,1.5,2,0.4,3.2c0,0,0.2,0.4,0.3,0.5c1.1,0.5,1.1,1,0.4,1.9c-0.2,0.3-0.1,1,0.1,1.5
	c1,3,1.3,6.2,1.7,9.4c0.3,2.9,0.5,5.9,1,8.8c0.4,2.1,0.7,4.5,3.7,4.4c0.3,0,0.5,0.4,0.8,0.5c0.3,0.1,0.7,0.3,0.9,0.2
	c1.2-0.7,2.3-1.5,3.5-2.3c-1.2-1-1.2-1,0.5-2.3c-2.5-0.2-1.5-2.4-2.5-3.6c1.9-0.6,3.7-1.3,5.5-1.8c1.2-0.3,1.6-1,1.2-2.4
	c1.3,0.3,2.3,0.6,2.9,0.8c1.8-0.4,3.2-0.8,4.7-1.1c0-1.7,0-3.2,0-4.7c2.4,0.7,4.6,1.3,6.9,2c0-1.1,0-1.8,0-2.5
	c1.4-0.6,2.7-1.2,4.2-1.8c0-0.3,0-0.8,0-1.4c1.4,0.7,2.1,0.5,1.9-1.1c0-0.3,0.7-0.7,1.2-1c0.7-0.4,1.5-0.7,2.3-1.1
	c0.6-0.3,1.1-0.7,1.7-1c0.1-0.4,0.2-1.5,0.5-1.5c1.7-0.4,1.7-2.1,2.7-2.9c-1-1.7-1.2-2,0.6-3.1c-0.2,0.5-0.5,1-0.7,1.6
	c0.4,0.5,0.8,1,1.4,1.8c-2.2,0.1-1.5,2.9-3.5,3.1c-0.1,0-0.2,0.6-0.2,0.9c0,0.6,0,1.1,0,1.8c0.4,0.1,0.8,0.3,1.1,0.3
	c0.2,2.6-0.3,4.8-2.2,6.6c1,0.4,1.7,0.6,2.4,0.9c-1.2,1.1-2.2,2-3.1,3c1.1,1.2,0.5,5.9-0.8,7.4c0.8,0.2,1.7,0.5,2.5,0.7
	c-0.4,0.8-0.9,1.5-1.1,2.1c-0.2,0.8,0,1.7,0,2.6c-1.2-0.1-2.2-0.2-3.2-0.2c-1,0-1.5,0.4-1.1,1.5c0.1,0.4,0.3,0.9,0.1,1.1
	c-0.9,1-0.5,1.7,0.1,2.6c0.4,0.7,0.3,1.8,0.1,2.7c-0.1,0.3-1.1,0.3-1.7,0.5c-0.3,0.1-0.7,0.1-0.9,0.3c-1.3,1.3-0.8,4,0.7,4.7
	c0,0.6,0,1.2,0,1.8c0.5-0.2,1-0.3,1.5-0.5c2-0.7,2.8-0.3,3.7,1.8c-0.4,0.2-0.9,0.5-1.1,0.6c0.2,1.1,0.3,1.9,0.4,2.9
	c1.1-0.1,2.5,0.4,2.9-1.4c2.6-0.3,2.6-0.3,3.6,2.3c0.2,0.4,0.8,0.9,1.3,0.9c0.9,0.1,1,0.5,1,1.3c0,0.4,0.1,0.8,0.1,1.2
	c1.8,0.5,2.3,1.5,1.5,2.9c-0.4,0.7-0.7,1.3-1.1,2.2c-0.3,0.1-0.9,0.2-1.8,0.3c0.4,0.7,0.6,1.4,1,1.6c0.4,0.1,1.1-0.3,1.4-0.7
	c0.4-0.4,0.9-1.1,0.8-1.6c-0.2-1.6,0.8-1.9,1.9-1.9c1.1-0.1,2.1,0.2,3.5,0.4c2.3-1.7,2.3-1.7,2.2-2.9c0.9,0.2,1.7,0.1,2.4,0.5
	c1.5,0.9,2.2,0.1,2.9-1.1c0.4-0.7,1-1.3,1.6-1.9c0.9-0.7-1.1-2.5,1.7-2.9c-0.5-1-0.9-2-1.3-2.9c-0.1-0.3,0-0.8,0.2-1
	c1.3-1.3,1.1-2.7,0.6-4.2c-0.9-2.3-1-4.6,0.1-6.8c0.4-0.8,1-1.5,1.3-2.4c0.7-1.9,2.5-2,4.1-2.5c0.2-0.1,0.7,0.1,0.9,0.3
	c0.7,0.7,1.4,0.8,2-0.1c0.7-0.9,1.4-1.7,1.8-2.7c0.4-0.9,0.4-2.1,1.8-2c1,0,2.1,0,3,0.3c1.2,0.4,4.5-1.2,4.6-2.4
	c0-0.2-0.2-0.4-0.1-0.6c0.3-1.2,0.2-3,1-3.6c2.2-1.5,4-3.8,6.8-4.4c0.7-0.1,1.2-1,1.7-1.5c1.1-1.1,2.1-2.3,3.3-3.3
	c1.2-1,2.6-1.7,3.8-2.6c0.6-0.5,0.9-1.2,1.4-1.8c1.5-1.7,3.1-3.4,4.8-5.3C172.7,186.9,172.7,186.9,172.1,188z"/>
<path d="M135.7,93.9c-0.5,0.3-1.1,0-2.7-1.2c-0.3,0.2-0.7,0.5-0.8,0.5c0,0,0,0-0.1,0c-1.7-1.1-3.7-1.4-5.6-1.9
	c-1.6-0.4-2.4-2.1-4.2-2.3c-1.4-0.1-1.9-2.1-1.1-2.8c-1-1.1-2-2.2-3.1-3.1c-0.3-0.3-1.3-0.4-1.6-0.1c-1.1,0.7-2,2.6-3.3,0.3
	c0,0-0.1,0-0.2,0c-1.6-0.5-2-1.7-1.1-3.1c0.4-0.6,0.7-1.4,1-2.1c-0.7-0.4-1.3-0.7-1.9-1c-0.7,1-1.3,2-2.1,2.9
	c-1.7,1.8-2.7,4-2.5,6.2c0.3,3.1,1.4,6.2,2.1,9.3c0,0.1,0.1,0.2,0.2,0.3c1.8,1.8,1,3.8,0.3,5.7c-0.5,1.2-0.1,3.6,0.9,4
	c1.8,0.6,1.7,1.7,1.4,2.7c1.1,2.1,2.5,2.5,3.8,1.5c1.8,0.5,3.2,1.3,4.6,1.2c1.6-0.1,2.8,0.6,3.2,1.5c0.6,1.3,1.6,2.7,0.5,4.5
	c-0.9,1.4-1.9,2.9-2,4.4c-0.1,2-1.4,1.6-2.4,2.1c-0.7,0.3-1.4,1-1.9,1.6c0,0-0.1,0.1-0.1,0.1c-0.1,0.4,0,1,0.8,0.7
	c0.5-0.6,1.2-1.7,1.3-1.6c1.2,0.6,1.5-0.5,2.2-0.9c0.3-0.2,0.6-0.3,1-0.5c0.2,3.5,0.6,4.1,2.7,3.8c-0.1-0.5-0.1-1.1-0.2-1.8
	c1.1,0.6,2.5,0.5,2.4,2c0.4,0.1,0.8,0.3,1.2,0.3c0.5,0,1.3,0.1,1.4-0.1c1-1.6,2.6-2.1,4.4-2.5c-0.2,1.3,2.4,1.5,1,3.1
	c1.5-0.2,2.9-0.4,4.5-0.6c-0.1,0.7-0.2,1.2-0.3,1.8c1.1,0.2,2.3,1.1,2.7-0.6c0.2-1,0.6-1.2,1.4-1.2c0.7-0.1,1.5-0.2,2.2-0.3
	c0.1,0,0.3,0.3,0.4,0.4c0.7,0.7,1.5,1.3,2.2,2c0.1-0.1,0.2-0.2,0.3-0.3c0.1,0.4,0.2,0.9,0.2,1.1c0.8,0.3,1.6,0.4,2,0.8
	c1.2,1.2,2.5,1.1,4.1,0.8c0.5-0.1,1.6,0.9,1.6,1.5c0.1,1.3-0.3,2.6-0.5,3.9c-0.2,1.4,0.9,2,1.9,2.4c0.5,0.2,1.6,0.2,1.8-0.1
	c0.6-1.2,1.1-2.5,1.5-3.8c0.2-0.7,0-1.8,0.5-2.2c1-0.8,0.8-1.3,0-2c-1.9-1.9-1.5-4.5,0.8-5.7c0.8-0.4,1.7-0.8,2.3-1.5
	c1.2-1.4,2.3-2.9,4.5-2.8c0.7,0,1.4,0,2.2,0c-2.2-1.3-4.3-2.4-5.3-4.8c0.6-0.2,1.1-0.5,1.5-0.7c-0.9-0.7-1.5-1.2-2.2-1.8
	c0.9-0.6,1.9-1.3,3.1-2.1c-0.4-0.3-1-0.8-1.6-1.2c-0.2-0.2-0.5-0.3-0.6-0.5c-0.4-0.9-0.7-1.8-1-2.7c-0.7-2-3.2-2.9-4.9-1.6
	c-0.7,0.5-1.1,0.5-1.6-0.2c-0.2-0.3-0.7-0.6-1.1-0.6c-1-0.2-2-0.3-2.7-0.4c-0.5-0.8-1-1.9-1.1-1.8c-1.9,0.6-2.9-1.1-4.4-1.5
	c-0.8-0.2-1.8,0.1-2.5-0.3c-1.9-1.3-4.6-1.6-5.4-4.2c-0.1-0.3-0.6-0.4-0.9-0.5c-1.6-0.8-3.2-1.7-4.9-2.5
	C135.9,93.7,135.8,93.8,135.7,93.9z"/>
<path d="M117.8,125.6L117.8,125.6C117.9,125.6,117.8,125.6,117.8,125.6C117.8,125.6,117.8,125.6,117.8,125.6
	C117.8,125.6,117.8,125.6,117.8,125.6z"/>
<path d="M74.2,20.4c0.9,0,2.1-0.2,2.6,1c0.7,1.7,2.2,2.2,3.9,2.5c0.5,0.1,1,0.3,1.3,0.6c0.1,0.2-0.2,0.8-0.4,1.2
	c-0.1,0.2-0.2,0.4-0.4,0.7c0.9,0.5,1.8,0.8,2.5,1.4c0.4,0.3,0.7,1.1,0.6,1.6c-0.2,1.2-0.9,2.1-2.3,2.3c-0.4,0-0.9,0.4-1,0.7
	c-0.2,1.3-0.9,1.9-2.3,1.5c-0.1,0.6-0.2,1.1-0.1,1.7c0.3,2.8,0.8,5.6,0.8,8.3c0,2.5,0.2,4.5,3.2,5c0.9,0.2,1.7,1.2,2.7,1.9
	c-0.2-0.6-0.3-1-0.4-1.5c0.1-0.1,0.3-0.1,0.4-0.2c0.4,0.6,0.7,1.1,1.1,1.6c0.5-0.2,1-0.4,1.7-0.6c-0.1,1.3-0.1,2.3-0.1,2.9
	c1.5,0.5,3.1,0.7,4.3,1.5c1.2,0.9,2.1,0.7,3.2,0.2c1.8-0.7,2.3-1.8,1.7-3.7c-0.1-0.4,0-0.9,0.1-1.4c1.7,0.3,2.8-0.5,3.8-1.5
	c0.4-0.4,1-0.8,1.6-0.9c1.9-0.3,3.4,0.6,5,1.7c1.1,0.8,2.3,2.2,4,1.3c1.5-0.7,2.6-0.8,3.4,0.9c0.2,0.3,0.5,0.6,0.6,0.9
	c0.2,1,0.7,1,1.5,0.7c1.2-0.5,1.6-0.7,1.9-0.3c0.1,0.3,0.2,0.7,0.3,1.5c0,0,0,0,0,0c0.9-0.4,1.9-0.8,2.6-1.2
	c0.5,1.2,0.9,2.3,1.4,3.3c1.6-0.9,2.8-1.6,3.9-2.4c0.9-0.6,1.4-1.2,0.4-2.3c-0.9-1-1.6-2.2-0.5-3.6c-3.7-0.8-4.5-1.4-4.6-3.3
	c0.3,0.2,0.5,0.4,0.6,0.4c0.3-0.6,0.6-1.3,1-2.2c0-0.1-0.2-0.7-0.4-1.2c-0.6-2-0.2-2.4,1.8-2.1c1.5,0.3,2.6-0.5,2.7-2
	c0-0.1,0-0.2,0-0.2c0-0.5-0.2-1.1-0.3-1.6c1-0.1,1.3-0.2,1.8-0.6c0.1-0.1,0.1-0.1,0.2-0.2c0.1-0.1,0.3-0.3,0.5-0.5
	c0.3-0.3,0.8-0.5,1.2-0.7c0.3-0.2,0.8-0.4,0.9-0.7c0.6-1.7,1.1-3.5,1.6-5.2c0.3-1,0.6-2.1-1-2.4c-0.2,0-0.3-0.6-0.6-0.7
	c-0.3-0.2-0.8-0.5-1.2-0.5c-1.8,0.1-3.3-0.7-4.8-1.4c-0.9,0.3-1.8,0.5-2.7,0.6c-0.9,0.1-1.9,0.1-2.7,0.5c-2.1,1-4.6,1-6.1,3.1
	c0,0-0.1,0.1-0.1,0.1c-1-0.9-1.6,0.2-2,0.6c-2.4,2.3-5.8,3-8,5.3c-0.1,0.1-0.4,0.1-0.6,0.2c-1.1,0.1-2.1,0.3-3.2,0.4
	c0.7-0.6,1.4-0.8,2.2-1c0.5-0.1,1.4-0.1,1.4-0.3c0.4-1.6,1.8-1.5,3.3-1.7c-0.9-1.5-1.7-2.9-2.4-4.3c-0.6-1.4-1-2.8-1.5-4.3
	c0.1-0.1,0.3-0.1,0.4-0.2c2.1,4.2,4.8,5.4,6.6,2.8c-1.1-0.4-2.3-1.1-3.4-1.2c-1.3-0.1-1.9-0.6-2.2-1.8c-0.1-0.6-0.3-1.4-0.8-1.6
	c-1.4-0.8-2.9-1.5-4.4-2.2c0,0,0,0,0,0c-0.1,0.7-0.2,1.4-0.4,2.3c0.1,0.1,0.5,0.5,0.9,1c-2.2-0.4-2.2-0.5-1.4-2
	c0.2-0.4,0.6-0.8,0.9-1.2c0,0,0,0,0,0c0,0,0,0,0,0c0,0,0,0,0,0c-0.3-0.2-0.7-0.4-0.9-0.6c-0.3-0.6-0.5-1.4-0.8-2
	c-0.4-1-1-1.8-2.3-1.1c-0.2,0.1-0.9-0.3-1.1-0.7c-0.2-0.4-0.1-0.9-0.1-1.4c-1.8-0.2-3.6-0.5-5.9-0.8c-1.5,0.4-3.5,1-5.3,1.5
	c-0.7,0.4-1.2,1-1.7,1c-0.8,0.1-1.7,0-2.5-0.1c-1.4-0.3-2.5,0-3.4,1.3c-0.8,1.1-1.8,2.3-3,2.8c-1.3,0.5-1,1.3-0.9,2.1
	C72.6,20.4,73.4,20.5,74.2,20.4z M123.6,37.4c-0.2-0.2-0.7-0.6-1.1-1c0.1-0.1,0.2-0.3,0.3-0.4c0.5,0.4,1.1,0.8,1.4,1.3
	c0.1,0.3-0.2,0.9-0.6,1.3c-0.5,0.6-1.2,1-2,1.7C121.2,38.3,123.9,39.1,123.6,37.4z M100.1,33c0.1,0.2,0.1,0.4,0.2,0.5
	c-1.5,0-2.5,2.5-4.4,1.2C97.4,34.1,98.7,33.5,100.1,33z M85.6,32c-0.8,0.4-1.7,0.9-2.9,1.5c-0.2,0.6-0.7,1.7-1.1,2.8c0,0,0,0,0,0
	l0,0c0,0,0,0,0,0c0,0,0,0,0,0c0.2-0.1,0.4-0.3,0.6-0.4c0.9,0.8,1,1.6-0.6,2.4c0.8,0.2,1.2,0.4,1.6,0.5c0,0,0,0,0,0c0,0,0,0,0,0
	c0,0,0,0,0,0c0,0,0,0,0,0c0.6,0.3,1.2,0.5,1.7,0.8c-0.3,0.5-0.5,1-0.9,1.4c-0.5,0.4-1.1,0.6-1.7,1c0,0.4,0.1,0.9,0.1,1.3
	c0,0,0,0,0,0l0,0c0,0,0,0,0,0c0,0,0,0,0.1,0.1c0.4,0.1,0.9,0.2,1,0.4c0.1,0.6,0.1,1.3-0.1,1.9c-0.2,0.5-0.7,0.9-1.4,1.3
	c0.1-0.4,0.1-0.9,0.3-1c0.1-0.1,0.1-0.1,0.2-0.2c0.1-0.1,0.2-0.2,0.3-0.3c0.6-0.7,0.3-1.4-0.3-2.1c0,0-0.1,0-0.1,0c0,0,0,0,0-0.1
	c-1-0.8-1.1-1.3-0.2-2c0.1,0,0.1-0.1,0.2-0.1c0.6-0.4,1.2-0.7,2-1.1c-0.1-0.1-0.3-0.2-0.4-0.3c-0.3-0.3-0.6-0.6-0.9-0.8c0,0,0,0,0,0
	c0,0,0,0,0,0c0,0,0,0,0,0c-0.4,0.1-0.9,0.3-1.6,0.5c-0.1,0-0.2,0.1-0.3,0.1c0.2-0.8,0.4-1.3,0.4-1.9c0-0.4-0.1-0.8-0.2-1.2
	c0,0,0,0,0,0c0,0,0,0,0,0c-0.9-0.3-1.5-0.6-1-1.2c0.1-0.1,0.2-0.2,0.4-0.3c0.1-0.1,0.2-0.1,0.2-0.2c0.4-0.2,0.7-0.7,0.8-1.1
	c0.2-0.9,0.5-1.2,1.5-1.1c0.6,0.1,1.2-0.4,1.8-0.7C85.5,31.7,85.5,31.8,85.6,32z"/>
<path d="M85.7,250.9c0.9,0.9,2,1.8,3,2.6c1,0.8,1.9,2.1,3.5,1.3c0,0,0.1,0.4,0.3,0.5c2,1.4,3.8,3,6.5,3.1c0.4-1.3,1.1-2.1,2.6-1.9
	c1.1,0.2,2.3,0,3,0c0.9-0.6,1.6-0.9,2.1-1.4c0.5-0.4,0.8-0.9,1.2-1.3c-0.4-0.2-0.9-0.5-1.3-0.7c-0.4-0.2-0.9-0.3-1.5-0.5
	c1.1-1.1,1.1-1.1,1.7-4.2c0.7-0.5,1.2-1.2,1.7-1.7c0.3-0.3,0.7-0.6,1-0.5c1,0.1,2.1,0.4,3.2,0.6c0.1-0.2,0.2-0.4,0.3-0.6
	c0.1-0.3,0.3-0.6,0.4-1c0,0,0,0,0,0c0.9,0,1.6-0.6,2-1.3c0,0,0,0,0,0c0-0.1,0.1-0.2,0.1-0.3c0-0.1,0.1-0.2,0.1-0.3
	c0-0.1,0-0.2,0-0.3c0-0.2,0-0.3,0-0.5c-0.6-0.4-1.4-0.5-1.6-1c-0.3-0.5-0.2-1.3-0.3-2c-1.8,0.3-2.4-0.5-2.4-2.3
	c-0.7-0.3-1.3-0.6-1.7-0.7c-1.4,0.6-2.8,1.1-3.8,1.5c-1.1-0.7-1.8-1.3-2.6-1.8c0,0.2,0,0.4,0,0.7c-0.7,0.2-1.3,0.3-2,0.5
	c0-0.3,0-0.5,0-0.8c0-0.3,0-0.5,0-0.8c0-0.3-0.1-0.5-0.2-0.8c-0.4-0.9-1.4-1.5-0.7-2.7c0.2-0.4-0.1-1.3-0.5-1.7
	c-0.9-0.9-0.9-1.8-0.5-3c0.3-1,0-2.1,0-3.2c0-0.1,0.2-0.1,0,0c1.1,0.2,2.1,0.4,3.3,0.7c0-0.9,0.3-1.9,0-2.2
	c-1.9-1.7-0.2-3.6-0.5-5.4c-0.1-0.3,1.1-1,1.7-1.2c0.8-0.2,1.7,0,2.5,0.1c0.1-1.3,0.3-2.5,0.4-3.7c-0.9-0.3-1.8-0.6-2.8-0.9
	c-0.1-0.2-0.2-0.4-0.4-0.5c1.9-0.3,2.7-1,2.4-2.8c-0.2-1.3,1.5-2.7-0.4-4c0.9-1.1,1.7-2,2.5-2.9c-0.7-0.3-1.3-0.5-2.1-0.8
	c0.4-0.5,0.7-0.9,1-1.2c0.9-1.2,2-2.3,1.7-4c-0.1-0.4-0.2-0.9-0.5-1.2c-0.4-0.5-0.9-1-1.4-1.4c-1,0.6-1.6,2.3-3.5,1.7
	c-0.1,1.8-0.1,1.8-3.3,4.5c-1.5-0.8-1.5-0.8-3.1,3.7c-2.3-0.6-4.7-1.3-7-1.9c0,1.1-0.1,2.3,0,3.5c0.1,0.9,0,1.4-1.1,1.4
	c-1.2,0.1-2.5-0.5-3.5,0.8c-0.1,0.1-0.7-0.1-1-0.2c-0.5-0.2-0.9-0.4-1.3-0.7c-0.2,0.3-0.4,0.7-0.6,1c-1.4,2.1-3.5,3-4.7,2
	c-0.3,0.2-0.7,0.4-0.9,0.6c0,0,0,0.1-0.1,0.1c-0.2,0.7-0.5,1.7-0.2,2.1c1.4,1.9,1.7,2.6,0.3,4.4c-0.5,0.7-1.5,1.2-2.2,1.7
	c1.4,1.3,2.1,4.9,0.6,6.6c-1.3,1.4-0.8,2-0.1,3.4c1.2,2.2,1.9,4.7,2.8,7.1c0.3,0.8,0.5,1.8,0.6,2.6c0.6,3,1.1,6.1,1.5,8.2
	c2.4,1.7,4.1,2.8,5.6,3.9C85.6,250,85.4,250.7,85.7,250.9z"/>
<path d="M64.7,152.8c1,0.3,2.1,0.6,3.3,0.9c-0.2,0.2-0.5,0.8-0.8,0.9c-0.8,0.1-1.6-0.2-2.5-0.3c0,0.6-0.1,1.3-0.1,2.1
	c0.8,0,1.6,0,2.4,0c0,0.1,0,0.3,0,0.4c-0.8,0.3-1.7,0.5-2.5,0.8c0,0.5,0,0.9,0,1.3c0.7,0.2,1.3,0.4,1.9,0.6c0,0.3,0,0.4,0,0.5
	c-0.5,1-1.1,1.9-1.5,2.9c-0.5,1.1,2.1,1.3,1,2.7c2.1,0.1-0.4,2,0.9,2.4c-0.7,1.7-1.4,3.4-2.1,5.2c0.7-0.4,1.5-1.3,2.3-1.3
	c0.7,0,1.4,1,2.2,1.6c1.8-1.3,0.9-3.6,1.5-5.6c0.4,0.3,0.6,0.4,0.8,0.5c0.7,0.4,1.5,1.1,2.2,1c0.5-0.1,1.2-1,1.4-1.6
	c0.1-0.4-0.3-1.2-0.7-1.6c-0.6-0.5-1.4-0.8-2-1.2c1.9-1.2,3.7-2.3,5.9-3.7c-2.8,0.5-2.8,0.5-3.4-2.8c0.8-0.4,1.7-0.8,2.7-1.3
	c-0.2-1-0.3-2.1-0.5-3.5c0.2-0.2,0.8-0.6,1.1-0.8c-0.4-0.4-0.7-0.8-1.1-1.2c1.6-1,3.5-1.1,4.2-3c-0.2,0-0.3,0-0.5,0
	c-0.4-1-0.8-2-1.3-3.1c-1.3,0.5-0.8-1-1.4-1.5c-1.1-1.2-3.7-0.2-3.8-2.8c0-0.1-0.2-0.2-0.3-0.2c-1.8-1.2-2-2-1-3.7
	c0.1-0.2,0.1-0.6,0.1-1.1c-1.6,1.5-2.2,0-2.4-0.7c-0.3-0.9-0.1-2-0.1-3c-0.5,0.3-1,0.9-1.6,0.9c-0.6,0-1.7-0.2-1.9-0.6
	c-0.6-1.2-1.3-0.9-1.9-0.9c-1.1-0.8-2.2-1.6-3.2-2.4c-0.8,0.4-1.4,0.7-2.1,1c-0.9-1.3-2.5-1.6-3.5-1.2c-1.3,0.6-1.8,0.3-2.6-0.9
	c-0.5,0.6-1,1-1.2,1.6c-0.1,0.3,0.6,0.7,1.1,1.4c-0.8,0.4-1.7,0.6-2.4,1.1c-2.1,1.3-3,1-3.7-1.6c-1.4,0.6-2.9,1-4.2,1.8
	c-1.3,0.8-2.8,0.7-4-0.1c-0.6-0.5-1.5-0.7-2.4-0.8c-1-0.2-2.1-0.2-3.1-0.1c-1,0.1-2.7,0.5-2.7,0.9c-0.2,2.1-1.5,1.8-2.9,1.8
	c-2.8,0-2.8,0-3.7,3.1c1.8-0.9,3.4-1.7,5.1-2.5c0.1,0.2,0.3,0.4,0.4,0.6c-1,0.7-1.9,1.5-3.1,2.4c0.8,0.9,1.7,2,2.6,3.1
	c-1,0.6-0.5,1.1,0.3,1.6c1.1,0.7,2.2,1.5,3.3,2.3c2.4,2,7.1,1.9,9.3-0.3c1.3-1.2,2.7-1.3,3.9-0.1c-0.3,0.4-0.7,0.8-0.9,1.3
	c-0.9,1.9-1.6,4.1-4.5,3.9c-0.1,0-0.3,0.2-0.3,0.3c-0.7,1.6-2.4,1.1-3.6,1.6c-1.3,0.5-2.9,0.4-4.4,0.5c0-0.1,0-0.3,0-0.6
	c0-0.2-0.1-0.5-0.1-0.7c-0.4,0-0.8-0.1-1.3-0.1c0.2,0.4,0.2,0.7,0.4,1c2,4.1,6,6.6,8.4,10.4c0.6,1,1.8,1.6,2.7,2.5
	c2.8,2.6,5.9,3.5,9.5,1.8c1-0.5,2-1.2,3-1.3c3.2-0.3,5.9-3.1,6.1-6.2c0.1-1.2,0.1-2.4,0.1-3.6C61.6,153.8,63.4,152.4,64.7,152.8z"/>
<path d="M195.3,157.7c-0.2-1.1-0.6-1.5-1.6-1.7c-0.4-0.1-1-0.4-1.1-0.8c-0.5-1.4-1.4-1.2-2.4-0.6c-0.4-2.1-2.2-1.6-3.5-2.2
	c0.1,1,0.3,2,0.1,2.9c-0.1,0.7-0.5,1.5-1,2c-0.2,0.2-1-0.4-1.6-0.5c-1.1-0.3-2.8-1-3.3-0.6c-1.5,1.2-2.5,0.5-3.6,0.2
	c0.2-1.2,0.4-2.3,0.6-3.4c-1.8,0.3-3.4,0.3-4.8,0.8c-2.1,0.7-3,0.6-4.3-0.8c-0.5,0.4-0.9,0.9-1.4,1.3c-0.7,0.5-1.5,0.8-2.1,1.4
	c-0.9,0.8-1.8,1.6-0.6,2.8c-1,1.8-2.8,3.1-1.8,5.6c-0.6,0.1-1.1,0.1-1.6,0.2c-0.1,1.7-0.8,2.5-2.6,1.8c-0.9-0.3-2-0.1-2.8-0.1
	c-0.8,1.3-0.4,3.3-2.6,3.2c-0.4,2.4,1.4,4.7,0.5,7.2c0,0.1,0.1,0.2,0.2,0.4c0.6,0,1.2,0,1.8,0.2c0.3,0.1,0.6,0.5,0.6,0.7
	c0,0.5-0.2,1.1-0.5,1.6c-0.1,0.1-0.8,0.1-0.8,0.1c-0.5-1.7-1.4-0.6-2.2-0.3c-0.8-1.5-0.8-1.5-4-2.1c-0.1,0.4-0.2,1-0.2,1
	c1.8,0.7,1.3,2.5,1.9,3.6c0.9,1.6,0.8,3.1,1.2,4.7c0.2,0.7-0.2,1.6-0.5,2.3c-0.4,0.7-1.2,1.3-1.6,2c-0.9,1.6-1.9,3.2-3.7,3.9
	c-0.3,0.1-0.5,0.4-0.6,0.7c-0.4,0.9-0.7,1.9-1.2,3.2c1.3-0.5,2.2-1.1,3.3-1.3c1.3-0.3,2.4-2.2,4-0.6c1.3-1.5-0.3-4.1,2.4-5
	c0.5,0.6,1,1.2,1.8,2.1c0.5-1.8,1.5-1.2,2.9-0.1c-0.5-2.9,0.2-4.8,3.1-5c-0.7-1-0.9-1.6,0.4-1.8c0.8-0.2,1.5-0.9,2.2-1.4
	c0.7,0.8,1.5,1.6,2.3,2.3c0.3,0.3,0.7,0.6,1.2,0.7c1.6,0.5,3.2,1.1,3.6-1.4c0,0,0.1-0.1,0.1-0.1c1.3-0.2,1.6-2.3,3.3-1.5
	c0.1,0,0.4-0.4,0.6-0.6c0.7-0.9,1.4-1.9,2.2-2.9c0-0.1-0.2-0.5-0.2-0.8c0-1.4,1-2.2,2.1-2.7c0.5-0.2,1.3-0.6,1.7-0.5
	c0.4,0.2,0.5,1,0.8,1.4c1.5-0.5,3.1-1,4.7-1.6c0.6-0.2,1.3-0.4,1.7-0.9c1.2-1.2,2.4-2.5,3.7-4c0,0-0.2-0.5-0.1-0.9
	c0.2-0.4,0.7-0.8,1.1-1.1c0.3-0.3,0.6-0.5,1-0.7c-0.1-0.1-0.1-0.1-0.2-0.2c-0.4,0.2-0.8,0.3-1.1,0.5c-0.1-0.1-0.2-0.3-0.4-0.4
	c0.5-0.6,1.1-1.2,1.7-1.8c0,0.1,0-0.1-0.1-0.2c-2-3.7-0.2-6.8,4-7.1c0.5,0,1-0.6,1.5-0.9c-1-0.8-1.7-1.3-2.5-2
	C196.6,158.5,195.6,159.2,195.3,157.7z"/>
<path d="M166.6,154.2c0.3-0.3,0.8-0.7,0.8-1c0.1-1.4,0.5-2.4,1.7-3.2c0.7-0.5,1-1.3-0.2-1.8c-0.3-0.1-0.7-0.4-0.8-0.7
	c-0.6-1.6-1.2-3.2-1.9-5.1c-1.8-0.8-2.7-3-4.3-4.9c-0.4,0.3-1,0.6-1.2,1c-0.8,1.5-1.8,2-3.2,1.1c-1-0.6-1.6-0.3-2.3,0.5
	c-0.6,0.7-1.2,1.4-2.5,1c-1.8-0.6-3.7-0.6-5.4-0.8c-0.6,1-1,1.7-1.6,2.7c2.4-0.6,3.8,0.5,4.8,2.1c0.6,0.9,0.8,2.3-0.3,2.6
	c-1.8,0.4-1.9,2-2.7,3.1c-0.3,0.4-0.6,0.7-0.9,1.1c-1.2,1.5-3,1.7-4.5,1.9c-0.5,1.2-1,2.3-1.5,3.3c-0.6,0.6-1.2,1.3-1.5,2
	c-0.5,1.6-0.8,3.3-1.3,4.9c-0.4,1.2-0.7,2.5-2.2,2.9c0,0,0,1,0.2,1.1c0.9,0.6,0.9,1.3,0.6,2.2c-0.1,0.2-0.2,0.6-0.2,0.8
	c0.9,2.7,0.9,2.7-1.1,4.3c1.6,0.8,1.4,1.9,0.5,3.1c0.3,0.2,0.7,0.2,0.8,0.5c0.7,1.1,1.4,2.2,2.7,2.7c0.2,0.1,0.3,1.3,0,1.8
	c-0.6,1.3-1.6,1.4-3.3,0.3c-1.2,1.2-3.1,2.1-1.4,4.2c0.1,0.1-0.5,0.7-0.5,1c0,0.5,0.5,1.5,0.5,1.5c1.8-0.5,2.2,1,2.9,1.9
	c0.6,1,0.8,2.4,2.3,2.7c0.2,0,0.3,0.5,0.4,0.7c0.2,0.9,0.4,1.7,0.6,2.7c1-0.4,2.4-0.5,2.9-1.2c1.2-1.9,2.3-3.7,4.1-4.9
	c0,0,0-0.1,0.1-0.1c0.3-0.4,0.7-0.8,1-1.2c-0.1-0.2-0.3-0.5-0.6-0.8c2.7-0.9,3.4-2.1,2.9-4.8c-0.2-1.2,0.2-2.6-1.3-3.3
	c-0.1-0.1-0.1-0.7,0-1c0.5-1.1,0.2-1.7-0.9-2.2c-0.4-0.2-0.5-1.2-0.5-1.8c0-0.4,0.7-1,0.9-1c2.1,0.6,4.1,1.3,6.2,2
	c0.1,0,0.2,0.2,0.3,0.3c0.1-0.1,0.2-0.2,0.2-0.4c-0.3-0.2-0.7-0.5-1-0.5c-1.7,0-1.9-0.9-1.7-2.3c0.1-0.7,0.5-1.7,0.1-2.2
	c-1.3-1.7-0.5-3.4-0.8-5.4c0.7,0.3,1.1,0.5,1.7,0.7c0.3-1,0.7-2,1-3c1.6,0,3.3,0,5,0c0.3-0.6,0.6-1.2,1-1.8c0.2-0.4,0.5-0.8,0.7-1.2
	c0.3-0.6,0.5-1.1,0.7-1.8c0.2-1.1,1.8-1.9,1-3.3c-0.1-0.1,0.1-0.5,0.3-0.7C164.7,155.9,165.7,155,166.6,154.2z"/>
<path d="M131.3,240.5c-0.6,0.1-1.4,0.5-1.7,1c-1.2,2.1-2.6,2.4-4.6,0.9c-0.1,0.1-0.2,0.2-0.3,0.4c-1.1,2.1-2.5,2.6-4.7,1.9
	c-0.8-0.2-1.7,0-2.5,0.2c-0.3,0.1-0.4,1-0.5,1.5c-0.3,1.8-2.4,3.1-3.7,2.3c-1.3-0.8-2.7-1.4-3.7-1.9c-1,1-1.7,1.8-2.4,2.4
	c-0.2,1.1-0.4,2.2-0.5,3.1c0.5,0.4,1.5,0.9,1.6,1.5c0.1,0.6-0.5,1.5-1.1,2c-0.6,0.6-1.4,1-2.2,1.4c-1.3,0.2-2.7,0-4.2-0.1
	c-0.3,0-0.8,0.3-1,0.6c-0.1,0.2-0.3,0.4-0.4,0.5c-0.6,0.7-1.4,0.9-2.2,0.8c-0.5-0.1-1-0.3-1.4-0.7c0,0,0,0,0,0
	c-0.7,0.4-1.4,0.9-2.2,1.3c0.3,0.2,0.6,0.4,0.9,0.5c1,0.4,2.1,0.7,1.8,2.3c1.7,0.2,2.3,0.8,1.9,2.1c-0.1,0.2-0.1,0.4-0.3,0.6
	c-0.1,0.1-0.1,0.2-0.2,0.4c2.1,0.5,2.2,2,1.6,3.7c-0.1,0.4-0.2,0.9-0.2,1.3c0.1,0.5,0.2,1.2,0.6,1.5c0.2,0.2,1-0.1,1.4-0.4
	c1.4-0.7,2.3-0.4,2.3,1.1c0,1.1-0.2,2.2-0.3,3.3c-0.1,0.9-0.3,1.7-0.4,2.6c1.5,0.1,2,0.6,1.7,1.6c-0.6,1.5-1.2,3-1.8,4.6
	c0.5,0.7,1.2,1.5,0.2,2.4c-0.1,0.1-0.2,0.6-0.1,0.7c0.2,0.2,0.3,0.4,0.3,0.6c0.1,0.3,0.1,0.6,0.1,0.8c-0.1,1-1,1.9-1.3,2.9
	c0,0,0,0,0,0c1.4,1.1,3,1.5,4.5,0.9c0.2-0.1,0.4-0.2,0.7-0.3c0.1-0.1,0.2-0.1,0.3-0.2c1.3-1,3.6-1.2,3.9-3.5
	c-0.3-0.1-0.6-0.2-0.9-0.3c1.3-0.8,1.7-1.9,1.6-3.2c0-0.4,0.5-1.1,0.9-1.3c2.3-1,4.7-2,7.1-2.9c-1.2-1.1-0.7-2.3,0.1-3.6
	c1-1.6,2.4-2.9,2.8-4.9c0.1-0.6,1-1.3,1.6-1.4c1.3-0.4,2.7-0.4,4.3-0.6c-0.2-1.3-0.1-2.9-0.7-4c-0.5-1-1.7-1.5,0-2.3
	c0.2-0.1,0.2-0.8,0.2-1.2c-0.2-1.8-0.4-3.6-0.7-5.5c-0.6-0.4-1.3-1-2-1.5c0.6-1.1,0.9-2.8,2.4-1.7c0.3-0.5,0.5-1,0.7-1.4
	c0.7-1.1,2.6-1.5,1.9-3.2c0.5-0.6,1.1-1,1.2-1.6c0.5-1.7,0.9-3.4,1.2-5.1c0.1-0.7-0.1-1.5-0.4-2.1
	C132.4,240.9,131.7,240.4,131.3,240.5z"/>
<path d="M169.3,111.5c0.3,0.4,0.6,0.7,0.8,1.1c-0.5,0.2-0.9,0.4-1.4,0.5c-0.7,0.2-1.5,0.4-2.6,0.7c2.7,1.1,2.8,1.6,1.1,3.4
	c1.4,0.9,2.7,1.6,4,2.5c0.5,0.3,0.7,1,1.1,1.5c-0.5,0.2-1.1,0.6-1.6,0.6c-1.8,0-3.3,0.5-4.6,1.6c-1,0.8-1.9,1.8-3,2.5
	c-1.8,1.1-2.2,2.8-1,4.5c0.6,0.8,1,1.8,1.4,2.7c1.6,1.6,3.8-1.3,5.7,0.7c0,0,0.1,0,0.1-0.1c1-0.4,1.5-0.1,1.7,1
	c0.2,1,0.5,1.1,1.5,0.3c1.8-1.7,1.9-1.6,3.7-0.1c0.6-0.3,1.2-0.6,1.8-0.9c0.6-0.3,1.4-0.3,1.9-0.7c0.5-0.3,1.1-0.8,1.4-1.4
	c0.9-1.6,3.4-2,4.5-0.5c0.7,0.9,1.5,1.8,2.3,2.8c0,0,0,0,0,0c0.3-0.5,0.5-0.8,0.7-1c0.1-0.1,0.3-0.2,0.4-0.3c0.1,0,0.1-0.1,0.2-0.1
	c0.1,0,0.2-0.1,0.4-0.1c0.2-0.1,0.5-0.1,0.8-0.2c0.9-0.2,2.1-0.7,2.3-1.3c0.7-1.5,0.7-3.3,2-4.5c0.6-0.5,1.4-0.8,1.7-1.3
	c0.6-1.1,1.3-0.7,2.2-0.5c0.3,0.1,0.6,0.2,1.4,0.6c-1.5-2.3-0.5-3.5,1.7-4.2c-0.7-0.5-1.1-0.9-1.5-1.2c-1.5-1-1.5-2.4,0-3.5
	c2.1-1.5,2.5-2.3,1.8-4.3c-0.6,0.8-1,1.4-1.5,2.1c-1.7-1.6-3.4-0.2-5.1,0c-1.4,0.1-2.6,0.1-3.2-1c-1,0.3-2.3,1.1-2.9,0.7
	c-2.3-1.2-4.5-2.1-7.1-1c-0.3,0.1-1.2-0.8-1.7-1.4c-0.2-0.2-0.1-0.8-0.2-1.3c-0.5,0.2-0.8,0.3-1.1,0.5c-1.1,0.8-1.9,1.2-3.2,0
	c-0.9-0.9-2.5-1-3.7-1.6c-0.4-0.2-1.1-0.9-1-1.3c0.4-1.6-0.2-2.2-1.7-2.2c-0.3,0-0.7-0.1-0.9-0.3c-1.1-1.5-2.2-0.6-3.4-0.2
	c0.7,1.5,1.3,2.9,1.9,4.4C168.2,110.2,168.7,110.9,169.3,111.5z"/>
<path d="M268.1,93.6c-0.1-0.1-0.1-0.3-0.2-0.4c-2.1,0.9-4.4,1.6-6.3,2.8c-2.8,1.7-6.4,2.2-8.4,5.3c-0.3,0.5-1,1-1.1,1.5
	c-0.5,1.9-1.8,2.7-3.5,2.9c-2.3,0.3-4.6,1.8-7,0.5c-0.2-0.1-0.6,0.1-0.9,0.2c-2.7,0.9-5.4,1.8-8.2,2.2c-0.5,0.1-1.2-0.2-1.7,0
	c-2.5,0.7-5,0.9-7.5-0.1c-0.6-0.2-1.4-0.3-2-0.1c-0.8,0.2-1.5,0.7-2.2,1.1c-0.4,0.2-1.2,0.4-1.2,0.6c0,1.7-0.7,3.2-0.8,4.8
	c-0.1,1.5,0.4,3.1,0.6,4.7c0,0.3,0.3,0.5,0.4,0.8c0.1,0,0.3-0.1,0.4-0.1c-0.8-1.1-0.8-2.4,0.4-2.8c1.6-0.6,3.3-0.7,5-0.9
	c0.7-0.1,1.5,0,2.2,0.1c1.6,0.2,3.2,0.2,4.5,1.3c1.6-0.3,2-2.2,3.9-2.6c1.7-0.4,3.3-0.1,4.7-0.6c-0.1,1.1-0.2,2-0.2,2.5
	c1.5,0.5,2.7,0.8,3.9,1.2c-0.1,0.1-0.2,0.3-0.4,0.4c0.5,0.7,0.9,1.3,1.4,1.9c0.5,0.7,0.8,1.2,0,1.9c-0.8,0.6-1.7,1.3-2.4,1.8
	c0.2,0.8,0.5,1.5,0.7,2.2c-0.5,0.1-1.1,0.2-1.6,0.2c-0.2,0.6-0.5,1.2-0.6,1.9c-0.1,1-1.4,2.7,1.2,2.4c0.2,0,0.4,0.4,0.7,0.7
	c0.6-1.2,1.2-2.4,1.8-3.5c1.2,1.1,2.1,1.2,2.5,0.2c0.5-1.4,0.2-3.1,1.5-4.4c0.8-0.9,1.1-2.2,1.4-3.4c0.1-0.5-0.1-1.1-0.3-1.6
	c-0.1-0.4-0.5-0.6-0.6-0.7c0.9-1.4,1.7-2.7,2.5-3.9c0.4-0.6,1-0.8,1.5-0.1c0.1,0.1,0.9-0.1,0.9-0.1c-0.3-2.2,1.2-3.8,2-5.7
	c0.1-0.4,0.9-0.5,1.4-0.7c1.5-1.4,2.9-3,4.6-4.3c1.5-1.1,3.4-1.6,4.3-3.5c0.1-0.2,0.6-0.2,1-0.3c1-0.2,2.1-0.4,3.1-0.7
	C267.5,98,266.9,95.4,268.1,93.6z"/>
<path d="M184,142.4c1.2,0.1,2.5-2.7,3.6-0.1c2.7-1.7,4.8-4.2,7.8-4.4c0.4-0.8,0.7-1.7,0.9-1.6c1.6,0.3,2.1-0.9,2.7-1.9
	c0.4-0.6,0.7-1.2,0.9-1.8c0.2-0.6,0.3-1.3,0.5-2c0.2-0.4-0.2-0.9-0.1-1.3c0.3-2.6,0.2-2.8-2.4-3.8c-0.3,0.4-0.6,1-1,1.1
	c-1.6,0.5-2.3,1.4-2.5,3c-0.1,1-0.6,2-1.2,2.8c-0.9,1.4-2.5,0.8-3.5,1.1c-0.6,0.7-1.1,1.2-1.6,1.7c-0.5-0.5-1-1.2-1.6-1.4
	c-1-0.4-1.3-1.1-1.6-1.9c-0.1-0.2-0.5-0.2-0.8-0.3c-0.6-0.1-1.1-0.1-1.3-0.1c-1,1-1.7,2-2.6,2.6c-0.7,0.5-1.8,0.6-2.6,1.1
	c-1.3,0.7-2.4,0.7-3.2-0.7c-2.3,2.5-3.5,2.4-4.5,0.2c-2.6-1-5.1,0-7.7-0.7c-0.1,1-0.5,2.1-0.1,2.7c1,1.5,2.3,2.8,3.5,4.2
	c0.2,0.2,0.4,0.5,0.7,0.5c1.2,0.1,1.2,0.8,1.2,1.8c0.1,2.1,0.4,4.1,3.4,4.5c-0.9,1.4-1.6,2.7-2,3.4c0.3,0.6,0.5,1.2,0.9,1.6
	c0.5,0.4,1.3,0.9,1.9,0.8c1.9-0.3,3.8-0.9,5.6-1.4c0.8-0.2,1.2-0.1,1.3,0.8c0,1,0,2.1,0,3.4c1.2-0.4,2.3-1,3.4-1
	c1.2,0,2.4,0.6,3.7,0.9c0.9-1.3,0.4-2.8-0.2-4.4c2.9-1,4.7,1.9,7.4,1.5c-1.4-1.8-2.7-3.5-4.4-5.7c-1-0.4-2.6-1.2-4.2-1.9
	c-0.8-0.4-0.9-0.9-0.6-1.7C184,143.7,184,143,184,142.4z"/>
<path d="M209.9,144.3c-1.3,0.3-1.4,0.1-1.4-1.6c0-0.6-0.3-1.3-0.7-1.7c-1.3-1.1-1.5-2.5-0.1-3.8c0.9-0.8,1.1-2.4,0.3-2.8
	c-0.8-0.4-1.8-0.6-2.6-1.1c-1.2-0.7-2.3-1.6-3.2-2.6c-0.3-0.3,0.2-1.4,0.4-2.1c0.1-0.5,0.2-0.9,0.2-1c1-0.5,2.4-0.8,2.4-1.2
	c0.1-2,1.4-1.8,2.7-1.8c0.5,0,1-0.2,1.5-0.3c-0.5-0.6-0.9-1.2-1.3-1.7c-0.1,0.1-0.1,0.3-0.2,0.4c-0.9-0.5-1.9-0.8-2.7-1.4
	c-0.9-0.6-1.7-1.5-2.5-2.2c-0.2,0.1-0.4,0.2-0.6,0.3c0.1-1.2,0.2-2.5,0.4-3.9c-0.8,0.7-1.5,1.2-1.9,1.9c-0.2,0.3,0,1.2,0.2,1.3
	c1.5,0.8,1.8,1.9,1.7,2.9c-0.9,0.8-1.9,1.2-1.9,1.7c-0.1,1,0.4,2,0.6,3c0.2,1.5,0.6,3,0.4,4.5c-0.2,1.5-0.8,3-1.6,4.2
	c-0.6,1-1.8,1.6-2.8,2.4c-0.1-0.1-0.2-0.2-0.3-0.4c-0.5,1.2-1,2.3-2.6,1.7c-0.1-0.1-0.4-0.1-0.5,0c-1.5,0.9-3.1,1.7-4.3,2.9
	c-1,1-1.6,1.9-2.9,0.5c0,0-0.3,0.1-0.4,0.2c-0.6,0.6-1.2,1.2-2,2c2.5,1,4.6,1.8,6.2,2.5c0.1,0.9,0,1.8,0.4,2.1
	c2.4,2.4,2.4,2.3,3,5.3c0,0.2,0.3,0.5,0.5,0.6c1.3,0.2,1.9,1,1.8,2.3c1.5-1,1.5-1,2.3,0.3c0.9,1.4,2.5,1.5,3.5,0.1
	c0.4-0.5,0.9-1.1,1.4-1.5c0.9-0.8,1.8-1.5,1.2-3.1c0.7,0.4,1.2,0.8,1.3,1.4c0.1,0.7-0.1,1.4-0.2,2.2c0.9-0.3,1.6-0.4,2.2-0.6
	c-0.1-0.1-0.2-0.2-0.3-0.3c1.3-1.2,2.6-2.4,4.1-3.8C211,149.8,210.5,147.1,209.9,144.3z"/>
<path d="M132.3,72.2c-1.3-0.3-2.2-2.1-3.9-1.5c-0.1,0-0.2,0.1-0.3,0.2c-0.1,0.1-0.5-0.3-0.7-0.6c-1.1-1.3-2.3-1.7-4-1.1
	c-0.4,0.2-1.1,0.1-1.3-0.1c-1.1-1.4-2.8-0.9-4.1-1c-1.3-0.1-2.7,0.6-4,1c-0.1,0-0.2,0.1-0.2,0.2c-0.4,1.4-1.1,2.9-1.1,4.3
	c0,1.2-0.1,1.9-1.7,2.4c1.3,0.7,2.2,1.3,3.1,1.7c-0.4,1.7-2.5,2.8-1.4,4.9c0.5-0.1,1-0.1,1.5-0.1c0.2,0.4,0.4,0.8,0.5,1.2
	c0.5-0.5,0.9-0.9,1.4-1.2c1-0.6,1.8-0.8,2.8,0.2c0.9,1.1,2,1.9,3.1,2.9c0.3,0.2,0.7,0.2,1.1,0.3c-0.2,0.2-0.3,0.4-0.5,0.6
	c-0.4,0.2-0.8,0.4-1.6,0.9c1.1,0.5,2,0.8,2.8,1.1c0.3,0.1,0.5,0.3,0.8,0.4c0.6,0.4,1.2,0.8,1.7,1.3c1.7,1.7,4.6-0.2,5.8,2.2
	c0.4-0.9,0.7-1.7,1.1-2.4c0.7-1.4,1.7-2.5,1.5-4.4c-0.2-1.2,1.5-2.2,1.2-3.7c0-0.1,0.2-0.2,0.3-0.3c1.3-1.3,2.6-2.6,3.9-4
	c-0.7-0.3-1.3-0.4-1.6-0.8c-1-1.4-2.3-1.8-3.9-2c-0.2,0-0.3-0.1-0.5-0.1C132.9,74.5,132.2,73.3,132.3,72.2z"/>
<path d="M86.9,68c-1.4,1.3-2.8,2.6-4.3,3.9c-1.9,1.7-2.6,3.8-2.2,6.7c2.3,0,4.5-0.2,6.7,0.1c1.1,0.1,2.2,1,3.3,1.5
	c1.5,0.6,0,1.8,0.6,2.7c1.9-2.6,4.2-2.5,6.7-1.5c1.7-0.8,1.2-2.7,1.8-4.2c1,0,1.9,0.1,3,0.2c0-0.1-0.2-0.5-0.2-0.6
	c0.5-0.9,0.9-1.6,1.4-2.4c0.3,0,0.8,0,1.2,0.1c0.1-0.1,0.3-0.2,0.4-0.3c-0.4-0.6-0.8-1.2-1.2-1.7c-0.7-0.8-1.1-1.5-0.5-2
	c-0.5-1.2-0.8-2.2-1.2-3.2c-0.1-0.3-0.4-0.6-0.6-0.8c-0.5-0.8-1.2-0.8-1.8-0.7c0.2-0.7,0.3-1.1,0.4-1.5c1.3,1.5,3.4,2,2.7,4.1
	c0,0.1,0.2,0.3,0.4,0.5c1.3,1.1,2.5,2.2,3.8,3.3c0.3,0.3,0.7,0.6,0.7,1c0.1,1.5,1.2,1.7,2.2,2c1.5,0.4,2,0,1.9-1.5
	c-0.4-4.8,2.9-6.5,6.9-6.1c1.4,0.1,2.9,0.6,3.9,0.9c-0.4-1-1.3-2.3-1.3-3.6c0-1-0.2-1.7-0.6-2.6c-0.7-1.8-1.1-3.8-1.7-5.7
	c0.2-0.1,0.3-0.3,0.5-0.4c-0.7-0.1-1.3-0.1-2-0.2c0.3-0.8,0.6-1.7,0.9-2.5c-1.2,0.2-2.3,0.4-2.9,0.5c-1-1.4-1.7-2.3-2.2-2.9
	c-1.5,0.1-2.8,0.6-3.8,0.3c-1.5-0.5-2.9-1.4-4.3-2.3c-1.7-1.1-2.9-1.1-4.2,0.4c-0.2,0.2-0.4,0.4-0.6,0.5c-1.6,0.4-2.5,1.4-2.5,3.1
	c0,0.3-0.1,0.6-0.2,0.9c-0.2,0.6-0.4,1.3-0.6,1.9c-0.5,0.2-0.7,1-1.2,1.4c-1,0.9-0.7,1.2,0.2,1.8c0.7,0.4,1.6,1.3,1.6,1.9
	c-0.2,1.2,0.6,1.8,1,2.6c0.3,0.4,0.3,1,0.5,1.5c0,0.1,0.2,0.3,0.6,0.9c-0.3,0-0.6,0.1-0.9,0.1c-0.8-2.1-1.5-3.9-2.3-5.7
	c-0.1-0.3-0.6-0.6-0.9-0.8c-0.5-0.2-1.1-0.4-1.8-0.6c0.8-1.1,1.6-2.1,2.3-3.1c-0.6,0-1,0.2-1.5,0.4c-0.5,0.2-1,0.2-1.4,0.3
	c-0.5,2.2-0.7,2.4-2.8,2.4c-1.7,0-2.5,1.4-3.7,2.3c-0.3,0.2-0.2,1-0.1,1.4c0.3,1.1,0.8,2.1-0.4,3c-0.2,0.2-0.2,0.7-0.3,1
	C87.4,67.1,87.6,67.4,86.9,68z"/>
<path d="M104.9,101.8c0.8-0.2,1.4-0.3,2-0.6c0.6-0.2,1.4-0.5,1.5-0.9c0.5-1.5,1.5-3.3-0.4-4.6c-0.9-0.6-1.9-0.9-2.8-1.4
	c-0.4-0.2-1-0.6-0.9-0.8c0.2-0.8,0.3-1.9,0.9-2.3c1.7-1,1.1-2.4,0.8-3.6c-0.7-3.2,0.6-5.7,2.3-8.2c0.7-1,1.5-1.9,2.4-2.9
	c-1.3-0.7-2.4-1.4-3.5-2c0.1-0.1,0.3-0.2,0.4-0.3c-0.8-1.1-1.6-2.1-2.4-3.2c-0.1,0.1-0.3,0.2-0.4,0.3c0.3,0.7,0.7,1.4,0.8,2.1
	c0.1,0.8,0,1.6-0.1,2.7c-0.5-0.3-0.9-0.5-1.3-0.8c-0.4,1-0.7,2-1.2,2.8c-0.9,1.3-1.9-0.4-3.1,0.3c0,0.4-0.2,0.9-0.2,1.4
	c0.1,1.2-1,2.6-2.1,2.3c-1.1-0.3-2.2-0.4-3.4-0.5c-1.3-0.1-1.7,0.6-2.2,1.2c-0.3,0.4-0.6,0.7-0.9,1.1c-0.4-0.5-1.2-1.2-1.1-1.6
	c0.4-1.8-1.1-2.2-2-2.8c-0.9-0.7-2-0.3-2.5,0.9c-0.2,0.4-0.5,0.8-0.1,1.6c0.5,0.8,0.1,2.2,0.1,3.2c0.9,0,1.9-0.2,2.5,0.2
	c1.1,0.6,1.9,1.7,3.3,1c0.2-0.1,0.7,0.3,0.9,0.6c0.4,0.9,1,1.9,0.8,2.8c-0.5,2.6,0.9,4.2,2.7,5.6c1.5,1.1,2.1,2.3,1.3,4
	c-0.4,0.9-0.1,1.3,0.8,1.2c0.6-1.1,1.1-2,1.7-3.2c0.8,0.4,1.6,0.9,2.6,1.5c0.5-0.4,1.2-1,1.9-1.5c1.2,0.4,1.8,0.9,1.2,2.3
	C104.8,100.3,105,101.2,104.9,101.8z"/>
<path d="M102,287.7c0.4-1.2,0.5-2.1-0.1-3.1c-0.1-0.1,0.1-0.3,0.1-0.4c0.7-1.5,1.3-2.9,2-4.4c-0.8-0.3-1.4-0.5-1.8-0.7
	c0.2-2.5,0.4-4.9,0.6-7.2c-0.2-0.1-0.4-0.1-0.6-0.2c-0.6,0.5-1.2,0.9-1.8,1.4c-1.8-1-2.1-1.9-1.4-4.6c0.3-1.1,0.2-1.9-1-2.2
	c-0.9-0.3-1-1-0.6-1.6c1-1.6-0.1-1.5-1.1-1.5c-0.3,0-0.7,0-1.1,0c0.6-1.9,0.6-1.9-2.1-2.9c0-0.5,0.1-1.1,0.1-1.6
	c0.7-0.2,1.3-0.4,2.1-0.6c-2.5-1.4-4.6-2.7-6.7-3.9c-1.7-0.9-3.1-2.1-3.8-4c-0.1-0.3-0.3-0.6-0.5-0.8c-1-0.7-2.1-1.4-3.1-2.1
	c1.1,3.6,2,7.5,5.9,9.5c0.1,0.5,0,1,0.2,1.4c0.6,1.3,1.3,2.5,1.8,3.8c0.7,1.6,1.2,3.3,1.8,5c0.6,1.6,1.2,3.1,1.8,4.6
	c0.2,0.5,0.3,1,0.4,1.5c0.1,0.4,0,0.9,0.2,1.2c0.8,1.7,1.6,3.4,2.4,5.2c-0.7,0-1.1,0-1.5,0c-0.6,2.7,1.9,4,2.6,6.1
	c0.6,1.6,1.9,3,2.9,4.4c0.4,0.5,1,0.9,1.5,1.3c0.2-0.1,0.4-0.2,0.6-0.3C101.9,290,101.6,288.7,102,287.7z"/>
<path d="M247.2,132.1c-0.2-0.1-0.5-0.4-0.4-0.5c0-1.1-0.7-1.4-1.5-1.4c-0.8,0-1.7-0.3-2.1,1c-0.2,0.6-0.8,1.4-1.3,1.5
	c-1.3,0.3-1.1,0.9-0.9,1.8c0.1,0.4,0,0.8,0.1,1.3c0.4,2.8,0.9,5.6,1.3,8.4c0,0.1,0,0.1,0,0.2c0.9,2.4,1.8,4.8,2.8,7.2
	c1.3-1,1.4,1.1,2.3,1.6c0.5-0.8,0.8-1.8,1.5-2.1c1.2-0.6,0.7-1.3,0.6-2.1c-0.4-1.8-0.9-3.5-1.3-5.4c2-0.2,2.5-0.7,2.7-2.7
	c0.1-0.7,0.2-1.5,0-2.2C250.3,136,250.3,133.1,247.2,132.1z"/>
<path d="M259.4,119.9c0-1-0.1-2.1-0.1-3.2c-0.7,0.7-1.2,1.4-1.7,1.6c-0.8,0.2-1.7,0.1-2.5,0.1c-1-0.1-1.5,0.1-1.9,1.2
	c-0.5,1.3-1.2,2.5-3.1,2c-0.3-0.1-0.9,0.2-0.9,0.5c-0.7,2.1-1.5,4.2-2.1,6.4c-0.5,1.9,0.3,3.1,2.2,3.6c0.4,0.1,0.8,0.4,1.3,0.5
	c0.6,0.1,1.1,0.2,1.7,0.2c0.3,0,0.5-0.4,0.8-0.4c1.3,0.3,2.6,0.6,3.8,0.9c0.2-0.3,0.4-0.5,0.4-0.8c0.4-3.2,1.8-6,3.4-8.7
	c0.4-0.6,0.4-1.4,0.6-2.3C259.5,121.8,259.4,121,259.4,119.9z"/>
<path d="M240.7,123.9c1.1-0.6,2-1.4,2.8-1.9c-0.6-1.1-0.9-1.9-1.4-2.6c-1-1.4-2.3-1.3-3.7-0.6c-0.2-1.2-0.4-2.2-0.6-3.1
	c-1,0-1.7,0-2.4,0c-0.2,0.5-0.4,1-0.7,1.7c-0.5-0.4-0.8-0.7-0.9-0.8c-0.9,0.8-1.7,1.5-2.5,2.1c-0.4,0.2-1,0.3-1.4,0.2
	c-1.2-0.4-2.3-1.3-3.5-1.4c-1.9-0.1-3.9,0.4-5.9,0.5c-1.3,0.1-1.8,0.5-1.4,1.8c0.3,0.9,0.1,1.4-0.9,1.6c-0.1,0-0.2,0.2-0.4,0.3
	c0.1,0.4,0.2,0.9,0.5,1.7c3.2,0.1,6.5,0.2,9.7,0.3c0.5,0,1.1,0.1,1.6,0.1c2.4,0,4.8-0.1,7.2-0.1c1,0,1.9,0.2,2.9,0.4
	C239.9,123.8,240.4,124,240.7,123.9z"/>
<path d="M255.4,110c-1.1,1.3-1.4,2.7-1.5,4.3c-0.1,1-0.7,1.2-1.6,1.4c-0.7,0.1-1.5,0.6-2.1,1.1c-0.4,0.4-0.7,1-0.9,1.5
	c0.2,0.5,0.5,1,0.7,1.6c0.3,1,1,1.2,1.7,0.5c0.3-0.3,0.6-0.7,0.7-1.1c0.2-1.7,1.4-1.9,2.8-1.8c1.2,0.1,2.6,0.5,3.1-1.3
	c0.1-0.3,1-0.4,1.6-0.7c0.1,0.5,0.1,0.7,0.2,0.8c0.2,0.5,0.4,1,0.6,1.4c0.3-0.5,0.7-1,0.9-1.5c0.4-1.1,0.7-2.3,1.2-3.3
	c0.6-1.2,0.9-2.4-0.1-3.5C260.6,107.5,257.3,107.8,255.4,110z"/>
<path d="M214.5,110.3c-0.7-0.2-1.2-0.7-1.9-1.1c-0.2-0.1-0.4-0.1-0.6-0.1c-2.2,0.9-3.2-0.7-4.5-1.9c-0.5-0.5-1.9-1.2-2-1.1
	c-1.1,1.3-2.5,0.5-3.6,0.6c0.6,2.9,1.2,5.6,1.8,8.3c0.2-0.2,0.5-0.7,0.6-0.9c-0.2-1.1-0.4-1.9-0.6-2.7c0.2-0.1,0.4-0.2,0.6-0.3
	c1.1,0.9,2.3,1.9,3.4,2.8c0.2,0.1,0.4,0.3,0.6,0.2c0.1,0,0.2-0.3,0.3-0.5c0.2-0.3,0.3-0.9,0.6-0.9c0.4-0.1,0.9,0.1,1.2,0.4
	c0.4,0.4,0.4,1.1,0.8,1.5c0.6,0.7,1.3,1.4,2.2,1.8c1,0.5,1.2-0.5,1.5-1.1c0.2-0.3,0.4-0.7,0.7-0.9c1.3-1,1.7-2.3,1.1-3.9
	C216,110.4,215.2,110.5,214.5,110.3z"/>
<path d="M116,130.3c0.1,0.6,0.1,2,0.7,2.7c0.9,1,2.3,1.6,3.6,2.2c0.4,0.2,1.1-0.1,1.5-0.4c0.1-0.1-0.2-0.8-0.2-1.3
	c0-0.4,0.1-0.8,0.1-1.2c-0.6,0-1,0-1.2-0.1c-0.7-2.1-1.2-4.1-1.9-6c-0.1-0.3-0.6-0.5-0.9-0.8c-0.5,1.3-1,2.6-1.6,4.1
	C116.2,129.9,116.1,130.1,116,130.3z"/>
<path d="M117.8,125.6C117.8,125.6,117.9,125.6,117.8,125.6C117.9,125.5,117.8,125.6,117.8,125.6
	C117.8,125.6,117.8,125.6,117.8,125.6C117.8,125.6,117.8,125.6,117.8,125.6z"/>
<path d="M75,223.2c0.2-1.2,0.1-2.5,0-3.8c0-0.3-0.1-0.9-0.4-0.9c-1.4-0.5-2.9-1-4.4-1.4c-0.1,0.2-0.3,0.4-0.4,0.6
	c0.4,0.4,0.9,0.9,1.3,1.3c0.3,0.4,1,0.9,0.9,1.1c-0.6,1.8,0.5,3,1.3,4.7C74,224.2,74.9,223.8,75,223.2z"/>
<path d="M104.6,234.4c-0.1-0.5-0.1-1.2-0.4-1.6c-1-1.4-1.6,0.6-2.6,0.3c-0.1,0.1-0.1,0.3-0.2,0.4c0.9,0.4,1.7,0.9,2.6,1.3
	C104.2,234.7,104.4,234.6,104.6,234.4z"/>
<path d="M105.6,93.2c0.5,0.3,1,0.6,1.4,0.8c0.2-0.1,0.4-0.2,0.6-0.3c-0.4-0.8-0.8-1.5-1.2-2.3c-0.2,0.1-0.3,0.1-0.5,0.2
	C105.8,92.1,105.7,92.7,105.6,93.2z"/>
<path d="M92.6,138.9c0.5-1,2.5,0.4,2.5-1.5c-1.1,0.2-2.2,0.3-3.7,0.5C91.9,138.3,92.2,138.6,92.6,138.9z"/>
<path fill="#FFFFFF" d="M82.1,33.4c-0.1,0.4-0.4,0.9-0.8,1.1c-0.1,0.1-0.2,0.1-0.2,0.2c-0.2,0.1-0.3,0.2-0.4,0.3
	c-0.5,0.6,0.1,0.9,1,1.2c0.4-1.1,0.9-2.2,1.1-2.8c1.2-0.6,2-1,2.9-1.5c-0.1-0.1-0.1-0.2-0.2-0.4c-0.6,0.2-1.2,0.8-1.8,0.7
	C82.6,32.2,82.3,32.5,82.1,33.4z"/>
<path fill="#FFFFFF" d="M81.6,36.2C81.6,36.2,81.6,36.2,81.6,36.2C81.6,36.2,81.6,36.2,81.6,36.2L81.6,36.2z"/>
<path fill="#FFFFFF" d="M84.2,39.6c0.1,0.1,0.2,0.2,0.4,0.3c-0.8,0.4-1.4,0.8-2,1.1c-0.1,0-0.1,0.1-0.2,0.1c-0.9,0.6-0.8,1.1,0.2,2
	c0-0.4-0.1-0.9-0.1-1.3c0.6-0.3,1.2-0.6,1.7-1c0.4-0.4,0.6-0.9,0.9-1.4c-0.6-0.3-1.2-0.5-1.7-0.8C83.6,39,83.9,39.3,84.2,39.6z"/>
<path fill="#FFFFFF" d="M82.6,43.2C82.6,43.2,82.6,43.2,82.6,43.2C82.6,43.2,82.6,43.2,82.6,43.2L82.6,43.2z"/>
<path fill="#FFFFFF" d="M123.7,38.6c0.3-0.3,0.7-1,0.6-1.3c-0.3-0.5-0.9-0.9-1.4-1.3c-0.1,0.1-0.2,0.3-0.3,0.4
	c0.4,0.4,0.8,0.8,1.1,1c0.3,1.7-2.4,0.9-1.9,3C122.5,39.6,123.1,39.2,123.7,38.6z"/>
<path fill="#FFFFFF" d="M100.3,33.5c-0.1-0.2-0.1-0.4-0.2-0.5c-1.4,0.6-2.7,1.1-4.2,1.7C97.8,36,98.7,33.5,100.3,33.5z"/>
<path fill="#FFFFFF" d="M81.4,39.3c0.1,0,0.2-0.1,0.3-0.1c0.7-0.2,1.1-0.3,1.6-0.5c0,0,0,0,0,0c0,0,0,0,0,0c0,0,0,0,0,0c0,0,0,0,0,0
	c0,0,0,0,0,0c0,0,0,0,0,0c-0.4-0.1-0.8-0.2-1.6-0.5c1.6-0.8,1.4-1.6,0.6-2.4c-0.2,0.1-0.4,0.3-0.6,0.4c0.1,0.4,0.2,0.8,0.2,1.2
	C81.8,38,81.6,38.5,81.4,39.3z"/>
<path fill="#FFFFFF" d="M81.6,36.2C81.6,36.2,81.6,36.3,81.6,36.2C81.6,36.2,81.6,36.2,81.6,36.2C81.6,36.2,81.6,36.2,81.6,36.2z"/>
<path fill="#FFFFFF" d="M83,45.4c-0.1,0.1-0.2,0.2-0.3,0.3c-0.1,0.1-0.1,0.1-0.2,0.2c-0.2,0.2-0.2,0.7-0.3,1
	c0.7-0.4,1.2-0.8,1.4-1.3c0.2-0.6,0.2-1.3,0.1-1.9c0-0.2-0.6-0.3-1-0.4C83.3,44,83.5,44.7,83,45.4z"/>
<path fill="#FFFFFF" d="M82.6,43.2C82.6,43.2,82.6,43.2,82.6,43.2C82.6,43.2,82.7,43.2,82.6,43.2C82.7,43.2,82.6,43.2,82.6,43.2z"/>
<path fill="#FFFFFF" d="M100.8,20.9c-0.5-0.5-0.8-0.8-0.9-1c0.1-0.9,0.3-1.6,0.4-2.3c-0.3,0.4-0.6,0.8-0.9,1.2
	C98.6,20.4,98.6,20.5,100.8,20.9z"/>
</svg>
