<?xml version="1.0" encoding="utf-8"?>
<!-- Generator: Adobe Illustrator 18.1.1, SVG Export Plug-In . SVG Version: 6.00 Build 0)  -->
<svg version="1.1" id="Layer_1" xmlns="http://www.w3.org/2000/svg" xmlns:xlink="http://www.w3.org/1999/xlink" x="0px" y="0px"
	 viewBox="0 0 190 93.9" enable-background="new 0 0 190 93.9" xml:space="preserve">
<rect x="0" y="28.3" fill="#333333" width="190" height="65.7"/>
<g>
	<path fill="#FCEE21" d="M48.9,55c1.1,0,1.9,0.9,1.9,1.9c0,1.1-0.9,1.9-1.9,1.9S47,58,47,57C47,55.9,47.8,55,48.9,55z M56.8,65.4
		c1-2.1,2.1-2.8,3.5-2.8c2.4,0,3,2.5,3,4.9V75h3.2v-8.1c0-4.4-1.7-7.5-6.3-7.5c-1,0-2.3,0.6-3.5,1.7v-1h-3.2v10.8
		c0,0.9-0.7,1.6-1.6,1.6c-0.9,0-1.6-0.7-1.6-1.6V60.1h-3.2v10.8c0,2.7,2.1,4.8,4.8,4.8c2.7,0,4.8-2.1,4.8-4.8V65.4z"/>
	<path fill="#FCEE21" d="M68.3,72.4l2.3-2.5c1.1,1.6,2.1,2.8,3.8,2.8c0.9,0,2-0.6,2-1.7c0-2.3-7.2-2.8-7.2-6.7c0-2.8,2-4.9,5.2-4.9
		c2.4,0,3.3,0.6,5,2l-2.2,2.5c-1.1-0.9-1.5-1.2-2.8-1.2c-1.1,0-1.6,0.7-1.6,1.2c0,1.9,7.1,2.3,7.1,6.7c0,3.1-1.9,5.1-5.5,5.1
		C71.2,75.7,69,73.8,68.3,72.4z"/>
	<path fill="#FCEE21" d="M131.4,72.4l2.3-2.5c1.1,1.6,2.1,2.8,3.8,2.8c0.9,0,2-0.6,2-1.7c0-2.3-7.2-2.8-7.2-6.7c0-2.8,2-4.9,5.2-4.9
		c2.4,0,3.3,0.6,5,2l-2.2,2.5c-1.1-0.9-1.5-1.2-2.8-1.2c-1.1,0-1.6,0.7-1.6,1.2c0,1.9,7.1,2.3,7.1,6.7c0,3.1-1.9,5.1-5.5,5.1
		C134.3,75.7,132.1,73.8,131.4,72.4z"/>
	<path fill="#FCEE21" d="M83.3,55c1.1,0,1.9,0.9,1.9,1.9c0,1.1-0.9,1.9-1.9,1.9c-1.1,0-1.9-0.9-1.9-1.9C81.3,55.9,82.2,55,83.3,55z
		 M84.9,75V60.1h-3.2V75H84.9z"/>
	<path fill="#FCEE21" d="M115.8,75v-7.5c0-2.4-0.7-4.9-3.1-4.9c-1.3,0-2.5,0.7-3.5,2.8V75H106V54.6h3.2v6.5c1.1-1.1,2.4-1.7,3.5-1.7
		c4.6,0,6.3,3.1,6.3,7.5V75H115.8z"/>
	<path fill="#FCEE21" d="M122.8,63.3h-2.2v-3.2h2.2V55h3.2v5.1h3.8v3.2h-3.8v6.1c0,1.7,1.6,2.6,3.8,2.6v3.4c-2.3,0-7-0.9-7-6V63.3z"
		/>
	<g>
		<path fill="#FCEE21" d="M103.5,59.4h-8.8v0c0,0,0,0,0,0h0c-2.1,0-3.9,0.8-5.3,2.4c-1.3,1.4-2,3.3-2,5.3c0,4.2,3.3,7.6,7.3,7.6
			c0,0,0.1,0,0.1,0c1.1,0,2,0.4,2.7,1.1c0.7,0.7,1,1.6,1,2.7c0,1-0.4,1.9-1.1,2.6c-0.5,0.5-1.4,1.1-2.7,1.1h-2.4v3.5h2.3v0h0
			c0,0,0,0,0,0h0.2v0c1.9-0.1,3.7-0.8,5-2.2c1.3-1.4,2-3.2,2-5.1c0-2-0.7-3.8-2.1-5.2c-0.1-0.1-0.3-0.3-0.5-0.4
			c0.2-0.2,0.4-0.4,0.6-0.6c1.3-1.4,2-3.3,2-5.2c0-1.5-0.4-2.9-1.1-4.1h2.6V59.4z M94.8,71.5c-1.4,0-3.9-1.2-3.9-4.4
			c0-3.8,2.7-4.7,3.9-4.7c2.4,0,3.7,2.5,3.7,4.7C98.5,69,97.2,71.5,94.8,71.5z"/>
	</g>
</g>
<g>
	<path fill="#FCEE21" stroke="#FCEE21" stroke-width="9" stroke-miterlimit="10" d="M95,41.4c-10.2,0-18.5-8.3-18.5-18.5
		S84.8,4.5,95,4.5s18.5,8.3,18.5,18.5S105.2,41.4,95,41.4z"/>
	<g>
		<path fill="#333333" d="M95,11.3c1.4,0,2.5,1.1,2.5,2.5s-1.1,2.5-2.5,2.5c-1.4,0-2.5-1.1-2.5-2.5S93.6,11.3,95,11.3z"/>
	</g>
	<path fill="#333333" d="M95,4.5c-10.2,0-18.5,8.3-18.5,18.5c0,10.2,8.3,18.5,18.5,18.5c10.2,0,18.5-8.3,18.5-18.5
		C113.5,12.8,105.2,4.5,95,4.5z M95,8.5c8,0,14.5,6.2,14.5,14.2c0,1.9-0.4,4.2-1.1,5.2H81.6c-0.7-1-1.1-3.3-1.1-5.2
		C80.5,14.7,87,8.5,95,8.5z M95,36.9c-4.4,0-8.3-1.1-11-5.1H106C103.3,35.9,99.4,36.9,95,36.9z"/>
	<g>
		<rect x="93" y="18.4" fill="#333333" width="4" height="11.6"/>
	</g>
</g>
</svg>
