<?xml version="1.0" encoding="utf-8"?>
<!-- Generator: Adobe Illustrator 18.1.1, SVG Export Plug-In . SVG Version: 6.00 Build 0)  -->
<svg version="1.1" id="Layer_1" xmlns="http://www.w3.org/2000/svg" xmlns:xlink="http://www.w3.org/1999/xlink" x="0px" y="0px"
	 viewBox="0 0 190 76" enable-background="new 0 0 190 76" xml:space="preserve">
<rect x="0" y="36.4" fill="#333333" width="190" height="40"/>
<g>
	<path fill="#FCEE21" d="M48.9,44.7c1.1,0,1.9,0.9,1.9,1.9c0,1.1-0.9,1.9-1.9,1.9S47,47.7,47,46.6C47,45.5,47.8,44.7,48.9,44.7z
		 M56.8,55c1-2.1,2.1-2.8,3.5-2.8c2.4,0,3,2.5,3,4.9v7.5h3.2v-8.1c0-4.4-1.7-7.5-6.3-7.5c-1,0-2.3,0.6-3.5,1.7v-1h-3.2v10.8
		c0,0.9-0.7,1.6-1.6,1.6c-0.9,0-1.6-0.7-1.6-1.6V49.7h-3.2v10.8c0,2.7,2.1,4.8,4.8,4.8c2.7,0,4.8-2.1,4.8-4.8V55z"/>
	<path fill="#FCEE21" d="M68.3,62l2.3-2.5c1.1,1.6,2.1,2.8,3.8,2.8c0.9,0,2-0.6,2-1.7c0-2.3-7.2-2.8-7.2-6.7c0-2.8,2-4.9,5.2-4.9
		c2.4,0,3.3,0.6,5,2l-2.2,2.5c-1.1-0.9-1.5-1.2-2.8-1.2c-1.1,0-1.6,0.7-1.6,1.2c0,1.9,7.1,2.3,7.1,6.7c0,3.1-1.9,5.1-5.5,5.1
		C71.2,65.3,69,63.4,68.3,62z"/>
	<path fill="#FCEE21" d="M131.4,62l2.3-2.5c1.1,1.6,2.1,2.8,3.8,2.8c0.9,0,2-0.6,2-1.7c0-2.3-7.2-2.8-7.2-6.7c0-2.8,2-4.9,5.2-4.9
		c2.4,0,3.3,0.6,5,2l-2.2,2.5c-1.1-0.9-1.5-1.2-2.8-1.2c-1.1,0-1.6,0.7-1.6,1.2c0,1.9,7.1,2.3,7.1,6.7c0,3.1-1.9,5.1-5.5,5.1
		C134.3,65.3,132.1,63.4,131.4,62z"/>
	<path fill="#FCEE21" d="M83.3,44.7c1.1,0,1.9,0.9,1.9,1.9c0,1.1-0.9,1.9-1.9,1.9c-1.1,0-1.9-0.9-1.9-1.9
		C81.3,45.5,82.2,44.7,83.3,44.7z M84.9,64.6V49.7h-3.2v14.9H84.9z"/>
	<path fill="#FCEE21" d="M115.8,64.6v-7.5c0-2.4-0.7-4.9-3.1-4.9c-1.3,0-2.5,0.7-3.5,2.8v9.6H106V44.2h3.2v6.5
		c1.1-1.1,2.4-1.7,3.5-1.7c4.6,0,6.3,3.1,6.3,7.5v8.1H115.8z"/>
	<path fill="#FCEE21" d="M122.8,52.9h-2.2v-3.2h2.2v-5.1h3.2v5.1h3.8v3.2h-3.8V59c0,1.7,1.6,2.6,3.8,2.6V65c-2.3,0-7-0.9-7-6V52.9z"
		/>
	<g>
		<path fill="#FCEE21" d="M103.5,49h-8.8v0c0,0,0,0,0,0h0c-2.1,0-3.9,0.8-5.3,2.4c-1.3,1.4-2,3.3-2,5.3c0,4.2,3.3,7.6,7.3,7.6
			c0,0,0.1,0,0.1,0c1.1,0,2,0.4,2.7,1.1c0.7,0.7,1,1.6,1,2.7c0,1-0.4,1.9-1.1,2.6c-0.5,0.5-1.4,1.1-2.7,1.1h-2.4v3.5h2.3v0h0
			c0,0,0,0,0,0h0.2v0c1.9-0.1,3.7-0.8,5-2.2c1.3-1.4,2-3.2,2-5.1c0-2-0.7-3.8-2.1-5.2c-0.1-0.1-0.3-0.3-0.5-0.4
			c0.2-0.2,0.4-0.4,0.6-0.6c1.3-1.4,2-3.3,2-5.2c0-1.5-0.4-2.9-1.1-4.1h2.6V49z M94.8,61.1c-1.4,0-3.9-1.2-3.9-4.4
			c0-3.8,2.7-4.7,3.9-4.7c2.4,0,3.7,2.5,3.7,4.7C98.5,58.6,97.2,61.1,94.8,61.1z"/>
	</g>
</g>
<g>
	<path fill="#FCEE21" stroke="#FCEE21" stroke-width="9" stroke-miterlimit="10" d="M95.4,41.4C85.3,41.4,77,33.1,77,22.9
		S85.3,4.5,95.4,4.5s18.5,8.3,18.5,18.5S105.6,41.4,95.4,41.4z"/>
	<g>
		<path fill="#333333" d="M95.4,11.2c1.4,0,2.5,1.1,2.5,2.5s-1.1,2.5-2.5,2.5c-1.4,0-2.5-1.1-2.5-2.5S94.1,11.2,95.4,11.2z"/>
	</g>
	<path fill="#333333" d="M95.4,4.5C85.3,4.5,77,12.8,77,22.9c0,10.2,8.3,18.5,18.5,18.5c10.2,0,18.5-8.3,18.5-18.5
		C113.9,12.8,105.6,4.5,95.4,4.5z M95.4,8.5c8,0,14.5,5.8,14.5,13.8c0,1.9-0.4,3.7-1.1,4.7H82.1c-0.7-1-1.1-2.8-1.1-4.7
		C81,14.3,87.5,8.5,95.4,8.5z M95.4,36.1c-4.4,0-8.3-1.1-11-5.1h21.9C103.8,35,99.8,36.1,95.4,36.1z"/>
	<g>
		<rect x="93.5" y="18.4" fill="#333333" width="4" height="11.6"/>
	</g>
</g>
</svg>
