<?xml version="1.0" encoding="utf-8"?>
<!-- Generator: Adobe Illustrator 18.1.1, SVG Export Plug-In . SVG Version: 6.00 Build 0)  -->
<svg version="1.1" id="Layer_1" xmlns="http://www.w3.org/2000/svg" xmlns:xlink="http://www.w3.org/1999/xlink" x="0px" y="0px"
	 viewBox="0 0 95 117" enable-background="new 0 0 95 117" xml:space="preserve">
<g>
	<path fill="#F69B7C" d="M93.7,109.3c0,3.3-2.7,6-6,6H7.3c-3.3,0-6-2.7-6-6V7.7c0-3.3,2.7-6,6-6h80.4c3.3,0,6,2.7,6,6V109.3z"/>
</g>
<g>
	<path fill="#FFFFFF" d="M27.6,79.6H23v2.2h4v1.3h-4v3.4h-1.4v-8.2h6V79.6z"/>
	<path fill="#FFFFFF" d="M28.8,81.9l-0.4-1.1c0.7-0.3,1.3-0.5,2.3-0.5c1.8,0,2.7,1,2.7,2.6v3.7H32v-0.8c-0.4,0.5-1,0.9-2,0.9
		c-1.1,0-2.1-0.7-2.1-1.9c0-1.4,1-2,2.5-2c0.7,0,1.2,0.1,1.6,0.3v-0.2c0-0.9-0.5-1.4-1.5-1.4C29.8,81.5,29.3,81.6,28.8,81.9z
		 M29.2,84.7c0,0.6,0.5,1,1.2,1c0.9,0,1.6-0.5,1.6-1.3v-0.4c-0.4-0.1-0.8-0.2-1.4-0.2C29.8,83.6,29.2,84,29.2,84.7z"/>
	<path fill="#FFFFFF" d="M34.3,85.7l0.6-1c0.7,0.5,1.4,0.8,2,0.8c0.6,0,0.9-0.3,0.9-0.7c0-1.1-3.2-0.5-3.2-2.7c0-1.2,1-1.9,2.2-1.9
		c0.8,0,1.6,0.3,2.2,0.7l-0.6,1c-0.6-0.4-1.2-0.6-1.7-0.6c-0.5,0-0.8,0.3-0.8,0.6c0,1,3.2,0.6,3.2,2.7c0,1.3-1,2-2.2,2
		C36,86.6,35,86.3,34.3,85.7z"/>
	<path fill="#FFFFFF" d="M41.7,86.5h-1.4v-8.6h1.4v3.3c0.4-0.6,1-1.1,1.9-1.1c1.4,0,2.2,0.9,2.2,2.4v4h-1.4V83c0-1-0.5-1.5-1.3-1.5
		c-0.8,0-1.4,0.6-1.4,1.5V86.5z"/>
	<path fill="#FFFFFF" d="M47.1,79.4V78h1.5v1.4H47.1z M47.2,86.5v-6.2h1.4v6.2H47.2z"/>
	<path fill="#FFFFFF" d="M53,86.7c-1.8,0-3.2-1.4-3.2-3.2c0-1.8,1.4-3.3,3.2-3.3s3.2,1.4,3.2,3.2C56.2,85.2,54.8,86.7,53,86.7z
		 M53,81.4c-1.1,0-1.8,0.9-1.8,2c0,1.1,0.8,2,1.8,2c1.1,0,1.8-0.9,1.8-2C54.8,82.3,54.1,81.4,53,81.4z"/>
	<path fill="#FFFFFF" d="M58.8,86.5h-1.4v-6.2h1.4v1c0.4-0.6,1-1.1,1.9-1.1c1.4,0,2.2,0.9,2.2,2.4v4h-1.4V83c0-1-0.5-1.5-1.3-1.5
		c-0.8,0-1.4,0.6-1.4,1.5V86.5z"/>
	<path fill="#FFFFFF" d="M73.1,86.7L72,85.6c-0.7,0.7-1.5,1.1-2.5,1.1c-1.5,0-2.6-0.9-2.6-2.4c0-1.1,0.6-1.8,1.7-2.3
		c-0.5-0.6-0.7-1.1-0.7-1.7c0-1.1,0.9-2.1,2.3-2.1c1.3,0,2.1,0.9,2.1,2c0,1.1-0.7,1.7-1.8,2.2l1.4,1.4c0.3-0.5,0.6-1,0.9-1.6
		l1.1,0.6c-0.3,0.7-0.7,1.3-1.1,1.9l1.3,1.3L73.1,86.7z M69.4,82.9c-0.7,0.3-1.1,0.8-1.1,1.4c0,0.7,0.6,1.2,1.3,1.2
		c0.6,0,1.1-0.3,1.5-0.7L69.4,82.9z M70.2,79.3c-0.6,0-1,0.4-1,1c0,0.4,0.2,0.7,0.6,1.2c0.8-0.3,1.3-0.7,1.3-1.3
		C71.1,79.7,70.8,79.3,70.2,79.3z"/>
	<path fill="#FFFFFF" d="M23.5,99.3H22l-0.8-2h-3.8l-0.8,2h-1.4l3.5-8.3H20L23.5,99.3z M19.3,92.7L18,96h2.8L19.3,92.7z"/>
	<path fill="#FFFFFF" d="M27.1,99.4c-1.8,0-3.1-1.4-3.1-3.2c0-1.8,1.3-3.3,3.1-3.3c1.1,0,1.9,0.4,2.4,1.1l-0.9,1
		c-0.4-0.5-0.9-0.8-1.6-0.8c-1,0-1.7,0.9-1.7,2c0,1.1,0.7,2,1.8,2c0.7,0,1.1-0.3,1.6-0.8l0.8,0.8C28.9,99,28.2,99.4,27.1,99.4z"/>
	<path fill="#FFFFFF" d="M33.2,99.4c-1.8,0-3.1-1.4-3.1-3.2c0-1.8,1.3-3.3,3.1-3.3c1.1,0,1.9,0.4,2.4,1.1l-0.9,1
		c-0.4-0.5-0.9-0.8-1.6-0.8c-1,0-1.7,0.9-1.7,2c0,1.1,0.7,2,1.8,2c0.7,0,1.1-0.3,1.6-0.8l0.8,0.8C35.1,99,34.4,99.4,33.2,99.4z"/>
	<path fill="#FFFFFF" d="M39.3,98.3c0.7,0,1.2-0.3,1.6-0.7l0.8,0.7c-0.6,0.7-1.4,1.2-2.5,1.2c-1.8,0-3.1-1.3-3.1-3.2
		c0-1.8,1.2-3.3,3-3.3c1.9,0,2.9,1.6,2.9,3.4c0,0.1,0,0.2,0,0.4h-4.4C37.7,97.7,38.4,98.3,39.3,98.3z M40.7,95.8
		c-0.1-0.9-0.6-1.6-1.5-1.6c-0.8,0-1.4,0.7-1.6,1.6H40.7z"/>
	<path fill="#FFFFFF" d="M42.7,98.5l0.6-1c0.7,0.5,1.4,0.8,2,0.8c0.6,0,0.9-0.3,0.9-0.7c0-1.1-3.2-0.5-3.2-2.7c0-1.2,1-1.9,2.2-1.9
		c0.8,0,1.6,0.3,2.2,0.7l-0.6,1c-0.6-0.4-1.2-0.6-1.7-0.6c-0.5,0-0.8,0.3-0.8,0.6c0,1,3.2,0.6,3.2,2.7c0,1.3-1,2-2.2,2
		C44.4,99.4,43.4,99.1,42.7,98.5z"/>
	<path fill="#FFFFFF" d="M48.1,98.5l0.6-1c0.7,0.5,1.4,0.8,2,0.8c0.6,0,0.9-0.3,0.9-0.7c0-1.1-3.2-0.5-3.2-2.7c0-1.2,1-1.9,2.2-1.9
		c0.8,0,1.6,0.3,2.2,0.7l-0.6,1c-0.6-0.4-1.2-0.6-1.7-0.6c-0.5,0-0.8,0.3-0.8,0.6c0,1,3.2,0.6,3.2,2.7c0,1.3-1,2-2.2,2
		C49.8,99.4,48.9,99.1,48.1,98.5z"/>
	<path fill="#FFFFFF" d="M56.9,99.4c-1.8,0-3.2-1.4-3.2-3.2c0-1.8,1.4-3.3,3.2-3.3s3.2,1.4,3.2,3.2C60.2,98,58.8,99.4,56.9,99.4z
		 M56.9,94.2c-1.1,0-1.8,0.9-1.8,2c0,1.1,0.8,2,1.8,2c1.1,0,1.8-0.9,1.8-2C58.8,95.1,58,94.2,56.9,94.2z"/>
	<path fill="#FFFFFF" d="M62.7,99.3h-1.4v-6.2h1.4v1.4c0.4-0.9,1.1-1.6,2.1-1.5v1.5h-0.1c-1.2,0-2.1,0.8-2.1,2.5V99.3z"/>
	<path fill="#FFFFFF" d="M65.7,92.1v-1.4h1.5v1.4H65.7z M65.8,99.3v-6.2h1.4v6.2H65.8z"/>
	<path fill="#FFFFFF" d="M71.5,98.3c0.7,0,1.2-0.3,1.6-0.7l0.8,0.7c-0.6,0.7-1.4,1.2-2.5,1.2c-1.8,0-3.1-1.3-3.1-3.2
		c0-1.8,1.2-3.3,3-3.3c1.9,0,2.9,1.6,2.9,3.4c0,0.1,0,0.2,0,0.4h-4.4C69.9,97.7,70.6,98.3,71.5,98.3z M72.8,95.8
		c-0.1-0.9-0.6-1.6-1.5-1.6c-0.8,0-1.4,0.7-1.6,1.6H72.8z"/>
	<path fill="#FFFFFF" d="M74.8,98.5l0.6-1c0.7,0.5,1.4,0.8,2,0.8c0.6,0,0.9-0.3,0.9-0.7c0-1.1-3.2-0.5-3.2-2.7c0-1.2,1-1.9,2.2-1.9
		c0.8,0,1.6,0.3,2.2,0.7l-0.6,1c-0.6-0.4-1.2-0.6-1.7-0.6c-0.5,0-0.8,0.3-0.8,0.6c0,1,3.2,0.6,3.2,2.7c0,1.3-1,2-2.2,2
		C76.5,99.4,75.6,99.1,74.8,98.5z"/>
</g>
<path fill="#FFFFFF" d="M69.6,34h-8.4c0-0.1,0-0.2,0-0.2c0-7-5.9-12.9-12.8-12.9c-7.3,0-12.8,5.6-12.8,12.9c0,0.1,0,0.2,0,0.2h-8.4
	c-0.6,0-1,0.4-1,1v27.9c0,0.6,0.4,1,1,1h42.5c0.6,0,1-0.4,1-1V35C70.6,34.5,70.1,34,69.6,34z M37.5,33.8c0-6.2,4.7-10.9,10.8-10.9
	c5.9,0,10.8,5,10.8,10.9c0,0.1,0,0.2,0,0.2h-2.3c0,0,0,0,0,0c0-4.8-3.9-8.7-8.6-8.7c-5.1,0-8.6,3.6-8.6,8.7c0,0,0,0,0,0h-2.3
	C37.5,33.9,37.5,33.9,37.5,33.8z M54.9,34H41.7c0,0,0,0,0,0c0-4.6,3.3-6.7,6.6-6.7C52,27.3,54.9,30.3,54.9,34
	C54.9,34,54.9,34,54.9,34z M68.6,36v5.8l-20.5,9.3l-20-9.3V36H68.6z M28.1,61.9V44.1l19.6,9.1c0.1,0.1,0.3,0.1,0.4,0.1
	c0.1,0,0.3,0,0.4-0.1l20.1-9.2v17.8H28.1z"/>
</svg>
