<?xml version="1.0" encoding="utf-8"?>
<!-- Generator: Adobe Illustrator 18.1.1, SVG Export Plug-In . SVG Version: 6.00 Build 0)  -->
<svg version="1.1" id="Layer_1" xmlns="http://www.w3.org/2000/svg" xmlns:xlink="http://www.w3.org/1999/xlink" x="0px" y="0px"
	 viewBox="0 0 95 117" enable-background="new 0 0 95 117" xml:space="preserve">
<g>
	<path fill="#4FCDAD" d="M93.7,109.3c0,3.3-2.7,6-6,6H7.3c-3.3,0-6-2.7-6-6V7.7c0-3.3,2.7-6,6-6h80.4c3.3,0,6,2.7,6,6V109.3z"/>
</g>
<g>
	<path fill="#FFFFFF" d="M13.7,91.3h-1.6v2.7h-1.4v-8.2h3.2c1.9,0,3,1.1,3,2.8C16.9,90.3,15.5,91.3,13.7,91.3z M13.8,87h-1.6v3h1.6
		c1.1,0,1.7-0.6,1.7-1.5C15.5,87.5,14.8,87,13.8,87z"/>
	<path fill="#FFFFFF" d="M20.7,92.9c0.7,0,1.2-0.3,1.6-0.7l0.8,0.7c-0.6,0.7-1.4,1.2-2.5,1.2c-1.8,0-3.1-1.3-3.1-3.2
		c0-1.8,1.2-3.3,3-3.3c1.9,0,2.9,1.6,2.9,3.4c0,0.1,0,0.2,0,0.4H19C19.1,92.3,19.8,92.9,20.7,92.9z M22.1,90.4
		c-0.1-0.9-0.6-1.6-1.5-1.6c-0.8,0-1.4,0.7-1.6,1.6H22.1z"/>
	<path fill="#FFFFFF" d="M26,93.9h-1.4v-6.2H26v1.4c0.4-0.9,1.1-1.6,2.1-1.5v1.5h-0.1c-1.2,0-2.1,0.8-2.1,2.5V93.9z"/>
	<path fill="#FFFFFF" d="M28.6,93.1l0.6-1c0.7,0.5,1.4,0.8,2,0.8c0.6,0,0.9-0.3,0.9-0.7c0-1.1-3.2-0.5-3.2-2.7c0-1.2,1-1.9,2.2-1.9
		c0.8,0,1.6,0.3,2.2,0.7l-0.6,1c-0.6-0.4-1.2-0.6-1.7-0.6c-0.5,0-0.8,0.3-0.8,0.6c0,1,3.2,0.6,3.2,2.7c0,1.3-1,2-2.2,2
		C30.3,94,29.4,93.7,28.6,93.1z"/>
	<path fill="#FFFFFF" d="M37.4,94.1c-1.8,0-3.2-1.4-3.2-3.2c0-1.8,1.4-3.3,3.2-3.3s3.2,1.4,3.2,3.2C40.6,92.6,39.3,94.1,37.4,94.1z
		 M37.4,88.8c-1.1,0-1.8,0.9-1.8,2c0,1.1,0.8,2,1.8,2c1.1,0,1.8-0.9,1.8-2C39.3,89.7,38.5,88.8,37.4,88.8z"/>
	<path fill="#FFFFFF" d="M43.2,93.9h-1.4v-6.2h1.4v1c0.4-0.6,1-1.1,1.9-1.1c1.4,0,2.2,0.9,2.2,2.4v4h-1.4v-3.5c0-1-0.5-1.5-1.3-1.5
		c-0.8,0-1.4,0.6-1.4,1.5V93.9z"/>
	<path fill="#FFFFFF" d="M49.2,89.2l-0.4-1.1c0.7-0.3,1.3-0.5,2.3-0.5c1.8,0,2.7,1,2.7,2.6v3.7h-1.4v-0.8c-0.4,0.5-1,0.9-2,0.9
		c-1.1,0-2.1-0.7-2.1-1.9c0-1.4,1-2,2.5-2c0.7,0,1.2,0.1,1.6,0.3v-0.2c0-0.9-0.5-1.4-1.5-1.4C50.2,88.9,49.7,89,49.2,89.2z
		 M49.6,92.1c0,0.6,0.5,1,1.2,1c0.9,0,1.6-0.5,1.6-1.3v-0.4C52.1,91.1,51.6,91,51,91C50.2,91,49.6,91.4,49.6,92.1z"/>
	<path fill="#FFFFFF" d="M55.2,93.9v-8.6h1.4v8.6H55.2z"/>
	<path fill="#FFFFFF" d="M65.2,94.1c-2.3,0-4.1-1.9-4.1-4.3c0-2.4,1.7-4.3,4.1-4.3c1.5,0,2.4,0.5,3.1,1.3l-0.9,1.1
		c-0.6-0.6-1.3-1-2.2-1c-1.5,0-2.6,1.3-2.6,2.9s1.1,2.9,2.6,2.9c1,0,1.6-0.4,2.3-1.1l0.9,0.9C67.6,93.5,66.7,94.1,65.2,94.1z"/>
	<path fill="#FFFFFF" d="M70.1,89.2l-0.4-1.1c0.7-0.3,1.3-0.5,2.3-0.5c1.8,0,2.7,1,2.7,2.6v3.7h-1.4v-0.8c-0.4,0.5-1,0.9-2,0.9
		c-1.1,0-2.1-0.7-2.1-1.9c0-1.4,1-2,2.5-2c0.7,0,1.2,0.1,1.6,0.3v-0.2c0-0.9-0.5-1.4-1.5-1.4C71.2,88.9,70.7,89,70.1,89.2z
		 M70.6,92.1c0,0.6,0.5,1,1.2,1c0.9,0,1.6-0.5,1.6-1.3v-0.4C73,91.1,72.6,91,72,91C71.1,91,70.6,91.4,70.6,92.1z"/>
	<path fill="#FFFFFF" d="M77.5,93.9h-1.4v-6.2h1.4v1.4c0.4-0.9,1.1-1.6,2.1-1.5v1.5h-0.1c-1.2,0-2.1,0.8-2.1,2.5V93.9z"/>
	<path fill="#FFFFFF" d="M83.3,92.9c0.7,0,1.2-0.3,1.6-0.7l0.8,0.7c-0.6,0.7-1.4,1.2-2.5,1.2c-1.8,0-3.1-1.3-3.1-3.2
		c0-1.8,1.2-3.3,3-3.3c1.9,0,2.9,1.6,2.9,3.4c0,0.1,0,0.2,0,0.4h-4.4C81.8,92.3,82.4,92.9,83.3,92.9z M84.7,90.4
		c-0.1-0.9-0.6-1.6-1.5-1.6c-0.8,0-1.4,0.7-1.6,1.6H84.7z"/>
</g>
<path fill="#FFFFFF" d="M49.3,31.6L45,27.3c0,0,0,0,0-0.1V22c0-0.6-0.4-1-1-1h-5.4v-5.8h3c0.6,0,1-0.4,1-1s-0.4-1-1-1h-7.2
	c-0.2,0-0.3,0-0.5,0.1l-3.5,2c-0.5,0.3-0.7,0.9-0.4,1.4c0.2,0.3,0.5,0.5,0.9,0.5c0.2,0,0.3,0,0.5-0.1l3.3-1.9h2V21h-6.2
	c-0.6,0-1,0.4-1,1v5l-4.5,4.6c-0.2,0.2-0.3,0.4-0.3,0.7v28.9c0,0.6,0.4,1,1,1h23c0.6,0,1-0.4,1-1V32.3
	C49.5,32.1,49.4,31.8,49.3,31.6z M31.4,23H43v3.2H31.4V23z M47.5,60.2h-21V32.8l4.5-4.6h12l4.5,4.6V60.2z"/>
<polygon fill="#FFFFFF" points="38.7,37.6 36,37.6 36,40.9 32.8,40.9 32.8,43.6 36,43.6 36,46.8 38.7,46.8 38.7,43.6 41.9,43.6 
	41.9,40.9 38.7,40.9 "/>
<path fill="#FFFFFF" d="M69.5,30.2h-14c-0.6,0-1,0.4-1,1v3c0,0,0,0.1,0,0.1l3.2,22c0.1,0.5,0.5,0.9,1,0.9h0.1v3.5c0,0.6,0.4,1,1,1
	h6.1c0.6,0,1-0.4,1-1v-3.5c0.5,0,0.9-0.4,1-0.9l2.6-22c0,0,0-0.1,0-0.1v-3C70.5,30.6,70.1,30.2,69.5,30.2z M64.9,59.7h-4.1v-2.4h4.1
	V59.7z M68.5,34.2l-2.5,21h-6.4l-3.1-21v-2h12V34.2z"/>
</svg>
