<?xml version="1.0" encoding="utf-8"?>
<!-- Generator: Adobe Illustrator 18.1.1, SVG Export Plug-In . SVG Version: 6.00 Build 0)  -->
<svg version="1.1" id="Layer_1" xmlns="http://www.w3.org/2000/svg" xmlns:xlink="http://www.w3.org/1999/xlink" x="0px" y="0px"
	 width="250px" height="100px" viewBox="0 0 250 100" enable-background="new 0 0 250 100" xml:space="preserve">
<rect x="-211.5" y="18.4" fill="#333333" stroke="#FFFFFF" stroke-miterlimit="10" width="150.2" height="64.4"/>
<g>
	<g>
		<g>
			<path fill="#FFFFFF" d="M-151.3,59.3v4.3h-0.9v-4.3H-151.3z"/>
			<path fill="#FFFFFF" d="M-146.5,59.3h0.9v4.3h-0.8l-2.1-2.7v2.7h-0.9v-4.3h0.9l2,2.6V59.3z"/>
			<path fill="#FFFFFF" d="M-141.7,63.5h-0.9v-3.4h-1.3v-0.9h3.5v0.9h-1.3V63.5z"/>
			<path fill="#FFFFFF" d="M-135.6,60.1h-2.3V61h2v0.8h-2v0.9h2.3v0.8h-3.2v-4.3h3.2V60.1z"/>
			<path fill="#FFFFFF" d="M-131.2,63.5l-0.9-1.4h-0.7v1.4h-0.9v-4.3h1.9c1,0,1.6,0.5,1.6,1.4c0,0.7-0.4,1.1-0.9,1.3l1,1.5H-131.2z
				 M-131.9,60.1h-0.9v1.2h0.9c0.5,0,0.7-0.2,0.7-0.6C-131.2,60.3-131.5,60.1-131.9,60.1z"/>
			<path fill="#FFFFFF" d="M-125.6,59.3h0.9v4.3h-0.8l-2.1-2.7v2.7h-0.9v-4.3h0.9l2,2.6V59.3z"/>
			<path fill="#FFFFFF" d="M-118.6,63.5h-1l-0.4-1h-1.8l-0.4,1h-1l1.8-4.3h0.9L-118.6,63.5z M-120.8,60.4l-0.6,1.4h1.1L-120.8,60.4z
				"/>
			<path fill="#FFFFFF" d="M-115.6,63.5h-0.9v-3.4h-1.3v-0.9h3.5v0.9h-1.3V63.5z"/>
			<path fill="#FFFFFF" d="M-111.8,59.3v4.3h-0.9v-4.3H-111.8z"/>
			<path fill="#FFFFFF" d="M-107.7,63.6c-1.3,0-2.3-1-2.3-2.2c0-1.2,1-2.2,2.3-2.2c1.3,0,2.3,1,2.3,2.2
				C-105.4,62.6-106.4,63.6-107.7,63.6z M-107.7,60c-0.8,0-1.3,0.6-1.3,1.3c0,0.7,0.5,1.3,1.3,1.3c0.8,0,1.3-0.6,1.3-1.3
				C-106.4,60.7-107,60-107.7,60z"/>
			<path fill="#FFFFFF" d="M-100.8,59.3h0.9v4.3h-0.8l-2.1-2.7v2.7h-0.9v-4.3h0.9l2,2.6V59.3z"/>
			<path fill="#FFFFFF" d="M-93.8,63.5h-1l-0.4-1H-97l-0.4,1h-1l1.8-4.3h0.9L-93.8,63.5z M-96.1,60.4l-0.6,1.4h1.1L-96.1,60.4z"/>
			<path fill="#FFFFFF" d="M-92.3,59.3h0.9v3.4h2.1v0.9h-3.1V59.3z"/>
		</g>
		<path fill="#FFFFFF" d="M-140.4,55.2v-0.6c-0.7,0.8-1.8,1.2-3.1,1.2c-2.7,0-4.7-1.7-4.7-4.1c0-3.1,2.7-4.1,5.4-4.1
			c1.1,0,2,0.1,2.5,0.3v-0.7c0-1.3-1.6-2.1-2.5-2.1c-1.4,0-2.2,0.3-3,1l-1.8-2c1.5-1.2,3.1-1.6,4.8-1.6c3.7,0,5.2,2.4,5.2,4.9v7.8
			H-140.4z M-140.4,50.4c-0.5-0.1-1.4-0.3-2.6-0.3c-1.8,0-2.6,0.7-2.6,1.7c0,0.5,0.8,1.6,2.1,1.6c1.2,0,2.5-0.5,3.1-1.9V50.4z"/>
		<path fill="#FFFFFF" d="M-126.9,55.2v-6.1c0-1.9-0.5-4-2.5-4c-1.1,0-2,0.6-2.8,2.3v7.9h-2.7V43h2.7v0.8c0.9-0.9,2-1.4,2.8-1.4
			c3.8,0,5.1,2.5,5.1,6.1v6.7H-126.9z"/>
		<path fill="#FFFFFF" d="M-122.1,49c0-3.7,2.5-6.5,6.3-6.5c0.9,0,2.3,0.4,3.2,1.4v-8h2.7v19.4h-2.7v-0.8c-0.8,0.8-1.8,1.4-3.2,1.4
			C-119.6,55.8-122.1,52.7-122.1,49z M-119.2,49c0,2,1.2,4.2,3.4,4.2c1.1,0,3.5-0.8,3.5-4.2c0-2.9-2.3-4-3.5-4
			C-118.1,45-119.2,47.3-119.2,49z"/>
		<g>
			<path fill="#FFFFFF" d="M-106.1,38.9c0.9,0,1.6,0.7,1.6,1.6c0,0.9-0.7,1.6-1.6,1.6s-1.6-0.7-1.6-1.6
				C-107.7,39.6-107,38.9-106.1,38.9z M-99.6,47.4c0.8-1.7,1.7-2.3,2.8-2.3c1.9,0,2.5,2.1,2.5,4v6.1h2.7v-6.7c0-3.6-1.4-6.1-5.1-6.1
				c-0.8,0-1.9,0.5-2.8,1.4V43h-2.7v8.8c0,0.7-0.6,1.3-1.3,1.3c-0.7,0-1.3-0.6-1.3-1.3V43h-2.7v8.8c0,2.2,1.7,3.9,3.9,3.9
				c2.2,0,3.9-1.7,3.9-3.9V47.4z"/>
		</g>
		<path fill="#FFFFFF" d="M-150.1,53.1c-0.7,0-1.3-0.6-1.3-1.3v-16h-2.7v16c0,2.2,1.7,3.9,3.9,3.9V53.1z"/>
		<g>
			<path fill="#FFFFFF" d="M-77,42.5h-7.2v0c0,0,0,0,0,0h0c-1.7,0-3.2,0.7-4.3,1.9c-1,1.1-1.6,2.7-1.6,4.3c0,3.4,2.7,6.2,5.9,6.2
				c0,0,0,0,0.1,0c0.9,0,1.6,0.3,2.2,0.9c0.5,0.6,0.9,1.3,0.9,2.2c0,0.8-0.3,1.6-0.9,2.2c-0.4,0.4-1.1,0.9-2.2,0.9H-87V64h2.8v0h0
				c0,0,0,0,0,0h0.2v0c1.6-0.1,3-0.7,4.1-1.8c1.1-1.1,1.7-2.6,1.7-4.2c0-1.6-0.6-3.1-1.7-4.2c-0.1-0.1-0.2-0.2-0.4-0.3
				c0.2-0.1,0.3-0.3,0.5-0.5c1-1.2,1.6-2.7,1.6-4.3c0-1.2-0.3-2.4-0.9-3.3h2.1V42.5z M-84.1,52.4c-1.1,0-3.2-1-3.2-3.6
				c0-3.1,2.2-3.8,3.2-3.8c2,0,3,2,3,3.8C-81.1,50.4-82.1,52.4-84.1,52.4z"/>
		</g>
	</g>
	<g>
		<g>
			<path fill="#FFFFFF" d="M-183.8,62c-7.6,0-13.9-6.2-13.9-13.9s6.2-13.9,13.9-13.9c7.6,0,13.9,6.2,13.9,13.9S-176.2,62-183.8,62z
				 M-183.8,37.3c-6,0-10.9,4.9-10.9,10.9s4.9,10.9,10.9,10.9c6,0,10.9-4.9,10.9-10.9S-177.8,37.3-183.8,37.3z"/>
		</g>
		<g>
			<circle fill="#FFFFFF" cx="-180.9" cy="41.9" r="1.9"/>
		</g>
		<g>
			<rect x="-194.9" y="52.2" fill="#FFFFFF" width="22.3" height="3"/>
		</g>
		<g>
			<rect x="-188.2" y="40.6" fill="#FFFFFF" width="3" height="13.5"/>
		</g>
		<g>
			<rect x="-182.4" y="45.3" fill="#FFFFFF" width="3" height="8.7"/>
		</g>
	</g>
</g>
<rect x="-74.9" y="-166.4" fill="#333333" stroke="#FFFFFF" stroke-miterlimit="10" width="150.2" height="148.5"/>
<g>
	<g>
		<g>
			<path fill="#FFFFFF" d="M96.6,70.5v8.3h-1.8v-8.3H96.6z"/>
			<path fill="#FFFFFF" d="M106.1,70.5h1.8v8.3h-1.6l-4-5.3v5.3h-1.8v-8.3h1.7l3.9,5.1V70.5z"/>
			<path fill="#FFFFFF" d="M115.4,78.8h-1.8v-6.7H111v-1.7h6.9v1.7h-2.5V78.8z"/>
			<path fill="#FFFFFF" d="M127.4,72.1h-4.5v1.7h3.9v1.6h-3.9v1.8h4.5v1.6h-6.4v-8.3h6.3V72.1z"/>
			<path fill="#FFFFFF" d="M136.1,78.8l-1.8-2.7h-1.4v2.7H131v-8.3h3.8c2,0,3.1,1,3.1,2.8c0,1.4-0.7,2.2-1.8,2.6l2,3H136.1z
				 M134.7,72.1h-1.8v2.4h1.9c0.9,0,1.4-0.5,1.4-1.2C136.1,72.5,135.6,72.1,134.7,72.1z"/>
			<path fill="#FFFFFF" d="M147.1,70.5h1.8v8.3h-1.6l-4-5.3v5.3h-1.8v-8.3h1.7l3.9,5.1V70.5z"/>
			<path fill="#FFFFFF" d="M160.8,78.8h-1.9l-0.8-1.9h-3.5l-0.8,1.9H152l3.6-8.4h1.7L160.8,78.8z M156.4,72.6l-1.1,2.7h2.2
				L156.4,72.6z"/>
			<path fill="#FFFFFF" d="M166.7,78.8h-1.8v-6.7h-2.5v-1.7h6.9v1.7h-2.5V78.8z"/>
			<path fill="#FFFFFF" d="M174.2,70.5v8.3h-1.8v-8.3H174.2z"/>
			<path fill="#FFFFFF" d="M182.1,79c-2.6,0-4.4-1.9-4.4-4.3c0-2.4,1.9-4.3,4.4-4.3c2.6,0,4.4,1.9,4.4,4.3
				C186.6,77,184.7,79,182.1,79z M182.1,72c-1.5,0-2.5,1.2-2.5,2.6c0,1.4,1.1,2.6,2.5,2.6c1.5,0,2.5-1.2,2.5-2.6
				C184.7,73.2,183.6,72,182.1,72z"/>
			<path fill="#FFFFFF" d="M195.7,70.5h1.8v8.3h-1.6l-4-5.3v5.3h-1.8v-8.3h1.7l3.9,5.1V70.5z"/>
			<path fill="#FFFFFF" d="M209.4,78.8h-1.9l-0.8-1.9h-3.5l-0.8,1.9h-1.9l3.6-8.4h1.7L209.4,78.8z M204.9,72.6l-1.1,2.7h2.2
				L204.9,72.6z"/>
			<path fill="#FFFFFF" d="M212.4,70.5h1.8v6.7h4.2v1.7h-6V70.5z"/>
		</g>
		<path fill="#FFFFFF" d="M118.1,62.6v-1.2c-1.3,1.5-3.5,2.3-6,2.3c-5.3,0-9.3-3.4-9.3-8c0-6,5.3-8.1,10.5-8.1
			c2.1,0,3.9,0.3,4.8,0.6v-1.4c0-2.5-3.2-4.1-5-4.1c-2.8,0-4.3,0.6-5.9,1.9l-3.6-4c2.9-2.3,6.1-3,9.5-3c7.2,0,10.2,4.7,10.2,9.7
			v15.3H118.1z M118.1,53.1c-0.9-0.3-2.8-0.7-5-0.7c-3.6,0-5.1,1.3-5.1,3.3c0,1,1.5,3,4.2,3c2.3,0,4.9-0.9,6-3.8V53.1z"/>
		<path fill="#FFFFFF" d="M144.5,62.6v-12c0-3.8-1.1-7.9-4.9-7.9c-2.1,0-4,1.1-5.5,4.4v15.4h-5.2V38.7h5.2v1.5
			c1.8-1.8,3.9-2.7,5.5-2.7c7.4,0,10.1,4.9,10.1,12v13.1H144.5z"/>
		<path fill="#FFFFFF" d="M153.8,50.4c0-7.3,4.9-12.8,12.3-12.8c1.8,0,4.5,0.8,6.4,2.7V24.6h5.2v38h-5.2V61
			c-1.7,1.7-3.6,2.7-6.4,2.7C158.8,63.7,153.8,57.7,153.8,50.4z M159.5,50.4c0,3.9,2.3,8.3,6.6,8.3c2.2,0,6.9-1.6,6.9-8.3
			c0-5.6-4.5-7.7-6.9-7.7C161.9,42.6,159.5,47,159.5,50.4z"/>
		<g>
			<path fill="#FFFFFF" d="M185.3,30.5c1.7,0,3.1,1.4,3.1,3.1s-1.4,3.1-3.1,3.1c-1.7,0-3.1-1.4-3.1-3.1S183.5,30.5,185.3,30.5z
				 M198,47.1c1.5-3.3,3.4-4.4,5.5-4.4c3.8,0,4.9,4,4.9,7.9v12h5.2V49.5c0-7-2.7-12-10.1-12c-1.6,0-3.7,0.9-5.5,2.7v-1.5h-5.2v17.3
				c0,1.4-1.1,2.5-2.5,2.5c-1.4,0-2.5-1.1-2.5-2.5V38.7h-5.2v17.3c0,4.3,3.4,7.7,7.7,7.7c4.3,0,7.7-3.4,7.7-7.7V47.1z"/>
		</g>
		<path fill="#FFFFFF" d="M98.9,58.4c-1.4,0-2.5-1.1-2.5-2.5V24.6h-5.2v31.3c0,4.3,3.4,7.7,7.7,7.7V58.4z"/>
		<g>
			<path fill="#FFFFFF" d="M242.4,37.7h-14.1v0c0,0,0,0,0,0h0c-3.3,0-6.3,1.3-8.5,3.8c-2,2.2-3.1,5.2-3.1,8.4
				c0,6.7,5.2,12.2,11.6,12.2c0,0,0.1,0,0.1,0c1.7,0,3.2,0.6,4.3,1.7c1.1,1.1,1.7,2.6,1.7,4.3c0,1.6-0.6,3.1-1.7,4.2
				c-0.8,0.8-2.2,1.8-4.3,1.8h-5.5v5.7h5.4v0h0c0,0,0,0,0.1,0h0.4v0c3.1-0.1,5.9-1.3,8-3.5c2.1-2.2,3.3-5.1,3.3-8.2
				c0-3.2-1.2-6.1-3.3-8.3c-0.2-0.2-0.5-0.5-0.7-0.7c0.3-0.3,0.6-0.6,0.9-0.9c2-2.3,3.1-5.2,3.1-8.4c0-2.4-0.7-4.7-1.8-6.5h4.2V37.7
				z M228.4,57c-2.3,0-6.3-1.9-6.3-7c0-6.1,4.3-7.5,6.3-7.5c3.9,0,6,4,6,7.5C234.4,53,232.3,57,228.4,57z"/>
		</g>
	</g>
	<g>
		<g>
			<path fill="#FFFFFF" d="M32.9,75.9c-15,0-27.2-12.2-27.2-27.2s12.2-27.2,27.2-27.2s27.2,12.2,27.2,27.2S47.9,75.9,32.9,75.9z
				 M32.9,27.4c-11.8,0-21.3,9.6-21.3,21.3S21.2,70,32.9,70s21.3-9.6,21.3-21.3S44.7,27.4,32.9,27.4z"/>
		</g>
		<g>
			<path fill="#FFFFFF" d="M38.6,32.7c2,0,3.7,1.6,3.7,3.7c0,2-1.6,3.7-3.7,3.7c-2,0-3.7-1.6-3.7-3.7C35,34.3,36.6,32.7,38.6,32.7z"
				/>
		</g>
		<g>
			<rect x="11.1" y="56.7" fill="#FFFFFF" width="43.7" height="5.9"/>
		</g>
		<g>
			<rect x="24.3" y="33.8" fill="#FFFFFF" width="5.9" height="26.4"/>
		</g>
		<g>
			<rect x="35.7" y="43.2" fill="#FFFFFF" width="5.9" height="17"/>
		</g>
	</g>
</g>
</svg>
