<?xml version="1.0" encoding="utf-8"?>
<!-- Generator: Adobe Illustrator 18.1.1, SVG Export Plug-In . SVG Version: 6.00 Build 0)  -->
<svg version="1.1" id="Layer_1" xmlns="http://www.w3.org/2000/svg" xmlns:xlink="http://www.w3.org/1999/xlink" x="0px" y="0px"
	 viewBox="0 0 125 50" enable-background="new 0 0 125 50" xml:space="preserve">
<g>
	<g>
		<g>
			<path fill="#FFFFFF" d="M48.5,35.1v4.3h-0.9v-4.3H48.5z"/>
			<path fill="#FFFFFF" d="M53.4,35.1h0.9v4.3h-0.8l-2.1-2.7v2.7h-0.9v-4.3h0.9l2,2.6V35.1z"/>
			<path fill="#FFFFFF" d="M58.1,39.4h-0.9V36h-1.3v-0.9h3.5V36h-1.3V39.4z"/>
			<path fill="#FFFFFF" d="M64.2,35.9h-2.3v0.9h2v0.8h-2v0.9h2.3v0.8H61v-4.3h3.2V35.9z"/>
			<path fill="#FFFFFF" d="M68.6,39.4L67.7,38H67v1.4h-0.9v-4.3H68c1,0,1.6,0.5,1.6,1.4c0,0.7-0.4,1.1-0.9,1.3l1,1.5H68.6z M67.9,36
				H67v1.2h0.9c0.5,0,0.7-0.2,0.7-0.6C68.7,36.2,68.4,36,67.9,36z"/>
			<path fill="#FFFFFF" d="M74.3,35.1h0.9v4.3h-0.8l-2.1-2.7v2.7h-0.9v-4.3h0.9l2,2.6V35.1z"/>
			<path fill="#FFFFFF" d="M81.3,39.4h-1l-0.4-1h-1.8l-0.4,1h-1l1.8-4.3h0.9L81.3,39.4z M79,36.2l-0.6,1.4h1.1L79,36.2z"/>
			<path fill="#FFFFFF" d="M84.2,39.4h-0.9V36H82v-0.9h3.5V36h-1.3V39.4z"/>
			<path fill="#FFFFFF" d="M88.1,35.1v4.3h-0.9v-4.3H88.1z"/>
			<path fill="#FFFFFF" d="M92.1,39.4c-1.3,0-2.3-1-2.3-2.2c0-1.2,1-2.2,2.3-2.2c1.3,0,2.3,1,2.3,2.2C94.4,38.5,93.4,39.4,92.1,39.4
				z M92.1,35.9c-0.8,0-1.3,0.6-1.3,1.3c0,0.7,0.5,1.3,1.3,1.3s1.3-0.6,1.3-1.3C93.4,36.5,92.9,35.9,92.1,35.9z"/>
			<path fill="#FFFFFF" d="M99,35.1h0.9v4.3h-0.8l-2.1-2.7v2.7h-0.9v-4.3H97l2,2.6V35.1z"/>
			<path fill="#FFFFFF" d="M106,39.4h-1l-0.4-1h-1.8l-0.4,1h-1l1.8-4.3h0.9L106,39.4z M103.7,36.2l-0.6,1.4h1.1L103.7,36.2z"/>
			<path fill="#FFFFFF" d="M107.6,35.1h0.9v3.4h2.1v0.9h-3.1V35.1z"/>
		</g>
		<path fill="#FFFFFF" d="M59.5,31.1v-0.6c-0.7,0.8-1.8,1.2-3.1,1.2c-2.7,0-4.7-1.7-4.7-4.1c0-3.1,2.7-4.1,5.4-4.1
			c1.1,0,2,0.1,2.5,0.3V23c0-1.3-1.6-2.1-2.5-2.1c-1.4,0-2.2,0.3-3,1l-1.8-2c1.5-1.2,3.1-1.6,4.8-1.6c3.7,0,5.2,2.4,5.2,4.9v7.8
			H59.5z M59.5,26.2c-0.5-0.1-1.4-0.3-2.6-0.3c-1.8,0-2.6,0.7-2.6,1.7c0,0.5,0.8,1.6,2.1,1.6c1.2,0,2.5-0.5,3.1-1.9V26.2z"/>
		<path fill="#FFFFFF" d="M72.9,31.1V25c0-1.9-0.5-4-2.5-4c-1.1,0-2,0.6-2.8,2.3v7.9H65V18.9h2.7v0.8c0.9-0.9,2-1.4,2.8-1.4
			c3.8,0,5.1,2.5,5.1,6.1v6.7H72.9z"/>
		<path fill="#FFFFFF" d="M77.7,24.9c0-3.7,2.5-6.5,6.3-6.5c0.9,0,2.3,0.4,3.2,1.4v-8h2.7v19.4h-2.7v-0.8c-0.8,0.8-1.8,1.4-3.2,1.4
			C80.2,31.7,77.7,28.6,77.7,24.9z M80.6,24.9c0,2,1.2,4.2,3.4,4.2c1.1,0,3.5-0.8,3.5-4.2c0-2.9-2.3-4-3.5-4
			C81.8,20.9,80.6,23.2,80.6,24.9z"/>
		<g>
			<path fill="#FFFFFF" d="M93.7,14.8c0.9,0,1.6,0.7,1.6,1.6c0,0.9-0.7,1.6-1.6,1.6s-1.6-0.7-1.6-1.6C92.1,15.5,92.8,14.8,93.7,14.8
				z M100.2,23.2C101,21.5,102,21,103,21c1.9,0,2.5,2.1,2.5,4v6.1h2.7v-6.7c0-3.6-1.4-6.1-5.1-6.1c-0.8,0-1.9,0.5-2.8,1.4v-0.8h-2.7
				v8.8c0,0.7-0.6,1.3-1.3,1.3c-0.7,0-1.3-0.6-1.3-1.3v-8.8h-2.7v8.8c0,2.2,1.7,3.9,3.9,3.9c2.2,0,3.9-1.7,3.9-3.9V23.2z"/>
		</g>
		<path fill="#FFFFFF" d="M49.7,29c-0.7,0-1.3-0.6-1.3-1.3v-16h-2.7v16c0,2.2,1.7,3.9,3.9,3.9V29z"/>
		<g>
			<path fill="#FFFFFF" d="M122.8,18.4h-7.2v0c0,0,0,0,0,0h0c-1.7,0-3.2,0.7-4.3,1.9c-1,1.1-1.6,2.7-1.6,4.3c0,3.4,2.7,6.2,5.9,6.2
				c0,0,0,0,0.1,0c0.9,0,1.6,0.3,2.2,0.9c0.5,0.6,0.9,1.3,0.9,2.2c0,0.8-0.3,1.6-0.9,2.2c-0.4,0.4-1.1,0.9-2.2,0.9h-2.8v2.9h2.8v0h0
				c0,0,0,0,0,0h0.2v0c1.6-0.1,3-0.7,4.1-1.8c1.1-1.1,1.7-2.6,1.7-4.2c0-1.6-0.6-3.1-1.7-4.2c-0.1-0.1-0.2-0.2-0.4-0.3
				c0.2-0.1,0.3-0.3,0.5-0.5c1-1.2,1.6-2.7,1.6-4.3c0-1.2-0.3-2.4-0.9-3.3h2.1V18.4z M115.7,28.3c-1.1,0-3.2-1-3.2-3.6
				c0-3.1,2.2-3.8,3.2-3.8c2,0,3,2,3,3.8C118.8,26.2,117.7,28.3,115.7,28.3z"/>
		</g>
	</g>
	<g>
		<g>
			<path fill="#FFFFFF" d="M16,37.9C8.4,37.9,2.2,31.7,2.2,24S8.4,10.1,16,10.1S29.9,16.4,29.9,24S23.7,37.9,16,37.9z M16,13.1
				C10,13.1,5.2,18,5.2,24S10,34.9,16,34.9S26.9,30,26.9,24S22,13.1,16,13.1z"/>
		</g>
		<g>
			<circle fill="#FFFFFF" cx="19" cy="17.7" r="1.9"/>
		</g>
		<g>
			<rect x="4.9" y="28.1" fill="#FFFFFF" width="22.3" height="3"/>
		</g>
		<g>
			<rect x="11.6" y="16.4" fill="#FFFFFF" width="3" height="13.5"/>
		</g>
		<g>
			<rect x="17.5" y="21.2" fill="#FFFFFF" width="3" height="8.7"/>
		</g>
	</g>
</g>
</svg>
