<?xml version="1.0" encoding="utf-8"?>
<!-- Generator: Adobe Illustrator 18.1.1, SVG Export Plug-In . SVG Version: 6.00 Build 0)  -->
<svg version="1.1" id="Layer_1" xmlns="http://www.w3.org/2000/svg" xmlns:xlink="http://www.w3.org/1999/xlink" x="0px" y="0px"
	 viewBox="0 0 95 117" enable-background="new 0 0 95 117" xml:space="preserve">
<g>
	<path fill="#B2B2B2" d="M93.7,109.3c0,3.3-2.7,6-6,6H7.3c-3.3,0-6-2.7-6-6V7.7c0-3.3,2.7-6,6-6h80.4c3.3,0,6,2.7,6,6V109.3z"/>
</g>
<g>
	<path fill="#FFFFFF" d="M36.2,92.6c-2.5,0-4.2-1.9-4.2-4.3c0-2.3,1.7-4.3,4.2-4.3s4.2,1.9,4.2,4.3S38.7,92.6,36.2,92.6z M36.2,85.4
		c-1.6,0-2.7,1.3-2.7,2.9c0,1.6,1.1,2.9,2.7,2.9s2.7-1.3,2.7-2.9C38.9,86.7,37.8,85.4,36.2,85.4z"/>
	<path fill="#FFFFFF" d="M43.4,90.5c0,0.6,0.3,0.8,0.7,0.8c0.3,0,0.6-0.1,0.9-0.2v1.2c-0.3,0.2-0.7,0.3-1.2,0.3
		c-1,0-1.7-0.5-1.7-1.8v-3.3h-0.8v-1.2h0.8v-1.7h1.4v1.7h1.6v1.2h-1.6V90.5z"/>
	<path fill="#FFFFFF" d="M47.6,92.4h-1.4v-8.6h1.4v3.3c0.4-0.6,1-1.1,1.9-1.1c1.4,0,2.2,0.9,2.2,2.4v4h-1.4v-3.5
		c0-1-0.5-1.5-1.3-1.5c-0.8,0-1.4,0.6-1.4,1.5V92.4z"/>
	<path fill="#FFFFFF" d="M55.9,91.4c0.7,0,1.2-0.3,1.6-0.7l0.8,0.7c-0.6,0.7-1.4,1.2-2.5,1.2c-1.8,0-3.1-1.3-3.1-3.2
		c0-1.8,1.2-3.3,3-3.3c1.9,0,2.9,1.6,2.9,3.4c0,0.1,0,0.2,0,0.4h-4.4C54.3,90.8,55,91.4,55.9,91.4z M57.2,88.9
		c-0.1-0.9-0.6-1.6-1.5-1.6c-0.8,0-1.4,0.7-1.6,1.6H57.2z"/>
	<path fill="#FFFFFF" d="M61.2,92.4h-1.4v-6.2h1.4v1.4c0.4-0.9,1.1-1.6,2.1-1.5v1.5h-0.1c-1.2,0-2.1,0.8-2.1,2.5V92.4z"/>
</g>
<path fill="#FFFFFF" d="M43.1,16.8H25.3c-2.8,0-5,2.2-5,5v2.3V53v5.9c0,2.8,2.2,5,5,5h17.8c2.8,0,5-2.2,5-5V53V24.1v-2.3
	C48.1,19.1,45.8,16.8,43.1,16.8z M25.3,18.8h17.8c1.7,0,3,1.3,3,3v1.3H22.3v-1.3C22.3,20.2,23.6,18.8,25.3,18.8z M46.1,52H22.3V25.1
	h23.8V52z M43.1,61.9H25.3c-1.7,0-3-1.3-3-3V54h23.8v4.9C46.1,60.5,44.7,61.9,43.1,61.9z M36.2,57.6c0,1.2-1,2.2-2.2,2.2
	c-1.2,0-2.2-1-2.2-2.2c0-1.2,1-2.2,2.2-2.2C35.2,55.4,36.2,56.4,36.2,57.6z"/>
<path fill="#FFFFFF" d="M79.1,40c0-0.7,0-1.4,0-2c0-0.6-0.4-1-1-1H55c-0.6,0-1,0.5-1,1c0,8.6,2.2,18.8,12.6,18.8
	c5.5,0,8.8-2.9,10.5-6.9c0.1,0.1,0.2,0.1,0.4,0.2c0.3,0,0.6,0.1,0.9,0.1c0.1,0,0.2,0,0.3,0c3-0.2,5.4-2.6,5.2-5.4
	C83.9,42.3,81.8,40.3,79.1,40z M66.6,54.8C59.8,54.8,56.2,50,56,39h21.2C76.9,50,73.4,54.8,66.6,54.8z M78.7,48.2
	c-0.3,0-0.6,0-0.8,0c0,0,0,0,0,0c0.6-1.9,1-4,1.2-6.1c1.7,0.2,3,1.4,3,2.9C82.1,46.6,80.6,48.1,78.7,48.2z M77.7,60c0,0.6-0.4,1-1,1
	h-20c-0.6,0-1-0.4-1-1s0.4-1,1-1h20C77.3,59,77.7,59.4,77.7,60z"/>
</svg>
