<?xml version="1.0" encoding="utf-8"?>
<!-- Generator: Adobe Illustrator 18.1.1, SVG Export Plug-In . SVG Version: 6.00 Build 0)  -->
<svg version="1.1" id="Layer_1" xmlns="http://www.w3.org/2000/svg" xmlns:xlink="http://www.w3.org/1999/xlink" x="0px" y="0px"
	 viewBox="0 0 95 117" enable-background="new 0 0 95 117" xml:space="preserve">
<g>
	<path fill="#33CBFF" d="M93.7,109.3c0,3.3-2.7,6-6,6H7.3c-3.3,0-6-2.7-6-6V7.7c0-3.3,2.7-6,6-6h80.4c3.3,0,6,2.7,6,6V109.3z"/>
</g>
<g>
	<path fill="#FFFFFF" d="M21.5,89.3c0,1-0.6,1.5-1.1,1.8c0.9,0.3,1.6,0.9,1.6,2c0,1.5-1.2,2.3-3,2.3h-3.8v-8.2h3.7
		C20.5,87.2,21.5,88,21.5,89.3z M20.1,89.5c0-0.7-0.5-1.1-1.4-1.1h-2.1v2.2h2C19.5,90.7,20.1,90.3,20.1,89.5z M20.5,93
		c0-0.7-0.5-1.1-1.6-1.1h-2.3v2.3H19C19.9,94.1,20.5,93.8,20.5,93z"/>
	<path fill="#FFFFFF" d="M23.7,90.7l-0.4-1.1c0.7-0.3,1.3-0.5,2.3-0.5c1.8,0,2.7,1,2.7,2.6v3.7H27v-0.8c-0.4,0.5-1,0.9-2,0.9
		c-1.1,0-2.1-0.7-2.1-1.9c0-1.4,1-2,2.5-2c0.7,0,1.2,0.1,1.6,0.3v-0.2c0-0.9-0.5-1.4-1.5-1.4C24.8,90.4,24.3,90.5,23.7,90.7z
		 M24.2,93.6c0,0.6,0.5,1,1.2,1c0.9,0,1.6-0.5,1.6-1.3v-0.4c-0.4-0.1-0.8-0.2-1.4-0.2C24.7,92.5,24.2,92.9,24.2,93.6z"/>
	<path fill="#FFFFFF" d="M33.2,95.6c-1,0-1.6-0.5-2.1-1.1v1h-1.4v-8.6h1.4v3.4c0.4-0.6,1.1-1.2,2.1-1.2c1.4,0,2.8,1.2,2.8,3.2
		C36,94.4,34.6,95.6,33.2,95.6z M32.9,90.3c-0.9,0-1.8,0.8-1.8,2c0,1.2,0.8,2,1.8,2c1,0,1.7-0.8,1.7-2
		C34.6,91.1,33.8,90.3,32.9,90.3z"/>
	<path fill="#FFFFFF" d="M40.1,95.6c-0.5,1.3-1,1.7-2,1.7c-0.6,0-1-0.1-1.4-0.4l0.5-1.1c0.3,0.1,0.5,0.2,0.8,0.2
		c0.4,0,0.6-0.2,0.9-0.7l-2.5-6.2h1.5l1.7,4.6l1.6-4.6h1.4L40.1,95.6z"/>
	<path fill="#FFFFFF" d="M52.3,95.6l-1.1-1.1c-0.7,0.7-1.5,1.1-2.5,1.1c-1.5,0-2.6-0.9-2.6-2.4c0-1.1,0.6-1.8,1.7-2.3
		c-0.5-0.6-0.7-1.1-0.7-1.7c0-1.1,0.9-2.1,2.3-2.1c1.3,0,2.1,0.9,2.1,2c0,1.1-0.7,1.7-1.8,2.2l1.4,1.4c0.3-0.5,0.6-1,0.9-1.6
		l1.1,0.6c-0.3,0.7-0.7,1.3-1.1,1.9l1.3,1.3L52.3,95.6z M48.6,91.8c-0.7,0.3-1.1,0.8-1.1,1.4c0,0.7,0.6,1.2,1.3,1.2
		c0.6,0,1.1-0.3,1.5-0.7L48.6,91.8z M49.5,88.2c-0.6,0-1,0.4-1,1c0,0.4,0.2,0.7,0.6,1.2c0.8-0.3,1.3-0.7,1.3-1.3
		C50.4,88.5,50,88.2,49.5,88.2z"/>
	<path fill="#FFFFFF" d="M64.7,95.4H63l-2.7-3.7L59,93v2.4h-1.4v-8.2H59v4.1l3.8-4.1h1.7l-3.3,3.5L64.7,95.4z"/>
	<path fill="#FFFFFF" d="M65.5,88.3v-1.4H67v1.4H65.5z M65.6,95.4v-6.2H67v6.2H65.6z"/>
	<path fill="#FFFFFF" d="M73.1,95.4v-1C72.6,95,72,95.6,71,95.6c-1.4,0-2.8-1.2-2.8-3.2c0-2.1,1.4-3.2,2.8-3.2c1,0,1.6,0.5,2.1,1.1
		v-3.3h1.4v8.6H73.1z M71.3,90.3c-1,0-1.7,0.8-1.7,2c0,1.2,0.8,2,1.7,2c0.9,0,1.8-0.8,1.8-2C73.1,91.1,72.3,90.3,71.3,90.3z"/>
	<path fill="#FFFFFF" d="M75.5,94.6l0.6-1c0.7,0.5,1.4,0.8,2,0.8c0.6,0,0.9-0.3,0.9-0.7c0-1.1-3.2-0.5-3.2-2.7c0-1.2,1-1.9,2.2-1.9
		c0.8,0,1.6,0.3,2.2,0.7l-0.5,1c-0.6-0.4-1.2-0.6-1.7-0.6c-0.5,0-0.8,0.3-0.8,0.6c0,1,3.2,0.6,3.2,2.7c0,1.3-1,2-2.2,2
		C77.2,95.5,76.2,95.2,75.5,94.6z"/>
</g>
<path fill="#FFFFFF" d="M34,48.4c-2.2,0-4.1,1.6-4.5,3.6c-0.1,0.3-0.1,0.7-0.1,1c0,0,0,0,0,0c0,0.3,0,0.7,0.1,1
	c0.5,2.1,2.3,3.6,4.5,3.6c2.2,0,4.1-1.6,4.5-3.6c0.1-0.3,0.1-0.7,0.1-1c0,0,0,0,0,0c0-0.3,0-0.7-0.1-1C38.1,50,36.2,48.4,34,48.4z
	 M36.5,54c-0.4,1-1.3,1.6-2.4,1.6S32,55,31.6,54c-0.1-0.3-0.2-0.6-0.2-1c0,0,0,0,0,0c0-0.4,0.1-0.7,0.2-1c0.4-1,1.3-1.6,2.4-1.6
	s2,0.7,2.4,1.6c0.1,0.3,0.2,0.6,0.2,1c0,0,0,0,0,0C36.7,53.4,36.6,53.7,36.5,54z M72,48.2V36.8c0-0.6-0.4-1-1-1H50.7V17.9
	c0-0.6-0.4-1-1-1c-14.1,0-25.6,9.1-25.6,20.2c0,0,0,0.1,0,0.1v10.4c-0.9,1.6-1.4,3.5-1.4,5.4c0,6.2,5.1,11.3,11.3,11.3
	c5.9,0,10.7-4.5,11.2-10.3h5.4c0.5,5.8,5.3,10.3,11.2,10.3c6.2,0,11.3-5.1,11.3-11.3C73.2,51.3,72.7,49.6,72,48.2z M61.9,62.3
	c-4.8,0-8.7-3.6-9.2-8.3c0-0.3-0.1-0.7-0.1-1c0,0,0,0,0,0c0-0.3,0-0.7,0.1-1c0.5-4.6,4.4-8.3,9.2-8.3c3.5,0,6.6,2,8.2,4.9
	c0.5,0.9,0.8,1.9,1,3c0.1,0.5,0.1,1,0.1,1.4c0,0.3,0,0.7-0.1,1C70.6,58.7,66.7,62.3,61.9,62.3z M45.3,52
	c-0.5-5.8-5.3-10.3-11.2-10.3c-3.1,0-5.8,1.2-7.9,3.2v-7.2h23.6H70v7.5c-2.1-2.2-4.9-3.5-8.2-3.5c-5.9,0-10.7,4.5-11.2,10.3H45.3z
	 M43.3,54c-0.5,4.6-4.4,8.3-9.2,8.3c-4.8,0-8.8-3.7-9.2-8.4c0-0.3,0-0.6,0-0.9c0-0.9,0.1-1.8,0.4-2.7c0.2-0.8,0.6-1.5,1-2.2
	c1.6-2.6,4.6-4.4,7.9-4.4c4.8,0,8.7,3.6,9.2,8.3c0,0.3,0.1,0.7,0.1,1c0,0,0,0,0,0C43.3,53.4,43.3,53.7,43.3,54z M48.7,18.9v16.9
	H26.2C27,26.6,36.7,19.3,48.7,18.9z M61.9,48.4c-2.2,0-4.1,1.6-4.5,3.6c-0.1,0.3-0.1,0.7-0.1,1c0,0,0,0,0,0c0,0.3,0,0.7,0.1,1
	c0.5,2.1,2.3,3.6,4.5,3.6s4.1-1.6,4.5-3.6c0.1-0.3,0.1-0.7,0.1-1c0,0,0,0,0,0c0-0.3,0-0.7-0.1-1C65.9,50,64.1,48.4,61.9,48.4z
	 M64.3,54c-0.4,1-1.3,1.6-2.4,1.6s-2-0.7-2.4-1.6c-0.1-0.3-0.2-0.6-0.2-1c0,0,0,0,0,0c0-0.4,0.1-0.7,0.2-1c0.4-1,1.3-1.6,2.4-1.6
	s2,0.7,2.4,1.6c0.1,0.3,0.2,0.6,0.2,1c0,0,0,0,0,0C64.5,53.4,64.4,53.7,64.3,54z"/>
</svg>
