<?xml version="1.0" encoding="utf-8"?>
<!-- Generator: Adobe Illustrator 18.1.1, SVG Export Plug-In . SVG Version: 6.00 Build 0)  -->
<svg version="1.1" id="Layer_1" xmlns="http://www.w3.org/2000/svg" xmlns:xlink="http://www.w3.org/1999/xlink" x="0px" y="0px"
	 width="171px" height="40px" viewBox="0 0 171 40" enable-background="new 0 0 171 40" xml:space="preserve">
<g>
	<g>
		<path fill="#FFFFFF" d="M64.9,27.1v-0.6c-0.6,0.7-1.7,1.1-2.9,1.1c-2.6,0-4.5-1.7-4.5-3.9c0-2.9,2.6-3.9,5.1-3.9
			c1,0,1.9,0.1,2.3,0.3v-0.7c0-1.2-1.6-2-2.4-2c-1.3,0-2.1,0.3-2.9,0.9l-1.8-1.9c1.4-1.1,3-1.5,4.6-1.5c3.5,0,5,2.3,5,4.7v7.5H64.9z
			 M64.9,22.5c-0.4-0.1-1.3-0.3-2.5-0.3c-1.8,0-2.5,0.6-2.5,1.6c0,0.5,0.8,1.5,2,1.5c1.1,0,2.4-0.4,2.9-1.9V22.5z"/>
		<path fill="#FFFFFF" d="M76.8,17.7c-0.6-0.1-1-0.2-1.3-0.2c-1.2,0-2.4,0.5-3,2.1v7.5h-2.5V15.5h2.5v0.8c0.8-0.8,1.6-1.3,2.9-1.3
			c1,0,1.7,0.2,2,0.4L76.8,17.7z"/>
		<path fill="#FFFFFF" d="M86.3,27.1l-4.7-5.2v5.2H79v-16h2.5V19l4-3.5h3.3l-5.5,4.9l6.1,6.8H86.3z"/>
		<path fill="#FFFFFF" d="M92.2,22.5c0.5,1.6,1.2,2.7,2.9,2.7c1.2,0,2.4-0.6,3.2-1.6l1.8,1.8c-1.2,1.4-3.2,2.3-5,2.3
			c-3.6,0-5.8-2.9-5.8-6.4s2.3-6.4,5.8-6.4s5.8,2.9,5.8,6.4v1.2H92.2z M92.2,20.5h5.7c-0.2-1.6-1-3.1-2.9-3.1
			C93.2,17.4,92.4,18.9,92.2,20.5z"/>
		<path fill="#FFFFFF" d="M103.8,18h-1.7v-2.5h1.7v-4h2.5v4h3V18h-3v4.8c0,1.3,1.2,2,3,2v2.6c-1.8,0-5.5-0.7-5.5-4.7V18z"/>
		<path fill="#FFFFFF" d="M123,21.4c0,3.6-2.4,6.2-6,6.2c-0.9,0-2.2-0.4-3.1-1.3v5.3h-2.5V15.5h2.5v0.8c0.8-0.8,1.8-1.3,3.1-1.3
			C120.6,14.9,123,17.9,123,21.4z M120.3,21.4c0-1.9-1.1-4-3.2-4c-1.1,0-3.4,0.8-3.4,4c0,2.8,2.2,3.8,3.4,3.8
			C119.1,25.2,120.3,23,120.3,21.4z"/>
		<path fill="#FFFFFF" d="M124.9,27.1v-16h2.5v16H124.9z"/>
		<path fill="#FFFFFF" d="M136.9,27.1v-0.6c-0.6,0.7-1.7,1.1-2.9,1.1c-2.6,0-4.5-1.7-4.5-3.9c0-2.9,2.6-3.9,5.1-3.9
			c1,0,1.9,0.1,2.3,0.3v-0.7c0-1.2-1.6-2-2.4-2c-1.3,0-2.1,0.3-2.9,0.9l-1.8-1.9c1.4-1.1,3-1.5,4.6-1.5c3.5,0,5,2.3,5,4.7v7.5H136.9
			z M136.9,22.5c-0.4-0.1-1.3-0.3-2.5-0.3c-1.8,0-2.5,0.6-2.5,1.6c0,0.5,0.8,1.5,2,1.5c1.1,0,2.4-0.4,2.9-1.9V22.5z"/>
		<path fill="#FFFFFF" d="M156,22.5c0.5,1.6,1.2,2.7,2.9,2.7c1.2,0,2.4-0.6,3.2-1.6l1.8,1.8c-1.2,1.4-3.2,2.3-5,2.3
			c-3.6,0-5.8-2.9-5.8-6.4s2.3-6.4,5.8-6.4s5.8,2.9,5.8,6.4v1.2H156z M156,20.5h5.7c-0.2-1.6-1-3.1-2.9-3.1
			C156.9,17.4,156.2,18.9,156,20.5z"/>
		<g>
			<polygon fill="#FFFFFF" points="42.9,20.7 42.9,27.2 40.3,27.2 40.3,15.6 42.9,15.6 42.9,17.4 			"/>
			<path fill="#FFFFFF" d="M42,17.4c0.9-1.2,2.2-2,3.9-2c2.5,0,3.6,1.6,3.6,4.4v7.4h-2.6v-6.5c0-1.8-0.4-2.8-1.9-2.8
				c-1.4,0-2.5,1-2.5,2.9L42,17.4z"/>
			<path fill="#FFFFFF" d="M48.1,17.4c0.9-1.2,2.2-2,3.9-2c2.5,0,3.6,1.6,3.6,4.4v7.4H53v-6.5c0-1.8-0.4-2.8-1.9-2.8
				c-1.4,0-2.5,1-2.5,2.9L48.1,17.4z"/>
		</g>
		<path fill="#FFFFFF" d="M147.3,27.6c-3.4,0-6-2.8-6-6.3s2.5-6.4,6-6.4c2.2,0,3.5,0.8,4.6,2.1l-1.6,1.9c-0.8-0.9-1.7-1.5-3-1.5
			c-1.9,0-3.3,1.7-3.3,3.9c0,2.2,1.4,3.9,3.4,3.9c1.2,0,2.2-0.6,3-1.5l1.6,1.7C150.9,26.7,149.6,27.6,147.3,27.6z"/>
	</g>
	<path fill="#FFFFFF" d="M18,8.3C11.5,8.3,6.3,13.5,6.3,20c0,6.4,5.2,11.7,11.7,11.7S29.6,26.4,29.6,20C29.6,13.5,24.4,8.3,18,8.3z
		 M18,10.8c5,0,9.1,3.9,9.1,9c0,1.2-0.2,2.2-0.7,3.2h-1.3c0,0,0-4.2,0-4.4c-0.1-0.8-0.2-1.5-0.6-2c-1-1.4-3.1-1.5-4.5-0.8
		c-0.4,0.2-0.8,0.5-1.1,0.8c-0.5-0.8-1.1-1.2-2.4-1.2c-1.1,0-2.5,0.4-2.5,1V16h-3v7H9.5c-0.4-1-0.7-2-0.7-3.2
		C8.8,14.7,12.9,10.8,18,10.8z M17,23h-3v-2.8V19c0-0.7,0.8-1.5,1.6-1.5c1.4,0,1.4,0.9,1.4,2.6V23z M23,23h-3v-3.1c0-0.3,0-1,0-1.4
		c0-0.4,0.5-0.7,1-0.9c0,0-0.1,0,0,0c0.1,0,0.2,0,0.3,0c1.4,0,1.8,0.9,1.8,2.6C23,20.1,23,22,23,23z M18,29.2
		c-2.8,0-5.3-1.2-6.9-3.2h13.9C23.2,28,20.7,29.2,18,29.2z"/>
</g>
</svg>
