<?xml version="1.0" encoding="utf-8"?>
<!-- Generator: Adobe Illustrator 18.1.1, SVG Export Plug-In . SVG Version: 6.00 Build 0)  -->
<svg version="1.1" id="Layer_1" xmlns="http://www.w3.org/2000/svg" xmlns:xlink="http://www.w3.org/1999/xlink" x="0px" y="0px"
	 width="121px" height="40px" viewBox="0 0 121 40" enable-background="new 0 0 121 40" xml:space="preserve">
<g>
	<g>
		<path fill="#808080" d="M40.3,9.7c0.8,0,1.5,0.7,1.5,1.5c0,0.8-0.7,1.5-1.5,1.5s-1.5-0.7-1.5-1.5C38.8,10.4,39.4,9.7,40.3,9.7z
			 M46.5,17.8c0.8-1.6,1.7-2.2,2.7-2.2c1.9,0,2.4,2,2.4,3.8v5.9h2.5v-6.4c0-3.4-1.3-5.8-4.9-5.8c-0.8,0-1.8,0.4-2.7,1.3v-0.8h-2.5
			v8.4c0,0.7-0.5,1.2-1.2,1.2c-0.7,0-1.2-0.5-1.2-1.2v-8.4H39v8.4c0,2.1,1.7,3.7,3.7,3.7c2.1,0,3.8-1.7,3.8-3.7V17.8z"/>
		<path fill="#808080" d="M55.4,23.2l1.8-2c0.9,1.2,1.6,2.2,3,2.2c0.7,0,1.6-0.5,1.6-1.3c0-1.8-5.6-2.2-5.6-5.2c0-2.2,1.5-3.8,4-3.8
			c1.9,0,2.6,0.4,3.9,1.5l-1.7,1.9c-0.8-0.7-1.2-0.9-2.2-0.9c-0.9,0-1.2,0.5-1.2,1c0,1.5,5.5,1.8,5.5,5.2c0,2.5-1.5,4-4.3,4
			C57.7,25.9,56,24.4,55.4,23.2z"/>
		<path fill="#808080" d="M104.8,23.2l1.8-2c0.9,1.2,1.6,2.2,3,2.2c0.7,0,1.6-0.5,1.6-1.3c0-1.8-5.6-2.2-5.6-5.2
			c0-2.2,1.5-3.8,4-3.8c1.9,0,2.6,0.4,3.9,1.5l-1.7,1.9c-0.8-0.7-1.2-0.9-2.2-0.9c-0.9,0-1.2,0.5-1.2,1c0,1.5,5.5,1.8,5.5,5.2
			c0,2.5-1.5,4-4.3,4C107.1,25.9,105.3,24.4,104.8,23.2z"/>
		<path fill="#808080" d="M67.1,9.7c0.8,0,1.5,0.7,1.5,1.5c0,0.8-0.7,1.5-1.5,1.5c-0.8,0-1.5-0.7-1.5-1.5
			C65.6,10.4,66.3,9.7,67.1,9.7z M68.4,25.3V13.7h-2.5v11.7H68.4z"/>
		<path fill="#808080" d="M92.6,25.3v-5.9c0-1.9-0.5-3.8-2.4-3.8c-1,0-1.9,0.5-2.7,2.2v7.5h-2.5v-16h2.5v5.1
			c0.9-0.9,1.9-1.3,2.7-1.3c3.6,0,4.9,2.4,4.9,5.8v6.4H92.6z"/>
		<path fill="#808080" d="M98.1,16.1h-1.7v-2.5h1.7v-4h2.5v4h3v2.5h-3v4.8c0,1.3,1.2,2,3,2v2.6c-1.8,0-5.5-0.7-5.5-4.7V16.1z"/>
		<g>
			<path fill="#808080" d="M83,13.1h-6.9v0c0,0,0,0,0,0h0c-1.6,0-3.1,0.7-4.2,1.8c-1,1.1-1.5,2.6-1.5,4.1c0,3.3,2.6,5.9,5.7,5.9
				c0,0,0,0,0.1,0c0.8,0,1.5,0.3,2.1,0.8c0.5,0.5,0.8,1.3,0.8,2.1c0,0.8-0.3,1.5-0.8,2.1c-0.4,0.4-1.1,0.9-2.1,0.9h-1.9v2.8H76v0h0
				c0,0,0,0,0,0h0.2v0c1.5-0.1,2.9-0.6,3.9-1.7c1-1.1,1.6-2.5,1.6-4c0-1.5-0.6-3-1.6-4c-0.1-0.1-0.2-0.2-0.4-0.3
				c0.2-0.1,0.3-0.3,0.4-0.4c1-1.1,1.5-2.6,1.5-4.1c0-1.2-0.3-2.3-0.9-3.2h2V13.1z M76.1,22.5c-1.1,0-3.1-0.9-3.1-3.4
				c0-3,2.1-3.7,3.1-3.7c1.9,0,2.9,1.9,2.9,3.7C79.1,20.6,78,22.5,76.1,22.5z"/>
		</g>
	</g>
	<g>
		<g>
			<path fill="#808080" d="M18,29.7c-6.4,0-11.7-5.2-11.7-11.7S11.5,6.3,18,6.3S29.6,11.6,29.6,18S24.4,29.7,18,29.7z M18,8.9
				c-5,0-9.1,4.1-9.1,9.1s4.1,9.1,9.1,9.1s9.1-4.1,9.1-9.1S23,8.9,18,8.9z"/>
		</g>
		<g>
			<circle fill="#808080" cx="18" cy="12.2" r="1.6"/>
		</g>
		<g>
			<rect x="8.6" y="21.4" fill="#808080" width="18.7" height="2.5"/>
		</g>
		<g>
			<rect x="16.7" y="15.1" fill="#808080" width="2.5" height="7.3"/>
		</g>
	</g>
</g>
</svg>
