<?xml version="1.0" encoding="utf-8"?>
<!-- Generator: Adobe Illustrator 18.1.1, SVG Export Plug-In . SVG Version: 6.00 Build 0)  -->
<svg version="1.1" id="Layer_1" xmlns="http://www.w3.org/2000/svg" xmlns:xlink="http://www.w3.org/1999/xlink" x="0px" y="0px"
	 width="30px" height="30px" viewBox="0 0 30 30" enable-background="new 0 0 30 30" xml:space="preserve">
<g>
	<path fill="#FCEE21" d="M14.9,0.3C6.8,0.3,0.2,6.9,0.2,15c0,8.1,6.6,14.7,14.7,14.7S29.6,23.1,29.6,15C29.6,6.9,23.1,0.3,14.9,0.3z
		"/>
	<g>
		<circle fill="#333333" cx="14.9" cy="9.1" r="1.6"/>
		<path fill="#333333" d="M14.9,3.2C8.4,3.2,3.1,8.5,3.1,15c0,6.5,5.3,11.8,11.8,11.8c6.5,0,11.8-5.3,11.8-11.8
			C26.8,8.5,21.5,3.2,14.9,3.2z M14.9,24.2c-2.8,0-5.3-0.2-7-3.2h14C20.3,24,17.8,24.2,14.9,24.2z M17,19v-7h-4v7H6.4
			c-0.4-1-0.7-2.5-0.7-3.7c0-5.1,4.2-9.2,9.3-9.2c5.1,0,9.3,4.2,9.3,9.3c0,1.2-0.2,2.6-0.7,3.6H17z"/>
	</g>
</g>
</svg>
