<?xml version="1.0" encoding="utf-8"?>
<!-- Generator: Adobe Illustrator 18.1.1, SVG Export Plug-In . SVG Version: 6.00 Build 0)  -->
<svg version="1.1" id="Layer_1" xmlns="http://www.w3.org/2000/svg" xmlns:xlink="http://www.w3.org/1999/xlink" x="0px" y="0px"
	 width="30px" height="30px" viewBox="0 0 30 30" enable-background="new 0 0 30 30" xml:space="preserve">
<g>
	<path fill="#33CCFF" d="M15,0.3C6.9,0.3,0.3,6.9,0.3,15c0,8.1,6.6,14.7,14.7,14.7S29.7,23.1,29.7,15C29.7,6.9,23.1,0.3,15,0.3z"/>
	<path fill="#231F20" d="M15,3.2C8.5,3.2,3.2,8.5,3.2,15S8.5,26.8,15,26.8S26.8,21.5,26.8,15S21.5,3.2,15,3.2z M15,25.2
		c-2.8,0-5.3-1.2-7-3.2h14C20.3,24,17.8,25.2,15,25.2z M20,19h-3v-4.1c0-0.3,0-1,0-1.4c0-0.4,0.6-0.8,1-0.9c0,0,0,0,0,0
		c0.1,0,0.1,0,0.2,0c1.4,0,1.8,0.7,1.8,2.4C20,14.9,20,19,20,19z M14,19h-3v-3.7V14c1-0.7,0.7-1.5,1.6-1.5c1.4,0,1.4,0.9,1.4,2.6V19
		z M23,18.8v-4v-0.4c0-0.3,0-0.5,0-0.8c-0.1-0.8-0.6-1.5-0.9-2c-1-1.5-3.3-1.6-4.8-0.8c-0.4,0.2-0.9,0.5-1.2,0.8
		c-0.5-0.8-1.2-1.3-2.5-1.3c-1.1,0-1.6,0.4-2.6,1V11H8v8H6.4c-0.4-1-0.7-2.5-0.7-3.7c0-5.1,4.2-9.6,9.3-9.6s9.3,4.4,9.3,9.5
		c0,1.2,0,2.7-0.5,3.7L23,18.8z"/>
</g>
</svg>
