<?xml version="1.0" encoding="utf-8"?>
<!-- Generator: Adobe Illustrator 18.1.1, SVG Export Plug-In . SVG Version: 6.00 Build 0)  -->
<svg version="1.1" id="Layer_1" xmlns="http://www.w3.org/2000/svg" xmlns:xlink="http://www.w3.org/1999/xlink" x="0px" y="0px"
	 width="121px" height="40px" viewBox="0 0 121 40" enable-background="new 0 0 121 40" xml:space="preserve">
<g>
	<g>
		<g>
			<path fill="#FFFFFF" d="M107.6,22.2l-3.3-8.6h-2.8l4.7,11.3c0-0.1,0.1-0.2,0.1-0.3C106.4,24.3,107,23.8,107.6,22.2z"/>
			<path fill="#FFFFFF" d="M106.2,24.9c-0.4,0.9-0.9,1.5-2,1.5h-1.4V29h1.4c2,0,3.1-1.1,3.8-2.1l-0.8,0.4L106.2,24.9z"/>
			<path fill="#FFFFFF" d="M113.3,13.6h-2.8c-0.8,2.2-2,6.2-3,8.6l1.4,2.7C110,22.5,112.7,15.1,113.3,13.6z"/>
			<path fill="#FFFFFF" d="M109,24.9l-1.4-2.7c-0.6,1.6-1.1,2.1-1.3,2.4c0,0.1-0.1,0.2-0.1,0.3l1,2.4l0.8-0.4c0.3-0.5,0.5-1,0.7-1.3
				C108.7,25.5,108.8,25.3,109,24.9z"/>
		</g>
		<path fill="#FFFFFF" d="M67.9,20.6c0.5,1.6,1.2,2.7,2.9,2.7c1.2,0,2.4-0.6,3.2-1.6l1.8,1.8c-1.2,1.4-3.2,2.3-5,2.3
			c-3.6,0-5.8-2.9-5.8-6.4s2.3-6.4,5.8-6.4c3.6,0,5.8,2.9,5.8,6.4v1.2H67.9z M67.9,18.7h5.7c-0.2-1.6-1-3.1-2.9-3.1
			C68.8,15.6,68.1,17.1,67.9,18.7z"/>
		<path fill="#FFFFFF" d="M85.9,25.3v-5.9c0-1.9-0.5-3.8-2.4-3.8c-1,0-1.9,0.5-2.7,2.2v7.5h-2.5V13.6h2.5v0.8
			c0.9-0.9,1.9-1.3,2.7-1.3c3.6,0,4.9,2.4,4.9,5.8v6.4H85.9z"/>
		<path fill="#FFFFFF" d="M96.1,25.8c-3.4,0-6-2.8-6-6.3s2.5-6.4,6-6.4c2.2,0,3.5,0.8,4.6,2.1l-1.6,1.9c-0.8-0.9-1.7-1.5-3-1.5
			c-1.9,0-3.3,1.7-3.3,3.9c0,2.2,1.4,3.9,3.4,3.9c1.2,0,2.2-0.6,3-1.5l1.6,1.7C99.7,24.8,98.4,25.8,96.1,25.8z"/>
		<path fill="#FFFFFF" d="M47.3,25.3v-0.6c-0.6,0.7-1.7,1.1-2.9,1.1c-2.6,0-4.5-1.7-4.5-3.9c0-2.9,2.6-3.9,5.1-3.9
			c1,0,1.9,0.1,2.4,0.3v-0.7c0-1.2-1.6-2-2.4-2c-1.4,0-2.1,0.3-2.9,0.9l-1.8-1.9c1.4-1.1,3-1.5,4.6-1.5c3.5,0,5,2.3,5,4.7v7.5H47.3z
			 M47.3,20.6c-0.4-0.1-1.4-0.3-2.5-0.3c-1.8,0-2.5,0.6-2.5,1.6c0,0.5,0.8,1.5,2,1.5c1.1,0,2.4-0.4,2.9-1.9V20.6z"/>
		<g>
			<path fill="#FFFFFF" d="M63.8,13.1H57v0c0,0,0,0,0,0h0c-1.6,0-3.1,0.7-4.2,1.8c-1,1.1-1.5,2.6-1.5,4.1c0,3.3,2.6,5.9,5.7,5.9
				c0,0,0,0,0.1,0c0.8,0,1.5,0.3,2.1,0.8c0.5,0.5,0.8,1.3,0.8,2.1c0,0.8-0.3,1.5-0.8,2.1c-0.4,0.4-1.1,0.9-2.1,0.9h-1.9v2.8h1.8v0h0
				c0,0,0,0,0,0h0.2v0c1.5-0.1,2.9-0.6,3.9-1.7c1-1.1,1.6-2.5,1.6-4c0-1.5-0.6-3-1.6-4c-0.1-0.1-0.2-0.2-0.4-0.3
				c0.2-0.1,0.3-0.3,0.4-0.4c1-1.1,1.5-2.6,1.5-4.1c0-1.2-0.3-2.3-0.9-3.2h2V13.1z M57,22.6c-1.1,0-3.1-0.9-3.1-3.4
				c0-3,2.1-3.7,3.1-3.7c1.9,0,2.9,1.9,2.9,3.7C59.9,20.6,58.9,22.6,57,22.6z"/>
		</g>
	</g>
	<path fill="#FFFFFF" d="M18,6.3C11.5,6.3,6.3,11.6,6.3,18c0,6.4,5.2,11.7,11.7,11.7c6.4,0,11.7-5.2,11.7-11.7
		C29.6,11.6,24.4,6.3,18,6.3z M18,8.9c5,0,9.1,3.9,9.1,8.9c0,1.2-0.2,2.2-0.7,3.2H23v-4.9c0-2.5-1.5-4.8-5-4.8
		c-1.7,0-3.2,0.4-4.7,1.5l1.8,2c0.8-0.7,1.3-1,2.7-1c0.9,0,2.2,0.8,2.2,2v0.7c0-0.1-1-0.3-2.1-0.3c-2.6,0-4.9,1-4.9,4
		c0,0.4,0,0.7,0,0.7H9.5c-0.4-1-0.7-2-0.7-3.2C8.8,12.7,12.9,8.9,18,8.9z M15.4,20.1c0-1,0.5-1.5,2.3-1.5c1.1,0,2.3,0.3,2.3,0.4v2
		h-4.6C15.4,21,15.4,20.3,15.4,20.1z M18,27.2c-2.8,0-5.3-1.2-6.9-3.2h13.9C23.2,26,20.7,27.2,18,27.2z"/>
</g>
</svg>
