<?xml version="1.0" encoding="utf-8"?>
<!-- Generator: Adobe Illustrator 18.1.1, SVG Export Plug-In . SVG Version: 6.00 Build 0)  -->
<svg version="1.1" id="Layer_1" xmlns="http://www.w3.org/2000/svg" xmlns:xlink="http://www.w3.org/1999/xlink" x="0px" y="0px"
	 width="30px" height="30px" viewBox="0 0 30 30" enable-background="new 0 0 30 30" xml:space="preserve">
<g>
	<path fill="#B3B3B3" d="M14.9,0C6.8,0,0.2,6.6,0.2,14.7s6.6,14.7,14.7,14.7s14.7-6.6,14.7-14.7S23,0,14.9,0z"/>
	<path fill="#231F20" d="M15,3C8.4,3,3.1,8.3,3.1,14.8c0,6.5,5.3,11.8,11.8,11.8s11.8-5.3,11.8-11.8C26.8,8.3,21.5,3,15,3z M15,5.6
		c5.1,0,9.3,4.5,9.3,9.6c0,1.2-0.2,1.8-0.7,3.8H20v-6.1c0-2.5-1.4-4.9-5.1-4.9c-1.7,0-3.3,0.4-4.7,1.5l1.8,2c0.8-0.7,1.8-1,3.2-1
		c0.9,0,2.8,0.8,2.8,2.1v0.7c0-0.1-1.5-0.3-2.6-0.3c-2.6,0-5.4,1-5.4,4.1c0,0.4,0,1.8,0,1.8H6.4c-0.4-2-0.7-2.6-0.7-3.8
		C5.7,10.1,9.9,5.6,15,5.6z M12.4,17.5c0-1,1-1.8,2.8-1.8c1.1,0,2.8,0,2.8,0.2V19h-5.6C12.4,19,12.4,17.7,12.4,17.5z M15,24.2
		c-2.8,0-5.3-0.2-7-3.2h14C20.3,24,17.8,24.2,15,24.2z"/>
</g>
</svg>
