<?xml version="1.0" encoding="utf-8"?>
<!-- Generator: Adobe Illustrator 18.1.1, SVG Export Plug-In . SVG Version: 6.00 Build 0)  -->
<svg version="1.1" id="Layer_1" xmlns="http://www.w3.org/2000/svg" xmlns:xlink="http://www.w3.org/1999/xlink" x="0px" y="0px"
	 viewBox="0 0 755.3 396.7" enable-background="new 0 0 755.3 396.7" xml:space="preserve">
<g>
	<g>
		<path fill="#FCEE21" d="M210.1,127.3c0.6-1.3,0.7-5,2.6-6h0l7.6-18.7c-0.2,0.2-0.4,0.6-0.7,0.9c-0.6,0.8-0.7,1.8-0.9,2.7
			c-0.3,1.6-0.9,3.1-4.8,3.7l-7.6,18.8C207.4,129.7,208.8,130.2,210.1,127.3z"/>
		<path fill="#FCEE21" d="M104.1,132.9c0,0.6,0,1.1,0,1.7l14.5-36.2l-3.6,0l-12.3,30.7C103.5,129.8,104.1,130.6,104.1,132.9z"/>
		<path fill="#FCEE21" d="M93.7,94.4c-3.5-0.2-1.8,1.4-0.3,2.6l1-2.5c-0.1,0-0.2-0.1-0.3-0.1L93.7,94.4z"/>
		<path fill="#FCEE21" d="M206.5,130.2l-0.4-0.9l-5.6,13.8C204,140.4,208.3,136.1,206.5,130.2z"/>
		<path fill="#FCEE21" d="M197.8,165.4c0-0.6-0.1-1.2-0.3-1.9l-1.8,4.4C196.9,168.1,198,167.7,197.8,165.4z"/>
		<path fill="#FCEE21" d="M111.6,141.8L129,98.4l-3.6,0L108.4,141C109.5,141.4,110.6,141.4,111.6,141.8z"/>
		<path fill="#FCEE21" d="M105,137.4c0.7,1.4,1.4,2.2,2.1,2.8l16.8-41.8l-3.6,0L104.8,137C104.9,137.1,104.9,137.3,105,137.4z"/>
		<path fill="#FCEE21" d="M96.9,101.3l1.5-3.7c-0.8-1-1.6-1.9-2.5-2.5l-1.2,3.1C95.1,99,96,100.2,96.9,101.3z"/>
		<path fill="#FCEE21" d="M193.4,166.7c0.1,0.2,0.5,0.4,0.9,0.7l2.6-6.4c-0.5-1.7-1-3.5-1.4-5.3l-3.2,8
			C192.7,165.2,193.1,166.3,193.4,166.7z"/>
		<path fill="#FCEE21" d="M192,115.3c0.4-0.6,1.1-3.8,1-4.6c0,0,0,0,0-0.1l-2.3,5.8C191.2,116,191.8,115.7,192,115.3z"/>
		<path fill="#FCEE21" d="M154.1,161.2c0.5,0.4,0.8,0.7,1.1,0.9l24.6-61.3c-1.1,0.1-2.3,0.3-3.7,0.4L153.2,158
			C153.7,159.3,154,160.4,154.1,161.2z"/>
		<path fill="#FCEE21" d="M220.6,120.5c-0.1-0.2-0.3-0.3-0.4-0.5l-0.2,0.6L220.6,120.5z"/>
		<path fill="#FCEE21" d="M101.7,128l11.9-29.5l-3.6,0l-10.2,25.4C100.3,125.4,101,127.1,101.7,128z"/>
		<path fill="#FCEE21" d="M100.5,111.6c-0.3,1.5-2.1,5.4-1.5,9.6c0,0.1,0,0.2,0.1,0.3l9.3-23l-3.6,0l-0.7,1.8l0.5,1.7
			c-0.6,0.9-1.1,1.2-1.6,1.1l-2.5,6.2C100.6,110.2,100.7,111,100.5,111.6z"/>
		<path fill="#FCEE21" d="M98.9,104.1c0.3,0.6,0.7,1.6,1,2.6l1.8-4.5c-0.7-0.8-1.5-1.9-2.3-3.2l-1.5,3.6
			C98.4,103.4,98.8,104,98.9,104.1z"/>
		<path fill="#FCEE21" d="M218.3,120.9l1-2.4c-1.6-3-0.1-4.5,2.2-5.5l3.1-7.8c-0.6-1.6-1.3-3-2.3-3.2l-7.9,19.6L218.3,120.9z"/>
		<path fill="#FCEE21" d="M139.2,147.4c0.3,0.3,0.6,0.6,0.8,0.9l20-49.8c-0.5,0-1.1-0.1-1.8-0.1l-1.7,0l-19.3,48
			C137.8,146.4,138.5,146.7,139.2,147.4z"/>
		<path fill="#FCEE21" d="M173.5,155l18.6-46.2c-0.6-0.9-1.4-1.9-2.4-2.9L170.4,154C171.5,154.3,172.6,154.7,173.5,155z"/>
		<path fill="#FCEE21" d="M168.9,153.7l19.6-48.9c-0.9-0.8-1.8-1.5-2.7-2.1l-20.5,51.1C166.5,153.4,167.7,153.5,168.9,153.7z"/>
		<path fill="#FCEE21" d="M145.8,156.4c0.5-1.6,1.5-3.9,3-4.3l20.6-51.2c-0.4-0.1-0.8-0.2-1.2-0.3c-0.8-0.2-1.4-0.5-2-0.7l-22,54.9
			C144.6,155.4,145.2,155.9,145.8,156.4z"/>
		<path fill="#FCEE21" d="M143.1,153.6l21.7-54.1c-0.8-0.3-1.8-0.6-3.2-0.8L141,149.9C141.5,151,142.1,152.2,143.1,153.6z"/>
		<path fill="#FCEE21" d="M157.5,163.6c0.8,0.5,1.3,1,1.5,1.6l0.7-1.7c-0.2-0.9-0.9-1.3-0.9-3.2c0.1-2.9,1.7-3.8,4.4-5.5l21.2-52.8
			c-1.1-0.6-2.1-0.9-3.1-1.1l-24.9,62.1C156.7,163,157,163.2,157.5,163.6z"/>
		<path fill="#FCEE21" d="M135.3,147.2l19.6-48.8l-3.6,0l-20.4,50.9C133.1,149.1,134.3,148,135.3,147.2z"/>
		<path fill="#FCEE21" d="M182.7,151.2c0.8,0,1.7,0.1,2.6,0.3l14.8-36.9c-0.1,0.1-0.3,0.3-0.4,0.4c-1.1,1.1-0.2,1.5-2.3,2.6
			c-0.6,0.3-1.6,1-2.7,1.6l-12.9,32C182.1,151.2,182.4,151.2,182.7,151.2z"/>
		<path fill="#FCEE21" d="M189.6,153.7l16.7-41.5c-0.3,0.2-0.6,0.4-1,0.6c-0.9,0.6-2,0.5-3.1,0.8l-15.4,38.3
			C187.9,152.3,188.9,152.9,189.6,153.7z"/>
		<path fill="#FCEE21" d="M120.5,145.4l18.9-47l-3.6,0l-18.5,46C118.9,144.6,119.8,144.8,120.5,145.4z"/>
		<path fill="#FCEE21" d="M191.6,161.4l3.4-8.5c-0.2-2.5,0.2-4.8,2.1-6.8c0.3-0.3,0.6-0.6,1-0.9l14.1-35.1c-2.4,0.2-3.2,0.2-3.7,0.4
			l-18.3,45.5C190.6,157.3,191.1,159.4,191.6,161.4z"/>
		<path fill="#FCEE21" d="M128.2,149c0.4,0.1,0.8,0.2,1.2,0.2l20.4-50.8l-3.6,0l-20.1,50C126.6,148.6,127.3,148.8,128.2,149z"/>
		<path fill="#FCEE21" d="M176.6,154.3c1.1-1.8-0.1-2.8,3.6-3l12.5-31.2c-1.4,0.5-2.6,0.4-3.3-0.7l-14.4,35.8
			C175.7,155.1,176.3,154.9,176.6,154.3z"/>
		<path fill="#FCEE21" d="M124.7,147.8l19.8-49.4l-3.6,0l-19.5,48.5C123,147.1,123.9,147.4,124.7,147.8z"/>
		<path fill="#FCEE21" d="M114.2,144.1c0.6,0.1,1.1,0.2,1.6,0.2l18.4-45.8l-3.6,0l-17.8,44.4L114.2,144.1z"/>
		<path fill="#FCEE21" d="M227.5,110.7l0-0.1c-0.9-0.5-1.6-1.9-2.2-3.4l-2,5C224.8,111.7,226.3,111.3,227.5,110.7z"/>
		<path fill="#FCEE21" d="M150.8,152.8c0.3,0.2,1,1.6,1.6,3.2l21.9-54.6c-1.1,0.1-2.3,0-3.5-0.1l-20.6,51.2
			C150.5,152.6,150.7,152.7,150.8,152.8z"/>
		<path fill="#33CCFF" d="M94,97.6c0,0,0.2,0.3,0.5,0.6l1.2-3.1c-0.4-0.3-0.9-0.5-1.4-0.6l-1,2.5C93.6,97.2,93.9,97.4,94,97.6z"/>
		<path fill="#33CCFF" d="M97.9,102.7l1.5-3.6c-0.3-0.5-0.7-1-1-1.4l-1.5,3.7C97.2,101.8,97.6,102.3,97.9,102.7z"/>
		<path fill="#33CCFF" d="M100.5,109.2l2.5-6.2c-0.4-0.1-0.8-0.4-1.3-0.8l-1.8,4.5C100.1,107.5,100.3,108.4,100.5,109.2z"/>
		<polygon fill="#33CCFF" points="103.5,98.5 104.1,100.3 104.8,98.5 		"/>
		<path fill="#33CCFF" d="M99.8,123.9L110,98.5l-1.6,0l-9.3,23C99.2,122.1,99.5,123,99.8,123.9z"/>
		<path fill="#33CCFF" d="M101.8,128.2c0.3,0.4,0.6,0.6,1,0.9l12.3-30.7l-1.6,0L101.7,128C101.7,128.1,101.8,128.1,101.8,128.2z"/>
		<path fill="#33CCFF" d="M104.8,137l15.5-38.6l-1.6,0l-14.5,36.2C104.2,135.3,104.4,136.1,104.8,137z"/>
		<path fill="#33CCFF" d="M108.4,141l17.1-42.5l-1.6,0l-16.8,41.8C107.5,140.6,108,140.8,108.4,141z"/>
		<path fill="#33CCFF" d="M112,142l0.8,0.8l17.8-44.4l-1.6,0l-17.4,43.4C111.8,141.9,111.9,141.9,112,142z"/>
		<path fill="#33CCFF" d="M117.4,144.4l18.5-46l-1.6,0l-18.4,45.8C116.4,144.3,116.9,144.4,117.4,144.4z"/>
		<path fill="#33CCFF" d="M121.5,146.9C121.5,146.9,121.5,146.9,121.5,146.9L141,98.4l-1.6,0l-18.9,47
			C120.9,145.8,121.2,146.2,121.5,146.9z"/>
		<path fill="#33CCFF" d="M126.1,148.4l20.1-50l-1.6,0l-19.8,49.4C125.1,148,125.6,148.2,126.1,148.4z"/>
		<path fill="#33CCFF" d="M130.9,149.2l20.4-50.9l-1.6,0l-20.4,50.8C129.9,149.3,130.4,149.3,130.9,149.2z"/>
		<path fill="#33CCFF" d="M137.3,146.3l19.3-48l-1.6,0l-19.6,48.8C136,146.7,136.6,146.3,137.3,146.3z"/>
		<path fill="#33CCFF" d="M141,149.9l20.6-51.2c-0.5-0.1-1-0.1-1.5-0.2l-20,49.8C140.4,148.8,140.7,149.3,141,149.9z"/>
		<path fill="#33CCFF" d="M144.2,154.9l22-54.9c-0.5-0.2-0.9-0.4-1.4-0.5l-21.7,54.1C143.4,154,143.8,154.4,144.2,154.9z"/>
		<path fill="#33CCFF" d="M150.3,152.5l20.6-51.2c-0.5-0.1-1-0.1-1.5-0.3l-20.6,51.2C149.3,152.1,149.8,152.1,150.3,152.5z"/>
		<path fill="#33CCFF" d="M153.2,158l22.8-56.8c-0.5,0.1-1.1,0.1-1.7,0.1L152.5,156C152.7,156.7,153,157.4,153.2,158z"/>
		<path fill="#33CCFF" d="M156.5,162.9l24.9-62.1c-0.2,0-0.4-0.1-0.6-0.1c-0.3,0-0.6,0-1,0l-24.6,61.3
			C156,162.7,156,162.7,156.5,162.9z"/>
		<path fill="#33CCFF" d="M163.7,154.5c0.5-0.3,1-0.6,1.6-0.7l20.5-51.1c-0.4-0.3-0.9-0.5-1.3-0.8l-21.2,52.8
			C163.4,154.7,163.6,154.6,163.7,154.5z"/>
		<path fill="#33CCFF" d="M159.3,165.8c0.5-1.1,0.6-1.8,0.5-2.3l-0.7,1.7C159.2,165.4,159.3,165.6,159.3,165.8z"/>
		<path fill="#33CCFF" d="M170.4,154l19.3-48.1c-0.4-0.4-0.8-0.7-1.2-1.1l-19.6,48.9C169.4,153.8,169.9,153.9,170.4,154z"/>
		<path fill="#33CCFF" d="M175.1,155.1l14.4-35.8c-0.1-0.1-0.1-0.2-0.2-0.3c-0.5-1.3,0.4-2.1,1.3-2.7l2.3-5.8
			c-0.1-0.5-0.4-1.1-0.9-1.8L173.5,155C174.1,155.1,174.6,155.2,175.1,155.1z"/>
		<path fill="#33CCFF" d="M181.8,151.2l12.9-32c-0.6,0.3-1.3,0.7-2,0.9l-12.5,31.2C180.7,151.2,181.2,151.2,181.8,151.2z"/>
		<path fill="#33CCFF" d="M186.7,151.9l15.4-38.3c-0.7,0.2-1.3,0.4-2,1l-14.8,36.9C185.8,151.6,186.3,151.7,186.7,151.9z"/>
		<path fill="#33CCFF" d="M189.9,154.3c0,0,0.1,0.6,0.4,1.6l18.3-45.5c-0.6,0.2-0.7,0.6-2.3,1.7l-16.7,41.5
			C189.7,153.9,189.8,154.1,189.9,154.3z"/>
		<path fill="#33CCFF" d="M200.6,143.2l5.6-13.8l-0.8-1.9c0.3,0.4,0.7,0.9,1.1,1.3l7.6-18.9c-0.5,0.1-1,0.1-1.6,0.2c0,0,0,0,0,0
			l-14.1,35.1C198.8,144.6,199.7,143.9,200.6,143.2z"/>
		<path fill="#33CCFF" d="M192.3,163.8l3.2-8c-0.2-1-0.4-1.9-0.5-2.9l-3.4,8.5C191.9,162.2,192.1,163,192.3,163.8z"/>
		<path fill="#33CCFF" d="M195.8,167.9l1.8-4.4c-0.2-0.8-0.4-1.7-0.6-2.5l-2.6,6.4C194.8,167.7,195.3,167.8,195.8,167.9z"/>
		<path fill="#33CCFF" d="M214.5,121.5l7.9-19.6c-0.5-0.1-1.2,0.1-2,0.9l-7.6,18.9L214.5,121.5z"/>
		<path fill="#33CCFF" d="M220,120.6l0.2-0.6c-0.4-0.6-0.7-1.1-1-1.5l-1,2.4L220,120.6z"/>
		<path fill="#33CCFF" d="M223.3,112.2l2-5c-0.3-0.7-0.5-1.4-0.8-2.1l-3.1,7.8C222,112.7,222.7,112.4,223.3,112.2z"/>
		<path fill="#33CCFF" d="M227.6,110.6C227.6,110.6,227.6,110.6,227.6,110.6l-0.1,0.1C227.5,110.7,227.6,110.7,227.6,110.6z"/>
	</g>
	<g>
		<path fill-rule="evenodd" clip-rule="evenodd" fill="#33CCFF" d="M614.2,302.4c-1,2.7-1.4,10.5,0,13.1c0.9,1.6,3.7,2.8,3.5,7.1
			c-0.2,5-0.9,2.9,1.4,5.5c1,1.2,0.5,4.3,0,5.6c-5.5,2.2,2.2,7.5,4.9,6.2c2.4-1.1,3-7.4,6-6.2c0.9,0.4,2.1,4.9,5.1,2.2
			c2.3-2.1,0.9-2.6,6.5-5.4c4.4-1.5,10.5-4.2,14.9,0.3c3,3.1,2.8,9.4,6.3,4c1.2-1.9,1.8-2.9,2.5-4.9c-0.4,6.9-1.9,5.1-2.9,9.8
			c-1.1,5.1,4.2,1.1,4.8,1c3.3-0.5,1,4.9,3.9,7.3c1,0.8,2.3,1.4,3.9,1.8c1.2,0.3,2.9-4,4.2-4c1.4,0,2.3,4.5,3.4,4.1
			c0.6-0.2,1.1-0.4,1.6-0.8c3-2,2.7-1.9,6.7-2.4c-1.8-10.7,6.2-12.5,6.3-24.8c0-2.1-0.9-7,0-9.5c0.7-1.8,1.4-3.3-1.5-4.6
			c-7.1-3.2-6.6-7.6-11.2-13.9c-2.3-3.2-1.6-0.8-1.8-3.7c-0.4-6.2-5-11.7-5.7-13.8c-0.6-1.8-0.1-8.7-3.3-7c-5.3,2.7,7,29.3-13,13.4
			c-4-3.1,1.3-3.3,1.9-3.8c1.1-1.3,2.1-3.4,1.5-5.2c-0.9-2.9-2.7-2.4-6.1-2.6c-5.2-0.2-2.1,3.9-6.5,0.4c-0.9-0.7-1.6-1-2.3-1.1
			c-1.1-0.1-3.1,0.9-1.9,2.4c0.9,1.2,4.3,0.1,1.9,4.5c-2,3.5,0.6,2.5-0.7,5.3c-0.4,0.8-2.9,1.8-3-0.8c-0.1-2.2-0.1-4.2-2.9-4.3
			c-6.1-0.3-4.3,5.9-8.1,7.2c-5.1,1.8-1.2,7.3-5.8,9.6C625.8,296,615.9,297.8,614.2,302.4z"/>
		<path fill-rule="evenodd" clip-rule="evenodd" fill="#33CCFF" d="M676.8,351c-0.9,2.2,1.9,4.2,1.8,1.2c-0.1-1.1,0.5-3.1-0.6-2.7
			C677.2,349.8,678.5,350.4,676.8,351z"/>
		<path fill-rule="evenodd" clip-rule="evenodd" fill="#33CCFF" d="M680.2,354.2c-0.4,0.1-1.1,0.3-1.3,1c-0.1,0.8,1.9,5.6,2.3,6.5
			c2,4.5,5.2,1.9,5.9-1.5c0.7-3.5,1.5-9.6-1-8.6c-1.6,0.6,0.3,4-3.3,3.7C680.6,355.2,682.2,354.2,680.2,354.2z"/>
		<path fill-rule="evenodd" clip-rule="evenodd" fill="#33CCFF" d="M732.7,361.4c-9.9,3.4-11.4,12.6-5.2,13.2
			c9.3,0.8,5.4-12.3,9.3-10.5c0.2,0.6,0.1,1.9,0.8,2.1c0.7,0.2,3.6-1.9-0.1-4.8c1.3,0.3,2.9,0.6,3.5-1.3c1.8-6,1,3.6,4.6-4.1
			c2.9-6.1,3.9-3,5-6.1c2-5.6-4.4-5.5-4.6-5.5c-1.4-0.2-4.9-6-4.9-6c-0.8-1-5-3-6-2.3c-2.9,2.1,10.1,5.9,4.7,12.6
			c-3.7,4.6,3.7,1.8,2.4,5.7c-0.9,2.9-4.8-0.4-4.8-0.4C734.5,355.3,734.4,360.8,732.7,361.4z"/>
		<ellipse fill-rule="evenodd" clip-rule="evenodd" fill="#33CCFF" cx="723.6" cy="383.7" rx="1.6" ry="1.6"/>
		<path fill-rule="evenodd" clip-rule="evenodd" fill="#33CCFF" d="M717.6,295.7c0.6,2.7,3,2.4,5.4,6.2c0.7,1.1,1.5,2.6,3,1.6
			c0.7-0.5,0.4-1.4,0-2.2c-0.8-1.5,0.3-2.2,0.8-0.6c2.9,1.4,3.4-1.2,1-1.3c-1.9-0.1-0.1-2.9-3.2-1.9c-0.4,0.9-0.3,1.5-0.2,2.7
			C723.9,299,717.3,289.7,717.6,295.7z"/>
		<path fill-rule="evenodd" clip-rule="evenodd" fill="#33CCFF" d="M723.8,280.1c-1.8,3.7,4.3,5.4,3.5,9.3c-0.6,3,1.5,1.4,1.6,0.8
			c1.3-6.1-1.7-5.6-1.7-6.5c2.5-1.2,0.8-1.7-0.5-1.9C725.1,281.6,726.5,279.2,723.8,280.1z"/>
		<path fill-rule="evenodd" clip-rule="evenodd" fill="#33CCFF" d="M730.2,290.6l-1.5,1.2c-0.3,0.6,0.1,1.3,0.3,1.7
			c1.1,1.2,0.5,3.5,2.9,2.3c0.4-1.5,0.1-1.7-1-2C730.4,292.5,731.6,291.1,730.2,290.6z"/>
		<path fill-rule="evenodd" clip-rule="evenodd" fill="#33CCFF" d="M746.3,289.7c0.5,1.3,1.8,0.7,1.4,2.8c-0.4,2.9,2.1,1.2,2.1,1.2
			c0.6-0.6,0.4-2.5,0.2-3.4c-0.1-3,1.4-1.3,2.7-2.1c1.3-0.7,1.4-3.2,1-3.9c-0.6-1-2.3-0.7-3.1,0l-1.6,2.2
			C748.7,286.9,745.4,287.2,746.3,289.7z"/>
		<ellipse fill-rule="evenodd" clip-rule="evenodd" fill="#33CCFF" cx="712" cy="272.5" rx="1.6" ry="1.7"/>
		<path fill-rule="evenodd" clip-rule="evenodd" fill="#33CCFF" d="M710,266.6c0.4,1.2,2.8,0.7,4.3,2.7c0.6,0.9,1,1.7,2,0.9
			c0.5-2.8-1.9-1.9-2.3-4.9c-0.3-2.9,0.4-3.1-2.2-4c-1.9-0.7-1.4-0.3-2.5-2.2c-0.6-1-1.1-1.2-2.3-1c-0.4,1.3-0.4,1.1,0.7,2.4
			c2.9,3,1.8,1.4,3.5,2.3c1.1,0.6,1,1.4,0.6,2.2C711,265.2,709.6,264.9,710,266.6z"/>
		<path fill-rule="evenodd" clip-rule="evenodd" fill="#33CCFF" d="M704.3,263.7c2.6,3.2,4.3,1.6,3.2-0.7c-0.4-0.8-1-1-1.2-2.3
			c-0.7-5.7-3.5-2.5-4.2-4.7c-0.4-1.2,0.1-5.2-2.7-3.6c-1,3.8,0.9,3.7,2.9,5.5C703.8,259.2,701.8,260.6,704.3,263.7z"/>
		<ellipse fill-rule="evenodd" clip-rule="evenodd" fill="#33CCFF" cx="723.6" cy="269.7" rx="1.2" ry="1.6"/>
		<ellipse fill-rule="evenodd" clip-rule="evenodd" fill="#33CCFF" cx="750.8" cy="263.3" rx="0.7" ry="1.4"/>
		<ellipse fill-rule="evenodd" clip-rule="evenodd" fill="#33CCFF" cx="697.9" cy="271.5" rx="1.6" ry="1.4"/>
		<ellipse fill-rule="evenodd" clip-rule="evenodd" fill="#33CCFF" cx="696.3" cy="264.7" rx="1.2" ry="1.2"/>
		<path fill-rule="evenodd" clip-rule="evenodd" fill="#33CCFF" d="M686.5,269c7.7,3.4,8.5-4.3,4.1-5.2c-0.7-0.1-5.9-0.7-6.3-4
			c-0.4-4.6,6.5,0.1,11.8-6.1c1.4-1.6,2.2-4,0.4-5.8c-2.4-2.4-3.8-3.8-6.6-3.5c-2.3,3.8,5.2,2.2,3.7,7c-1.2,3.8-9.9,1.3-10.9,0.7
			l-2-1.6l-8-5.5c-0.7-0.3-4.6-1-4.6-1c-1.5-0.9-1.6-1.5-1.9-1.9c-0.7-0.7-1-0.9-1.8,0c-0.3,0.3,0.5,1.6-0.7,2.1
			c-2.3,0.9,0.3-6.3-4-4.1c-1.1,4.6,3.9,2.2,1.8,7.1c-1.1,2.7-5.1,0.1-4.2-2.5c0.4-1.2,1.9-0.7,0.8-3.9c-1-0.4-7.9-2.7-8.9-2.3
			c-2.5,0.9,0.4,3.4,1,4.5c1.6,0.1,2.3-1.5,3.9,0.2c0.1,3-2.6,1.3-0.9,4.7c1.7,3.4,0.7,4.2,5.1,3.3c2.1-0.4,3.5-0.6,5.7,1.6
			c5.8,5.8-1.2,8.1,0.7,10.7c1.6,2.1,3.7-1.3,3.9-1.3c2.6-1.2-0.1,4.7,4.8,4.3c3.8-0.3,1.9-4.6,5.7-5.1
			C682.2,260.9,683.6,267.7,686.5,269z"/>
		<ellipse fill-rule="evenodd" clip-rule="evenodd" fill="#33CCFF" cx="725.4" cy="240.4" rx="1" ry="1"/>
		<path fill-rule="evenodd" clip-rule="evenodd" fill="#33CCFF" d="M651.3,263.8c2.1-1,4-7.3,0.5-6c-1.6,0.6-1.5,3.2-2.3,2.5
			c-1.8-1.5-2.3-1.1-2.6,1.6C648.6,261.8,649,264.9,651.3,263.8z"/>
		<path fill-rule="evenodd" clip-rule="evenodd" fill="#33CCFF" d="M655.8,256.9c-0.1,2.1,1.4,3.4,2.1,1.3c0.6-1.7,2.6-2.1,1.9-4
			c0,0-1.3-1.7-2.9,0.7c-1.4,0.1-1.9-2.3-4.2-1.2C652,256,654.3,254.2,655.8,256.9z"/>
		<path fill-rule="evenodd" clip-rule="evenodd" fill="#33CCFF" d="M643.9,249.3c2.9,5.2,0.8-2.8,6.1-0.7c0.7,2,0.2,1.4,0.9,2.3
			c0.5,0,0.5-0.2,0.5-0.9c-0.4-3.7-0.2-2-1.9-3.5c-0.2-1.6,0.5-1,0.7-2.2c-1.4-2.6-2.3,0.3-2.8,1.3c-4.6,1.2-1.3,1.9-5.3,1.6
			c-0.9-1.2-1.2-9.2-5.1-4c0.2,2,2.3,1.5,3.3,5C640.9,250.8,642.4,250.4,643.9,249.3z"/>
		<path fill-rule="evenodd" clip-rule="evenodd" fill="#33CCFF" d="M644.7,240.3c0.1-3,2.2,0.1,2.5-3.8c0.2-3.5-0.9-1.7-1.8-2.6
			c-0.2-0.2-0.6-1.3,1-1.1c0.1,0,1.5,0.6,1.7-1.1c0.2-2.4-2.3-2.1-3-1.2c-0.5,0.6,0.2,0.6-1,1.2c-1,0.6-1.1,1-1,2.3
			c0,5.6-0.3,2.2-0.8,5c-0.5,2.4,0.7,2.1,0.9,3.7c0,0.3-0.2,2.6,2.2,2.1c0.8-0.2,1.3-1.2,0.5-1.8C645,242.4,644.7,241.8,644.7,240.3
			z"/>
		<path fill-rule="evenodd" clip-rule="evenodd" fill="#33CCFF" d="M637.4,238.5c0.3-0.2,1.9-2,1.9-2c0,0,1.2-0.4,1.1-1.8
			c-0.1-2.3-2.7-2.1-3.7-1c-0.2,0.2-0.4,1.4-1.6,1.5c-0.7,0.1-2.8,0.1-3.3-0.4c-0.3-0.3-0.7-0.9-1.7-0.7c-1.4,0.3-1.8,1.7-2.5,3.1
			c-1.4,3-0.8,1.6-1.8,5.1c-0.7,2.3-1.8,5.2-1,7c0.7,0.2,2.5,0,2.5,1.9c0,1.9-1.8,0.7-2.1,2.8c-0.3,2.6,2.9,3.2,3.6,0.8
			c0.8-2.9-1.2-5.8,1.5-5.2c1,2.1-1,6.2,2.8,6.5c3,0.3,3-2.7,2.7-5.7c-0.1-1.2-1.4-2.8-1.8-3.3c-0.5-0.5-2.1-1.1-1.7-2.3
			c0.4-1.2,3,0.7,3.2-1.2c0.3-2.6,0.2-3.6-2.9-4c-1.8-0.2-3.1,2-3.8-0.1C629.4,237.4,635.5,239.7,637.4,238.5z"/>
		<path fill-rule="evenodd" clip-rule="evenodd" fill="#33CCFF" d="M638.7,260.4c-6.8-0.3-5.6,5.7-9-0.1c-1.1,5.8-2.7,4.1-3.7,0
			c-1.7,5-8,0.7-10,0.5c-3.1-0.3-1.2-1.1-0.7-1.2c0.9-0.1,5.8,0.3,4.9-1.4c-0.7-1.4-5.6,1.6-14.5-1.3c-1.7-0.5-10.7-2.2-7.8-7
			c1.1-1.9,8.5,1.4,6.9-3.9c-0.9-2.7-3.4-0.8-4.5-2.5c-0.6-0.9,0.3-2.4-3.3-1.4c-2.4,0.6-1.1-2.1-1.6-3.1c-0.2-0.4-8-7.4-9.6-9.3
			c-1.7-2-6.1-11.1-9.7-7.7c-4.1,3.9,7.9,8.8,10.5,20.2c1.9,8.3,6.9,10.8,7.6,11.9c0.8,1.2,0.2,5.6,9.4,7.8
			c6.8,1.6,6.8,1.9,13.2,2.3c10.8,0.7,4.4,3.2,12.3,4.8c1.2,0.2,4.2-1.8-1.6-3.5c6.8-0.4,3.6-0.5,6.7-1.5c0.7-0.2,1.3-0.1,1.9,0.1
			c0.4,2-4,4.2-2.2,6.2c0.6,0.6,3.1,1.2,4.9-2.3c3.3-6.3,5.7-2.7,6.1-6c0.3-2.2-1.7-4.3-5.5-1.9L638.7,260.4z"/>
		<path fill-rule="evenodd" clip-rule="evenodd" fill="#33CCFF" d="M619,251.5c3.6-1.1,1.6-7.2,2.5-9.4c2-5,4.3-4.2,3.8-7.3
			c-0.5-3.1-2.9-1.3-3.1-5.5c0-0.7,0.3-3-1.9-3c-3.5-0.1-3.3,5.8-3.5,6.5c-0.8,2.8-6,2.4-6.9,1c-0.2-0.4-0.5-2-2-2.7
			c-0.3-0.1-0.6-0.2-0.9-0.3c-2.5-0.5-3.6,2.8-3.3,5.3c0.5,3.6,1.3,7.6,3.9,10.5c3,3.3,6.5,2.3,7.1,2.9
			C615.2,250,615.7,252.5,619,251.5z"/>
		<path fill-rule="evenodd" clip-rule="evenodd" fill="#33CCFF" d="M620.4,226.2c2.1,0,1.9,2.3,1.9,3l3.1-1.7c4.2-4-1.3-6.6-1.3-6.7
			c-1.5-1.2-0.8-2.4-1.8-3.1c-2.4-1.8-5.3,6.7-7.7,9.3c-1,1-4.4,3.3-6.6,3.9c1.6,0.7,1.8,2.3,2,2.7c0.9,1.4,6,1.9,6.9-1
			C617,232,616.8,226.2,620.4,226.2z"/>
		<path fill-rule="evenodd" clip-rule="evenodd" fill="#33CCFF" d="M597.8,236.8c-4.6-5.2-1.6-7.5-3-13.1c-1.1-4.4-5.1-3.3-6.9-6.9
			c-0.9-1.8,0-3.8-1.3-5.6c-2.2-3.2-6.6-0.3-4.4,3.5c1,1.8,2.1,2.1,2.6,2.7l1.4,2.1c1.8,3.9,0.3,4.7,1.8,8.7c0.7,2,1.1,2.2,2.4,3.9
			c1.8,2.3,3.7,3.6,6.3,4.3L597.8,236.8z"/>
		<path fill-rule="evenodd" clip-rule="evenodd" fill="#33CCFF" d="M635.2,214.3c1,4.8,0.3,9.6,3.6,8.9c3.7-0.8,3-6,2.8-9.3
			c-0.3-3.9-1.1-10-3-13.1c-1.2-2.2-2.7-2.5-4.2-3.1c-1.6-1-3.3-2-1.6-5.6c1.8-4,0.5-7.5-2.1-7.9c-5.1-0.7-3.8,5.9-3.7,8.3
			c0.2,7.1,2.7,4.2,1.6,8.8c-1.2,5.3-5.4,11.4-8.8,15.3c2.9-1.9,6.7-5.2,8.3-8.6c0.8-1.7,0.5-4.5,3.6-4.2c0.8,5.5,2.1,6.3,1.9,9
			c-0.4,5.2-1.9,5.5-4.3,9.2c-1.4,2.1-1.2,2-1.6,4.6c1.8-4.2,0.9-2.1,4.5-5.8c2.1-2.2,1.1-1.5,1.6-2.9
			C634.1,217.3,634.3,217.6,635.2,214.3z"/>
		<path fill-rule="evenodd" clip-rule="evenodd" fill="#33CCFF" d="M598.3,213.9c2-1,7.2-7.9,7.8-9.4c1.2-2.9-0.1-6.7-0.2-8.1
			c-0.1-0.7,0.2-5.1-2.8-6.1c-0.7-0.2-1.2-0.1-1.7,0.1c-1.1,0.7-1.2,2.7-0.2,4c0.7,0.9,0.4,0.5,1,2c-0.7,5.3-5.3,0.9-5.4,0.8
			c-1.1-0.5-4.5-0.8-5.5,1.3c-0.8,1.6-0.5,4.4,0.2,6.3c0.2,0.7,0.5,1.2,0.9,1.6c1.2,1.3,2.3,1.2,2.3,3.9
			C594.9,212.1,594.8,215.6,598.3,213.9z"/>
		<path fill-rule="evenodd" clip-rule="evenodd" fill="#33CCFF" d="M591.4,198.5c1-2.1,4.4-1.8,5.5-1.3c0.1,0.1,4.7,4.4,5.4-0.8
			c-0.6-1.5-0.3-1.1-1-2c-1-1.3-0.9-3.3,0.2-4c-1.9-5.6-2-4.9-4-4.9c-0.3,0-0.6,0-1-0.1c-2-0.3-0.3-3.3-0.2-4.3
			c0.1-2.5-0.6-2.8-3.4-5.9c-0.9-1-1.4-0.6-3-0.1c-0.1,0.3-0.3,0.6-0.4,0.9c-1.9,4.2-1.5,2.9-4.9,4.7c-1.8,0.9-3.4,2.1-3.1,4.8
			c0.2,2.1,3.1,4.7,2.9,7.4c-0.1,1.3-1.6,3.1-0.8,5.7c0.8,2.6,0.5,0.5,0.7,3.1c0,0.8,0.1,2.4,0.6,3.5c0.3,0.6,0.8,1,1.6,0.9
			c2.1-0.5,0.2-4.3,1.5-5.8c0.7,0,3.4,4.3,3.8,4.7C590.9,202.9,590.6,200.1,591.4,198.5z"/>
		<path fill-rule="evenodd" clip-rule="evenodd" fill="#33CCFF" d="M581.3,185.4c-0.3-2.7,1.3-3.9,3.1-4.8c3.5-1.8,3-0.4,4.9-4.7
			c-5.1,2.4-2.8-1.8-2.8-2c0.2-1.8-0.4-0.4-2.4-3c-0.8-1-4,0-3.2-2.7c0.7-2.3,4.4-0.9,4.5-4.9c0.1-3.2-0.4-6.1-3.7-5.6
			c-1.3,0.2-1.2,1.5-2.6,2.7c-2,1.8-2.1,1-3.3,4.7c-2.2,6.8-1.1,1.7-4.1,7.7c-0.4,0.9-0.9,1.6-1.2,2.2c-0.4,0.7-0.7,1.3-0.8,2
			c-0.2,1.3,0.4,2.8,2.6,5.3c4.9,5.9,2.2,5.3,1.7,8.3c-0.4,2.6,1.3,4.8,4.2,1.8c1.2-1.2,3-0.6,3.1,1.6c0.1,2.8,0.1,3.6,0.4,6.3h0
			c0.2,1,1,3.3,1.6,4l1.2,0.8c-0.5-1-0.6-2.7-0.6-3.5c-0.2-2.7,0.2-0.5-0.7-3.1c-0.8-2.6,0.7-4.3,0.8-5.7
			C584.5,190.1,581.6,187.5,581.3,185.4z"/>
		<path fill-rule="evenodd" clip-rule="evenodd" fill="#33CCFF" d="M571.8,172.8c3-6,2-0.9,4.1-7.7c1.2-3.7,1.2-2.9,3.3-4.7
			c1.4-1.2,1.3-2.5,2.6-2.7c-2.2-1.5-1.4-1.2-2-2.7c-0.9-2.4-2.3-1.9-3.9-0.7c-3.9,2.7-4,4.6-5.2,5.9c-1.4,1.5-4.5,0.2-5.2,2.3
			c-0.5,1.5,0.1,2.9,1.1,3.5c0.8,0.5,3.9,0.7,4.2,5l-0.1,4.1C570.9,174.3,571.3,173.6,571.8,172.8z"/>
		<path fill-rule="evenodd" clip-rule="evenodd" fill="#33CCFF" d="M569.8,176.9c0.1-0.7,0.4-1.3,0.8-2
			C570.2,175.7,569.9,176.3,569.8,176.9L569.8,176.9z M570.7,170.9c-0.3-4.2-3.4-4.5-4.2-5c-0.9-0.6-1.6-2.1-1.1-3.5
			c0.8-2.1,3.9-0.7,5.2-2.3c-1.1-2-1.9-4.1-5.5-3.8c-4.1,0.4-4.8,4.6-11.1-1.3c-2.3-2.2-3.3-5-6.6-4c-3.3,1-6.3,8.1,10.4,12.4
			c3,0.8,5.8,0.4,4.2,3.3c-0.4,0.7-0.9,1.2-0.7,2.8c0.1,1,1.1,5.2,2.8,6.1c0.7,0.4,4.8,1,5.7,1.1c-0.2,1.3,0.4,2.8,2.6,5.3
			c4.9,5.9,2.2,5.3,1.7,8.3c-0.4,2.6,1.3,4.8,4.2,1.8c1.2-1.2,3-0.6,3.1,1.6c0.1,2.8,0.1,3.6,0.4,6.3h0c0.2,1,1,3.3,1.6,4l1.2,0.8
			c-0.5-1-0.6-2.7-0.6-3.5c-0.2-2.7,0.2-0.5-0.7-3.1c-0.8-2.6,0.7-4.3,0.8-5.7c0.2-2.7-2.6-5.3-2.9-7.4c-0.3-2.7,1.3-3.9,3.1-4.8
			c3.5-1.8,3-0.4,4.9-4.7c-5.1,2.4-2.8-1.8-2.8-2c0.2-1.8-0.4-0.4-2.4-3c-0.8-1-4,0-3.2-2.7c0.7-2.3,4.4-0.9,4.5-4.9
			c0.1-3.2-0.4-6.1-3.7-5.6c-1.3,0.2-1.2,1.5-2.6,2.7c-2,1.8-2.1,1-3.3,4.7c-2.2,6.8-1.1,1.7-4.1,7.7c-0.4,0.9-0.9,1.6-1.2,2.2
			L570.7,170.9z"/>
		<path fill-rule="evenodd" clip-rule="evenodd" fill="#33CCFF" d="M544.8,118.7C544.8,118.7,544.8,118.7,544.8,118.7
			C544.8,118.7,544.8,118.7,544.8,118.7L544.8,118.7z M584.2,170.9c2,2.6,2.7,1.2,2.4,3c0,0.2-2.3,4.4,2.8,2l0.4-0.9
			c1.6-0.5,2.1-0.8,3,0.1c2.8,3,3.5,3.3,3.4,5.9c0,1-1.7,4,0.2,4.3c0.4,0.1,0.7,0.1,1,0.1c4.9-6.8,3.4-5.6,4.7-7.7
			c0.9-1.4,3.4-1.6,4.2-0.4c3,4.4-3,4.8-3.5,6.7c-0.3,1,1.6,7.8,6.3,1.3c1.1-1.5,2.1-2.2,0.6-4.8c-3.9-6.7,5.7-5.1,10.9-8
			c4.3-2.4,7.2-9,9.7-14.4c2.4-5.2,2.5-13.8-3.2-18.2c-4.1-3.2,3-4.5,3.5-4.9c1.8-1.7,2.4-0.1,4-1.3c0.7-4.2-5.8-4.8-7.9-0.5
			c-1.5-3.1-2.2-4.1-5.3-5.4l2.2-1.1c4.6-2.1,6.4-7.9,8.9-5.6c2.6,2.4-1.7,4.2-2.1,6.2c2.1,3.1,3.2-0.9,4.9-2.2c3.6-2.7,3.9,1.4,6-6
			c6.2,0.6,5-0.5,6.8-2.3c0.9-0.9,2.2-0.6,2.6-1.6c0.2-0.5,0.2-1.4-0.3-3c-1.2-4.5,1.9-3.8,2.6-2.9c2.6,3.4,2.3-0.6,2.6-1.6
			c0.7-2.6,4.4-3.7,3.3-6.2c-1.8-3.8-5.8,4.1-8.8,0.3c-2.3-2.8,0.6-3.3-4.3-5c-3.6-1.2-4.9-11.3-11.1-11.6c-9.7-0.4-4.1,3.4-6.3,5.6
			c-2.5,2.4-2.3,8.2-5.1,4.8c-2,1.1-1.3,0.6-3.1,2.3c-0.1,1-0.1,0.6,0,1.6c1.9,1.6,5.1-0.2,6.7,2.4c0.5,0.9,1,4-2.1,4.5
			c-1.6,0.2-3.9,0-5.3,1c-2.1,1.5-1.8,1.6-5.2,2l-3.7,0.4c0.5,2.4-0.3,4.5-1.9,6.2c-1.8,2-7.5,3.5-9.9,3.2c-0.5-0.1-7.7-2.1-8.1-2.2
			c-2.8-0.3-10.4,1.1-12.5-0.3c-3.2-2-3.1-5.3-6.9-6.8c-0.6-0.2-3.7-0.7-4.4-2.3c-0.3-0.6,0.3-3.8-1.7-5c-0.4-0.2-1.5-0.5-2.1-1.2
			c-1.9-2.1,0.2-0.4-3.4-2.9c-0.1,1-1.7,1.9-2.6,2.8c-0.9,0.9-0.7,2.5-1.4,3.5c-2.6,0.1-4.3-0.5-4.9,1c-1.9,4.9,0.8,2.6-4.5,3.3
			c-4.9,0.7,3.8,4-1.9,8.4c0.1,0.3,0.2,0.5,0.2,0.8c0,0,0,0,0,0c0,1.2-1.3,2.6-5.2,3.9c-4.8,1.5-4.1,0.5-7.5,3.3
			c2.2,0.6,3.5,2.3,2.4,5.7c1,0.4,1.4,1.3,2.1,2.6c2.1,4,3.6,2,4.8,4.2c0.4,0.1,0.8,0.3,1.1,0.6c4.1,4-3,10.7,4.9,12.2
			c3.4-1,4.3,1.9,6.6,4c6.2,5.8,7,1.7,11.1,1.3c3.6-0.4,4.4,1.8,5.5,3.8c1.2-1.3,1.3-3.2,5.2-5.9c1.6-1.1,3.1-1.7,3.9,0.7
			c0.5,1.5-0.2,1.1,2,2.7c3.3-0.5,3.8,2.4,3.7,5.6c-0.1,4-3.8,2.5-4.5,4.9C580.1,170.9,583.4,169.9,584.2,170.9z"/>
		<path fill-rule="evenodd" clip-rule="evenodd" fill="#33CCFF" d="M629.5,166.8c-0.1,4-3.2,2.9-2.3,6.7c0.7,3,3.3,3.2,4.3,1.5
			c0-0.1,0.4-2,1.2-3.8C635.5,164.8,630.3,162.1,629.5,166.8z"/>
		<path fill-rule="evenodd" clip-rule="evenodd" fill="#33CCFF" d="M564.1,175.8c-1.7-0.9-2.7-5.2-2.8-6.1c-0.2-1.6,0.3-2.1,0.7-2.8
			c1.6-3-1.1-2.5-4.2-3.3c-16.7-4.3-13.7-11.4-10.4-12.4c-8-1.5-0.8-8.2-4.9-12.2c-0.3-0.3-0.7-0.5-1.1-0.6c-1.3-0.3-3.2,0.5-6,0.9
			c-7.9,1,1.5,5.9-3.2,13.2c-1,1.6-4.2,5.4-5.8,5.8c-6.9,1.4-1.5,6.3-1,7.4c0.3,0.7,1.2,4.9-1.2,6.3c-0.2,0.1-2.2,0.4-3.1,1.6
			c-0.6,0.8-0.7,2,0.4,3.7c1.1,1.8,4.1,3.5,5.8-1.1c1.2-3.5,3.3-1.6,3.3,0.4c0.1,4.5-2.3,6.2,2,19.5c3.8,11.8,1.9,5.8,3.9,15.6
			c1.9,8.8,7.4,0.7,8-2.4c2.1-11.1-0.5-12.8,3.1-16.1l4.1-4.6c2.4-2.2,8.3-6.1,8.8-8.7C561.1,176.9,560.9,177.3,564.1,175.8z"/>
		<path fill-rule="evenodd" clip-rule="evenodd" fill="#33CCFF" d="M549.6,215.8c-0.2-3.3-1.8-5.1-4.5-6c-0.1,2.7-1.8,3-1.4,5.2
			c0.4,2.1,0.6-0.7,0.7,4.7C544.4,225.1,549.9,223.2,549.6,215.8z"/>
		<path fill-rule="evenodd" clip-rule="evenodd" fill="#33CCFF" d="M635.4,125.2c7.6,0.8-1.3,4.8,4.8,5.6c4.1,0.6,1,4.4,0.7,5.6
			c-2.5,8.9,6.5,4.8,7.4,0.9c0.3-1.5,0-5-0.5-6.2c-0.5-1.1-3.1-3-1.7-5.3c1.6-2.5,3-0.1,2.1-9c-1.8,1.8-0.6,2.9-6.8,2.3
			C639.2,126.6,638.9,122.5,635.4,125.2z"/>
		<path fill-rule="evenodd" clip-rule="evenodd" fill="#33CCFF" d="M670,118.4c0.8,18.3-6.6,9.8-8.7,16.8l-0.5,3.4
			c-1.4-1.2-3.1-2.4-4.9-2.1c-2.2,0.4-2.6,1.9-3.4,4c-0.6,1.5-0.5,1.3-0.7,2.9c-3.5-1.6-3.9,0.4-3.3,3.9c0.4,2.1,2.5,5.4,3.7,1.9
			c0.7-2.2-0.5-6.5,2.5-6.1c1.6,0.3,6.4,2.7,8.1-3.5c3.6,3.8,7-2.9,7.9-6.2c1.9-7.3,4.6-5.9,3.8-9.4c-0.4-1.8-2.6-1.4-1.8-6
			c2.2-1.1,2,0.8,3.8,1.7c1.1-0.7,1-1.4,1.5-2.7c2-0.7,3.7,0.3,4.1-2c0.6-2.7,0.1-1.9,5.7-4.1c1.4-0.5,5.4-1.4,4.5-4.1
			c-1.6-5.2-11.6,9.6-15.5,5.2c-1.7-2-0.8-3.7-3.5-4c-2.4,3.2,1.3,4.5-3.5,6.2c-1.9,0.6-2.4,2.7-1.2,4.6L670,118.4z"/>
		<path fill-rule="evenodd" clip-rule="evenodd" fill="#33CCFF" d="M672.6,104.2c-0.2,4.5,2.6,0.3,5.1,4.6c0.2-6.1,0.1-2.8-1.5-6.3
			c-0.9-2.1-0.5-4.3,2.3-2.5c1.2,0.8,0.5,0.5,2.1,1c-1.9-2.7-3.1-5.4-3.9-8.9c-0.8-3.4,2.7-9.6-0.6-10.3c-3.7-0.8-3,7.3-3,9.2
			C675.7,94.3,673,96.4,672.6,104.2z"/>
		<path fill-rule="evenodd" clip-rule="evenodd" fill="#33CCFF" d="M704.3,74.6c-6,4.6-1.2,9.3-0.7,15.4c0.4,4.7-9.1,6.9-4,9.8
			c2.2-0.9,1.9-3.7,3.6-5.5c3.3-3.6,1.7-1.1,4.8-5.7c3.4-5.1,5.7-0.8,7.6-8.5c1.3-0.2,1.8-0.3,2.6-1.5c-0.5-4.6,0-6,3-9.3
			c-1.1,0.6-5.3,4-5.9,4c-1.2-2.8,6.9-9.5,9.6-5.5c2.3-3.8,5.4-3,7.1,1.1c6.5-7.6,10.5-6.8,16.1-5.8c3.5,0.6,8.6-7-8.8-9.2
			c6-0.8,18,3.3,15.6-8.9c-1.3-6.7-17.2-6.9-22.2-6c0.3,2.2,0.3,2.9-1.3,3.8c-3.3,0.9-16.1-10.2-18.3-1.5c-4.6-6.5-8.1-4.4-15.1-4.9
			c-5.5-0.4-6.1-3.6-10.3-4.8c-13.5-4-19.7,3.3-23.2,3.1c-8.8-0.4-4.4-2.3-12.5,2.4c-5.4,3.1-1.4-13.3-9.4-6.8
			c-1.2-0.7-2.6-1.9-4-2.1c-5.7-1.1-0.8,4.9-12.9,0.5c-12.2-4.4-21.4,2.3-30.2,2.9c6.4-2.2,9.5-5,16.6-6.5c3.9-0.8,7.2-5.5-3.4-5.4
			c-7.7,0.1-14.4-2.6-15.2-2.5c-5.4,0.7-7.6,2.9-7.6,9.1c-1.6-3.3-2.5-5-5.9-4.7c-5.8,0.5-17.3-0.6-21.3,4.1
			c-4.4,5.1-13-0.8-11.3,5.2c3.1,1.7,7.1,4.3,4,8.7c-2.6,0.3-3.1-2.1-3.8-4.5c-0.8-2.8-8.3-8-3.9,2.4c-4.7,1.6-8.6-6.2-13.3-1.4
			c5,1.2,0.4,1.1,1.2,4.9c0.9,0.6,2.9-0.1,4-0.2c5.5-0.7,9.3,2.7,6.6,6.1c-2.9,3.6-4.3-8.6-8.2-3c-6.2,9.2-6.1,5.1-13.9,6
			c2.4-1.2,11.7-1.7,10.5-6.5c-1.3-5.2,0.5-7.3-4-7.3c2.4-1.6,6.1-4.8,1.2-6.5c-3.4-1.2-4.9-0.2-6.1,3.3c-0.5,1.5-9.7,5.2-1.1,7.8
			c2.2,0.7,4,4,0.7,4.7c-4.2,0.9,0.4-2.5-9.6-3.5c-3-0.3-2.7-3.5-7.4-2.7c-1.1,2.2-0.4,3.3,0.1,5.7c-6.7-6.5-6.3-0.7-10.9-0.2
			c-7.2,0.8-2.3-4.3-11.3,1.4c-2.3-1.2-0.6-3.4,0.9-4.2c0.1-1-0.1-1.7-0.3-2.6c-2.8-0.5-4.8,0.3-3.3,3.7c1.4,3.2-3.8,8.5-6.1,6
			c0-0.9,0.1-1.6,0.3-2.5l2.1-1c0.4-1,0.2-1.7-0.2-2.7c-9.7-3-0.3,12.4-7.7,7.9c-1.9-1.1-6.3-1.1-5.4,2.2c1.5,5.6-4.5,1-7.2,1
			c1.4,1.7,2,4.3-0.9,4.2c-5.1-0.1-1.3-4.4-9.9-10.8c3.1,1.4,17.5,4.7,19,0.7c2.2-6-9-5.7-11.9-6.9c-3.5-1.4-6-2-7.8-2.2
			c-7.3-0.6-3.1,6.7-3.4,7.6c-1.7,5,1.8,8.4,3.6,12.6c0.9,2.1-5.1,4.2-5.2,6.4c-0.1,0.9,0.9,1.9,3.8,2.9c-1.6,0.2-3.4,0.6-4.6,1.3
			c-1.6,0.9-2.4,2.6-1.3,5.6c0.1,0.3,0.2,0.6,0.4,0.9c0.2,0.5,1.5,1.3,3,2.5c3.2,2.5,7.2,6.5,3.1,11c2.7-0.3,4.9-0.7,7.3,1.2
			c3.2,2.5,3.7,4.2,8,4.7c4.4,0.6,4.7,4.2,3.2,7.5c-0.7,1.5-1.8,3-3,4.1c-4.4,3.9,1.4,6.6,5.5,7.7c1.2,0.3,2.2,0.5,2.9,0.6
			c4.2,0.4,6.2,1.5,7.4,2.6c1.9,1.9,1.4,4,4.1,3.8c1.3-2,2.2-2.4,4.2-3.1c-4.2-4-6-10.5,1.4-10.5c-1.1-0.4-1.9-0.6-2.9-1.3
			c-2.1-1.6-7.1-5.2-6.7-8.2c0.5-4.1,2.2-4,6.9-7.7c4.9-3.9,9.2,0.7,10.3,1.3c2.4,1.4,13.7,2.5,15.6,0.5c-1.4-0.7-2.4-1.9-2.9-3.7
			c-2.5-8.9,10-3.8,15.1-7.4c6.4-4.5,5.9-0.4,8.9,2.4c4,3.7,8.3-1.7,10.5-0.3c4.7,2.9,5.1,12.1,7.4,8.4c1.4-2.3,1.7,2.1,4.4,1
			c4.3-1.7,2.3,2.4,6.3,3.7c2.2,0.7,2.9,1.4,2.9,2.1c4.9-1.1,4.8-3,7.9-4.5c5.2-2.4,6.7,2,11.9,1.8c3.6-0.1,0.9-3.1,3.2-5.9
			c1.6-1.9,3.1-2,5.3-1.1c4.6,2,1.8,8.6,8.1,5.7c5-2.3,9.5,6.3,14.6,2.7c3.5-2.4,3.3-2.7,9.1-2.3c1.8,0.1,1.7,0,3.3,0.5
			c2.9,3.4,2.7-2.4,5.1-4.8c2.2-2.2-3.4-6,6.3-5.6c6.2,0.2,7.5,10.4,11.1,11.6c4.9,1.7,2,2.2,4.3,5c3.1,3.7,7-4.1,8.8-0.3
			c1.2,2.4-2.5,3.6-3.3,6.2c-0.3,1,0,5-2.6,1.6c-0.7-0.9-3.8-1.6-2.6,2.9c0.4,1.6,0.5,2.5,0.3,3c3.9,2.1,7.9,1.5,10.4-2.7
			c4.5-7.4,7.6-7.3,8.9-18.2c0.7-5.5,3.9-6-0.4-11c-2.9,0-6.6,3.1-9.4,1c-4-3.1,5.2-5.8,14.9-16.4c3.5,0.6,7,1,10.5,0.5
			c9.5-1.4,2.5-0.7,8.7,1.3c3.2,1,9.5-5,9.6-8.4c2.3,0,4.5-0.2,6.8-0.4c-1.1,1.8-1.3,2.8,0,4.4c2.8-0.2,3.5-1.8,5.2-4.2
			c5.3-7.6,11.4-1.5,5.3,1.1C715.7,64.6,709.3,70.7,704.3,74.6z"/>
		<path fill-rule="evenodd" clip-rule="evenodd" fill="#33CCFF" d="M668.7,26.2c2,3.7,1.5,2.8,5.6,3.1c2.4,0.3,4.9,0.8,4.5-2
			c-2.3-1.9-5.9,1.2-7.9-1.6c6.5,1.1,3.7-2.8,14.2,0.9c9.6,3.4,8.1-2.9,5.7-3.8c-1.7-0.6-6.3-0.2-12.6-1.9c-2.3-0.6-20-2.9-18.9,2.4
			C659.7,25.1,666.8,29.1,668.7,26.2z"/>
		<path fill-rule="evenodd" clip-rule="evenodd" fill="#33CCFF" d="M611,97.7c-5.2,3.6-9.7-5-14.6-2.7c-6.3,2.9-3.5-3.7-8.1-5.7
			c-2.2-1-3.8-0.8-5.3,1.1c-2.4,2.8,0.4,5.8-3.2,5.9c-5.2,0.2-6.7-4.2-11.9-1.8c-3.1,1.4-3,3.4-7.9,4.5c3.6,2.5,1.5,0.8,3.4,2.9
			c0.6,0.7,1.7,0.9,2.1,1.2c2,1.3,1.4,4.4,1.7,5c0.7,1.5,3.8,2,4.4,2.3c3.8,1.5,3.7,4.8,6.9,6.8c2.2,1.4,9.8-0.1,12.5,0.3
			c0.4,0,7.6,2.1,8.1,2.2c2.5,0.3,8.1-1.2,9.9-3.2c1.5-1.8,2.4-3.8,1.9-6.2l3.7-0.4c3.4-0.4,3.1-0.6,5.2-2c1.4-1,3.7-0.8,5.3-1
			c3.1-0.5,2.6-3.6,2.1-4.5c-1.6-2.6-4.8-0.8-6.7-2.4c-0.1-1-0.1-0.6,0-1.6c1.8-1.6,1.1-1.2,3.1-2.3c-1.6-0.5-1.5-0.4-3.3-0.5
			C614.3,95,614.4,95.3,611,97.7z"/>
		<path fill-rule="evenodd" clip-rule="evenodd" fill="#33CCFF" d="M555.9,105.2c0.7-1,0.5-2.5,1.4-3.5c0.9-0.9,2.5-1.8,2.6-2.8
			c0.1-0.7-0.6-1.4-2.9-2.1c-4-1.3-2-5.5-6.3-3.7c-2.6,1.1-2.9-3.3-4.4-1c-2.3,3.7-2.7-5.5-7.4-8.4c-2.2-1.3-6.5,4.1-10.5,0.3
			c-3-2.8-2.6-6.9-8.9-2.4c-5.1,3.6-17.5-1.5-15.1,7.4c0.5,1.8,1.5,2.9,2.9,3.7c-1.9,2.1-13.1,0.9-15.6-0.5
			c-1.1-0.6-5.4-5.2-10.3-1.3c-4.7,3.7-6.3,3.7-6.9,7.7c-0.4,3.1,4.6,6.7,6.7,8.2c1,0.8,1.7,1,2.9,1.3c-7.4,0-5.5,6.4-1.4,10.5
			l2.6,2.6c0.7-1.7,1.9-3.3,3.9-4.1c4.2-1.7,4.3,2.2,5.4,2.7c-0.2-8.2-1.6-13.1,3.7-12.9c3,0.1,7.2,5.5,9.2,8.1
			c0.4-0.8,0.5-1.4,2.2-1.8c3.6-1,6,0.8,6.7,4.8l4.2,4c7.1-4.6,9.5-7.6,20-6.4c1.5,0.2,3.3,1,3.9,2.2c5.7-4.3-3-7.7,1.9-8.4
			c5.3-0.8,2.7,1.6,4.5-3.3C551.6,104.7,553.3,105.3,555.9,105.2z"/>
		<path fill-rule="evenodd" clip-rule="evenodd" fill="#33CCFF" d="M573.8,13.7c3.9,1.4,11.3-0.5,12.5,0.6c1.6,1.4-2.6,2-3.2,2.2
			c3.6,0,6.1,0.1,9.6-0.2c2.1-0.2,5.8-0.1,6-1.8c0.6-4.4-11.3-2.2-11.8-2.6c0,0-5.7-9.3-15.3-4.9c-1.3,0.6-5.4,1.7-4.5,4.1
			C567.9,13.2,569.2,12,573.8,13.7z"/>
		<path fill-rule="evenodd" clip-rule="evenodd" fill="#33CCFF" d="M503.6,25.9c6.9-4.9,19.9-1.1,18.3-6.7c-1-3.6-6.8,0.9-10.5,1.3
			c-4.1,0.3-10.6-0.4-15.5,3.3l-5.6,4.7c-1.1,0.7-6.8,2-4.7,6.8c1.3,3.1,7.2,3.9,9.8,2.7c2-0.9,1.5-0.8,3.7-1.5
			c-2.6-1.3-6.1-1.3-5-3.9C494.8,30.4,500.3,28.2,503.6,25.9z"/>
		<path fill-rule="evenodd" clip-rule="evenodd" fill="#33CCFF" d="M458.9,95.6c-4.6-0.5-5-2.2-8.5-4.7c-2.5-1.8-4.8-1.4-7.7-1.2
			c-2.6,2.5-3.4,0.7-7.3,0.4c-1.1-0.1-7.2-0.4-8.2,1.2c-0.3,0.5-0.1,2.9-1.2,4.1c0,0-1.2,0.7-1.9,1.9c-0.4,0.7-0.6,1.6-0.4,2.7
			c0.2,0.6,0.4,1.1,0.7,1.4c1.3,1.5,3.8,0.7,6.3-0.1c2.3-0.7,4.6-1.5,6-0.5c0.9,0.7,3.4,6.9,5.9,5c0,0,1.5-2.1,2.9-0.8
			c1,0.9-0.1,1.8,2.8,2.4c-3,1.1-1.3,2.2,0,4c0.7,0.8,1.1-0.1,2.7-1c2-1.2,0.7-2.3-0.7-2.9c3.6-1.1,4.3-3.1,9.3-3.8
			c1.7-0.2,0.2,0.3,2.6-0.7C464,99.8,463.7,96.1,458.9,95.6z"/>
		<path fill-rule="evenodd" clip-rule="evenodd" fill="#33CCFF" d="M435.4,90.1c3.9,0.4,4.7,2.2,7.3-0.4c4.4-4.5,0.1-8.5-3.3-11
			l-1.9-0.4c-4.3-0.4-4.6,2.3-5.3,3.3c-0.9,1.4-2.3,2.3-2.6,2.6c-1,1-2.5,4-3.8,5.7c0.6,1.1,0.3,0.8,1.4,1.3
			C428.3,89.6,434.3,89.9,435.4,90.1z"/>
		<path fill-rule="evenodd" clip-rule="evenodd" fill="#33CCFF" d="M442.6,105.9c-2.4,1.9-4.9-4.3-5.9-5c-1.4-1-3.7-0.2-6,0.5
			c2.8,0,2.8-0.2,4.4,1.9c1.8,2.4-0.3,2.1,0.7,5c0.5,1.5,1.8,1.9,3,1.7c1.3-0.2,2.6-1.1,3.1-2L442.6,105.9z"/>
		<path fill-rule="evenodd" clip-rule="evenodd" fill="#33CCFF" d="M435.8,108.2c-1-2.9,1-2.6-0.7-5c-1.5-2.1-1.5-1.8-4.4-1.9
			c-2.5,0.8-5,1.6-6.3,0.1c-2.1,3.4-2.8,4-6.7,5c2.3,2.3,2.4,0.7,5.1,4c0.5,0.7,1,1.2,1.6,1.7c1.2,1.1,2.7,1.6,5.9,1.2
			c2.1-0.3,2.8-1.1,5.3-1c1.5,0.1,2.1-0.4,2.5-1.1c0.3-0.4,0.5-0.9,0.7-1.5C437.6,110.1,436.4,109.7,435.8,108.2z"/>
		<path fill-rule="evenodd" clip-rule="evenodd" fill="#33CCFF" d="M435.6,112.5c-2.5-0.1-3.2,0.8-5.3,1c-3.1,0.4-4.6-0.1-5.9-1.2
			c0,1.2-0.1,2.8,0,4.3c0.3,2.7,1.2,5.3,4.5,5c0.5,0,1-0.1,1.5-0.3c3.3-0.9,2.1-3.1,4.2-4.1c2.3-1.1,3.7,0.2,3.4-5.8
			C437.6,112.1,437,112.6,435.6,112.5z"/>
		<path fill-rule="evenodd" clip-rule="evenodd" fill="#33CCFF" d="M428.1,132c5.8-0.5-4.2-5-3.8-7.4c2.4-1.8,2.3,1.8,4.7-2.9
			c-3.3,0.3-4.3-2.3-4.5-5c-3.5,2.4-7.7-1.8-7.9,2.6c0,1.1,1.9,3.6,1.4,6.1c-0.3,1.6,1.4,1.1,1.1,3.7c-0.3,2.7,2.2,5,4.2,6.2
			c0.9,0.6,1.6,0.7,2.5,0.3C426.7,133.1,425.1,132.2,428.1,132z"/>
		<path fill-rule="evenodd" clip-rule="evenodd" fill="#33CCFF" d="M434.2,132.3c0.1,1.8,2.2,4.7-2.7,5c-3.6,0.2-4.7-2.6-6.3,0.1
			c2.7,2.8,5.3,2.8,8.9,1.2c2.2-1,2.8-1.4,3.1-3.6C435.3,134.3,435,133.7,434.2,132.3z"/>
		<path fill-rule="evenodd" clip-rule="evenodd" fill="#33CCFF" d="M433.7,129.8c2.9,6.7,2.5,3.1,4.8,6c1.4,1.9,3.7,0.8,4,0.3
			c0,0,0.4-2.7,2.5-1.4c0.6,0.4,1.9,1.9,4.2,0.7c2.8-1.5,1.1-2.3,6-2.2c0.3,0,0.5,0,0.8,0c4.2,0.1,3.5,1.2,5.3,1.3
			c2.3,0.1,2.3-2.5,6.2-2.3c0.8,0,1.8,0.2,2.9,0.5c0.4,0.1,2.2,1,3,0.1c0.3-0.3,0.4-0.7,0.4-1.4c0-1.5-2.2-4.3-3-5.4
			c-0.6-0.3-1-0.8-0.9-1.9c0.1-1.4,0.9-2.1,1.8-2.4c-1.8-1.6-4.8-2.1-7-0.9c-0.5,0.3-4.2,4.5-8.3,1.1c-2-1.6-2.6-4-7.7-3.6
			c-3.3,0.2-4,2.2-6.6,3.3l-1.6,0.4c-2.2,0.9-1.5,1.5-5.7,1.7c-1.1,0-3.9,0.1-3.1,2.7C432,127,432.9,128.1,433.7,129.8z"/>
		<path fill-rule="evenodd" clip-rule="evenodd" fill="#33CCFF" d="M436,121.7c0,0,2.4-0.2,1.7-1.6c-0.5-0.9-1.6,0.2-2.1-1.2
			c-0.3-1-1-0.9-1.6-0.5c-0.6,2.5-1.7,1.5-1.5,3C432.8,124,435,121.9,436,121.7z"/>
		<path fill-rule="evenodd" clip-rule="evenodd" fill="#33CCFF" d="M464.3,114.9l-0.2,5.7c2.1-1.2,4.8-0.7,6.5,0.9
			c0.8-0.3,1.7-0.4,2.3-0.6c1.6-0.6,1.5-1.5,1.6-2.8c-1.1-1.1-3.2-2.2-7.4-2.6C466.5,115.4,465.4,115.2,464.3,114.9z"/>
		<path fill-rule="evenodd" clip-rule="evenodd" fill="#33CCFF" d="M472.9,120.9c-0.6,0.2-1.5,0.3-2.3,0.6c-0.9,0.4-1.6,1-1.7,2.4
			c-0.1,1.1,0.3,1.6,0.9,1.9c0.5,0.2,1.2,0.3,2,0.3l2.6,0.1c1.8,0,2.3-0.6,3.5,1.1c0.7,0.9,1,2,3.1,2.2c1.8,0.2,2.9-0.7,4.6-1.6
			c-0.8-2-0.9-4.5-0.1-6.6l-2.6-2.6c-2.1,0.7-2.9,1.1-4.2,3.1c-2.7,0.3-2.2-1.9-4.1-3.8C474.4,119.5,474.5,120.3,472.9,120.9z"/>
		<path fill-rule="evenodd" clip-rule="evenodd" fill="#33CCFF" d="M500.1,115.7c3-0.3,3.7,2.5,5.2,5c1.3,2.2,5.3,6.1,7.1,7.7
			c1.4,1.2,2.2,1.2,4,1.6c0.7,0.7,1.3,1.2,2,1.4c4.7-2.2-0.3-3.1,1.4-5.9c0,0,1-1.1,2.2-2.1l-1.3-1.2l-4.2-4c-0.6-4-3.1-5.9-6.7-4.8
			c-1.6,0.5-1.8,1-2.2,1.8c-1.9-2.6-6.2-7.9-9.2-8.1c-5.3-0.2-3.8,4.7-3.7,12.9C497.7,121.4,496.9,116.1,500.1,115.7z"/>
		<path fill-rule="evenodd" clip-rule="evenodd" fill="#33CCFF" d="M544.8,118.7C544.8,118.7,544.8,118.7,544.8,118.7
			C544.8,118.7,544.8,118.7,544.8,118.7L544.8,118.7z M540.6,115.7c-10.5-1.2-12.9,1.8-20,6.4l1.3,1.2c1.3-1.2,2.9-2.3,3.4-1.6
			c0.7,2.2-3,1.2-1.4,3.7c4.3,0.6,2.3,0.1,5.6,0c0.9,0,1.8,0.1,2.6,0.3c3.5-2.7,2.7-1.7,7.5-3.3c3.9-1.2,5.3-2.6,5.2-3.9v0
			c0-0.3-0.1-0.6-0.2-0.8C543.9,116.7,542.2,115.9,540.6,115.7z"/>
		<path fill-rule="evenodd" clip-rule="evenodd" fill="#33CCFF" d="M534.5,131.5c1-3.4-0.3-5.1-2.4-5.7c-0.8-0.2-1.7-0.3-2.6-0.3
			c-3.3,0-1.3,0.6-5.6,0c-1.5-2.5,2.1-1.5,1.4-3.7c-0.5-0.7-2,0.4-3.4,1.6c-1.2,1-2.2,2.1-2.2,2.1c-1.7,2.8,3.3,3.7-1.4,5.9
			c0.6,0.2,1.3,0.2,2.3,0.1c2.5-0.2,3.9-3.2,6.2-2.7c1.9,0.5,1.6,2.5,1.5,4c1.3-1.3,3.2-1.8,5.3-1.5
			C534,131.4,534.2,131.4,534.5,131.5z"/>
		<path fill-rule="evenodd" clip-rule="evenodd" fill="#33CCFF" d="M533.6,131.3c-2-0.2-3.9,0.2-5.3,1.5c-0.8,0.8-1.4,1.9-1.7,3.3
			l-0.7,4.2c0,0-8.8,11.5-9.7,12.2c-3,2.3-7.7,1.5-10.7,0l-1.1-0.6c1.2,3.7,6,6.7,4.1,10.7c-0.4,0.8-3.7,2.8-2.7,4.9
			c0.1,0.1,0.2,0.3,0.3,0.4c2.2,2.7,8.3-4.7,12.9,1.5l2.1,4.1c0.9-1.2,2.9-1.5,3.1-1.6c2.4-1.4,1.5-5.7,1.2-6.3
			c-0.5-1.1-5.9-6,1-7.4c1.6-0.3,4.8-4.2,5.8-5.8c4.7-7.3-4.7-12.2,3.2-13.2c2.8-0.3,4.6-1.1,6-0.9c-1.2-2.1-2.7-0.2-4.8-4.2
			c-0.7-1.3-1.1-2.2-2.1-2.6C534.2,131.4,534,131.4,533.6,131.3z"/>
		<path fill-rule="evenodd" clip-rule="evenodd" fill="#33CCFF" d="M508.6,162.7c1.9-4-2.9-7-4.1-10.7l1.1,0.6
			c-0.9-2.4-1.3-3.6-1.7-6.4c-0.3-2.1-0.3-3.3,0.1-5.2c0.3-1.4,1.8-2.4,3.5-3.2l-7.7-7.5c-3-2.1-5.7,0-7.1,0.6
			c-3.4,1.5-5.9-0.3-7.1-3.1c-1.6,0.9-2.7,1.8-4.6,1.6c-2.2-0.2-2.4-1.3-3.1-2.2c-1.3-1.7-1.8-1.1-3.5-1.1l-2.6-0.1
			c-0.7,0-1.4-0.1-2-0.3c0.7,1.2,2.8,3.9,2.8,5.4c0,0.7-0.2,1.2-0.4,1.4c3.1,3,2.7,5.9-0.1,9.2c8.3,5.7,3.8,6.6,6.3,11.3
			c4.4,0.9,4.9-1.3,6.1,3.1c3,11,10.7,6.5,11.5,6.6c4.9,0.6-1.6,3.5,10,4.7C504.9,165.5,508.2,163.4,508.6,162.7z"/>
		<path fill-rule="evenodd" clip-rule="evenodd" fill="#33CCFF" d="M505.6,152.6c3,1.5,7.7,2.3,10.7,0c0.9-0.7,9.7-12.2,9.7-12.2
			l0.7-4.2c0.3-1.4,0.9-2.5,1.7-3.3c0.1-1.6,0.4-3.6-1.5-4c-2.3-0.6-3.7,2.4-6.2,2.7c-1,0.1-1.8,0.1-2.3-0.1c-0.7-0.2-1.3-0.7-2-1.4
			c-0.8,2.5-3,4-4.6,5.8c-0.9,0.7-2.6,1.3-4.2,2.1c-1.7,0.8-3.2,1.8-3.5,3.2c-0.4,1.9-0.4,3.2-0.1,5.2
			C504.3,149,504.7,150.2,505.6,152.6z"/>
		<path fill-rule="evenodd" clip-rule="evenodd" fill="#33CCFF" d="M499.7,130.4l7.7,7.5c1.6-0.8,3.3-1.4,4.2-2.1
			c1.7-1.8,3.8-3.3,4.6-5.8c-1.8-0.5-2.6-0.5-4-1.6c-1.9-1.6-5.8-5.5-7.1-7.7c-1.5-2.5-2.2-5.3-5.2-5c-3.2,0.4-2.4,5.7-5.3,4.3
			c-1.1-0.5-1.2-4.5-5.4-2.7c-2,0.8-3.3,2.3-3.9,4.1c-0.8,2.1-0.7,4.6,0.1,6.6c1.2,2.8,3.7,4.5,7.1,3.1
			C494,130.4,496.8,128.3,499.7,130.4z"/>
		<path fill-rule="evenodd" clip-rule="evenodd" fill="#33CCFF" d="M478.3,153.2c-2.4-4.7,2-5.6-6.3-11.3c2.8-3.3,3.2-6.2,0.1-9.2
			c-0.8,0.9-2.4,0-2.8-0.1c-1.1-0.3-2-0.5-2.8-0.5l-0.6,2.4c-0.8,2.8-0.3,0.8-0.6,3.5c-0.6,4.7-1.3,3.7-4.7,5.4
			c-0.8,1.6-0.6,2.2,0.1,2.7c1,0.7,2.8,1,4.7,2.8c3.2,3,5,7.7,9.7,6.9c0.8-0.1,1.4-0.4,1.9-0.9C477.5,154.5,477.9,153.9,478.3,153.2
			z"/>
		<path fill-rule="evenodd" clip-rule="evenodd" fill="#33CCFF" d="M496.1,164.1c-5.8,2.6-1,7.2-11,5.9c2,3.5,5.9,2.7,7.7,3
			c4.8,0.9,2.9,9.8-3.9,11.4c0,0-1.3-0.1-3.2,0.1c1,2.3,1.7,4.1,2.4,5.4c1.3,2.3,2.6,2.8,6.2,0.8c5.1-2.9,4-7,6.3-10.6
			c0.8-1.2,5.6-4.8,1.5-8.4C499,168.8,495.6,169.8,496.1,164.1z"/>
		<path fill-rule="evenodd" clip-rule="evenodd" fill="#33CCFF" d="M485.1,170c0,0-2.6-7.8-4.9-11c-0.8-1.1-1.1-0.8-3.2-4
			c-0.5,0.4-1,0.7-1.9,0.9c-4.7,0.8-6.5-3.9-9.7-6.9c-1.9-1.7-3.7-2.1-4.7-2.8l-2.3,1.4c-1.1,1.1-1.2,3.4-1.4,3.9
			c-0.8,2.8-3.7,4.8-4.9,3.7c-0.5,2.2-0.7,3.1,0.2,5.4c1.8,4.4,6.3,10.5,6.8,12.1c0.4,1.3,0.9,5.7,2,7.3c1.5,2.4-0.2-1.6,3.1,5.2
			c2.4,4.9,1.2,1.4,3.5,8.1c1.1-4.8,5.7-5.1,8.9-3.1c1.4-4.2,6-5.4,9.1-5.7c1.8-0.2,3.2-0.1,3.2-0.1c6.8-1.6,8.7-10.5,3.9-11.4
			C491,172.7,487.1,173.5,485.1,170z"/>
		<path fill-rule="evenodd" clip-rule="evenodd" fill="#33CCFF" d="M485.7,184.5c-3.1,0.3-7.7,1.5-9.1,5.7c-3.2-2-7.8-1.7-8.9,3.1
			c0.5,11.3,0.3,12.4,16.6,2.6c2.7-1.6,2.6-2.2,3.8-6.1C487.4,188.6,486.7,186.7,485.7,184.5z"/>
		<path fill-rule="evenodd" clip-rule="evenodd" fill="#33CCFF" d="M481.4,206c-1.8,0.9-8,2.1-9.9,1.8c-1.2-0.2-1.7-0.9-2.3-1.6
			c-0.1,0.1-0.1,0.2-0.2,0.3c-0.3,0.5-0.6,0.8-0.9,0.9l0,1.8c0.6,2.3,3,2.8,4.4,3.5c4,1.9,3.3,3.9,8.2,3.7l-2.1,2.4
			c-5.8,6.9-4.4,4.8-8.4,5.6c-2.4,0.5-1.9,2.1-2.9,2.7c-1.8,1-1.9-1.2-2.7-1.5c-0.1-0.1-0.3-0.1-0.4-0.1l0,21.4
			c2.9-3.4,1.4-1.8,3.2-4.3l6.8-8.5l8-10.3c0.4-0.7,1.8-5.6,2.2-6.8c0.6-1.7,3.5-8.1,3.8-9.5c0.2-0.9-0.2-2.7-0.9-3.3
			C485.3,202.2,482.1,205.6,481.4,206z"/>
		<path fill-rule="evenodd" clip-rule="evenodd" fill="#33CCFF" d="M469.3,206.1c1.8-2.8,1.5-2.8-0.4-4.9c-2.4-2.7-2.8-3.2-5-6.1
			c-2,0.8-3.6,1.3-4.9,1.8c3.5,0.8,6.3,2,7.7,6.1c0.7,2.2-1.5,2.3-0.4,4.3c0.7,0.2,1.4,0.3,1.9,0c0.3-0.2,0.6-0.4,0.9-0.9
			L469.3,206.1z"/>
		<path fill-rule="evenodd" clip-rule="evenodd" fill="#33CCFF" d="M458.9,196.9c1.3-0.5,2.9-1,4.9-1.8l-5.1-8.5
			c-1.7,1-2,0.9-2.7,3.5c-0.9,3.1-4.6,7.3-1.5,9.4C455.6,198.3,456.9,197.6,458.9,196.9z"/>
		<path fill-rule="evenodd" clip-rule="evenodd" fill="#33CCFF" d="M454.6,199.5c-3.2-2,0.6-6.3,1.5-9.4c0.7-2.6,1.1-2.5,2.7-3.5
			c-1.4-2-2-1.4-2.1-6.1v-4l-27.9,0c0,2.8-0.1,4.7-0.2,5c-0.4,0.8-1,1.2-1.7,1.3c0,16.5,0,5.5-4,15.3c-1.1,2.7,0.3,7.7,0.9,8.5
			c0,0,0.4,0.2,0.9,0.6c0.6,0.5,1.2,1.2,1.2,2.4c0,0.3-0.6,4.4,1.8,5.7c2.8,1.6,1.4-1.5,4.7,4.9c0.1,0.2,0.2,0.4,0.3,0.6
			c2.6,4.6,5.6,4.8,7.7,6.2c0.3,0.2,0.6,0.4,1,0.5c2,0.7,4.9,0.4,7.3-0.1c1.9-0.4,3.5-1,3.6-1.2c1.2-1.4-1.3-7.1-2.6-7.8
			c-0.9-0.5-5.6-0.9-1.8-4.8c0.9-0.9,1.5-3.3,2.1-4c1-1.2,1.6-0.2,2.4-4.1C453,202.4,453.6,200.7,454.6,199.5z"/>
		<path fill-rule="evenodd" clip-rule="evenodd" fill="#33CCFF" d="M428.8,176.4l27.9,0c-2.4-3.5-2.9-1-3.8-3.4
			c-0.4-1.1-0.1-2.5-0.4-3.6c-0.2-0.6-2.3-5.9-2.7-6.7l-2.4-4.5c-1.8-2.9-2-1.7-2-5.4c1.6,5.6,5.7,5.1,5.2,0.8
			c-0.2-1.3-1.8-3.9-3.4-4.6c-5.6-2.5-6.2,1.9-11.3,0.7c-1.3-0.3-6.2-1.9-7.5-2.4C428.4,147.5,428.9,167,428.8,176.4z"/>
		<path fill-rule="evenodd" clip-rule="evenodd" fill="#33CCFF" d="M450.9,152c0.7,1.5,0.5,2.7,1.2,3.2c1.3,1.1,4.4-0.9,5.3-3.7
			c0.1-0.4,0.3-2.8,1.4-3.9l2.4-1.4c-0.8-0.5-1-1.2-0.1-2.7c-1,0.5-3.6,2.3-4.8,2.6c-1.4,0.3-3.2-0.3-4-1.6
			c-0.2-0.2-0.2-0.5-0.3-0.7c-1,2.1-0.3,2.2-0.5,3C451.2,147.7,449.5,148.9,450.9,152z"/>
		<path fill-rule="evenodd" clip-rule="evenodd" fill="#33CCFF" d="M452.3,144.4c0.8,1.3,2.6,1.8,4,1.6c1.2-0.2,3.8-2.1,4.8-2.6
			c3.6-1.8,4.4-0.8,5-5.4c0.3-2.7-0.2-0.7,0.7-3.5l0.7-2.4c-3.8-0.2-3.9,2.4-6.2,2.3c-1.7-0.1-1-1.1-5.3-1.3l-0.8,0
			c0.4,2,0.1,1.7-0.7,3.2c-1.3,2.3-0.5,3.8-1,4.8c-0.2,0.5-1.8,1.3-1.4,2.7C452.1,144,452.2,144.2,452.3,144.4z"/>
		<path fill-rule="evenodd" clip-rule="evenodd" fill="#33CCFF" d="M444.9,139.3c-0.4,2.1,2.9,3.2,4.4-0.3c0.6-1.5,0.2-1.6,2.4-2.6
			c-1.6,0.2-1,0.2-2.5,0C448.2,138.1,445.4,136.8,444.9,139.3z"/>
		<path fill-rule="evenodd" clip-rule="evenodd" fill="#33CCFF" d="M412.4,126.9c-0.3-0.9-0.4-0.9-0.1-1.8c1.3-0.3,0.8,1.2,2.4,1.1
			c2.4-4.5-6.3-3.6-8.8-9.5c-1.7-4.1-0.9-2-3.9-3.9c-2-1.2-2.1-4.7,2-5c0-0.4,0.1-0.9,0.3-1.6c-2-0.2-3.7-0.9-4.1-1.9
			c-4.7,3.7-3.9,3.4-8.6,2.9c-1.1-0.1-1.8,0.2-2.2,0.6c-1.2,1.3-0.2,4.3,0.8,4.7c1.1,0.5,2,0,3-0.2c1.2-0.3,2.6-0.1,4.6,2.9
			c4.3,6.6,5.5,5.5,9.3,7.8c3.1,1.9,2.1,4.8,1.6,5.3c-1.3,1.2-6.1,1.4-7.7,2.1c1.6,0.3,3.4,0.9,4.4,2.7c0.6,1-0.5,4.7,1.3,4.3
			c1.1-0.2,1.3-6.4,3.1-7C410.4,130,413.6,130.5,412.4,126.9z"/>
		<path fill-rule="evenodd" clip-rule="evenodd" fill="#33CCFF" d="M394.6,129c4.8-8.8,0.1-6.7,0.7-9.1c0,0,3.2-5.1-0.8-5.1
			c-0.7,1.1-0.4,0.8-1.2,1.3l-0.3,1.3c0.7,5.5-2.3,1.9-0.7,9.8C392.8,128.9,393.3,129.1,394.6,129z"/>
		<path fill-rule="evenodd" clip-rule="evenodd" fill="#33CCFF" d="M383.6,126.2c0.9-0.2,1.7-0.1,1.7-1.9c0.1-1.8-2.9-0.9-3.7-0.7
			c-2.4-0.6-2.6,0.6-2.9,0.9c-0.5,0.5-2.5,1.1-2.7,1.4c-0.3,0.3-0.8,3.6,0.9,3.4c1.5-0.1,0.7-2.1,2.6-2c0.8,0,1.2,1.2,2.2,0.7
			C382.6,127.4,381.9,126.5,383.6,126.2z"/>
		<path fill-rule="evenodd" clip-rule="evenodd" fill="#33CCFF" d="M358.7,132.8c-1.5-2.6,0.5-8.1,0.7-10.8c0.2-4.3-3.2-3.2-4.7-4.7
			c0.2,1.8,0.7,4.4-0.2,5.5c-0.3,0.4-2.3,1.3-1.5,3.9c0.3,0.8,2.3,3.3,1.6,5.1c0,0-1.3,2,0.3,2.6
			C356.1,134.8,357.6,133.5,358.7,132.8z"/>
		<path fill-rule="evenodd" clip-rule="evenodd" fill="#33CCFF" d="M394.3,132.9c-2.2,2.1-2.2,4.5-1.5,7.6c-2.4,0.5-1.3,4.1-0.4,5
			c0.6,0.6,2.3,1.2,3,5.6c0.1,0.7,0.2,1.4,0.2,2.1c3.2-7.3,4.8-4.7,4.4-8.9c-0.2-1.7-1.4-2.2-2.5-2.9c2.6-1.4,3.5-4.3,0.8-6.1
			c3.3-0.6,2.3-5.6-1.5-4L394.3,132.9z"/>
		<path fill-rule="evenodd" clip-rule="evenodd" fill="#33CCFF" d="M399.9,144.3c0.4,4.2-1.2,1.6-4.4,8.9c0.3,6.5-1.9,11.3,3.7,16.5
			l1.4,1.2c3.1,1.8,3.8,2.5,6.2,1.6c0.2-0.1,0.4-0.2,0.7-0.3c5.6-2.5,15,10.7,19.4,10.4c0.7,0,1.3-0.4,1.7-1.3
			c0.1-0.3,0.2-2.2,0.2-5c0.1-9.4-0.4-29-0.4-29.1c-0.3-1.3-2.9-3-4-3.5c-3.3-1.4-7.5,2.1-6.2,5.1c1.2,2.7-2,3.3-3.3,2.7
			C409.5,148.7,407.6,141.9,399.9,144.3z"/>
		<path fill-rule="evenodd" clip-rule="evenodd" fill="#33CCFF" d="M395.3,151.1c-0.6-4.5-2.4-5-3-5.6c-0.8-0.9-1.9-4.5,0.4-5
			c-0.7-3.1-0.7-5.5,1.5-7.6c-4.9-0.2-10.2-1-14.8,1c-2.4,1.1-2.3,0.6-3.2,0.9c-0.6,0.2-4.7,3.2-6.8,4.3c0.2,0.4,0.4,0.8,0.6,1.4
			c1.3,4.3-0.8,1.2,1.9,6.8l-3,0.1c-4.8,0.6-3.1,3.6-7,5.7c-2.1,1.1-3.2,0.8-4.2,1c-1,0.2-2.2,1.7-2.6,2.7c-0.5,1.2-0.4,1.9-0.8,2.4
			l7.1,6.2l17.5,15.2c2,2.1,2.3,3.8,4.6,3.8c0.4,0,0.8,0,1.2-0.1c2.7-0.4,12.4-10.2,15.8-13.4l-1.4-1.2c-5.6-5.2-3.4-10.1-3.7-16.5
			C395.5,152.5,395.4,151.8,395.3,151.1z"/>
		<path fill-rule="evenodd" clip-rule="evenodd" fill="#33CCFF" d="M372,147.3c-2.7-5.6-0.6-2.5-1.9-6.8c-0.2-0.6-0.4-1.1-0.6-1.4
			c-1.4-2.3-3.7-0.6-5.7-2.3c0,0-0.9-1.4-2.1-1.3c-1.7,0.3-0.8,2.9-1.7,4.4c-1,1.9-2.1,2.2-3.4,2.9c-2.4,1.4-5.1,2.9-5,6.5
			c0,0.9,1,1.1,1.1,2.5c0.1,2.1-2.1,4.8-3.5,6l-2.2,1.6c5.5,0.4,6.9,0.4,7.4-0.3c0.3-0.5,0.3-1.2,0.8-2.4c0.4-1,1.6-2.5,2.6-2.7
			c1-0.2,2.1,0.2,4.2-1c4-2.1,2.3-5.1,7-5.7L372,147.3z"/>
		<path fill-rule="evenodd" clip-rule="evenodd" fill="#33CCFF" d="M354.9,165l-0.5-5.9c-0.5,0.7-1.9,0.7-7.4,0.3
			c-2.2,1.3-2.7,1.2-4,3.9c-0.7,1.3-3.4,8.7-4.6,10.6c-1.1,1.7-0.9,0.5-2.5,4.3l1,0l8.8-0.2c-0.3-1.5-0.7-3.5,0.8-5.3
			c0.9-1.2,0.9-0.2,1.7-4C348.9,165.1,347.9,164.8,354.9,165z"/>
		<path fill-rule="evenodd" clip-rule="evenodd" fill="#33CCFF" d="M354.9,165c-7-0.2-6,0.1-6.7,3.9c-0.8,3.8-0.7,2.8-1.7,4
			c-1.5,1.8-1.1,3.8-0.8,5.3l-8.8,0.2c2.8,4.5,2.1,5.8,2,12.5c6.5,0,3.6,1.4,6,3.3c1.4,1.2,5.1,0.2,6.5-0.1c0.1,0,0.2,0,0.2,0
			l10.6-0.1c-1.3-7.9-0.4-13.1-1.8-21.6c-0.5-3.4-0.6-4.6,0.9-6.9l-7.1-6.2L354.9,165z"/>
		<path fill-rule="evenodd" clip-rule="evenodd" fill="#33CCFF" d="M360.6,172.2c1.3,8.6,0.4,13.8,1.8,21.6l-10.6,0.1
			c-0.1,0-0.2,0-0.2,0c-3.1,1.6-4.5,2.1-3.4,6.7c0.4,1.8,1.1,2.6,2,2.9c1.9,0.7,4.6-0.9,6.2,2.4l0.9,2c0.7-0.2,1.6-0.2,2.8-0.1
			c2.8-1.5,2.8-2.9,5.4-6.7c3.6-5.4,5.2-6.2,9.5-5.8c1.4-0.9,4.3-0.6,5.8-1.1c3.5-1.1,2.9-5.6,2.9-9.9c-2.3,0-2.6-1.7-4.6-3.8
			l-17.5-15.2C360,167.6,360.1,168.8,360.6,172.2z"/>
		<path fill-rule="evenodd" clip-rule="evenodd" fill="#33CCFF" d="M383.6,184.4c0,4.3,0.6,8.8-2.9,9.9c-1.6,0.5-4.4,0.3-5.8,1.1
			c-1.2,0.7-1.5,2.2,0.8,5.6c0.8,1.1,1.8,2.1,3,2.5c0.6,0.2,1.3,0.3,2,0.3c2.8-0.2,1-3.9,4.2-5c2.7-1,3.7,2.1,7.7,2.7
			c0.7,0.1,6.6-0.1,7.1-0.3c1.4-0.5,2.8-2.2,3.9-4c1.3-2.1,2.4-4.4,2.9-5.1c1.3-1.7,2.3-1.1,2.5-6l-0.2-6.9l-2-6.9
			c-2.4,0.9-3.1,0.2-6.2-1.6c-3.4,3.1-13.1,12.9-15.8,13.4C384.3,184.4,383.9,184.4,383.6,184.4z"/>
		<path fill-rule="evenodd" clip-rule="evenodd" fill="#33CCFF" d="M348.1,200.7c-1.1-4.7,0.3-5.1,3.4-6.7c-1.4,0.2-5.1,1.2-6.5,0.1
			c-2.4-1.9,0.4-3.3-6-3.3c-1.2,5-4.1,3.1-4.1,5.8c0,0.9,0.6,2,1,2.2c0,0,5.8,0.7,6.7,1.1l1.5,1.2l1.4,2.8c1.7-0.1,3.7-0.1,4.5-0.1
			C349.2,203.3,348.5,202.6,348.1,200.7z"/>
		<path fill-rule="evenodd" clip-rule="evenodd" fill="#33CCFF" d="M344.1,200.9l-1.5-1.2c-0.9-0.4-6.7-1.1-6.7-1.1
			c0.2,6,0.7,4.8,4.9,9.5l3.1,3.9c0.1-0.3,0.2-0.5,0.3-0.6c-0.2-2.4-0.5-1.5-1.6-3.2c-0.8-1.3-0.7-3.4,0.7-4.1
			c0.4-0.2,1.3-0.4,2.3-0.5L344.1,200.9z"/>
		<path fill-rule="evenodd" clip-rule="evenodd" fill="#33CCFF" d="M350,203.6c-0.9,0-2.9,0-4.5,0.1c-1,0.1-1.9,0.2-2.3,0.5
			c-1.4,0.8-1.5,2.9-0.7,4.1c1.1,1.7,1.4,0.8,1.6,3.2c0.5-0.6,1.3-0.7,2-1c1.4-0.7,1.7-1.4,2.9-1.3c2.1,0.2,2.1,1.6,2.4,4
			c1-0.4,2.4,0.6,2.3,2.6c1.4,0.4,3-0.4,2.8-2.3c-0.1-1.1-2.8-4.6,0.7-5.4l-0.9-2C354.6,202.8,352,204.3,350,203.6z"/>
		<path fill-rule="evenodd" clip-rule="evenodd" fill="#33CCFF" d="M349,209.1c-1.2-0.1-1.5,0.6-2.9,1.3c-0.7,0.4-1.6,0.4-2,1
			c-0.1,0.2-0.2,0.4-0.3,0.6c-0.1,0.4-0.1,1,0.1,1.8c0.2,0.7,1,2.3,1.5,2.8l2.8,1.5c1.6-1,1.9-1.6,2.3-3.9c0.1-0.7,0.4-1.1,0.9-1.2
			C351.1,210.7,351.1,209.3,349,209.1z"/>
		<path fill-rule="evenodd" clip-rule="evenodd" fill="#33CCFF" d="M350.5,214.4c-0.3,2.3-0.7,2.9-2.3,3.9l8,8.1
			c-0.1-0.5,0-1.1,0.3-2c1.6-3.9,0.3-3.4-0.9-4.2c-2.2-1.5-2.3-2.5-2.9-4.9c0.3,0.3,0.6,0.5,0.9,0.6c0.1-2-1.3-3-2.3-2.6
			C351,213.3,350.6,213.7,350.5,214.4z"/>
		<path fill-rule="evenodd" clip-rule="evenodd" fill="#33CCFF" d="M352.8,215.2c0.6,2.4,0.8,3.4,2.9,4.9c1.1,0.8,2.5,0.4,0.9,4.2
			c-0.4,0.9-0.4,1.5-0.3,2c0.4,1.5,2.8,0.9,3.6,0c0.9-1.1,0.4-2.6,2.9-2.8l5.2,0c-2.7-4.2,0.5-5.1,0.1-10c-0.1-1.1-0.5-2.2-0.7-3.2
			c-4,0.3-1.4-1.9-7.3-2.4c-1.2-0.1-2.1,0-2.8,0.1c-3.5,0.8-0.8,4.3-0.7,5.4c0.2,1.9-1.4,2.7-2.8,2.3
			C353.4,215.7,353,215.5,352.8,215.2z"/>
		<path fill-rule="evenodd" clip-rule="evenodd" fill="#33CCFF" d="M359.9,207.9c5.9,0.4,3.3,2.6,7.3,2.4c-0.5-2.2-0.1-3.7,7.1-3
			c3.2-1.1,3.5-0.9,4.4-3.6c-1.2-0.5-2.3-1.4-3-2.5c-2.3-3.4-2.1-4.9-0.8-5.6c-4.3-0.4-5.9,0.4-9.5,5.8
			C362.8,205.1,362.7,206.5,359.9,207.9z"/>
		<path fill-rule="evenodd" clip-rule="evenodd" fill="#33CCFF" d="M367.3,210.3c0.2,1,0.6,2.1,0.7,3.2c0.4,4.9-2.8,5.8-0.1,10
			c0.2,0.4,0.5,0.8,0.9,1.2c2.3,2.9,6.9-1.6,8.6-3.2v-8.4c-0.1-3.6-0.4-4.3-3-5.8C367.2,206.6,366.8,208.1,367.3,210.3z"/>
		<path fill-rule="evenodd" clip-rule="evenodd" fill="#33CCFF" d="M374.3,207.3c2.6,1.6,3,2.2,3,5.8v8.4l2.5-0.2l-0.1-8.2
			c1.2-1.1,2.3-1.9,2.6-3.7c0.5-2.6-0.4-4.1-1.7-5.4c-0.7,0.1-1.3-0.1-2-0.3C377.9,206.4,377.5,206.2,374.3,207.3z"/>
		<path fill-rule="evenodd" clip-rule="evenodd" fill="#33CCFF" d="M382.4,209.3c-0.3,1.8-1.4,2.6-2.6,3.7l0.1,8.2
			c7.5-0.5,4.7,0.2,6.6,4.2c1,2.2,3.7,1.6,7.4,1.6c-0.6-1-1-2.1-0.9-3.9c0.2-2.4,2.6-5,4.8-4l1.5,0.9c3.6-17.2,5-7.8,6.6-19.5
			c-0.7-0.9-1.6-1.9-2.3-3.3c-1.1,1.8-2.5,3.5-3.9,4c-0.5,0.2-6.4,0.4-7.1,0.3c-4.1-0.6-5-3.7-7.7-2.7c-3.2,1.2-1.4,4.8-4.2,5
			C382,205.3,382.9,206.7,382.4,209.3z"/>
		<path fill-rule="evenodd" clip-rule="evenodd" fill="#33CCFF" d="M397.8,219.2c-2.3-1-4.7,1.6-4.8,4c-0.1,1.8,0.3,2.9,0.9,3.9
			c0.7,1.2,1.6,2.3,2.5,4.7h7.2c5.9,1.2,6.8,1.4,7.6-3.1c-0.7,0.4-1.4,0.7-2.2,0.4c-1.9-0.6-2.5-3.3-2.5-5.2
			c-0.2-3.6,1.3-4.8,3.4-7.4c-0.8-0.6-1.6-1.4-2.6-2.6c-3.3-3.9-0.2-5,0.8-5.9c0.5-4.3-0.6-5.8-2-7.5c-1.7,11.7-3,2.3-6.6,19.5
			L397.8,219.2z"/>
		<path fill-rule="evenodd" clip-rule="evenodd" fill="#33CCFF" d="M409.7,216.6c-2.1,2.6-3.5,3.7-3.4,7.4c0.1,1.9,0.7,4.5,2.5,5.2
			c0.8,0.3,1.5,0,2.2-0.4c0.9-0.5,1.7-1.1,2.7-1l1,0.3c0.1-0.4,0.2-0.8,0.4-1.2c1.3-3.5,5.4-0.2,7.3,0c2.4,0.3,3.5-1,5-1.8
			c3.6-2,3.6-0.8,5.3-4.4c-0.1-0.2-0.2-0.4-0.3-0.6c-3.3-6.4-1.9-3.3-4.7-4.9c-2.4-1.3-1.8-5.4-1.8-5.7c-0.1-1.2-0.7-1.9-1.2-2.4
			c-5.1,7-2.9,3.1-6.4,5.6C415.6,214.7,413.9,219.6,409.7,216.6z"/>
		<path fill-rule="evenodd" clip-rule="evenodd" fill="#33CCFF" d="M411.1,228.7c-0.7,4.5-1.7,4.2-7.6,3.1l0.4,2.1
			c0.8,3.6,1.9,6.1,2,6.4c1.3,5.4-4.1,4.7-5.4,5.4c-1,0.5-1.7,2.6-1.4,4.4c0.2,0.8,0.5,1.5,1.1,2c0.3-0.6,0.9-1,1.8-1
			c1.2,0,5.7,1.4,7.1-2.9c0.8-2.5-0.5-1.7,1.5-4.7c4.9-7.4,3.1-11.5,4-15.5l-1-0.3C412.8,227.7,412,228.3,411.1,228.7z"/>
		<path fill-rule="evenodd" clip-rule="evenodd" fill="#33CCFF" d="M405.9,240.3c-0.1-0.3-1.2-2.8-2-6.4l-0.4-2.1h-7.2
			c-4.4,8.5-5,11.8,2.8,18.3c-0.4-1.8,0.3-3.9,1.4-4.4C401.8,245,407.2,245.6,405.9,240.3z"/>
		<path fill-rule="evenodd" clip-rule="evenodd" fill="#33CCFF" d="M414.8,228c-0.9,4,1,8.1-4,15.5c-2,3-0.7,2.2-1.5,4.7
			c-1.5,4.4-6,2.9-7.1,2.9c-1,0-1.5,0.4-1.8,1c-0.7,1.4,0.3,4.2,1.7,6.3c-0.2-1.7,0.4-3,2.7-3.4c4.7-0.8,5.3,0.3,6.9,2.7
			c3.8,6,4.2,0.1,8.1,0.9c4.6,1,2.8,7.4,2.8,7.4c-0.2,5.3,3.2,1.5,4.4,4.4c2.1-1.2,2.7-0.2,4.2,0.8c0.9,0.7,2.1,0.8,2.7,1.1
			c2.6,1.2,2.7,2.8,3.2,3.4c1.1,1.6,3,2,3.7,0.6c1.9-3.7-5.2-4.1-3.9-9.3c1-4,2.4-5.5,6.1-5c-0.8-0.9-1.6-2.1-2.5-3.7
			c-2.1-4.2-0.9-13.1-0.5-18.5c-0.9-0.9-1.4-2.3-0.8-4.5c0.4-1.6,2.3-2.1,2.6-2.4c0.3-0.3,0.4-1,0.4-1.5c-0.3-1.7-1.5-1.5-0.6-4.2
			c-0.4-0.1-0.7-0.3-1-0.5c-2.1-1.4-5-1.6-7.7-6.2c-1.6,3.6-1.6,2.3-5.3,4.4c-1.5,0.9-2.6,2.1-5,1.8c-1.8-0.2-5.9-3.5-7.3,0
			C415,227.2,414.9,227.6,414.8,228z"/>
		<path fill-rule="evenodd" clip-rule="evenodd" fill="#33CCFF" d="M441.7,233c-0.3,0.3-2.2,0.8-2.6,2.4c-0.5,2.2-0.1,3.5,0.8,4.5
			c1.2,1.2,3.3,1.6,5.2,1.7l4.7,0.2c-1.1-1.3-1.6-3-0.8-5.2c0.8-2.2,5.8-2.9-0.2-9.4c-2.3,0.5-5.3,0.8-7.3,0.1
			c-0.9,2.7,0.3,2.5,0.6,4.2C442.1,232,442,232.7,441.7,233z"/>
		<path fill-rule="evenodd" clip-rule="evenodd" fill="#33CCFF" d="M449.7,241.8l-4.7-0.2c-1.9-0.2-3.9-0.5-5.2-1.7
			c-0.4,5.4-1.6,14.3,0.5,18.5c0.8,1.6,1.7,2.8,2.5,3.7c1,1.1,1.9,1.8,2.8,2.2c2.3,1.3,4.3,1.2,5.1,4.7c0.7,2.6,0.3,3.3,4.1,3.2
			c2.4,0,7.8-0.3,8.2-4c0.2-1.6-2.6-2.8-2.5-9.7l0.4-6.4c-1.6-1.9-3.3-4-5.2-5.6C454.2,245,451.4,243.7,449.7,241.8z"/>
		<path fill-rule="evenodd" clip-rule="evenodd" fill="#33CCFF" d="M448.9,236.6c-0.8,2.2-0.3,3.9,0.8,5.2c1.6,1.9,4.5,3.2,6.2,4.7
			c1.8,1.6,3.6,3.8,5.2,5.6l3.2-5.3l0-21.4c-2.1-0.1-2.1,5.6-5.3,4.1c-2.5-1.1-1.2-2.9-6.7-3.5c-0.2,0.2-1.7,0.8-3.6,1.2
			C454.7,233.7,449.7,234.5,448.9,236.6z"/>
		<path fill-rule="evenodd" clip-rule="evenodd" fill="#33CCFF" d="M452.3,226c5.5,0.5,4.2,2.3,6.7,3.5c3.2,1.5,3.3-4.2,5.3-4.1
			c0.1,0,0.3,0,0.4,0.1c0.7,0.3,0.9,2.5,2.7,1.5c1-0.6,0.4-2.2,2.9-2.7c4-0.8,2.7,1.3,8.4-5.6l2.1-2.4c-4.9,0.2-4.3-1.7-8.2-3.7
			c-1.4-0.7-3.8-1.2-4.4-3.5l0-1.8c-0.6,0.3-1.2,0.2-1.9,0c-1.1-2,1.1-2.1,0.4-4.3c-1.4-4.2-4.2-5.3-7.7-6.1c-2,0.7-3.3,1.4-4.3,2.6
			c-1,1.2-1.6,2.9-2.1,5.8c-0.8,3.9-1.4,3-2.4,4.1c-0.6,0.7-1.2,3-2.1,4c-3.9,4,0.8,4.3,1.8,4.8C451,218.9,453.5,224.6,452.3,226z"
			/>
		<path fill-rule="evenodd" clip-rule="evenodd" fill="#33CCFF" d="M427,270.5c-1.2-2.9-4.6,0.9-4.4-4.4c0,0,1.7-6.4-2.8-7.4
			c-3.9-0.8-4.3,5.1-8.1-0.9c-1.5-2.4-2.1-3.5-6.9-2.7c-2.4,0.4-2.9,1.6-2.7,3.4c0.5,3.8,4.7,10,2.2,14.5c-2.3,4.2-5.6,1.7-4.2,16.5
			c0.2-3.1,4.7-2.9,6.4-2c4.5,2.5,5.3,0.7,9.1,1.6c3.9,0.9,0,0.7,7,1c1-0.6,1.8-1,2.6-1.4l-1.7-2c-1.3-2-1-10-1-10
			c0.5-1.8,2.5-2.1,2.6-2.2C426.7,273.7,426.3,272.8,427,270.5z"/>
		<path fill-rule="evenodd" clip-rule="evenodd" fill="#33CCFF" d="M427,270.5c-0.7,2.4-0.3,3.2-2,4c-0.2,0.1-2.1,0.4-2.6,2.2
			c0,0-0.3,8,1,10l1.7,2c3-1.3,4.3-0.6,6.7,0.9c0.8-0.4,1.9-0.3,2.3-0.5c2.2-1,1.9-3.4,4.2-4.8c1.3-0.8,1.8-2.4,3.1-2.4
			c0.3-1.9,2.8-3.4,5.1-3.7c0.8-5.5,1.5-8.7-0.8-13.8c-0.9-0.5-1.8-1.1-2.8-2.2c-3.7-0.5-5.2,1-6.1,5c-1.3,5.1,5.8,5.6,3.9,9.3
			c-0.7,1.4-2.6,1.1-3.7-0.6c-0.4-0.6-0.5-2.2-3.2-3.4c-0.6-0.3-1.7-0.4-2.7-1.1C429.7,270.2,429.1,269.3,427,270.5z"/>
		<path fill-rule="evenodd" clip-rule="evenodd" fill="#33CCFF" d="M438.3,284.2c-2.3,1.3-2,3.8-4.2,4.8c-0.4,0.2-1.5,0.1-2.3,0.5
			c-1.5,0.6-2.2,2.6,3.6,9.2l3.6,3.6c1.4-0.4,2.7-0.2,5.2-0.1c0.1-0.5,0.7,0.1,2.3-5c3.9-12.4-4.3-11.2-5-14.4
			c-0.1-0.3-0.1-0.6,0-0.9C440.1,281.9,439.6,283.5,438.3,284.2z"/>
		<path fill-rule="evenodd" clip-rule="evenodd" fill="#33CCFF" d="M445.7,264.3c2.2,5.1,1.6,8.3,0.8,13.8c2.7-0.4,5.2,0.8,3.5,4.5
			c-2.2,4.6,5.6,6.2,3.2-2.4c-2.2-7.8-3.3,1.7-2.3-11.2C450,265.5,448.1,265.6,445.7,264.3z"/>
		<path fill-rule="evenodd" clip-rule="evenodd" fill="#33CCFF" d="M450.9,269c-1,12.9,0.1,3.4,2.3,11.2c2.4,8.6-5.4,7-3.2,2.4
			c1.7-3.7-0.8-4.9-3.5-4.5c-2.3,0.3-4.8,1.7-5.1,3.7c0,0.3,0,0.6,0,0.9c0.7,3.1,8.9,2,5,14.4c-1.6,5.1-2.2,4.6-2.3,5
			c-0.1,0.4,0.3,1.6,0.9,8.4c0.1,0.7,0.1,1.4,0.2,2.2c0.8-0.4,1.6-0.7,2.4-1.1c4.3-2,8.2-4.9,4.7-13.6c-2.1-5.2,11.3-8.1,12-15.9
			l-1-13.8c-0.4,3.7-5.8,3.9-8.2,4C451.2,272.2,451.5,271.6,450.9,269z"/>
		<path fill-rule="evenodd" clip-rule="evenodd" fill="#33CCFF" d="M477,282.6c-0.8,0.6-8.1,1.1-6.6,8.6c1.6,7.5-4.7,10.8-0.4,18.6
			c1.2,2.1,2.4,2.2,4.4,2.8c5.4-0.5,4.1-4.9,6.1-10.5c4-11.2,2.7-4.7,4.4-16.8c0.3-2.1,3.1-15.6-2.5-14.1
			C479.8,272,479.6,280.8,477,282.6z"/>
		<path fill-rule="evenodd" clip-rule="evenodd" fill="#33CCFF" d="M447.2,317.6l0.4-6c-0.8,0.4-1.6,0.7-2.4,1.1
			c-0.1-0.8-0.1-1.5-0.2-2.2c-1.9,0.1-3.1,0.5-3.4,3c-0.4,3.6,1.8,4,4,4.1C446.2,317.6,446.7,317.6,447.2,317.6z"/>
		<path fill-rule="evenodd" clip-rule="evenodd" fill="#33CCFF" d="M445.7,317.6c-2.2-0.1-4.5-0.5-4-4.1c0.3-2.5,1.5-2.9,3.4-3
			c-0.6-6.8-1-8-0.9-8.4c-2.4,0-3.8-0.3-5.2,0.1c-1.4,0.4-2.7,1.6-5.1,4.3c-2.3,2.7-2.5,8.5-8,3.1c-1.8,6.9-5.7,6.5-6.5,3.6
			c-1.1-4.1,0.3-3.1-1.9-5.3c0.3,7.6,1.9,13.9-2.8,12.8c-1.4-0.3-0.6-2-5.3-2.2c9.6,16.4,1.9,12.6,4.6,17.5c1.5,2.7,7.4,4.3,9.7,0
			c5.5-0.2,9.5,0.7,14.5-3.1c3.7-2.9,3.5-6.6,5.9-10.2C445.6,320.2,445.6,320.3,445.7,317.6z"/>
		<path fill-rule="evenodd" clip-rule="evenodd" fill="#33CCFF" d="M425.9,309.6c5.5,5.5,5.6-0.4,8-3.1c2.4-2.8,3.7-3.9,5.1-4.3
			l-3.6-3.6c-5.8-6.6-5.2-8.5-3.6-9.2c-2.5-1.5-3.7-2.2-6.7-0.9c-0.7,0.3-1.6,0.8-2.6,1.4c-2.4,1.4-1.5,5.2-1.5,11.4l-3.5,0l0.1,6.5
			c2.2,2.2,0.8,1.2,1.9,5.3C420.2,316.2,424.1,316.5,425.9,309.6z"/>
		<path fill-rule="evenodd" clip-rule="evenodd" fill="#33CCFF" d="M417.5,307.9l-0.1-6.5l3.5,0c0-6.2-0.9-10,1.5-11.4
			c-7-0.2-3.1,0-7-1c-3.8-0.9-4.6,0.8-9.1-1.6c-1.6-0.9-6.1-1.1-6.4,2c-0.1,1.3,0.5,3.1,2.3,5.6c3.4,4.8,2.3,5.4,4.2,13l2.8,10.5
			c4.7,0.2,4,1.9,5.3,2.2C419.4,321.8,417.8,315.5,417.5,307.9z"/>
		<path fill-rule="evenodd" clip-rule="evenodd" fill="#33CCFF" d="M412.2,115.4c0.4,0.4,1.9,3,2.8,2.1c0.2-0.2,0.4-1.5,1.5-2.5
			c0.2-0.2,2-0.9,1.2-2.7c-0.8-2-1.5-0.3-0.9-5.5l-1.7,0.5c-2.8,0.4-4.8-0.9-5.4-2.4l-1.5,0.7c-1.2,0.5-2.5,0.6-3.8,0.5
			c-0.2,0.7-0.3,1.2-0.3,1.6c0.1,1.6,1.9,1.6,3.1,3.2C408.9,113.4,410.7,113.9,412.2,115.4z"/>
		<path fill-rule="evenodd" clip-rule="evenodd" fill="#33CCFF" d="M391.7,107.2c4.6,0.4,3.9,0.7,8.6-2.9c-0.1-0.1-0.1-0.2-0.1-0.3
			c-10.1-0.8-6.1-4.4-9-4.4c-0.7,0.7-0.4,1.2-0.5,2c-0.4,2-2.7,2-3.4,3.6c0.6,2,1,0.7,2.2,2.6C389.9,107.4,390.6,107.1,391.7,107.2z
			"/>
		<path fill-rule="evenodd" clip-rule="evenodd" fill="#33CCFF" d="M391.2,99.6c2.9,0-1.1,3.6,9,4.4c-0.5-1.8,2.2-1,3.9-4.5
			c-2.1-0.4-3.2-2.4-3.2-3.6c0-1.8,0.9-1.9,1.9-2.1c2.8-0.4,2.7-1.1,3.5-1.3c0.2,0,0.5-0.1,0.7-0.1c-0.4-2.1-0.1-5.3-1.4-6.5
			c-0.8-0.7-0.3,0.5-1.4-1.3c-2.3-3.8-2.8,1.4-6.7-0.8c-1.2-0.7-2.1-1.2-3.4-0.6c-0.3,1.7,1.6,1.1,1.4,3c-3,1.4-2.7-1.3-5.9,0.9
			c-0.7,5.5,0.1,0.6-2.1,5.7c0.7,0.4,1.4,1.2,1.7,3.2l0.2,3C390.1,99.3,390.7,99.5,391.2,99.6z"/>
		<path fill-rule="evenodd" clip-rule="evenodd" fill="#33CCFF" d="M404,99.4c-1.6,3.5-4.4,2.8-3.9,4.5c0,0.1,0.1,0.2,0.1,0.3
			c0.4,1,2.2,1.7,4.1,1.9c1.2,0.1,2.6,0,3.8-0.5l1.5-0.7c-0.3-0.7-0.2-1.4,0.2-2c0.5-0.6,1-0.9,1.5-1.1c0-0.5,0-1,0.2-1.3
			c-2-1.2-3.2-2.1-5.3-1.4C405.4,99.5,404.7,99.5,404,99.4z"/>
		<path fill-rule="evenodd" clip-rule="evenodd" fill="#33CCFF" d="M409.9,102.9c-0.5,0.6-0.5,1.3-0.2,2c0.6,1.5,2.6,2.8,5.4,2.4
			l1.7-0.5l0.9-0.3c3.9-1,4.6-1.6,6.7-5c-0.3-0.3-0.5-0.8-0.7-1.4c-2.2,0.3-3.4-0.9-4.4-0.3c-0.4,0.2-2.1,3.4-4.8,2.6
			c0,0-1.6-1-3.2-0.5C410.9,102,410.4,102.3,409.9,102.9z"/>
		<path fill-rule="evenodd" clip-rule="evenodd" fill="#33CCFF" d="M411.4,101.8c1.6-0.5,3.2,0.5,3.2,0.5c2.6,0.8,4.4-2.4,4.8-2.6
			c0.9-0.5,2.2,0.6,4.4,0.3c-0.3-1.1,0-2,0.4-2.7l-4.6-0.2c-0.9,0-1.6,0.1-2.3,0.2c-2.3,0.5-2.7,1.8-3.3,2.1l-1.6,0.4
			c-0.4,0.2-0.6,0.4-0.8,0.7C411.5,100.9,411.4,101.3,411.4,101.8z"/>
		<path fill-rule="evenodd" clip-rule="evenodd" fill="#33CCFF" d="M411.6,100.5c0.1-0.3,0.4-0.5,0.8-0.7l1.6-0.4
			c0.6-0.3,1-1.6,3.3-2.1c-4.3-1-7.6-4.8-10.4-4.9c-0.2,0-0.5,0-0.7,0.1c-0.9,0.2-0.7,0.9-3.5,1.3c-1,0.2-1.9,0.3-1.9,2.1
			c0,1.2,1,3.2,3.2,3.6c0.7,0.1,1.5,0.1,2.3-0.3C408.5,98.4,409.6,99.3,411.6,100.5z"/>
		<path fill-rule="evenodd" clip-rule="evenodd" fill="#33CCFF" d="M406.9,92.4c2.8,0.1,6,3.9,10.4,4.9c0.6-0.1,1.3-0.2,2.3-0.2
			l4.6,0.2c0.7-1.2,1.9-1.9,1.9-1.9c1.1-1.3,0.9-3.7,1.2-4.1c-1.1-0.5-0.8-0.2-1.4-1.3c1.6-5.1-1.1-6.8-3.8-6.9
			c-1.4-0.1-2.8,0.2-3.4,0.6c-0.7,0.4-1.1,1.4-1.5,2.1c-0.4-2.4-1-4.2-3.6-4.1c-4.2,0.1-0.3,2.6-8,4.4
			C406.8,87.1,406.6,90.3,406.9,92.4z"/>
		<path fill-rule="evenodd" clip-rule="evenodd" fill="#33CCFF" d="M387.4,92.8c2.2-5.1,1.4-0.2,2.1-5.7l-1.4,0
			c-1,0.3-1.5,1.6-1.5,1.6c-1,1.5-2.8-0.8-4,2.8c1,0,2,0.5,3.2,0.8C386.3,92.5,386.9,92.5,387.4,92.8z"/>
		<path fill-rule="evenodd" clip-rule="evenodd" fill="#33CCFF" d="M387.4,92.8c-0.6-0.3-1.1-0.3-1.6-0.5c-1.2-0.4-2.2-0.8-3.2-0.8
			c-0.9,0-1.9,0.3-2.9,1.5c2.6-0.4,4,3.2,5.1,4c0.3,0.2,2.8,1.3,4.7,2l-0.2-3C388.8,94,388.2,93.2,387.4,92.8z"/>
		<path fill-rule="evenodd" clip-rule="evenodd" fill="#33CCFF" d="M376.1,93.2c2-3.3,4.6-3.9,1.1-6.1c-5.6-3.5-5.7-7.5-8.6-7.6
			c-0.9,0-1.7,0.3-2.5-0.2c-0.1-0.5-0.1-0.3,0.1-0.8c0.9-0.4,4.8-0.1,4.1-2.7c-0.6-2.1-3.1-0.1-5.4-1.6c1.8-1.1,4.4-2.7,4-4.5
			c-4.3-2.6-6.3,5.1-6.3,5.1c-0.9,1.5-1.5,0.3-0.9,2.7c0.4,1.6,0.3,2.1-0.4,3.1c-5.8,0-4.4,4.5-1.5,4.6c1.6,0,2.2-0.5,2.6-1.3
			c0.5-1,0.6-2.4,2.6-2.5c4.4-0.4,4,4.2,2.7,4.7c0,0-5,0.1-3.3,4.1c1.2,2.9,3.3-0.5,4.5,0.3l0.4,0.5c-0.3,1.9-2.6,1.9-6,3.6
			c-1.4,0.7-3.8,0.2-2.6,3c1.4,0.4,1.4,0.3,2.4-0.4c0.7-3.3,3,0.6,4.2-2.6C367.8,94.9,374.1,96.7,376.1,93.2z"/>
		<path fill-rule="evenodd" clip-rule="evenodd" fill="#33CCFF" d="M361,80.2c1.5-2.3-1.1-3.1,0.6-5.2c-2.4-0.3,1.9-5-1.1-4.7
			c-1.8,0.2-1.5,1-3.3,2.7c-2.4,2.2,1.5,2.8,2,3.5C359.7,77.3,359.1,78.3,361,80.2z"/>
		<path fill-rule="evenodd" clip-rule="evenodd" fill="#33CCFF" d="M359.6,85.1c-2.9-0.1-4.3-4.6,1.5-4.6c-4.9-2.1-5.2,1.7-7.3,2.5
			c-1.5,0.6-3.1-0.4-2.4,3.2c1.7,1.2-3,8.9,3.5,6.7c1.4-0.5,1.4-1.7,3.6-2.6c3-1.3,3.7-2.3,3.6-6.5
			C361.8,84.5,361.2,85.1,359.6,85.1z"/>
		<path fill-rule="evenodd" clip-rule="evenodd" fill="#33CCFF" d="M388.5,65.3c-3.4,6.2-0.1,9.5,3.3,8.4c1.3-0.4,7-4.1,8.8-5.1
			c4.3-6.7-4-10.1,3.2-12.5c3.2-1.1,2.4-2,2.6-4.6c0.3-3.2,0.7-0.7,1.8-4.2c0.2-0.4,0.3-0.7,0.4-1c-2.2,0.7-4.7,0.9-5.9,4.4
			c-0.1,0.4,0,1.7-1.1,3l-2,1.5c-2.2,2.6,0.8,0.8-4.7,2.5c-3.8,1.2-2.4,1.6-6.7,2.4C384.9,60.7,384.1,62.8,388.5,65.3z"/>
		<path fill-rule="evenodd" clip-rule="evenodd" fill="#33CCFF" d="M391.6,76.1c-1.5,1.2-1.6,5.7,1.1,5.9l2.8-0.4
			c0-2.7,3.7-1.4,2.8-3.7c-0.6-1.7-1.4-0.1-0.7-3.3c0.4-1.8-1.2-2.4-2.6-0.6C393.4,76.3,393.1,74.9,391.6,76.1z"/>
		<path fill-rule="evenodd" clip-rule="evenodd" fill="#33CCFF" d="M400.6,68.5c-4,6.2,2.3,4.9,1.9,9.6c-1.2,0.6-1.1,0.4-1.6,0.9
			c-2.3,1.9,12.9,3.3,9.6-5.8l-0.8-1.8c8.1,1,9.4-4.9,3.1-6.6c-3.3-6.3,5.8-5.8,7.3-9.2c0.2-0.4,0.2-3.5,1.5-3.8
			c2.4-0.6,3.5,1.9,6.1-1.9c-0.2-0.2-0.5-0.5-0.6-0.9c-0.8-1.8-1.4-3.2-1.3-4.4c-0.8-1.8-2.9-3.5-4.7-3.7c-0.6,0.5-3.1,5.4-5.2,2.4
			c-6.3-0.7-3.2,1.8-7.6,4c-1,3.5-1.4,1-1.8,4.2c-0.3,2.6,0.6,3.6-2.6,4.6C396.6,58.5,404.8,61.9,400.6,68.5z"/>
		<path fill-rule="evenodd" clip-rule="evenodd" fill="#33CCFF" d="M420.6,78.6c-0.1,0.1-0.3,0.3-0.3,0.4c-1.1,1.9,0.7,3.1,1.8,4
			c2.6,0.2,5.4,1.8,3.8,6.9c1.3-1.7,2.8-4.7,3.8-5.7c0.3-0.3,1.7-1.1,2.6-2.6c-0.6-2.7-1.1-3.6-5.1-3.9
			C425.7,77.7,422,77.3,420.6,78.6z"/>
		<path fill-rule="evenodd" clip-rule="evenodd" fill="#33CCFF" d="M420.6,78.6c1.4-1.2,5.1-0.9,6.6-0.8c4,0.3,4.5,1.1,5.1,3.9
			c0.7-1,1-3.7,5.3-3.3l1.9,0.4c-1.6-1.2-3-2.1-3.2-2.5c-0.2-0.3-0.3-0.6-0.4-0.9l-4.6-0.9c-3.9,0.3-2.6,2.6-6,0.6
			C422.5,73.5,420.7,76,420.6,78.6z"/>
		<path fill-rule="evenodd" clip-rule="evenodd" fill="#33CCFF" d="M427.8,72.6c0.3,0.1,1.7,1.3,3.4,1.8l4.6,0.9
			c-1.3-3.1-0.4-4.7,1.3-5.6l-2.5-0.5c-3.2-1.1-1.2-1.3-5.4-0.1c-3.2,0.9-4,0-6.9,0.9C420.6,73.3,425.1,71.4,427.8,72.6z"/>
		<path fill-rule="evenodd" clip-rule="evenodd" fill="#33CCFF" d="M425.7,44.7c0.1-1.1,1-1.9,3.2-2.6c5.9-1.7,7.5-5,9.9-5.3
			c-17.3-4.1-14.5,0.7-20.4,1.4c-7.9,0.9-7.6,5.3-7.8,5.6c-0.6,1-0.7-0.5-2,2.5c-0.1,0.3-0.3,0.6-0.4,1c4.5-2.2,1.3-4.7,7.6-4
			c2,3,4.5-1.9,5.2-2.4C422.8,41.2,424.9,42.9,425.7,44.7z"/>
		<path fill-rule="evenodd" clip-rule="evenodd" fill="#33CCFF" d="M247.7,317.3c-7.4,0.8,5.9-7.2-6-9.8c-3.3-0.7-4.3-4.7-6.2-5.6
			c-0.8-0.4-1.8-0.2-3.3,1.3c-1.9-1.9-6.2-3-6.3,0.6c0,0.2,0,0.4,0,0.6c0.5,5.7-5,2.4-3.4,8.1c1.7,6-2.3,2.7-2.6,11.8
			c-0.1,4-2.8,3.4-0.2,8.2c2.5,4.7-3.5,10.7-3.6,13.3c-0.1,2.4,1.8,2.7,0.1,4.9c-1.4,1.9,0.2,3.8-1.4,6.7c-2.5,4.4,6,5.9-2.4,20.9
			c-3.7,6.6,1.4,6.1,1.8,6.7c2.7,3.6,1.1,0.8,3.8,2.2c4.1,2.2,2.2,8.9,10,9.5c1.1,0.1,2.4,0.1,3.9-0.1c0.6-0.1,5.2-1.7-2.6-3.2
			c-4.2-0.8-9.3-6.6-7-9.9c4.2-5.9,11.1-9,5.8-10.8c-7.1-2.5,1.3-4.4,2.5-8.1c0.8-2.3,5.4-2,4.3-4.9c-0.6-1.5-3.3-0.9-4.5-0.8
			c-2.1-2.9-0.5-6.5,1.4-2.7c0.5,1,5,3,5.4-1.2c0.7-7,13.5-2.5,12.8-10.8c-0.2-2.4-1.3-1.4-1.1-4.7c-3-0.4-4.8-3.3-3.7-6.8
			c1.9-6,0.4-5.7,2.5-7.8c1.9-3.1,4.6-6,7.7-7.7c0.5-3.3-0.7-6.4-2.3-9.2C254,313,254.3,316.5,247.7,317.3z"/>
		<path fill-rule="evenodd" clip-rule="evenodd" fill="#33CCFF" d="M212.4,378.1c8.4-15-0.1-16.5,2.4-20.9c1.6-2.8,0.1-4.8,1.4-6.7
			c1.6-2.2-0.3-2.5-0.1-4.9c0.1-2.5,6.1-8.6,3.6-13.3c-2.6-4.8,0.1-4.2,0.2-8.2c0.3-9.1,4.3-5.8,2.6-11.8c-1.6-5.7,4-2.3,3.4-8.1
			c0-0.2,0-0.4,0-0.6c-2.7-0.5-2.7-4.3-3.2-6.7c-1.3-6.3-0.6-4.1-0.8-7.3c-0.1-0.7-0.4-1-0.8-1c-0.9,0.1-2.1,1.7-2.4,3.9
			c-0.1,0.9,0,1.9,0.4,2.9c1.9,5.3-0.9,6.1-0.7,9.1c0,0.5,0.6,1.2,0.1,2.7c-1.2,3.5,0.5,0.2-0.3,7c-0.8,6.4-2.4,1.3-1.8,14.7
			c0.1,3.3-2.9,12.9-3.5,13.8c-1.2,1.6-2.9,1.3-0.9,4.7c2.3,3.9-1.8,5.3-0.7,12.4c0.7,4.5,1.5,3.9-1,8.1c-2.6,4.2-4.9,13.9-1.8,17.7
			c0,0,4.2,3.3,4.6,3.8c1.6,2.1,0.2,2.7,4.7,4.1c5.3,1.8,3.4,3.3,10.5,2.5c-7.8-0.6-6-7.4-10-9.5c-2.6-1.4-1,1.4-3.8-2.2
			C213.8,384.2,208.7,384.7,212.4,378.1z"/>
		<path fill-rule="evenodd" clip-rule="evenodd" fill="#33CCFF" d="M245.4,332.3c-1.1,3.5,0.7,6.4,3.7,6.8c2.5,0.3,5.8-1.1,8.7-5.3
			c-3.6-5.5-4.3-5.5-9.9-9.4C245.8,326.6,247.3,326.3,245.4,332.3z"/>
		<path fill-rule="evenodd" clip-rule="evenodd" fill="#33CCFF" d="M235.5,301.9c1.9,0.9,2.9,4.9,6.2,5.6c12,2.5-1.4,10.6,6,9.8
			c6.6-0.7,6.3-4.2,5.6-9.8c-0.5-0.8-0.9-1.6-1.4-2.4c-1.1-1.7-7.9-5.7-5.6-10.9C240.5,289.2,231.8,291.1,235.5,301.9z"/>
		<path fill-rule="evenodd" clip-rule="evenodd" fill="#33CCFF" d="M235.5,301.9c-3.6-10.8,5.1-12.7,10.8-7.7c0-0.1,0.1-0.2,0.1-0.3
			c2.5-5.3,1.1-2.5-0.7-6.4c-2.2-4.8-5.4,0.1-4.9-6.4c0.8-10.5-7.6,0.4-10.5-12.3c-1.1-4.9-4.7-0.6-8.8,0.3l-0.3,19.6
			c0.4,0,0.7,0.3,0.8,1c0.3,3.2-0.5,1,0.8,7.3c0.5,2.4,0.5,6.1,3.2,6.7c0.1-3.6,4.4-2.5,6.3-0.6
			C233.6,301.7,234.6,301.5,235.5,301.9z"/>
		<path fill-rule="evenodd" clip-rule="evenodd" fill="#33CCFF" d="M245.7,287.5c1.8,3.9,3.2,1.1,0.7,6.4c0,0.1-0.1,0.2-0.1,0.3
			c-2.3,5.3,4.6,9.3,5.6,10.9c0.5,0.8,1,1.5,1.4,2.4c1.6,2.8,2.8,5.9,2.3,9.2c-3.1,1.7-5.9,4.6-7.7,7.7c5.6,3.9,6.3,3.8,9.9,9.4
			c6.7-10,10.4-12,9.5-18.2c-1.5-10.1,14.4-10.8,14.9-11.2c4-2.9,6-15,6.2-19.8l0.2-8.6c4.6-2.9,8.4-8.9,9.1-14.7
			c-0.3-9.3-3.7-9-6.5-9.8c-2.2-5.4-7.1-4.2-10.9-5.1c-3-0.7-3.2-0.1-5.2,1.3c1.3-6.2-6.1-6.5-6.7-6.2c0,0-7.2,7.4-9.7,3.5
			c-2.4-3.8,7.6-7.1,4-11.3c-1.1-1.3-1.8,0.7-2.5-5.5c-4.3,2.9-0.6,5.2-5.3,4.8c-0.5,0-1.2-0.1-1.9-0.2c-1.2-0.2-2.3,0-3.4,0.3
			c-2,0.7-3.9,2.2-5.6,3.5c-3.3-2.3-1.9-7.7-2.4-11.4l-0.9-0.5c-2.6,1.1-3.3,5.1-7.2,2.8c-1.4-0.8-2.3-0.9-3.9-1.4
			c4.9,4,0.7,0.9,4.1,6.2c1.1,1.7-7.4,11.8-8.5-2.7l-1.2,2.2c-2.6,0.6-1.6,0.2-3.9,1.4c-0.5,3.4,1,8.8,0.5,12.9
			c-0.2,1.9-0.8,3.6-2.3,4.6c0,0-9.7,3.6-5.2,12.9c2.6,5.4,5.5,6.3,8.1,5.7c4.1-0.9,7.7-5.2,8.8-0.3c2.9,12.7,11.3,1.7,10.5,12.3
			C240.3,287.6,243.4,282.7,245.7,287.5z"/>
		<path fill-rule="evenodd" clip-rule="evenodd" fill="#33CCFF" d="M221.2,288.8l0.3-19.6c-2.6,0.6-5.5-0.3-8.1-5.7
			c-4.5-9.4,5.1-12.9,5.2-12.9c1.4-1,2.1-2.7,2.3-4.6l-0.5-1.2c-3.8-1.4-5.7,0.3-6.6-0.5c-0.3-0.3-2.1-5.6-4.7-4.7
			c-0.6,0.2-1.2,0.7-1.9,1.7c-2,2.9,0.4,1.3-3.3,4.4c-3.6,3-1,6-3.9,6.3c-1,0.1-2.4-1.3-3.8-1.6c-0.8-0.2-1.5,0-2.1,1.2
			c-1.6,3.4,4.1,7.4,4.1,7.4c0.2,0.2,4.3,9.7,4.7,10.9c0.8,2.3,2.4,10.2,3.7,11.8c1,1.2,5.8,3.2,12.3,11.2
			C219,290.5,220.3,288.9,221.2,288.8z"/>
		<path fill-rule="evenodd" clip-rule="evenodd" fill="#33CCFF" d="M203.8,245.6c3.7-3.1,1.4-1.5,3.3-4.4c0.7-1,1.3-1.5,1.9-1.7
			c-2.5-2.2-2.9-0.8-5.5-3.1c-1-0.9-2-1.8-4-1.7c-0.5,0-1,0.1-1.7,0.3c-2.5,0.7-3.9,4.2-2.3,8.4c1.3,3.5,1.1,3.5,0.5,6.8
			c1.3,0.3,2.8,1.7,3.8,1.6C202.8,251.6,200.2,248.7,203.8,245.6z"/>
		<path fill-rule="evenodd" clip-rule="evenodd" fill="#33CCFF" d="M203.5,236.4c2.6,2.3,3,0.9,5.5,3.1c2.6-0.9,4.4,4.4,4.7,4.7
			c0.8,0.8,2.8-0.9,6.6,0.5l0.5,1.2c0.4-4.1-1-9.5-0.5-12.9c2.3-1.1,1.4-0.8,3.9-1.4l1.2-2.2c-1.4-3.7-2.6-3.9,0.7-6.1
			c0.7-4-2.7-1.9-5.5-4.1c-2.5-1.9-5-0.7-6-2.6c0,0-0.9-2.7-1.3-3.5c-1.1-2.3-0.9-1.2-0.9-3.9c0.8-0.7,2.5-1.8,3.7-2.9
			c1.5-1.4,2.6-2.8,1.1-4c-1.8-1.4-4.2,2.2-5.7,2.8c-5.8,2.7-3.2,3.3-5.2,6.2c-0.5,0.7-1.2,1.1-1.9,1.7c-1.2,1-2.2,2.3-1.7,6.3
			c0,0.4,0.1,0.8,0.2,1.3c1.8,11-0.9,8.4-3.5,14C201.6,234.6,202.5,235.6,203.5,236.4z"/>
		<path fill-rule="evenodd" clip-rule="evenodd" fill="#33CCFF" d="M226.2,223.4c-3.3,2.2-2.2,2.4-0.7,6.1c1.1,14.5,9.6,4.4,8.5,2.7
			c-3.4-5.3,0.8-2.2-4.1-6.2c1.6,0.4,2.5,0.5,3.9,1.4c3.9,2.3,4.6-1.7,7.2-2.8c-3-4.5-1.4-4.2,0-8.8c0.2-0.6,0.2-1.1,0.3-1.5
			c0-4.1-5.7-4.3-5.8-4.3c-2.3-0.9-0.9-2.8-4.2-1.6c-2.8,1-6.1-0.8-6.9-1.9c-3.6-5.4-2.6-2.9-7.9,0c-1.3,1.1-2.9,2.2-3.7,2.9
			c0,2.7-0.2,1.6,0.9,3.9c0.4,0.8,1.2,3.4,1.3,3.5c1,1.9,3.5,0.6,6,2.6C223.5,221.5,226.9,219.4,226.2,223.4z"/>
		<path fill-rule="evenodd" clip-rule="evenodd" fill="#33CCFF" d="M240.8,215.8c-1.4,4.6-3,4.2,0,8.8l0.9,0.5
			c0.5,3.7-0.9,9.1,2.4,11.4c1.7-1.4,3.6-2.8,5.6-3.5c-3.3-4-4.8-8.3,0.6-11.8c-7.2-1.3-2.3-5.9-9.2-6.9
			C241.1,214.7,241,215.2,240.8,215.8z"/>
		<path fill-rule="evenodd" clip-rule="evenodd" fill="#33CCFF" d="M250.3,221.1c-5.4,3.5-3.8,7.8-0.6,11.8c1.1-0.4,2.2-0.5,3.4-0.3
			c0.8,0.1,1.4,0.2,1.9,0.2c-0.7-3.6-1.2-7.6,0.2-11.1C253.3,221.1,251.3,221.3,250.3,221.1z"/>
		<path fill-rule="evenodd" clip-rule="evenodd" fill="#33CCFF" d="M255.2,221.7c-1.4,3.5-0.9,7.4-0.2,11.1c4.7,0.4,0.9-1.8,5.3-4.8
			l-0.8-2.2C258.5,223.4,256.9,222.3,255.2,221.7z"/>
		<path fill-rule="evenodd" clip-rule="evenodd" fill="#33CCFF" d="M197.5,214.4c0.7-1.4,1.4-1.7,2.8-1c1,3.4-0.4,3.3,2.6,6
			c-0.4-4,0.6-5.3,1.7-6.3c-2.8,0.1-1.3-1.1-2.9-2.1c-2.5-1.5-5.2,1.8-7.3,1l-2.7-2l-0.2,4.6c0.8,0.5,1.4,1,1.7,1.5
			c0,0,1,4.1,3.5,3.1C198.1,218.6,197.1,215.6,197.5,214.4z"/>
		<path fill-rule="evenodd" clip-rule="evenodd" fill="#33CCFF" d="M191.4,214.6l0.2-4.6c-1.1-1.3-0.9-2.6-2.4-3.2
			c-0.8-0.3-2.2-0.4-4.7-0.2c-0.9,1.6-0.6,4.3,1.1,5.5C186.4,212.6,189.4,213.4,191.4,214.6z"/>
		<path fill-rule="evenodd" clip-rule="evenodd" fill="#33CCFF" d="M184.6,206.6c2.5-0.2,3.9-0.1,4.7,0.2c0.4-9.7,4.2-9.8,1-13.3
			l-9.8,10.2L184.6,206.6z"/>
		<path fill-rule="evenodd" clip-rule="evenodd" fill="#33CCFF" d="M180.6,203.6l9.8-10.2l-1.8-0.8c-1.7-0.4-6.1,0.2-8.8,0.5
			c-0.5,0.1-1,0.1-1.3,0.2c-1.1,3.9-1.2,6.1-4.7,6.9C177.6,200.6,177.3,200.9,180.6,203.6z"/>
		<path fill-rule="evenodd" clip-rule="evenodd" fill="#33CCFF" d="M173.7,200.3c3.5-0.9,3.6-3.1,4.7-6.9l-0.5-1.9
			c0-0.2,0.4-2.8-0.3-3.7c-0.8-1-5.1,0-3.7,3.7c1.5,3.9-4.3,0.5-3.7,6.1C170.5,200.3,172.1,200.3,173.7,200.3z"/>
		<path fill-rule="evenodd" clip-rule="evenodd" fill="#33CCFF" d="M177.9,191.5l0.5,1.9c0.4-0.1,0.8-0.1,1.3-0.2l-0.1-0.7
			c-1-6.8,4.5-9.7,2.5-15.5v2.4c-0.5,3-3.6,6.4-4.6,8.4C178.3,188.6,177.9,191.3,177.9,191.5z"/>
		<path fill-rule="evenodd" clip-rule="evenodd" fill="#33CCFF" d="M177.6,187.8c0.9-1.9,4.1-5.4,4.6-8.4V177
			c-1.4-1.4-2.5-1.7-4.5-1.1c-5.9,1.8-1.6,10.4-8.7,10.2c-2.8-0.1-6.1-1.4-7.7-3.9l-2.2-5.4c-1.3-4.9,0.9-8.4,0.2-10.9
			c-0.2-0.8-0.7-1.6-1.8-2.2c-2.1-1.3-0.8-0.2-3.5-2.4c-0.2-2.3-2.6-7.9-3.2-8.4c-2.7-2.2-4.4,1.3-5,3.6c-4.4-3.7-4.5-7.2-6.6-9.1
			c-4-3.5-3.9,3.3-11.1,1.6c-3.5-0.8-3.6-1.8-6.7-2.1c-0.3,0-0.6-0.1-0.9-0.1c4.2,3.6,2.4,1.6,5.2,6.7c5.5,9.7,13.8,18.2,14.2,18.9
			c2.6,4.6-1.1,10,7.4,15.1c0.2,0.1,11.9,6.7,12.7,6.8c3.2,0.6,2.8-3.9,6.7-1.5c1.4,0.8,2.7,3.2,3.4,4.7c-0.6-5.6,5.1-2.2,3.7-6.1
			C172.6,187.7,176.8,186.8,177.6,187.8z"/>
		<path fill-rule="evenodd" clip-rule="evenodd" fill="#33CCFF" d="M205.8,169.1c1.3,1.3,0.9,0,1.4,3.6c0.4,3.1,2,1.2,2.8,3.3
			c0.3,0.8,1.4,0.7,1.7,0c0.4-0.9,1.8-2.9,0.1-3c-5-0.5,0.8-1.4-6.9-8.7c0.8-5.7-2-3.8-6.4-2.9c-1.6,3.1,1,2.7,2.1,2.7
			C204.5,164.2,204.3,167.6,205.8,169.1z"/>
		<path fill-rule="evenodd" clip-rule="evenodd" fill="#33CCFF" d="M208.5,178.4c-6.4-0.9-7.3-5.7-14.4-6.6
			c-2.4-0.3-8.8,1.3-7.6,4.7c2.2,0.9,1.4-0.2,3.1,1.3c1.3,1.2,0.9,1.4,2.6,0.8c0.7-1.7-3.4-4.7,0.1-4.4c2.3,3.4,1.4,1.2,6.6,3.5
			c1.3,0.6,4.6,0.9,4.5,2.8c-0.8,0.7-0.9,0.8-1,1.5c1.6,2.3,2.9-1.2,4.7,0.3C210.7,185.4,213.3,177.1,208.5,178.4z"/>
		<path fill-rule="evenodd" clip-rule="evenodd" fill="#33CCFF" d="M204.7,185.9c-0.1-0.2-0.7-1.9-3.1-1.6c-2.8,0.4-0.4,2.1,0.1,3
			c0.9,1.6,3.2,1.9,4.4,0.8C206.3,186.4,205.3,186.7,204.7,185.9z"/>
		<path fill-rule="evenodd" clip-rule="evenodd" fill="#33CCFF" d="M210.4,184.5c-0.7,0.6-0.5,2.8,1.2,3.3c0,0,1.9,0.1,2.4,0.3
			c0.4,0.2,1.9,1.9,3.6,0.7c0.9-0.6,1.2-1.8,3-1.2c1.2,0.4,0.1,0.4,1.9,0.4c1,0,1.8-2.7,0.3-3.8c-1.2-0.9-1.3-0.4-2.6-2.3
			c-2.7-3.7-3.7,0-5-0.3c0,0-2.8-1.6-3,1.4C212.1,184.7,211.5,183.6,210.4,184.5z"/>
		<path fill-rule="evenodd" clip-rule="evenodd" fill="#33CCFF" d="M226.5,184c-3.7,0.7-1.5,7,2.5,4.8c2.3-1.3,2.6,2.6,3.6-1.7
			c1.1-4.5-2.3-4.3-2.1-0.5C229.7,185,229,183.5,226.5,184z"/>
		<path fill-rule="evenodd" clip-rule="evenodd" fill="#33CCFF" d="M234.9,185c-1.7,0.3-1.2,2.8-0.9,4c3.7,3.2,4.6,6.1,4.2,12.1
			c-0.2,2.9,4.1,1.9,2.7-3.6c-0.6-2.4-0.9,0-0.5-2.6c0.3-1.7-0.8-1.6-2-1.8c3.3,0,1.1-3.9,0.7-4.2c-0.3-0.2-1.7-0.8-2.4,0.8
			C236.2,188.1,237,184.7,234.9,185z"/>
		<path fill-rule="evenodd" clip-rule="evenodd" fill="#33CCFF" d="M126,160.1c-1.2-1.6-0.2-2.1-3-6c-1.9-2.6-2.9-4-2.4-7.2
			c0.3,0,0.6,0,0.9,0.1c-1.1-2.7-2.5-2.2-7.3-2.9c2.9,6.7,3.3,6.9,7.2,12.3c1.9,2.6-0.1,2.8-0.7,2.7l-2.8-1.6
			c5.9,6.3,8.8,4.5,9.7,10.6c0.7,4.8,5.7,8.6,6.2,3.8c0.3-3.2-3.1-2.1-4-4.2C128,163.4,130.2,165.6,126,160.1z"/>
		<path fill-rule="evenodd" clip-rule="evenodd" fill="#33CCFF" d="M103.5,98.5l54.7-0.1c6.4,0.3,6.4,1.3,10,2.3
			c5.3,1.6,9.7,0,12.5,0.1c4.9,0.2,11.7,7.1,12.3,9.8c0.2,0.8-0.6,4.1-1,4.6c-0.7,1-3.6,1.7-2.7,3.8c1.3,3.2,6.4-0.6,8.1-1.4
			c2.1-1.1,1.2-1.5,2.3-2.6c1.9-2.1,4-1.3,5.6-2.2c4.5-2.6,1.1-2.3,7-2.7c5.4-0.3,6.1-2,6.4-3.8c-3.5-4.5,1.7-5.3,3.9-7.7
			c5-5.6,3.9-3.9,14-3.3c6.3,0.4,5.5-1.7,11-3.7c3.8-1.4,4.8-6.3-3.7-9.8c-5.5-2.2-9.8-13.2-11.9-13.5c-2.3-0.4-7.1,9.4-11.6,5.4
			c-2.9-2.6,3.3-7.4-2.8-10.2c-4.8-2.2-3.7-4.4-10.4-4.2c-4.8,0.1-5.4,0.3-5.1,3.8c2.4,2.1,4.8,5.6-0.1,5.9l-0.9,1.5l1.6,1.1
			c7.4,5.2-1.5,10.2-1.5,10.2c-4.2,4.1,1.7,4.6-2.5,10.5c-1.6,0.1-3.5,0.4-5-1.1c-5.1-4.9,4.2-9.7-8.1-10.3
			c-7.5-0.4-11.8-10.4-15.7-1.7c-1.2-3.2-0.5-1.3-0.9-4.2c-0.6-4.4-3-3.7-3.8-4.4c-2.1-1.9-0.2-7,2.9-9.8c1.3-1.2,14.2-5.1,10.2-7.6
			c5.7,0.2,3.7-5.7-0.4-7.8c5.9-3-0.7-7.5-3.4-3.1c-2.1-3.6-6-2.1-7.2-0.3c-1.9,2.9-6.4,0-3.3,5.2c0.7,1.3,0,4.6-3.3,1.1
			c-4.9-5.3-8.3-1.1-17.1-2.6c-10.1-1.7-6.8,1.8-4.4,7c-5.6-8.9-11.5-5.8-17.8-6.6c-3.6-0.4-0.7-2.4-4.7-3.4c-5.5-1.3-10.3-4-16-1.3
			c-4.8,2.3-6.1-1.5-7.1-2.4c-6.5-6.1-8,10.2-30.2,0.8l-0.1,26.6c8.3,0,2.7,3.7,7.6,3.3l2.3-2.8c3.1,0,2.9,0.7,4.4,2.7
			c5.7,8,10,7.2,10.4,10.6c0.7,5.9-1.4,2.4,3.1,5.8c3.1,2.3,1,5.4,3.5,6.4C103.7,95.9,95.4,93.7,103.5,98.5z"/>
		<path fill-rule="evenodd" clip-rule="evenodd" fill="#33CCFF" d="M63.6,66.4l0.1-26.6c-2-0.3-13.1-2.1-14.4-2.3
			c-4.1-0.3-3.6,0.5-9.3-0.9c-7.1-1.7-11.3-2-18.9,0.3l-5.9,2c-1.5,0.7-1.1,1.2-3.6,1.6c-1.1,0.2-6.2,0.3-5.4,3.8
			c0.8,3.7,13.4,0.3,12.6,4.6c-0.4,2.4-10-3.3-13.9,0.1c-1.5,1.3-1,7.4,7.6,5.3c3-0.8,3.1-1.4,5.3,0.3c0.3,5.4-9.4,1.6-10.6,7
			c-0.4,1.9,1.4,2.9,1.7,3.2c2.7,2.6-0.2,2.7,5.2,3.3c4.3,0.5-0.6,4,8.4,3.2c2.3-0.2,4.6-1.1,6.6-2.3c-2.4,4.2-2.7,4.7-7.3,7.5
			c-6.3,3.8-4.6,1.8-8.1,3.4L11,81.6c-2.2,1.1-12.9,4.7-10.7,6.9c1.3,1.3,5.4-2.8,10-4.3c4.2-1.4,4.1-1.4,8.3-2.3
			C23.7,80.7,30,76,33.5,71.6c2.1-2.6,3.9-6.6,7.3-7.2c-0.1,2.9-1.5,3.3-1.9,4.1l-0.2,2c6.3,0.3,4.7-5.4,9.1-6.3
			C53.9,63.1,51.9,70.5,63.6,66.4z"/>
		<path fill-rule="evenodd" clip-rule="evenodd" fill="#33CCFF" d="M222.8,100.7c-2.4,1.5-1.9,0.9-3.1,2.9c4.7-6,4.8,5.4,8,7
			c1.4-0.7,3.1-1.3,3.6-3.1c0.6-2.5-1.3-4.3-3.1-5.2c2.8-0.9,3.3,1.1,5-0.4c0.4-3.7-2.7-3.9-5.2-3.5
			C225.5,98.8,224.8,99.4,222.8,100.7z"/>
		<path fill-rule="evenodd" clip-rule="evenodd" fill="#33CCFF" d="M236.9,105.7c-2.8,0.4-3,0.2-4.9,1.9c-1.5,3.3-5.6,3-4.6,6.5
			c0.7,2.2,3.3,2.2,4.6,1c1.6-1.5,0-1.5,5.8-4.3c2.6-1.3,4.8-2.1,4.7-4.9c-0.1-3.1-2.8-2-3.1-1.9
			C238.6,104.5,239.3,105.4,236.9,105.7z"/>
		<path fill-rule="evenodd" clip-rule="evenodd" fill="#33CCFF" d="M242.8,102.7c0.7,2.2,3.1,0.3,6.3,1.9c3.3,1.7,3.7-1.3,5.7,0.7
			c0.9,0.9,2.8,3,3.6-0.8c0.6-2.6,0.3-5.1-1.8-7c-2.4-2.1-6.6,2.9-6-3.7c0.1-1.4,0.3-1.4,1.4-2.3l-4,1c-0.4,2.4-0.4,1-1.8,3.8
			C245.3,97.9,241.5,98.9,242.8,102.7z"/>
		<path fill-rule="evenodd" clip-rule="evenodd" fill="#33CCFF" d="M111.5,30.7c1.4-1.3,2.4-0.2,4.6-1c0.8-0.3,2.4-1.7-0.3-3
			c-3.8-1.2-3.3,0.3-5.3,0.1c-1.8-0.2-0.7-2.3-4.5-2.6c-2.4-0.2-1,1-5.1,1c-1.5,0-1-0.1-2.4,0.6c-0.5,2.7,0.3,3.1-1.4,4.9
			c-2.7,3,1.8,3.5,2.5,3.9c1,0.5,1.1,1.4,4.1,1.7C109.4,36.8,108.3,33.6,111.5,30.7z"/>
		<path fill-rule="evenodd" clip-rule="evenodd" fill="#33CCFF" d="M114.8,24c1,0.5,3.1,0.2,3.6-0.3c0,0,1.9-3.3,1.7-4.1l-0.9-1.6
			c-5.7-1.6-8.6,0.6-13.1,1.3c-1.2,0.2-4.3,0.1-4.2,2.2c0.1,2.4,9.1,0.7,9.7,0.5c1-0.4,2-1.2,3.1-0.3
			C114.8,23.6,114.4,22.6,114.8,24z"/>
		<path fill-rule="evenodd" clip-rule="evenodd" fill="#33CCFF" d="M120.8,19.8c-0.6,1.7-3.2,5.6-0.3,5.7c1.1,0,0.8-0.5,1.8,0.5
			c1.9,1.9,9.6,2.7,7.1-2.6c-1.1-2.3-3.3-1.2-4.6-2.5C124.8,20.9,122.5,17.3,120.8,19.8z"/>
		<path fill-rule="evenodd" clip-rule="evenodd" fill="#33CCFF" d="M127.1,30.9c-1.8-3.3-5.2,1-6.4,2.3c1.7-3.7-1.2-4.2-3.4-2.3
			c-1.5,1.3-5.6,0.4-5.3,2.7c0.3,3.2,7.2-1.5,7,1.8c-0.7,0.1-5.2-0.5-4.6,1.4c0.7,2.2,9.7-0.9,13.9,0.3c2,4.3-5.1,1.2-15.5,2.4
			c4.4,1.1,5.3,1.6,9.5,3.1c4.9,0.7,12.2,2.2,16-2l0.9-1.1c0.4,2.4,1.9,3,5.5,2.7c1.4-0.1,2-0.7,2-2.3c3.8-0.1,2.8-2.5,0.4-2.4
			c-3.8,0.1-5.7,1.2-5.7-1.9c0.6-0.7,0.7-0.6,1.7-0.9c0.4-0.7,0.3-0.9,0.1-1.6c-3.7-1.5-1.4-3.9-6.1-3.1c-3.5,0.6,1.4,2.2,0.2,4.7
			c-3.8,0.4-1.1-1.9-6-2.4C127.9,32.1,128.3,33,127.1,30.9z"/>
		<ellipse fill-rule="evenodd" clip-rule="evenodd" fill="#33CCFF" cx="127.4" cy="16.9" rx="6.5" ry="1.3"/>
		<path fill-rule="evenodd" clip-rule="evenodd" fill="#33CCFF" d="M130.2,20.2c-0.1,2,0.5,1.4,0.1,2.8l-0.7,0.3
			c2.3,5-1.6,1.6,6.2,2.1c2.3,0.1,7.3,0.7,6.2-3.1c-0.9-3.2-5.8,1.6-6.6-1.6C134.9,18.5,132.4,16.9,130.2,20.2z"/>
		<ellipse fill-rule="evenodd" clip-rule="evenodd" fill="#33CCFF" cx="142" cy="17.7" rx="3.9" ry="1.3"/>
		<ellipse fill-rule="evenodd" clip-rule="evenodd" fill="#33CCFF" cx="145" cy="22.9" rx="1.4" ry="2.9"/>
		<path fill-rule="evenodd" clip-rule="evenodd" fill="#33CCFF" d="M154.3,27.6c-2.4,0.7-8-0.3-7.6,3.3c0.2,1.9,3.2,1.8,4.1,1.8
			c4.3-0.1,1.9,2.2,6.2,1.8c6.2-0.6,2.6-6.8,1.1-7.6C156.7,26.2,154.7,27.5,154.3,27.6z"/>
		<path fill-rule="evenodd" clip-rule="evenodd" fill="#33CCFF" d="M161.6,42.4c-0.6-7.8-10.7-2.1-7.7,1.2c1.1,1.1,4.3,0.5,6.1,2.6
			c0.3,0.3,1.5,3.1,3.5,2.3c0.1-0.4,0.1-0.3,0-1C162.3,44.6,161.9,45.6,161.6,42.4z"/>
		<path fill-rule="evenodd" clip-rule="evenodd" fill="#33CCFF" d="M161.4,36.9c0,0.5,0.3,1.2,0.4,1.7c0.9,2.9,4.2,1.6,5.7,1.3
			c1.1-0.3,3.9-0.5,2.9-3.2c-0.4-1.1-0.7-1.1-2-2c-1.5-1.1-4.3-3.4-5.6-0.1C162.1,36.5,161.4,35.2,161.4,36.9z"/>
		<path fill-rule="evenodd" clip-rule="evenodd" fill="#33CCFF" d="M166.4,30.3c2.2,0.7,4.9,1.9,6.4-0.4c0.7-1.1,0.5-2.3-0.7-2.8
			c-2.1-1-4.1-0.6-5.5-3.3l-0.4-0.9c-1.8,0-3.1-0.2-4.8,0.5c-1.3,3.3,3.7,0.8,4.5,2.7c0.3,0.7,0.3,1.8,0,2.5
			c-1.2,0.3-1.9,0.5-1.8,2.2c0.1,1.5,2.1,2.1,2.5,2C168.3,32.5,166.9,30.9,166.4,30.3z"/>
		<ellipse fill-rule="evenodd" clip-rule="evenodd" fill="#33CCFF" cx="153.5" cy="22.2" rx="6.2" ry="2.3"/>
		<path fill-rule="evenodd" clip-rule="evenodd" fill="#33CCFF" d="M152.3,17.8c1,0.1,2.8,0.3,3.2-1c-0.3-2.4-1.8-2.2-2.8-2.9
			c-2-1.5-4.4-0.4-5.2-1.1c-1.8-1.6-7.4-1.6-6.5,0.8c0.1,0.3,2.2,1.5,3.1,1.6c1.8,0.1,2.1,0.2,3.6,1.1
			C148.5,16.9,147.9,17.6,152.3,17.8z"/>
		<ellipse fill-rule="evenodd" clip-rule="evenodd" fill="#33CCFF" cx="155.6" cy="10.8" rx="2.8" ry="1.3"/>
		<ellipse fill-rule="evenodd" clip-rule="evenodd" fill="#33CCFF" cx="159.9" cy="15" rx="4.1" ry="2"/>
		<ellipse fill-rule="evenodd" clip-rule="evenodd" fill="#33CCFF" cx="165.2" cy="19.9" rx="4.1" ry="1.4"/>
		<path fill-rule="evenodd" clip-rule="evenodd" fill="#33CCFF" d="M204,38.5C204,38.5,204.1,38.5,204,38.5L204,38.5z M208.4,40.2
			c0.6,0.3,4.6,2.8,4.9,4.7c0.8,4.7-5.6,1.6-4.8,6.3c0.4,2.5,3.3,3,6.3,4.7c4.1,2.3,2.1,1.3,3.1,2.4c0,0,10.2,7.8,10.5,3.7
			c0.3-3.8-8.4-2.4-7.4-5.4c1-2.9,5.4,1.9,6.7,2.5c4.1,1.7,4.6-3.9,1.4-4.9c-0.2-0.1-8.9-1.8-6.3-4.9c2.4-2.9,8.8,2.3,9.8,2.4
			c1.3,0.1,1.6-0.8,2.2-1.2c0,0,3.2-0.9,1.8-3.1c-0.7-1.1-4.8-0.4-4.8-0.4c-0.8-0.1-10.3-2.7-12-5.7c-0.9-1.6-0.3-2.6-3.5-3
			c-2.9-0.3-2.1-0.3-5.2-1.8c-8.2-3.9-4.3-3.4-6.2-5c-0.5-0.4-2.7-1.1-2.8,0.5c-0.2,1.9-0.3,2.2-2.1,2.4c-6,0.7-1-5.6-7-5.8
			c-5.7-0.2-4.4,4.7-4.5,5.2c-0.9,3.4-6.8,0.6-5.3-3.9c0.3-0.9,1-1.2,1.8-1.8c-2.3-0.1-5.6-0.4-7.2,3.1c-1.4,3.1-0.6,7.7,4.9,7.5
			c7.2-0.3,12.9-1.8,20.9-0.1c0.5,0,0.7,0,0.8,0C204.1,38.6,204.7,38.9,208.4,40.2z"/>
		<path fill-rule="evenodd" clip-rule="evenodd" fill="#33CCFF" d="M251.6,27.9c1.4,7.9,3.1,4.7,7.6,6.9c1.9,0.9,4.7,4.7,2.5,8.2
			c-4.3,0.8-5,0.6-5.8,3.9c9.5,13.2,2.2,4.3,7.5,14c4,7.1,5.2,2.3,9,5.3c2.3,1.8,4.5,4.8,8.6-0.1c6.2-7.4,1.2-12.2,11-14.5
			c10.9-1.1,4.2-7.2,13.6-7c14.2,0.4,10.5-3.3,20.6-7.1c-0.8-9.7-9.3-2.2-7.4-7.4c4.5-1.8,6.6,0.3,7.4-4.8c0.6-3.8-4-7.5,2-10.8
			c3.1-1.7,2.3-0.1,3.8-3.4c1.7-3.6,11-2.9,13-3.8l2.7-2.1c-3-0.1-13.4-0.4-15.6,0.1c-2.1,0.5-4.7,2.8-7.1,0.5l0.1-1.4
			c3.6-2.6,1.1-3.8,0.4-4l-26.1,0.3c-4.1-0.3-5.9-1.5-9.9,0.9c-5.1,3.1-5-0.6-10.7,3.8c-3.8,3-4.3-0.5-14.6-0.6
			c-11.1-0.1-9.5,0.2-19.2,1.6c-4.1,0.6-4.6-0.6-10.1,3.2c-9.7,6.7-6.3,3.3-17.1,4.1c-6.7,0.5-4.6,3.8-3.9,4.2
			c1.8,1.1,7.4,0.5,9.6,2.7c4.8,5.1,15.1,0.4,20.9,2.7C244.9,23.3,251,27.5,251.6,27.9z"/>
		<ellipse fill-rule="evenodd" clip-rule="evenodd" fill="#33CCFF" cx="204.2" cy="53.7" rx="3.2" ry="2.4"/>
		<ellipse fill-rule="evenodd" clip-rule="evenodd" fill="#33CCFF" cx="205.4" cy="45.6" rx="2.3" ry="1.3"/>
		<ellipse fill-rule="evenodd" clip-rule="evenodd" fill="#33CCFF" cx="202.8" cy="57.8" rx="2.9" ry="0.8"/>
		<ellipse fill-rule="evenodd" clip-rule="evenodd" fill="#33CCFF" cx="198.2" cy="61.6" rx="1.8" ry="1.7"/>
		<path fill-rule="evenodd" clip-rule="evenodd" fill="#33CCFF" d="M193.6,60.9c1.5-3.4,1.3-1.5,3.6-3c1.4-0.9,1.8-5-3.4-3
			c0,1.3,0.1,1.3-0.7,2c0,3.5-2.1,1.3-3.7,2.3c-0.8,0.5-0.8,2.2-0.8,3.1C190.4,63.8,192.8,62.7,193.6,60.9z"/>
		<path fill-rule="evenodd" clip-rule="evenodd" fill="#33CCFF" d="M185.1,58.2c2.6,0.5,3.3-1.1,5.1-1.6c0,0,3.9,0,2.5-2.3
			c-1.2-1.8-4.4-0.6-5.4-2.8c-0.9-2.1-2.2-2.1-3.6-0.7C183.5,53.2,180.1,57.3,185.1,58.2z"/>
		<path fill-rule="evenodd" clip-rule="evenodd" fill="#33CCFF" d="M188,46.7c0.3,2.2,0.5,2.9,3.2,2.7c4-0.3,4.2-4.1,2.8-6.2
			c-0.5-0.7-2.8-3.8-3.5-4l-3.7,0c0.8,5.7-4.3,2.5-4.3,7.5c0,2.4,3.3,1.9,4.3,1.2L188,46.7z"/>
		<path fill-rule="evenodd" clip-rule="evenodd" fill="#33CCFF" d="M188.2,25.4c2.5-0.1,8.3,2.6,7.9-1.4c-0.7-8-15.8,4.5-22.8-2.3
			c-1.9-1.8-2.8-1.2-4.4,0.2C174.4,23.1,165.2,26.6,188.2,25.4z"/>
		<path fill-rule="evenodd" clip-rule="evenodd" fill="#33CCFF" d="M194.8,16.7c1.6,0.7,5.2,3.3,6.8-1.1c0.5,0,5.2,0.4,4.6-1.3
			c-0.7-2-7.7,1.6-7.6-1.2c0-0.9,3.3-3.2,6.6-1.9c4,1.6,3.6-0.1,7-0.5c3.5-0.3,0.9-1,3.9-1.2c1-0.1,6.4-0.7,6.7-1.6
			c0.6-2.1-4.9,0-4.5-2.3c0.4-1.9,8.6-0.1,10.4,0.6c3.6,1.4,9.6,0,7.4-2.8c-0.4-0.6-0.9-0.5-1.5-0.5c-11.2,0.4-7.9-1.3-17.3-1.1
			c-8,0.1-13.6-0.8-19.9,1.5c-7.1,2.6-21-0.5-19.9,3.5c0.9,3.3,10-2.2,13.6-0.2c1.5,0.8,2.4,1.9,5.7,1.3c4.1-0.8,0.8-1.5,9.7-1.2
			c-3.6,2.6-4.4,2.1-9.7,2.6c0,0-13.2,0.3-10.4,2.7c0.3,0.3,3.4,1,4.7,1h3.9c-4.7,5.2-2.5,1.7-6.3,0.9c-0.5-0.1-0.8-0.2-1.1-0.1
			c-1.1,0.1-1.3,1.2-0.2,1.5c3.7,1,0.7,3.7-2.4,2.8c0,0-3.3-1.5-2.9,0.9c0.5,2.6,6.7,0.2,10.6,0.9c0.6,0.1,1.3,0.2,1.3-0.8
			C192.2,17.5,193.8,16.2,194.8,16.7z"/>
		<path fill-rule="evenodd" clip-rule="evenodd" fill="#33CCFF" d="M173.2,16c5.4,0.1,5-1.6,8.3-2.1c2.6-0.4,3.7-0.3,2.7-2.6
			c-4.9-0.4-2.1-1-6.5-1.6c-2.8-0.4-1.9,0.3-3.4-1.6c-1.7-2.2-4.5-2.2-7-1.9c-6.4,0.8-4.5,5.7-3.5,6.2c0.7,0.4,2.1-0.2,3.6,1.2
			C169.3,15.2,168.9,15.9,173.2,16z"/>
		<path fill-rule="evenodd" clip-rule="evenodd" fill="#33CCFF" d="M322.7,48.6c-9.3,1.7,0.6,6,1.3,6.7c0,0-1.2,5.2,2.4,2.7
			c0.7-0.5,1.4-0.3,2.2-0.2c6.2,1.8,7.7-0.8,12.9-2.3c5.4-1.5,3.9-3.4,0.3-6.6c-5.4-4.8-11.6,2.2-13.6,1.6
			C326.4,50,327.1,47.8,322.7,48.6z"/>
		<path fill-rule="evenodd" clip-rule="evenodd" fill="#33CCFF" d="M426.9,182.7c-4.4,0.3-13.8-12.9-19.4-10.4
			c-0.2,0.1-0.5,0.2-0.7,0.3l2,6.9l0.2,6.9c-0.2,4.9-1.2,4.3-2.5,6c-0.5,0.7-1.6,2.9-2.9,5.1c0.7,1.4,1.6,2.4,2.3,3.3
			c1.4,1.7,2.5,3.3,2,7.5c-1,0.8-4,1.9-0.8,5.9c1,1.2,1.8,2,2.6,2.6c4.1,3,5.9-1.9,8.6-3.9c3.4-2.5,1.2,1.4,6.4-5.6
			c-0.5-0.4-0.9-0.6-0.9-0.6c-0.7-0.8-2-5.9-0.9-8.5C426.9,188.2,426.9,199.2,426.9,182.7z"/>
		<path fill-rule="evenodd" clip-rule="evenodd" fill="#33CCFF" d="M371.4,116.1l5.1,7.1c3.3-1.8,5.5-1,5.1-6.8
			c0.4-0.7,0.9-1.4,2-1.6c2.5-0.4,3.9,3.4,6.3,0.2c1.2-1.6,0.9-0.5,3.5-2.7c-1,0.2-1.9,0.7-3,0.2c-1-0.4-2-3.3-0.8-4.7
			c-1.2-2-1.6-0.6-2.2-2.6c0.7-1.6,3-1.6,3.4-3.6c0.2-0.9-0.2-1.3,0.5-2c-0.4-0.1-1.1-0.3-1.8-0.6c-1.9-0.7-4.3-1.8-4.7-2
			c-1.1-0.8-2.4-4.4-5.1-4c-3.2,0.5-2.4,7.1-7.4,3.8c-0.5-0.3-2.5-1.7-3.2,0c-0.8,2.1,1.7,1.2,1.8,3.7l-0.3,0.4
			c-2.2,0.1-3.1-1.8-5.2-1.9c-2.7-0.1-2.8,2.3-1.1,3.3c0.3,0.2,4.2,1,5.7,3.1c0.8,1.1,1.8,3.7,1.4,5.2c-0.1,0.2-1.7,2.2-1.3,4.1
			L371.4,116.1z"/>
		<path fill-rule="evenodd" clip-rule="evenodd" fill="#33CCFF" d="M376.5,123.2c1.1-1.3-2.8-3.9-4.3-6c-0.9-1.2-1.7-2-2-2.8
			c-4.4,1.2-4,1.3-6.9-0.4c-0.8-0.5-12.2-0.4-8.6,3.3c1.5,1.5,4.9,0.4,4.7,4.7c-0.1,2.7-2.1,8.2-0.7,10.8c0.6,1,1.6,1.6,3.5,1.5
			c5.6-0.4,4.1,3.1,10.5-2.8C377,127.4,373.4,126.8,376.5,123.2z"/>
	</g>
</g>
</svg>
