<?xml version="1.0" encoding="utf-8"?>
<!-- Generator: Adobe Illustrator 18.1.1, SVG Export Plug-In . SVG Version: 6.00 Build 0)  -->
<svg version="1.1" id="Layer_1" xmlns="http://www.w3.org/2000/svg" xmlns:xlink="http://www.w3.org/1999/xlink" x="0px" y="0px"
	 viewBox="0 0 193 93.9" enable-background="new 0 0 193 93.9" xml:space="preserve">
<rect x="0" y="28.3" fill="#333333" width="193" height="65.7"/>
<g>
	<path fill="#33CCFF" stroke="#33CCFF" stroke-width="9" stroke-miterlimit="10" d="M96.5,41.4C86.3,41.4,78,33.1,78,23
		S86.3,4.5,96.5,4.5S115,12.8,115,23S106.7,41.4,96.5,41.4z"/>
	<g>
		<path fill="#231F20" d="M96.5,4.5C86.3,4.5,78,12.8,78,23s8.3,18.5,18.5,18.5S115,33.2,115,23S106.7,4.5,96.5,4.5z M96.5,8.5
			c8,0,14.5,6.7,14.5,14.7c0,1.9-0.4,3.7-1.1,5.7H83.1c-0.7-2-1.1-3.7-1.1-5.7C82,15.3,88.5,8.5,96.5,8.5z M96.5,36.9
			c-4.4,0-8.3-1.1-11-5.1h21.9C104.8,35.9,100.9,36.9,96.5,36.9z"/>
		<g>
			<g>
				<path fill="#231F20" d="M108.1,20.8c-0.1-1.3-0.5-2.4-1-3.2c-1.6-2.3-4.9-2.4-7.2-1.3c-0.7,0.3-1.3,0.8-1.8,1.3
					c-0.8-1.3-2.2-2-4.2-2c-1.8,0-3.2,0.6-4.4,1.5V16h-3.9v14.4h3.9v-7v-1.9c0.6-1,1.7-2.3,3-2.3c2.2,0,2.8,1.4,2.8,4.1v7.1h3.9
					v-7.6c0-0.5,0-1.6,0-2.2c0.5-0.6,1.1-1.2,1.8-1.4c0,0,0.1,0,0.1,0c0.1,0,0.3-0.1,0.4-0.1c2.2,0,2.8,1.4,2.8,4.1c0,0,0,7.1,0,7.1
					h3.9v-7.6v-0.7C108.1,21.6,108.1,21.2,108.1,20.8z"/>
			</g>
		</g>
	</g>
</g>
<g>
	<path fill="#33CCFF" d="M48.4,74.8v-0.7c-0.8,0.9-2.2,1.4-3.8,1.4c-3.3,0-5.8-2.1-5.8-5c0-3.8,3.3-5,6.6-5c1.3,0,2.4,0.2,3,0.3V65
		c0-1.6-2-2.6-3.1-2.6c-1.7,0-2.7,0.3-3.7,1.2l-2.2-2.5c1.8-1.4,3.8-1.9,5.9-1.9c4.5,0,6.3,2.9,6.3,6v9.6H48.4z M48.4,68.9
		c-0.6-0.2-1.7-0.4-3.1-0.4c-2.2,0-3.2,0.8-3.2,2c0,0.6,1,1.9,2.6,1.9c1.4,0,3-0.6,3.8-2.4V68.9z"/>
	<path fill="#33CCFF" d="M63.6,62.8c-0.8-0.2-1.3-0.2-1.7-0.2c-1.5,0-3.1,0.7-3.8,2.7v9.6h-3.2V59.9h3.2v1c1-1,2.1-1.7,3.8-1.7
		c1.2,0,2.2,0.3,2.5,0.4L63.6,62.8z"/>
	<path fill="#33CCFF" d="M75.8,74.8l-6.1-6.7v6.7h-3.2V54.4h3.2v10l5.1-4.5H79l-7,6.2l7.8,8.7H75.8z"/>
	<path fill="#33CCFF" d="M83.3,68.9c0.6,2,1.6,3.4,3.7,3.4c1.5,0,3-0.7,4.1-2l2.3,2.3c-1.6,1.8-4,2.9-6.4,2.9
		c-4.6,0-7.5-3.7-7.5-8.1c0-4.5,2.9-8.1,7.5-8.1s7.5,3.7,7.5,8.1v1.5H83.3z M83.3,66.4h7.3c-0.3-2-1.2-4-3.7-4
		C84.6,62.4,83.6,64.4,83.3,66.4z"/>
	<path fill="#33CCFF" d="M98.2,63.1H96v-3.2h2.2v-5.1h3.2v5.1h3.8v3.2h-3.8v6.1c0,1.7,1.6,2.6,3.8,2.6v3.4c-2.3,0-7-0.9-7-6V63.1z"
		/>
	<path fill="#33CCFF" d="M122.8,67.6c0,4.6-3.1,8-7.7,8c-1.1,0-2.8-0.5-4-1.7v6.8h-3.2V59.9h3.2v1c1-1,2.2-1.7,4-1.7
		C119.7,59.3,122.8,63,122.8,67.6z M119.3,67.6c0-2.4-1.4-5.2-4.1-5.2c-1.4,0-4.3,1-4.3,5.2c0,3.5,2.8,4.8,4.3,4.8
		C117.8,72.4,119.3,69.6,119.3,67.6z"/>
	<path fill="#33CCFF" d="M125.2,74.8V54.4h3.2v20.4H125.2z"/>
	<path fill="#33CCFF" d="M140.5,74.8v-0.7c-0.8,0.9-2.2,1.4-3.8,1.4c-3.3,0-5.8-2.1-5.8-5c0-3.8,3.3-5,6.6-5c1.3,0,2.4,0.2,3,0.3V65
		c0-1.6-2-2.6-3.1-2.6c-1.7,0-2.7,0.3-3.7,1.2l-2.2-2.5c1.8-1.4,3.8-1.9,5.9-1.9c4.5,0,6.3,2.9,6.3,6v9.6H140.5z M140.5,68.9
		c-0.6-0.2-1.7-0.4-3.1-0.4c-2.2,0-3.2,0.8-3.2,2c0,0.6,1,1.9,2.6,1.9c1.4,0,3-0.6,3.8-2.4V68.9z"/>
	<path fill="#33CCFF" d="M164.9,68.9c0.6,2,1.6,3.4,3.7,3.4c1.5,0,3-0.7,4.1-2l2.3,2.3c-1.6,1.8-4,2.9-6.4,2.9
		c-4.6,0-7.5-3.7-7.5-8.1c0-4.5,2.9-8.1,7.5-8.1c4.6,0,7.5,3.7,7.5,8.1v1.5H164.9z M164.9,66.4h7.3c-0.3-2-1.2-4-3.7-4
		C166.2,62.4,165.2,64.4,164.9,66.4z"/>
	<g>
		<polygon fill="#33CCFF" points="20.3,66.6 20.3,74.9 17,74.9 17,60.1 20.3,60.1 20.3,62.4 		"/>
		<path fill="#33CCFF" d="M19.1,62.4c1.2-1.6,2.8-2.6,5-2.6c3.2,0,4.6,2,4.6,5.6v9.4h-3.4v-8.4c0-2.3-0.5-3.6-2.4-3.6
			c-1.8,0-3.2,1.3-3.2,3.7L19.1,62.4z"/>
		<path fill="#33CCFF" d="M27,62.4c1.2-1.6,2.8-2.6,5-2.6c3.2,0,4.6,2,4.6,5.6v9.4h-3.4v-8.4c0-2.3-0.5-3.6-2.4-3.6
			c-1.8,0-3.2,1.3-3.2,3.7L27,62.4z"/>
	</g>
	<path fill="#33CCFF" d="M153.9,75.5c-4.4,0-7.6-3.6-7.6-8c0-4.4,3.2-8.1,7.6-8.1c2.8,0,4.5,1.1,5.9,2.7l-2.1,2.4
		c-1-1.1-2.1-1.9-3.8-1.9c-2.5,0-4.2,2.2-4.2,5c0,2.8,1.8,5,4.4,5c1.6,0,2.8-0.8,3.8-1.9l2,2.1C158.4,74.3,156.7,75.5,153.9,75.5z"
		/>
</g>
</svg>
