<?xml version="1.0" encoding="utf-8"?>
<!-- Generator: Adobe Illustrator 18.1.1, SVG Export Plug-In . SVG Version: 6.00 Build 0)  -->
<svg version="1.1" id="Layer_1" xmlns="http://www.w3.org/2000/svg" xmlns:xlink="http://www.w3.org/1999/xlink" x="0px" y="0px"
	 viewBox="0 0 190 76.7" enable-background="new 0 0 190 76.7" xml:space="preserve">
<rect x="0" y="36.7" fill="#333333" width="190" height="40"/>
<g>
	<path fill="#33CCFF" stroke="#33CCFF" stroke-width="9" stroke-miterlimit="10" d="M95,41.7c-10.2,0-18.5-8.3-18.5-18.5
		S84.8,4.8,95,4.8s18.5,8.3,18.5,18.5S105.2,41.7,95,41.7z"/>
	<g>
		<path fill="#231F20" d="M95,4.8c-10.2,0-18.5,8.3-18.5,18.5S84.8,41.7,95,41.7s18.5-8.3,18.5-18.5S105.2,4.8,95,4.8z M95,8.8
			c8,0,14.5,6.8,14.5,14.8c0,1.9-0.4,3.7-1.1,5.7H81.6c-0.7-2-1.1-3.8-1.1-5.7C80.5,15.6,87,8.8,95,8.8z M95,37.3
			c-4.4,0-8.3-1.1-11-5.1H106C103.3,36.3,99.4,37.3,95,37.3z"/>
		<g>
			<g>
				<path fill="#231F20" d="M106.6,21c-0.1-1.3-0.5-2.4-1-3.2c-1.6-2.3-4.9-2.4-7.2-1.3c-0.7,0.3-1.3,0.8-1.8,1.3
					c-0.8-1.3-2.2-2-4.2-2c-1.8,0-3.2,0.6-4.4,1.5v-1.2h-3.9v14.4H88v-7v-1.9c0.6-1,1.7-2.3,3-2.3c2.2,0,2.8,1.4,2.8,4.1v7.1h3.9
					v-7.6c0-0.5,0-1.6,0-2.2c0.5-0.6,1.1-1.2,1.8-1.4c0,0,0.1,0,0.1,0c0.1,0,0.3-0.1,0.4-0.1c2.2,0,2.8,1.4,2.8,4.1c0,0,0,7.1,0,7.1
					h3.9V23v-0.7C106.6,21.9,106.6,21.4,106.6,21z"/>
			</g>
		</g>
	</g>
</g>
<g>
	<path fill="#33CCFF" d="M46.9,67.8V67c-0.8,0.9-2.2,1.4-3.8,1.4c-3.3,0-5.8-2.1-5.8-5c0-3.8,3.3-5,6.6-5c1.3,0,2.4,0.2,3,0.3v-0.9
		c0-1.6-2-2.6-3.1-2.6c-1.7,0-2.7,0.3-3.7,1.2l-2.2-2.5c1.8-1.4,3.8-1.9,5.9-1.9c4.5,0,6.3,2.9,6.3,6v9.6H46.9z M46.9,61.8
		c-0.6-0.2-1.7-0.4-3.1-0.4c-2.2,0-3.2,0.8-3.2,2c0,0.6,1,1.9,2.6,1.9c1.4,0,3-0.6,3.8-2.4V61.8z"/>
	<path fill="#33CCFF" d="M62.1,55.7c-0.8-0.2-1.3-0.2-1.7-0.2c-1.5,0-3.1,0.7-3.8,2.7v9.6h-3.2V52.9h3.2v1c1-1,2.1-1.7,3.8-1.7
		c1.2,0,2.2,0.3,2.5,0.4L62.1,55.7z"/>
	<path fill="#33CCFF" d="M74.3,67.8l-6.1-6.7v6.7H65V47.4h3.2v10l5.1-4.5h4.2l-7,6.2l7.8,8.7H74.3z"/>
	<path fill="#33CCFF" d="M81.8,61.8c0.6,2,1.6,3.4,3.7,3.4c1.5,0,3-0.7,4.1-2l2.3,2.3c-1.6,1.8-4,2.9-6.4,2.9
		c-4.6,0-7.5-3.7-7.5-8.1s2.9-8.1,7.5-8.1s7.5,3.7,7.5,8.1v1.5H81.8z M81.8,59.3h7.3c-0.3-2-1.2-4-3.7-4
		C83.1,55.4,82.1,57.3,81.8,59.3z"/>
	<path fill="#33CCFF" d="M96.7,56h-2.2v-3.2h2.2v-5.1h3.2v5.1h3.8V56h-3.8v6.1c0,1.7,1.6,2.6,3.8,2.6v3.4c-2.3,0-7-0.9-7-6V56z"/>
	<path fill="#33CCFF" d="M121.3,60.5c0,4.6-3.1,8-7.7,8c-1.1,0-2.8-0.5-4-1.7v6.8h-3.2V52.9h3.2v1c1-1,2.2-1.7,4-1.7
		C118.2,52.2,121.3,55.9,121.3,60.5z M117.8,60.5c0-2.4-1.4-5.2-4.1-5.2c-1.4,0-4.3,1-4.3,5.2c0,3.5,2.8,4.8,4.3,4.8
		C116.3,65.3,117.8,62.6,117.8,60.5z"/>
	<path fill="#33CCFF" d="M123.7,67.8V47.4h3.2v20.4H123.7z"/>
	<path fill="#33CCFF" d="M139,67.8V67c-0.8,0.9-2.2,1.4-3.8,1.4c-3.3,0-5.8-2.1-5.8-5c0-3.8,3.3-5,6.6-5c1.3,0,2.4,0.2,3,0.3v-0.9
		c0-1.6-2-2.6-3.1-2.6c-1.7,0-2.7,0.3-3.7,1.2l-2.2-2.5c1.8-1.4,3.8-1.9,5.9-1.9c4.5,0,6.3,2.9,6.3,6v9.6H139z M139,61.8
		c-0.6-0.2-1.7-0.4-3.1-0.4c-2.2,0-3.2,0.8-3.2,2c0,0.6,1,1.9,2.6,1.9c1.4,0,3-0.6,3.8-2.4V61.8z"/>
	<path fill="#33CCFF" d="M163.4,61.8c0.6,2,1.6,3.4,3.7,3.4c1.5,0,3-0.7,4.1-2l2.3,2.3c-1.6,1.8-4,2.9-6.4,2.9
		c-4.6,0-7.5-3.7-7.5-8.1s2.9-8.1,7.5-8.1c4.6,0,7.5,3.7,7.5,8.1v1.5H163.4z M163.4,59.3h7.3c-0.3-2-1.2-4-3.7-4
		C164.7,55.4,163.7,57.3,163.4,59.3z"/>
	<g>
		<polygon fill="#33CCFF" points="18.8,59.5 18.8,67.8 15.5,67.8 15.5,53.1 18.8,53.1 18.8,55.3 		"/>
		<path fill="#33CCFF" d="M17.6,55.4c1.2-1.6,2.8-2.6,5-2.6c3.2,0,4.6,2,4.6,5.6v9.4h-3.4v-8.4c0-2.3-0.5-3.6-2.4-3.6
			c-1.8,0-3.2,1.3-3.2,3.7L17.6,55.4z"/>
		<path fill="#33CCFF" d="M25.5,55.4c1.2-1.6,2.8-2.6,5-2.6c3.2,0,4.6,2,4.6,5.6v9.4h-3.4v-8.4c0-2.3-0.5-3.6-2.4-3.6
			c-1.8,0-3.2,1.3-3.2,3.7L25.5,55.4z"/>
	</g>
	<path fill="#33CCFF" d="M152.4,68.4c-4.4,0-7.6-3.6-7.6-8s3.2-8.1,7.6-8.1c2.8,0,4.5,1.1,5.9,2.7l-2.1,2.4c-1-1.1-2.1-1.9-3.8-1.9
		c-2.5,0-4.2,2.2-4.2,5c0,2.8,1.8,5,4.4,5c1.6,0,2.8-0.8,3.8-1.9l2,2.1C156.9,67.2,155.2,68.4,152.4,68.4z"/>
</g>
</svg>
