<?xml version="1.0" encoding="utf-8"?>
<!-- Generator: Adobe Illustrator 18.1.1, SVG Export Plug-In . SVG Version: 6.00 Build 0)  -->
<svg version="1.1" id="Layer_1" xmlns="http://www.w3.org/2000/svg" xmlns:xlink="http://www.w3.org/1999/xlink" x="0px" y="0px"
	 viewBox="0 0 50 50" enable-background="new 0 0 50 50" xml:space="preserve">
<path fill="#33CCFF" d="M25,0.3C11.5,0.3,0.5,11.4,0.5,25s11,24.7,24.5,24.7c13.5,0,24.5-11.1,24.5-24.7S38.5,0.3,25,0.3z"/>
<path fill="#231F20" d="M25,5.2C14.2,5.2,5.3,14.1,5.3,25c0,11,8.8,19.9,19.7,19.9c10.8,0,19.7-8.9,19.7-19.9
	C44.7,14.1,35.8,5.2,25,5.2z M25,9.5c8.5,0,15.4,7.1,15.4,15.7c0,2.1-0.3,3.8-1.1,6l-2,0v-6.4V24c0-0.5-0.1-1-0.2-1.4
	c-0.1-1.4-0.4-2.6-1-3.4c-1.7-2.4-5.2-2.6-7.6-1.4c-0.7,0.4-1.3,0.8-1.9,1.4c-0.9-1.4-1.9-2.1-4-2.1c-1.9,0-3.2,0.6-4.2,1.7v-2h-5
	v14h-2.6c-0.7-2-1.1-3.7-1.1-5.8C9.6,16.4,16.5,9.5,25,9.5z M23.3,30.7h-5v-5.3v-2.1c0-1.1,1.2-2.5,2.6-2.5c2.3,0,2.4,1.6,2.4,4.5
	V30.7z M32.3,30.7h-5v-5.9c0-0.5,0-1.7,0-2.4c1-0.7,2.3-1.6,2.5-1.6c2.3,0,2.5,1.6,2.5,4.5C32.3,25.3,32.3,28.7,32.3,30.7z M25,41.1
	c-4.7,0-8.8-2.4-11.7-5.4h23.3C33.8,38.7,29.7,41.1,25,41.1z"/>
</svg>
