<?xml version="1.0" encoding="utf-8"?>
<!-- Generator: Adobe Illustrator 18.1.1, SVG Export Plug-In . SVG Version: 6.00 Build 0)  -->
<svg version="1.1" id="Layer_1" xmlns="http://www.w3.org/2000/svg" xmlns:xlink="http://www.w3.org/1999/xlink" x="0px" y="0px"
	 width="50px" height="50px" viewBox="0 0 50 50" enable-background="new 0 0 50 50" xml:space="preserve">
<g>
	<path fill="#F2F2F2" d="M42.3,19h-6c0-6-4.5-9.9-9.9-9.9c-5.6,0-9.8,3.9-9.9,9.9h-6C9.9,19,9,19.6,9,20.1V41c0,0.6,0.9,1,1.5,1
		h31.8c0.6,0,0.7-0.4,0.7-1V20.1C43,19.6,42.9,19,42.3,19z M26.4,11.1c4.3,0,7.8,3.9,7.9,7.9h-1.2c-0.1-4-3.1-6.5-6.7-6.5
		c-3.9,0-6.6,2.5-6.7,6.5h-1.2C18.6,14,21.9,11.1,26.4,11.1z M31.1,19h-9.3c0.1-3,2.4-4.5,4.7-4.5C28.9,14.5,31,16,31.1,19z M41,21
		v4.1L25.8,32L11,25.1V21H41z M11,40V27.3L25.6,34c0.1,0.1,0.4,0.1,0.5,0.1c0.1,0,0.2,0,0.3-0.1L41,27.3V40H11z"/>
</g>
</svg>
