<?xml version="1.0" encoding="utf-8"?>
<!-- Generator: Adobe Illustrator 18.1.1, SVG Export Plug-In . SVG Version: 6.00 Build 0)  -->
<svg version="1.1" id="Layer_1" xmlns="http://www.w3.org/2000/svg" xmlns:xlink="http://www.w3.org/1999/xlink" x="0px" y="0px"
	 width="50px" height="50px" viewBox="0 0 50 50" enable-background="new 0 0 50 50" xml:space="preserve">
<path fill="#F15A24" d="M44,14c0-1.1-0.9-2-2-2H8c-1.1,0-2,0.9-2,2v23c0,1.1,0.9,2,2,2h34c1.1,0,2-0.9,2-2V14z M42,14L25.2,28.5
	L8.3,14H42z M8,37V16.1l15.7,13.4c0.4,0.3,0.9,0.5,1.4,0.5s1-0.2,1.3-0.5L42,16.1V37H8z"/>
</svg>
