<?xml version="1.0" encoding="utf-8"?>
<!-- Generator: Adobe Illustrator 18.1.1, SVG Export Plug-In . SVG Version: 6.00 Build 0)  -->
<svg version="1.1" id="Layer_1" xmlns="http://www.w3.org/2000/svg" xmlns:xlink="http://www.w3.org/1999/xlink" x="0px" y="0px"
	 width="50px" height="50px" viewBox="0 0 50 50" enable-background="new 0 0 50 50" xml:space="preserve">
<g>
	<path fill="#F2F2F2" d="M15.8,37.6c-2.1,0-3.7-1.7-3.7-3.7s1.7-3.7,3.7-3.7s3.7,1.7,3.7,3.7S17.8,37.6,15.8,37.6z M15.8,32.1
		c-1,0-1.7,0.8-1.7,1.7c0,1,0.8,1.7,1.7,1.7s1.7-0.8,1.7-1.7C17.5,32.9,16.7,32.1,15.8,32.1z"/>
	<path fill="#F2F2F2" d="M45,31.3v-9.6c0-0.6-0.9-0.7-1.5-0.7H29V7.5c0-0.6-0.7-1-1.2-1C17.2,6.5,8.2,12.7,8,21c0,0,0,0.9,0,0.9v8
		c-0.6,1.2-0.9,2.5-0.9,3.9c0,4.8,3.7,8.7,8.5,8.7c4.4,0,8.6-3.6,8.8-7.5c0,0,0.2,0,0.2,0H28c0,0,0,0,0,0c1,4.3,4.2,7.5,8.6,7.5
		c4.8,0,8.7-3.9,8.7-8.7C45.4,33,45.2,32.1,45,31.3z M44.7,30.4C44.6,30.3,44.6,30.3,44.7,30.4C44.6,30.3,44.6,30.3,44.7,30.4z
		 M44.2,29.5c0,0,0-0.1-0.1-0.1C44.2,29.4,44.2,29.5,44.2,29.5z M43.7,28.7C43.6,28.6,43.6,28.6,43.7,28.7
		C43.6,28.6,43.6,28.6,43.7,28.7z M27,8.5V21H10.2C11,14,18,8.9,27,8.5z M15.8,40.5c-3.7,0-6.7-3-6.7-6.7c0-3.7,3-6.7,6.7-6.7
		s6.7,3,6.7,6.7C22.5,37.5,19.5,40.5,15.8,40.5z M24.4,33c0,0.3,0,0.6,0,0.8c0-4.8-3.9-8.7-8.7-8.7c-2.2,0-4.2,0.8-5.8,2.2V23h17.6
		H43v4.9c-1.6-1.7-3.8-2.7-6.3-2.7c-4.8,0-8.7,3.9-8.7,8.7c0-0.3,0-0.6,0-0.8H24.4z M36.7,40.5c-3.7,0-6.7-3-6.7-6.7
		c0-3.7,3-6.7,6.7-6.7s6.7,3,6.7,6.7C43.4,37.5,40.4,40.5,36.7,40.5z"/>
	<path fill="#F2F2F2" d="M36.7,37.6c-2.1,0-3.7-1.7-3.7-3.7s1.7-3.7,3.7-3.7s3.7,1.7,3.7,3.7S38.7,37.6,36.7,37.6z M36.7,32.1
		c-1,0-1.7,0.8-1.7,1.7c0,1,0.8,1.7,1.7,1.7s1.7-0.8,1.7-1.7C38.4,32.9,37.6,32.1,36.7,32.1z"/>
</g>
</svg>
