<?xml version="1.0" encoding="utf-8"?>
<!-- Generator: Adobe Illustrator 18.1.1, SVG Export Plug-In . SVG Version: 6.00 Build 0)  -->
<svg version="1.1" id="Layer_1" xmlns="http://www.w3.org/2000/svg" xmlns:xlink="http://www.w3.org/1999/xlink" x="0px" y="0px"
	 width="50px" height="50px" viewBox="0 0 50 50" enable-background="new 0 0 50 50" xml:space="preserve">
<path fill="#B2B2B2" d="M41,10.5C41,9.1,40.6,8,39.4,8H10.1C8.9,8,8,9.1,8,10.5v29c0,1.4,0.9,2.5,2.1,2.5h29.3
	c1.2,0,1.6-1.1,1.6-2.5V10.5z M39.2,41H10c-0.7,0-1-0.8-1-1.6V16h31v23.4C40,40.2,39.9,41,39.2,41z"/>
<g>
	<path fill="#333333" d="M12.7,25.8v-1.8h6.6v1.6l-2.5,2.4c1.3,0.2,2.6,0.9,2.6,2.8c0,1.9-1.3,3.2-3.5,3.2c-1.8,0-3-0.7-3.8-1.7
		l1.5-1.4C14.3,31.6,15,32,16,32c0.8,0,1.4-0.5,1.4-1.2c0-0.8-0.7-1.3-1.9-1.3h-0.9l-0.3-1.4l2.3-2.4H12.7z"/>
	<path fill="#333333" d="M25.4,33.9c-2.6,0-4.3-2.2-4.3-5.1c0-2.9,1.8-5.1,4.4-5.1s4.3,2.2,4.3,5.1S28,33.9,25.4,33.9z M25.4,25.7
		c-1.3,0-2.1,1.3-2.1,3.1c0,1.8,0.9,3.1,2.2,3.1c1.3,0,2.1-1.3,2.1-3.1S26.7,25.7,25.4,25.7z"/>
	<path fill="#333333" d="M34,25.3h2v2.5h2.5v1.9H36v2.5h-2v-2.5h-2.5v-1.9H34V25.3z"/>
</g>
</svg>
