<?xml version="1.0" encoding="utf-8"?>
<!-- Generator: Adobe Illustrator 18.1.1, SVG Export Plug-In . SVG Version: 6.00 Build 0)  -->
<svg version="1.1" id="Layer_1" xmlns="http://www.w3.org/2000/svg" xmlns:xlink="http://www.w3.org/1999/xlink" x="0px" y="0px"
	 width="50px" height="50px" viewBox="0 0 50 50" enable-background="new 0 0 50 50" xml:space="preserve">
<g>
	<path fill="#F2F2F2" d="M21.9,17.9c0,0,0.1-0.1,0.1-0.1v-3.9c0-0.6-0.6-0.9-1.2-0.9H17V9h2c0.6,0,1-0.4,1-1s-0.4-1-1-1h-5.4
		c-0.2,0-0.3,0-0.5,0.1l-2.6,1.5C9.9,8.9,9.8,9.5,10,10c0.2,0.3,0.5,0.5,0.9,0.5c0.2,0,0.3,0,0.5-0.1L13.8,9H15v4h-4.4
		c-0.6,0-0.6,0.4-0.6,0.9v3.8L6.5,21C6.3,21.1,6,21.4,6,21.7V43c0,0.6,0.4,1,1,1h17c0.6,0,1-0.4,1-1V21.7c0-0.3-0.1-0.5-0.2-0.7
		L21.9,17.9z M12,15h8v2h-8V15z M23,42H8V22.1l3.2-3.1H20l3,3.1V42z"/>
	<polygon fill="#F2F2F2" points="17,26 15,26 15,28 12,28 12,30 15,30 15,33 17,33 17,30 19,30 19,28 17,28 	"/>
	<path fill="#F2F2F2" d="M46,20H35c-0.6,0-1,0.4-1,1v2.6c0,0.1,0,0.1,0,0.2l3,16.4c0.1,0.4-0.1,0.7,0.9,0.8v2.5
		c0,0.6,0.1,0.6,0.7,0.6h4.6c0.6,0,0.7,0,0.7-0.6V41c1-0.1,0.8-0.4,0.9-0.8l2-16.4c0,0,0.1-0.1,0.1-0.1V21C47,20.4,46.6,20,46,20z
		 M42,42h-2v-1h2V42z M45,23.5L43.1,39h-4.4L36,23.5V22h9V23.5z"/>
</g>
</svg>
