<?xml version="1.0" encoding="utf-8"?>
<!-- Generator: Adobe Illustrator 18.1.1, SVG Export Plug-In . SVG Version: 6.00 Build 0)  -->
<svg version="1.1" id="Layer_1" xmlns="http://www.w3.org/2000/svg" xmlns:xlink="http://www.w3.org/1999/xlink" x="0px" y="0px"
	 width="50px" height="50px" viewBox="0 0 50 50" enable-background="new 0 0 50 50" xml:space="preserve">
<path fill="#B2B2B2" d="M25.4,7.5c-9.8,0-17.7,7.9-17.7,17.7c0,9.8,7.9,17.7,17.7,17.7S43.1,35,43.1,25.2
	C43.1,15.5,35.2,7.5,25.4,7.5z M37.7,35.2l-2.4-2.5L33.9,34l2.2,2.4C33.6,39,30,40.6,26,40.9V38h-2v2.9c-3-0.2-6-1.4-8.5-3.3
	l2.7-2.6l-1.4-1.4l-2.7,2.7c-2.2-2.2-3.7-5.1-4.3-8.3H13v-2H9.7c0-0.3,0-0.5,0-0.8c0-3.7,1.3-7.2,3.5-9.9l2.7,2.7l1.4-1.4l-2.8-2.8
	c2.3-2.2,5.2-3.7,8.4-4.2V14h2V9.5c0.1,0,0.3,0,0.4,0c3.8,0,7.2,1.3,10,3.6l-2.5,2.5l1.4,1.4l2.5-2.3c2.5,2.7,4.1,6.3,4.3,10.3H37v2
	h4.1C40.8,30,39.6,32.8,37.7,35.2z"/>
<path fill="#333333" d="M25.4,27.6c-0.2,0-0.3,0-0.5-0.1l-10.3-6.1l1-1.7l9.5,5.6l4.5-6.3l1.6,1.2l-5.1,7.1
	C26,27.5,25.7,27.6,25.4,27.6z"/>
</svg>
