<?xml version="1.0" encoding="utf-8"?>
<!-- Generator: Adobe Illustrator 18.1.1, SVG Export Plug-In . SVG Version: 6.00 Build 0)  -->
<svg version="1.1" id="Layer_1" xmlns="http://www.w3.org/2000/svg" xmlns:xlink="http://www.w3.org/1999/xlink" x="0px" y="0px"
	 width="50px" height="50px" viewBox="0 0 50 50" enable-background="new 0 0 50 50" xml:space="preserve">
<path fill="#333333" d="M37.1,48.4H12.9c-6.4,0-11.7-5.2-11.7-11.7V12.6c0-6.4,5.2-11.7,11.7-11.7h24.1c6.4,0,11.7,5.2,11.7,11.7
	v24.1C48.8,43.2,43.5,48.4,37.1,48.4z"/>
<path fill="#B2B2B2" d="M41,10.3C41,9,40.6,8,39.4,8H10.1C8.9,8,8,9,8,10.3v29c0,1.4,0.9,2.7,2.1,2.7h29.3c1.2,0,1.6-1.3,1.6-2.7
	V10.3z M39.4,41H10.2C9.5,41,9,40,9,39.2V16h31v23.2C40,40,40.2,41,39.4,41z"/>
<g>
	<path fill="#FFFFFF" d="M25.3,20.6h2.4v15.9h-3.4V24.1l-2.7,0.7l-0.7-2.8L25.3,20.6z"/>
</g>
</svg>
