<?xml version="1.0" encoding="utf-8"?>
<!-- Generator: Adobe Illustrator 18.1.1, SVG Export Plug-In . SVG Version: 6.00 Build 0)  -->
<svg version="1.1" id="Layer_1" xmlns="http://www.w3.org/2000/svg" xmlns:xlink="http://www.w3.org/1999/xlink" x="0px" y="0px"
	 width="50px" height="50px" viewBox="0 0 50 50" enable-background="new 0 0 50 50" xml:space="preserve">
<path fill="#F15A24" d="M33.3,25.8c1.8-2,2.8-4.6,2.8-7.4c0-6.1-5-11.1-11.1-11.1s-11.1,5-11.1,11.1c0,2.8,1.1,5.4,2.8,7.4
	c-5.6,3-9.6,9.3-9.6,16c0,0.6,0.4,1.2,1,1.2h33.7c0.6,0,1-0.7,1-1.2C42.9,35,38.9,28.8,33.3,25.8z M25,9.3c5,0,9.1,4.1,9.1,9.1
	S30,27.5,25,27.5c-5,0-9.1-4.1-9.1-9.1S20,9.3,25,9.3z M9.2,41c0.4-6,4.1-11.1,9.1-13.6c1.9,1.4,4.2,2.1,6.7,2.1
	c2.5,0,4.9-0.7,6.7-2.1c5.1,2.4,8.7,7.5,9.1,13.5H9.2z"/>
</svg>
