<?xml version="1.0" encoding="utf-8"?>
<!-- Generator: Adobe Illustrator 18.1.1, SVG Export Plug-In . SVG Version: 6.00 Build 0)  -->
<svg version="1.1" id="Layer_1" xmlns="http://www.w3.org/2000/svg" xmlns:xlink="http://www.w3.org/1999/xlink" x="0px" y="0px"
	 width="50px" height="50px" viewBox="0 0 50 50" enable-background="new 0 0 50 50" xml:space="preserve">
<g>
	<path fill="#F2F2F2" d="M18.8,10H8.4C5.7,10,3,12.5,3,15.2v0.5v20.6v3C3,42.1,5.7,44,8.4,44h10.4c2.8,0,5.2-1.9,5.2-4.7v-3V15.7
		v-0.5C24,12.5,21.5,10,18.8,10z M5,17h17v18H5V17z M8.4,12h10.4c1.5,0,2.7,1,2.9,3H5.5C5.7,13,6.9,12,8.4,12z M18.8,42H8.4
		C6.8,42,5,41,5,39.3V37h17v2.3C22,41,20.4,42,18.8,42z"/>
	<path fill="#F2F2F2" d="M13.5,37.5c-1.1,0-2.1,0.9-2.1,2.1s0.9,2.1,2.1,2.1s2.1-0.9,2.1-2.1S14.6,37.5,13.5,37.5z M13.5,40.6
		c-0.6,0-1.1-0.5-1.1-1.1s0.5-1.1,1.1-1.1s1.1,0.5,1.1,1.1S14.1,40.6,13.5,40.6z"/>
	<path fill="#F2F2F2" d="M47,27.7c-0.6-0.5-1.3-0.8-2.1-0.9c0-0.3,0-0.5,0-0.8c0-0.6-0.4-1-1-1H27.5c-0.6,0-1,0.4-1,1
		c0,9.1,3.1,13.7,9.3,13.7c3.8,0,6.4-1.7,7.9-5.1c0.2,0,0.4,0,0.6,0c0.1,0,0.2,0,0.2,0c1.1-0.1,2.1-0.5,2.9-1.3
		c0.8-0.8,1.2-1.8,1.1-2.9C48.4,29.4,47.9,28.4,47,27.7z M35.7,37.7c-4.7,0-7.1-3.4-7.2-10.7H43C42.8,34.3,40.5,37.7,35.7,37.7z
		 M45.9,31.9c-0.4,0.4-1,0.6-1.6,0.7c0,0-0.1,0-0.1,0c0.3-1.1,0.5-2.4,0.6-3.7c0.3,0.1,0.6,0.2,0.9,0.4c0.4,0.3,0.7,0.8,0.7,1.3
		C46.5,31,46.3,31.5,45.9,31.9z"/>
	<path fill="#F2F2F2" d="M43,40H29c-0.6,0-1,0.4-1,1s0.4,1,1,1h14c0.6,0,1-0.4,1-1S43.6,40,43,40z"/>
</g>
</svg>
