<?xml version="1.0" encoding="utf-8"?>
<!-- Generator: Adobe Illustrator 18.1.1, SVG Export Plug-In . SVG Version: 6.00 Build 0)  -->
<svg version="1.1" id="Layer_1" xmlns="http://www.w3.org/2000/svg" xmlns:xlink="http://www.w3.org/1999/xlink" x="0px" y="0px"
	 width="50px" height="50px" viewBox="0 0 50 50" enable-background="new 0 0 50 50" xml:space="preserve">
<path fill="#B2B2B2" d="M42,10.5C42,9.1,41.1,8,39.9,8H10.6C9.4,8,8,9.1,8,10.5v29c0,1.4,1.4,2.5,2.6,2.5h29.3
	c1.2,0,2.1-1.1,2.1-2.5V10.5z M39.8,41H10.6C9.9,41,9,40.2,9,39.4V16h32v23.4C41,40.2,40.5,41,39.8,41z"/>
<g>
	<path fill="#333333" d="M19.6,21h11.3v2.6l-7.1,13.1h-3.9L27,24h-7.4V21z"/>
</g>
</svg>
